<svg width="695" height="570" viewBox="0 0 695 570" fill="none" xmlns="http://www.w3.org/2000/svg">
<path d="M125.537 436.538C125.516 435.895 123.351 372.003 112.959 361.897C102.851 352.071 91.2494 361.532 90.7618 361.938L89.7197 360.69C89.8509 360.579 102.944 349.892 114.093 360.731C124.952 371.291 127.077 433.83 127.162 436.487L125.537 436.538Z" fill="#8C5200" fill-opacity="0.5"/>
<path d="M126.429 449.095C126.354 448.331 119.326 372.392 147.059 340.564L148.285 341.632C121.013 372.932 127.975 448.18 128.048 448.936L126.429 449.095Z" fill="#8C5200" fill-opacity="0.5"/>
<path d="M125.403 441.062L123.78 440.954C123.837 440.093 129.208 354.622 108.865 335.912L109.966 334.714C130.879 353.95 125.637 437.514 125.403 441.062Z" fill="#8C5200" fill-opacity="0.5"/>
<path d="M128.051 441.015L126.425 441.002C126.445 438.648 127.096 383.27 142.826 374.256C146.323 372.249 149.747 371.916 153.004 373.263C162.516 377.197 167.229 394.125 167.426 394.843L165.856 395.272C165.81 395.104 161.156 378.393 152.381 374.765C149.614 373.623 146.673 373.925 143.635 375.666C128.708 384.22 128.056 440.447 128.051 441.015Z" fill="#8C5200" fill-opacity="0.5"/>
<path d="M121.926 441.054L120.302 440.962C120.327 440.525 122.676 397.201 110.983 381.935C108.15 378.238 105.075 376.474 101.826 376.702C94.1646 377.237 87.74 388.448 87.6766 388.561L86.2598 387.76C86.5383 387.268 93.1759 375.677 101.709 375.08C105.528 374.808 109.086 376.786 112.274 380.948C124.334 396.691 122.03 439.251 121.926 441.054Z" fill="#8C5200" fill-opacity="0.5"/>
<path d="M124.489 446.947C124.171 442.744 116.846 343.819 129.734 326.388L131.042 327.354C118.509 344.304 126.034 445.801 126.111 446.824L124.489 446.947Z" fill="#8C5200" fill-opacity="0.5"/>
<path d="M156.509 383.289C156.509 383.289 148.777 386.139 151.075 392.868C153.374 399.598 177.824 410.673 177.824 410.673C177.824 410.673 188.063 401.288 178.66 386.024C169.256 370.76 156.718 378.473 156.509 383.289Z" fill="#1F820E" fill-opacity="0.5"/>
<path d="M122.896 370.478C122.896 370.478 131.129 370.133 131.597 377.229C132.065 384.325 113.76 403.956 113.76 403.956C113.76 403.956 100.698 399.234 103.503 381.527C106.309 363.819 120.85 366.113 122.896 370.478Z" fill="#1F820E" fill-opacity="0.5"/>
<path d="M115.926 336.511C115.926 336.511 121.415 335.922 120.973 332.578C120.531 329.235 99.6341 320.629 87.3047 334.545C87.3047 334.545 95.1995 348.106 106.612 348.283C118.024 348.46 115.926 336.511 115.926 336.511Z" fill="#1F820E" fill-opacity="0.5"/>
<path d="M126.154 328.392C126.154 328.392 121.184 330.795 119.79 327.723C118.397 324.652 131.581 306.296 149.404 311.585C149.404 311.585 149.876 327.27 140.285 333.456C130.694 339.642 126.154 328.392 126.154 328.392Z" fill="#1F820E" fill-opacity="0.5"/>
<path d="M100.165 380.584C100.165 380.584 103.953 377.525 99.8644 376.031C95.776 374.538 75.7146 374.963 75.5059 394.835C75.5059 394.835 98.8708 398.718 101.763 391.148C104.655 383.579 100.165 380.584 100.165 380.584Z" fill="#1F820E" fill-opacity="0.5"/>
<path d="M147.81 336.013C147.81 336.013 144.022 332.954 148.11 331.461C152.199 329.968 172.26 330.392 172.469 350.264C172.469 350.264 149.104 354.147 146.212 346.578C143.32 339.008 147.81 336.013 147.81 336.013Z" fill="#1F820E" fill-opacity="0.5"/>
<path d="M135.458 352.021C135.458 352.021 135.124 348.303 138.126 349.76C141.128 351.218 151.586 362.5 140.746 373.207C140.746 373.207 126.153 362.399 128.783 356.771C131.414 351.142 135.458 352.021 135.458 352.021Z" fill="#1F820E" fill-opacity="0.5"/>
<path d="M96.7773 357.32C96.7773 357.32 99.0418 354.352 95.7253 353.984C92.4086 353.617 77.5448 357.584 81.0063 372.422C81.0063 372.422 99.1145 371.061 99.8906 364.897C100.667 358.733 96.7773 357.32 96.7773 357.32Z" fill="#1F820E" fill-opacity="0.5"/>
<path d="M143.274 469.678H106.748L97.0332 424.866H152.067L143.274 469.678Z" fill="#6D7D85"/>
<path d="M155.237 424.217H93.7197V437.104H155.237V424.217Z" fill="#6D7D85"/>
<path d="M617.05 382.539H365.813C361.32 382.539 357.664 378.884 357.664 374.39V8.44038C357.664 3.94734 361.32 0.29248 365.813 0.29248H617.05C621.543 0.29248 625.198 3.94734 625.198 8.44038V374.39C625.198 378.884 621.543 382.539 617.05 382.539ZM365.813 0.63998C361.511 0.63998 358.012 4.13944 358.012 8.44038V374.39C358.012 378.692 361.511 382.192 365.813 382.192H617.05C621.351 382.192 624.851 378.692 624.851 374.39V8.44038C624.851 4.13944 621.351 0.63998 617.05 0.63998H365.813Z" fill="#E0E0E0"/>
<path d="M327.335 382.539H76.0971C71.6041 382.539 67.9492 378.884 67.9492 374.39V8.44038C67.9492 3.94734 71.6041 0.29248 76.0971 0.29248H327.335C331.828 0.29248 335.483 3.94734 335.483 8.44038V374.39C335.483 378.884 331.828 382.539 327.335 382.539ZM76.0971 0.63998C71.7962 0.63998 68.2967 4.13944 68.2967 8.44038V374.39C68.2967 378.692 71.7962 382.192 76.0971 382.192H327.335C331.637 382.192 335.136 378.692 335.136 374.39V8.44038C335.136 4.13944 331.637 0.63998 327.335 0.63998H76.0971Z" fill="#E0E0E0"/>
<path d="M695 467.426H0V467.773H695V467.426Z" fill="#E0E0E0"/>
<path d="M94.1476 487.253H71.8242V487.601H94.1476V487.253Z" fill="#E0E0E0"/>
<path d="M311.197 483.486H236.79V483.834H311.197V483.486Z" fill="#E0E0E0"/>
<path d="M145.926 500.167H95.5381V500.514H145.926V500.167Z" fill="#E0E0E0"/>
<path d="M585.944 483.306H525.91V483.653H585.944V483.306Z" fill="#E0E0E0"/>
<path d="M607.128 483.306H598.329V483.653H607.128V483.306Z" fill="#E0E0E0"/>
<path d="M514.442 491.965H439.535V492.313H514.442V491.965Z" fill="#E0E0E0"/>
<path d="M103.832 204.081C103.34 201.709 102.4 199.503 101.114 197.544L103.455 194.717L98.451 189.713L95.6236 192.053C93.6647 190.768 91.459 189.828 89.087 189.336L88.7438 185.692H81.667L81.3236 189.336C78.9515 189.828 76.7457 190.768 74.7872 192.053L71.96 189.713L66.9558 194.717L69.2962 197.544C68.0107 199.503 67.0708 201.709 66.5787 204.081L62.9346 204.425V211.501L66.5787 211.844C67.0708 214.217 68.0107 216.422 69.2962 218.381L66.9558 221.208L71.96 226.212L74.7872 223.871C76.7457 225.157 78.9515 226.097 81.3236 226.589L81.667 230.233H88.7438L89.087 226.589C91.459 226.098 93.6647 225.157 95.6236 223.871L98.451 226.212L103.455 221.208L101.114 218.381C102.4 216.422 103.34 214.217 103.832 211.844L107.476 211.501V204.425L103.832 204.081ZM94.7856 207.963C94.7856 213.254 90.4965 217.543 85.2053 217.543C79.9141 217.543 75.6251 213.254 75.6251 207.963C75.6251 202.672 79.9143 198.382 85.2053 198.382C90.4963 198.382 94.7856 202.672 94.7856 207.963Z" fill="#EBEBEB"/>
<path d="M475.762 189.55C475.27 187.178 474.33 184.972 473.044 183.014L475.385 180.186L470.381 175.182L467.553 177.522C465.594 176.237 463.389 175.297 461.017 174.805L460.674 171.161H453.597L453.253 174.805C450.881 175.297 448.676 176.237 446.717 177.522L443.89 175.182L438.885 180.186L441.226 183.014C439.94 184.972 439 187.178 438.508 189.55L434.864 189.894V196.97L438.508 197.314C439 199.686 439.94 201.891 441.226 203.85L438.885 206.677L443.89 211.681L446.717 209.341C448.676 210.627 450.881 211.566 453.253 212.058L453.597 215.702H460.674L461.017 212.059C463.389 211.567 465.594 210.627 467.553 209.341L470.381 211.681L475.385 206.677L473.044 203.85C474.33 201.891 475.27 199.686 475.762 197.314L479.405 196.97V189.894L475.762 189.55ZM466.715 193.432C466.715 198.723 462.426 203.012 457.135 203.012C451.844 203.012 447.555 198.723 447.555 193.432C447.555 188.141 451.844 183.852 457.135 183.852C462.426 183.852 466.715 188.141 466.715 193.432Z" fill="#EBEBEB"/>
<path d="M489.804 343.497C489.313 341.124 488.373 338.919 487.087 336.96L489.428 334.133L484.424 329.128L481.596 331.469C479.637 330.184 477.432 329.243 475.06 328.751L474.716 325.107H467.64L467.296 328.751C464.924 329.243 462.718 330.184 460.76 331.469L457.933 329.128L452.928 334.133L455.269 336.96C453.983 338.919 453.043 341.124 452.551 343.497L448.907 343.84V350.916L452.551 351.26C453.043 353.632 453.983 355.837 455.269 357.796L452.928 360.623L457.933 365.628L460.76 363.287C462.718 364.573 464.924 365.513 467.296 366.004L467.64 369.649H474.716L475.06 366.005C477.432 365.513 479.637 364.573 481.596 363.287L484.424 365.628L489.428 360.623L487.087 357.796C488.373 355.837 489.313 353.632 489.804 351.26L493.448 350.916V343.84L489.804 343.497ZM480.758 347.378C480.758 352.669 476.469 356.958 471.178 356.958C465.887 356.958 461.598 352.669 461.598 347.378C461.598 342.087 465.887 337.798 471.178 337.798C476.469 337.798 480.758 342.087 480.758 347.378Z" fill="#EBEBEB"/>
<path d="M324.295 60.4597C323.833 58.2332 322.951 56.1632 321.745 54.3248L323.941 51.6715L319.245 46.9749L316.591 49.1714C314.753 47.9653 312.683 47.0827 310.457 46.6211L310.135 43.2012H303.493L303.17 46.6211C300.944 47.0829 298.874 47.9653 297.036 49.1714L294.383 46.9749L289.686 51.6715L291.883 54.3249C290.676 56.1632 289.794 58.2332 289.332 60.4597L285.912 60.782V67.4233L289.332 67.7458C289.794 69.972 290.676 72.0416 291.883 73.8801L289.686 76.5336L294.383 81.2302L297.036 79.0331C298.874 80.2401 300.944 81.122 303.17 81.5838L303.493 85.0038H310.135L310.457 81.5841C312.683 81.1226 314.753 80.2401 316.591 79.0331L319.245 81.2302L323.941 76.5336L321.745 73.8804C322.951 72.0416 323.833 69.972 324.295 67.7458L327.715 67.4233V60.782L324.295 60.4597ZM315.805 64.1026C315.805 69.0681 311.779 73.0937 306.814 73.0937C301.848 73.0937 297.822 69.0681 297.822 64.1026C297.822 59.1368 301.848 55.1114 306.814 55.1114C311.779 55.1114 315.805 59.1368 315.805 64.1026Z" fill="#EBEBEB"/>
<path d="M641.137 235.509C644.963 233.284 647.542 229.15 647.542 224.405C647.542 217.308 641.789 211.555 634.693 211.555C627.596 211.555 621.843 217.308 621.843 224.405C621.843 229.155 624.427 233.292 628.259 235.516C612.491 239.307 611.52 256.75 611.52 256.75L657.865 256.482C657.865 256.482 656.894 239.26 641.137 235.509Z" fill="#EBEBEB"/>
<path d="M493.501 87.9407C493.501 87.9407 542.615 37.8516 591.728 88.4403C591.728 88.4403 545.701 149.014 493.501 87.9407Z" fill="#F5F5F5"/>
<path d="M542.614 108.316C552.443 108.316 560.41 100.349 560.41 90.5202C560.41 80.6917 552.443 72.7241 542.614 72.7241C532.786 72.7241 524.818 80.6917 524.818 90.5202C524.818 100.349 532.786 108.316 542.614 108.316Z" fill="#EBEBEB"/>
<path d="M542.615 97.6301C546.541 97.6301 549.724 94.4469 549.724 90.5204C549.724 86.5938 546.541 83.4106 542.615 83.4106C538.688 83.4106 535.505 86.5938 535.505 90.5204C535.505 94.4469 538.688 97.6301 542.615 97.6301Z" fill="#E0E0E0"/>
<path d="M270.239 406.769C268.452 406.769 266.892 406.165 265.559 404.958C264.226 403.751 263.56 402.064 263.56 399.893C263.56 397.968 264.204 396.349 265.493 395.035C266.782 393.722 268.364 393.064 270.239 393.064C272.084 393.064 273.637 393.722 274.896 395.035C276.156 396.349 276.786 397.968 276.786 399.893C276.786 402.032 276.127 403.714 274.808 404.935C273.49 406.157 271.967 406.769 270.239 406.769Z" fill="#E6E6E6"/>
<path d="M249.658 358.304C249.658 355.477 250.528 352.613 252.269 349.711C254.009 346.809 256.548 344.406 259.886 342.502C263.224 340.598 267.118 339.645 271.569 339.645C275.705 339.645 279.357 340.442 282.524 342.033C285.69 343.625 288.137 345.79 289.863 348.528C291.589 351.267 292.452 354.242 292.452 357.456C292.452 359.985 291.96 362.203 290.976 364.107C289.991 366.012 288.822 367.656 287.466 369.04C286.111 370.424 283.679 372.752 280.17 376.026C279.2 376.948 278.423 377.76 277.838 378.459C277.253 379.158 276.818 379.798 276.533 380.378C276.247 380.958 276.026 381.539 275.869 382.119C275.713 382.699 275.477 383.719 275.163 385.177C274.621 388.272 272.924 389.819 270.071 389.819C268.587 389.819 267.339 389.313 266.326 388.302C265.314 387.29 264.807 385.787 264.807 383.793C264.807 381.293 265.178 379.128 265.92 377.298C266.662 375.468 267.646 373.861 268.873 372.477C270.099 371.093 271.754 369.449 273.837 367.544C275.663 365.878 276.982 364.621 277.795 363.772C278.608 362.924 279.293 361.98 279.849 360.938C280.406 359.896 280.684 358.766 280.684 357.545C280.684 355.165 279.835 353.156 278.138 351.519C276.44 349.883 274.25 349.064 271.569 349.064C268.43 349.064 266.12 349.89 264.636 351.541C263.152 353.193 261.897 355.626 260.87 358.84C259.9 362.203 258.06 363.884 255.35 363.884C253.752 363.884 252.404 363.297 251.306 362.121C250.207 360.945 249.658 359.673 249.658 358.304Z" fill="#E6E6E6"/>
<path d="M264.959 290.57H241.399C236.085 290.57 231.776 286.262 231.776 280.947C231.776 275.633 236.085 271.325 241.399 271.325H264.959C270.273 271.325 274.581 275.633 274.581 280.947C274.581 286.262 270.273 290.57 264.959 290.57Z" fill="#EBEBEB"/>
<path d="M264.569 290.96C270.098 290.96 274.581 286.477 274.581 280.947C274.581 275.418 270.098 270.935 264.569 270.935C259.039 270.935 254.556 275.418 254.556 280.947C254.556 286.477 259.039 290.96 264.569 290.96Z" fill="#E0E0E0"/>
<path d="M95.2994 57.2491C94.0555 57.2491 92.9698 56.8291 92.0421 55.9889C91.1144 55.1487 90.6504 53.9741 90.6504 52.4635C90.6504 51.1235 91.0989 49.9964 91.9962 49.0818C92.8933 48.1677 93.9943 47.71 95.2994 47.71C96.5839 47.71 97.6645 48.1677 98.5413 49.0818C99.4181 49.9964 99.8564 51.1235 99.8564 52.4635C99.8564 53.9523 99.3977 55.1226 98.4801 55.973C97.5626 56.8232 96.5023 57.2491 95.2994 57.2491Z" fill="#E6E6E6"/>
<path d="M80.9746 23.5154C80.9746 21.5476 81.5802 19.5539 82.7916 17.5343C84.0029 15.5147 85.7703 13.842 88.0936 12.5164C90.4169 11.191 93.1275 10.5278 96.2253 10.5278C99.1047 10.5278 101.646 11.0823 103.851 12.1901C106.055 13.2982 107.758 14.8053 108.959 16.711C110.16 18.6171 110.761 20.688 110.761 22.9251C110.761 24.6858 110.419 26.2294 109.734 27.5548C109.048 28.8804 108.234 30.0248 107.291 30.9881C106.348 31.9512 104.655 33.5721 102.212 35.8507C101.537 36.4928 100.996 37.0577 100.589 37.544C100.182 38.0308 99.8792 38.4761 99.6805 38.8801C99.482 39.284 99.328 39.688 99.2189 40.0919C99.1097 40.4958 98.9458 41.2057 98.7274 42.2203C98.35 44.375 97.1685 45.4516 95.1828 45.4516C94.1501 45.4516 93.2814 45.0995 92.5765 44.3952C91.8715 43.6914 91.519 42.6449 91.519 41.2571C91.519 39.5171 91.7771 38.0101 92.2935 36.7363C92.8098 35.4624 93.4949 34.3438 94.3488 33.3806C95.2027 32.4173 96.3544 31.2729 97.804 29.9472C99.0749 28.7872 99.9933 27.912 100.559 27.3217C101.125 26.7313 101.602 26.0741 101.989 25.3487C102.376 24.6237 102.57 23.8369 102.57 22.9872C102.57 21.3302 101.979 19.932 100.798 18.7926C99.616 17.6538 98.0919 17.0838 96.2253 17.0838C94.0409 17.0838 92.4325 17.6585 91.3999 18.8082C90.3673 19.9579 89.4935 21.6512 88.7786 23.8884C88.1035 26.2294 86.8226 27.3994 84.9363 27.3994C83.8241 27.3994 82.8859 26.9907 82.1214 26.172C81.3569 25.3538 80.9746 24.4683 80.9746 23.5154Z" fill="#E6E6E6"/>
<path d="M344.733 569.32C455.491 569.32 545.278 562.378 545.278 553.814C545.278 545.25 455.491 538.308 344.733 538.308C233.975 538.308 144.188 545.25 144.188 553.814C144.188 562.378 233.975 569.32 344.733 569.32Z" fill="#F5F5F5"/>
<path d="M586.768 209.652H434.21C420.541 209.652 409.459 220.733 409.459 234.403V316.096C409.459 329.765 420.541 340.847 434.21 340.847H586.768C600.438 340.847 611.52 329.765 611.52 316.096V234.403C611.52 220.733 600.438 209.652 586.768 209.652Z" fill="#263238"/>
<path d="M458.129 280.677V243.246H481.075V279.997C481.075 290.4 485.06 294.289 491.477 294.289C497.895 294.289 501.88 290.4 501.88 279.997V243.246H524.436V280.677C524.436 301.095 512.187 312.858 491.282 312.858C470.38 312.858 458.129 301.095 458.129 280.677Z" fill="white"/>
<path d="M534.929 243.246H557.873V311.303H534.929V243.246Z" fill="white"/>
<path d="M514.768 356.238H555.391C561.523 356.238 566.502 361.216 566.502 367.349V407.972C566.502 414.104 561.523 419.082 555.391 419.082H514.768C508.636 419.082 503.657 414.104 503.657 407.972V367.349C503.657 361.216 508.636 356.238 514.768 356.238Z" fill="#FF9705"/>
<path opacity="0.8" d="M552.105 387.66L539.213 395.103L526.321 402.546V387.66V372.773L539.213 380.217L552.105 387.66Z" fill="white"/>
<path d="M653.183 310.419H588.306C585.679 310.419 583.55 312.549 583.55 315.175V370.533C583.55 373.159 585.679 375.289 588.306 375.289H653.183C655.81 375.289 657.939 373.159 657.939 370.533V315.175C657.939 312.549 655.81 310.419 653.183 310.419Z" fill="#FF9705"/>
<path opacity="0.8" d="M653.183 310.419H588.306C585.679 310.419 583.55 312.549 583.55 315.175V370.533C583.55 373.159 585.679 375.289 588.306 375.289H653.183C655.81 375.289 657.939 373.159 657.939 370.533V315.175C657.939 312.549 655.81 310.419 653.183 310.419Z" fill="white"/>
<path d="M583.55 364.853L605.818 342.979L624.844 352.894L642.712 333.502L657.94 346.468V372.841C657.94 374.193 656.683 375.289 655.132 375.289H588.306C582.149 375.289 583.264 366.502 583.55 364.853Z" fill="#FF9705"/>
<path d="M629.706 328.829C629.706 333.269 626.19 336.869 621.853 336.869C617.515 336.869 613.999 333.269 613.999 328.829C613.999 324.389 617.515 320.79 621.853 320.79C626.19 320.79 629.706 324.389 629.706 328.829Z" fill="#FF9705"/>
<path d="M635.219 122.787H565.773C560.05 122.787 555.411 127.426 555.411 133.148V175.386C555.411 181.108 560.05 185.748 565.773 185.748H635.219C640.941 185.748 645.58 181.108 645.58 175.386V133.148C645.58 127.426 640.941 122.787 635.219 122.787Z" fill="#FF9705"/>
<path opacity="0.4" d="M635.219 122.787H565.773C560.05 122.787 555.411 127.426 555.411 133.148V175.386C555.411 181.108 560.05 185.748 565.773 185.748H635.219C640.941 185.748 645.58 181.108 645.58 175.386V133.148C645.58 127.426 640.941 122.787 635.219 122.787Z" fill="white"/>
<path d="M590.692 148.842L576.634 154.267L590.692 159.692V162.978L572.952 155.969V152.564L590.692 145.555V148.842Z" fill="white"/>
<path d="M605.302 134.785H608.747L595.68 172.086H592.234L605.302 134.785Z" fill="white"/>
<path d="M627.676 152.564V155.969L609.936 162.978V159.692L624.032 154.267L609.936 148.842V145.555L627.676 152.564Z" fill="white"/>
<path d="M535.77 185.062V193.402H527.43" stroke="#FF9705" stroke-width="0.75" stroke-miterlimit="10"/>
<path d="M518.244 193.402H504.464" stroke="#FF9705" stroke-width="0.75" stroke-miterlimit="10"/>
<path d="M499.87 193.402H491.53V185.062" stroke="#FF9705" stroke-width="0.75" stroke-miterlimit="10"/>
<path d="M491.53 175.875V162.095" stroke="#FF9705" stroke-width="0.75" stroke-miterlimit="10"/>
<path d="M491.53 157.502V149.162H499.87" stroke="#FF9705" stroke-width="0.75" stroke-miterlimit="10"/>
<path d="M509.057 149.162H522.836" stroke="#FF9705" stroke-width="0.75" stroke-miterlimit="10"/>
<path d="M527.43 149.162H535.77V157.502" stroke="#FF9705" stroke-width="0.75" stroke-miterlimit="10"/>
<path d="M535.77 166.688V180.468" stroke="#FF9705" stroke-width="0.75" stroke-miterlimit="10"/>
<path d="M501.466 183.028C502.337 182.97 503.038 182.575 503.567 181.845C503.909 181.386 504.397 180.374 505.033 178.808L513.066 159.015H514.072L522.142 178.014C523.048 180.144 523.725 181.518 524.173 182.136C524.619 182.754 525.255 183.052 526.079 183.028V183.946H514.374V183.028C515.55 182.981 516.324 182.881 516.695 182.728C517.065 182.575 517.251 182.186 517.251 181.563C517.251 181.28 517.156 180.851 516.969 180.274C516.851 179.932 516.691 179.52 516.491 179.038L515.571 176.848H507.453C506.923 178.284 506.581 179.22 506.427 179.655C506.109 180.586 505.951 181.263 505.951 181.686C505.951 182.204 506.298 182.581 506.993 182.816C507.405 182.946 508.022 183.016 508.846 183.028V183.946H501.466V183.028ZM515.04 175.418L511.562 167.049H511.258L507.995 175.418H515.04Z" fill="#FF9705"/>
<path d="M493.4 146.015H487.589V151.826H493.4V146.015Z" fill="#FF9705"/>
<path d="M538.332 146.015H532.521V151.826H538.332V146.015Z" fill="#FF9705"/>
<path d="M493.4 190.496H487.589V196.307H493.4V190.496Z" fill="#FF9705"/>
<path d="M538.332 190.496H532.521V196.307H538.332V190.496Z" fill="#FF9705"/>
<path d="M109.122 65.29C108.379 61.7051 106.958 58.3721 105.015 55.412L108.552 51.1399L100.991 43.5778L96.7179 47.1143C93.7578 45.1724 90.4249 43.7513 86.8404 43.0082L86.3217 37.5015H75.6276L75.1086 43.0082C71.5242 43.7515 68.191 45.1724 65.2313 47.1143L60.9589 43.5778L53.3969 51.1399L56.9336 55.4124C54.991 58.3721 53.5706 61.7051 52.827 65.29L47.3203 65.8092V76.5026L52.827 77.0217C53.5706 80.6062 54.991 83.9387 56.9336 86.899L53.3969 91.1713L60.9589 98.7334L65.2313 95.1959C68.191 97.1392 71.5242 98.5594 75.1086 99.3028L75.6276 104.809H86.3217L86.8404 99.3033C90.4249 98.5602 93.7578 97.1392 96.7179 95.1959L100.991 98.7334L108.552 91.1713L105.015 86.8994C106.958 83.9387 108.379 80.6062 109.122 77.0217L114.628 76.5026V65.8092L109.122 65.29ZM95.4517 71.1557C95.4517 79.1509 88.9701 85.6327 80.9745 85.6327C72.9789 85.6327 66.4974 79.1509 66.4974 71.1557C66.4974 63.1605 72.979 56.6785 80.9745 56.6785C88.97 56.6785 95.4517 63.1602 95.4517 71.1557Z" fill="#FF9705"/>
<path opacity="0.6" d="M109.122 65.29C108.379 61.7051 106.958 58.3721 105.015 55.412L108.552 51.1399L100.991 43.5778L96.7179 47.1143C93.7578 45.1724 90.4249 43.7513 86.8404 43.0082L86.3217 37.5015H75.6276L75.1086 43.0082C71.5242 43.7515 68.191 45.1724 65.2313 47.1143L60.9589 43.5778L53.3969 51.1399L56.9336 55.4124C54.991 58.3721 53.5706 61.7051 52.827 65.29L47.3203 65.8092V76.5026L52.827 77.0217C53.5706 80.6062 54.991 83.9387 56.9336 86.899L53.3969 91.1713L60.9589 98.7334L65.2313 95.1959C68.191 97.1392 71.5242 98.5594 75.1086 99.3028L75.6276 104.809H86.3217L86.8404 99.3033C90.4249 98.5602 93.7578 97.1392 96.7179 95.1959L100.991 98.7334L108.552 91.1713L105.015 86.8994C106.958 83.9387 108.379 80.6062 109.122 77.0217L114.628 76.5026V65.8092L109.122 65.29ZM95.4517 71.1557C95.4517 79.1509 88.9701 85.6327 80.9745 85.6327C72.9789 85.6327 66.4974 79.1509 66.4974 71.1557C66.4974 63.1605 72.979 56.6785 80.9745 56.6785C88.97 56.6785 95.4517 63.1602 95.4517 71.1557Z" fill="#FF9705"/>
<path d="M144.762 258.577C144.257 256.143 143.292 253.879 141.973 251.869L144.375 248.967L139.24 243.831L136.338 246.233C134.327 244.914 132.064 243.949 129.629 243.445L129.277 239.705H122.014L121.662 243.445C119.227 243.949 116.963 244.914 114.953 246.233L112.052 243.831L106.916 248.967L109.318 251.869C107.999 253.879 107.034 256.143 106.529 258.577L102.789 258.93V266.192L106.529 266.545C107.034 268.979 107.999 271.243 109.318 273.253L106.916 276.155L112.052 281.291L114.953 278.888C116.963 280.208 119.227 281.172 121.662 281.677L122.014 285.417H129.277L129.629 281.678C132.064 281.173 134.327 280.208 136.338 278.888L139.24 281.291L144.375 276.155L141.973 273.254C143.292 271.243 144.257 268.979 144.762 266.545L148.501 266.192V258.93L144.762 258.577ZM135.478 262.561C135.478 267.991 131.076 272.393 125.645 272.393C120.215 272.393 115.813 267.991 115.813 262.561C115.813 257.131 120.215 252.729 125.645 252.729C131.076 252.729 135.478 257.131 135.478 262.561Z" fill="#FF9705"/>
<path opacity="0.6" d="M144.762 258.577C144.257 256.143 143.292 253.879 141.973 251.869L144.375 248.967L139.24 243.831L136.338 246.233C134.327 244.914 132.064 243.949 129.629 243.445L129.277 239.705H122.014L121.662 243.445C119.227 243.949 116.963 244.914 114.953 246.233L112.052 243.831L106.916 248.967L109.318 251.869C107.999 253.879 107.034 256.143 106.529 258.577L102.789 258.93V266.192L106.529 266.545C107.034 268.979 107.999 271.243 109.318 273.253L106.916 276.155L112.052 281.291L114.953 278.888C116.963 280.208 119.227 281.172 121.662 281.677L122.014 285.417H129.277L129.629 281.678C132.064 281.173 134.327 280.208 136.338 278.888L139.24 281.291L144.375 276.155L141.973 273.254C143.292 271.243 144.257 268.979 144.762 266.545L148.501 266.192V258.93L144.762 258.577ZM135.478 262.561C135.478 267.991 131.076 272.393 125.645 272.393C120.215 272.393 115.813 267.991 115.813 262.561C115.813 257.131 120.215 252.729 125.645 252.729C131.076 252.729 135.478 257.131 135.478 262.561Z" fill="#FF9705"/>
<path d="M193.162 324.227C190.742 313.879 196.001 303.802 204.909 301.719C213.816 299.636 222.999 306.335 225.419 316.682C227.839 327.03 222.58 337.107 213.673 339.19C204.765 341.274 195.582 334.574 193.162 324.227Z" fill="#FF9705"/>
<path d="M126.801 40.6559L134.09 4.01758L159.034 33.1168L225.052 315.375L192.818 322.914L126.801 40.6559Z" fill="#FF9705"/>
<path d="M140.687 11.6919C138.354 14.5575 135.519 15.2447 132.157 13.7109L126.801 40.6559C126.801 40.6559 131.279 47.266 134.877 39.281C134.877 39.281 140.516 45.0159 144.069 37.1313C144.069 37.1313 149.258 41.5345 152.087 35.2559C152.087 35.2559 156.524 38.6888 159.034 33.1168L140.687 11.6919Z" fill="#B97964"/>
<path opacity="0.3" d="M144.188 37.1419L212.017 318.831L219.521 317.076C220.633 316.447 152.206 35.2666 152.206 35.2666C149.376 41.5451 144.188 37.1419 144.188 37.1419Z" fill="white"/>
<path opacity="0.3" d="M134.925 39.3726C132.94 43.7757 130.69 43.739 129.069 42.8218L196.425 322.542L203.929 320.787C204.988 320.188 143.005 65.2552 137.07 40.8535C135.797 40.2567 134.925 39.3726 134.925 39.3726Z" fill="white"/>
<path d="M192.806 326.633L226.947 318.648L225.659 313.139L191.517 321.124L192.806 326.633Z" fill="#263238"/>
<path d="M279.571 26.0806H183.983V121.668H279.571V26.0806Z" stroke="#263238" stroke-width="0.5" stroke-miterlimit="10"/>
<path d="M274.726 30.5957H188.578V116.744H274.726V30.5957Z" stroke="#263238" stroke-width="0.5" stroke-miterlimit="10"/>
<path d="M188.578 116.386L274.726 30.2378" stroke="#263238" stroke-width="0.5" stroke-miterlimit="10"/>
<path d="M274.726 116.386L188.578 30.2378" stroke="#263238" stroke-width="0.5" stroke-miterlimit="10"/>
<path d="M271.785 99.8672H119.227C105.557 99.8672 94.4756 110.949 94.4756 124.619V206.311C94.4756 219.981 105.557 231.062 119.227 231.062H271.785C285.455 231.062 296.537 219.981 296.537 206.311V124.619C296.537 110.949 285.455 99.8672 271.785 99.8672Z" fill="#FF9705"/>
<path d="M124.661 170.893V133.461H147.606V170.212C147.606 180.615 151.592 184.504 158.009 184.504C164.426 184.504 168.412 180.615 168.412 170.212V133.461H190.968V170.893C190.968 191.31 178.718 203.074 157.815 203.074C136.911 203.074 124.661 191.31 124.661 170.893Z" fill="white"/>
<path d="M243.559 201.519L231.795 183.337L220.323 201.519H194.169L218.767 167.198L195.044 133.461H220.808L232.378 150.573L243.657 133.461H268.352L244.726 166.323L269.81 201.519H243.559Z" fill="white"/>
<path d="M266.359 244.58H238.481C233.167 244.58 228.858 248.888 228.858 254.203V254.203C228.858 259.517 233.167 263.826 238.481 263.826H266.359C271.673 263.826 275.982 259.517 275.982 254.203V254.203C275.982 248.888 271.673 244.58 266.359 244.58Z" fill="#FF9705"/>
<path d="M248.884 254.203C248.884 259.733 244.401 264.216 238.871 264.216C233.341 264.216 228.858 259.733 228.858 254.203C228.858 248.673 233.341 244.19 238.871 244.19C244.401 244.19 248.884 248.673 248.884 254.203Z" fill="#263238"/>
<path d="M401.19 129.48C396.861 127.101 393.155 123.253 392.28 118.576C391.59 114.889 392.482 110.502 389.675 107.872C387.729 106.049 384.645 105.815 382.483 104.226C378.635 101.399 380.48 90.1987 380.068 85.5945C379.5 79.2515 374.949 78.8619 369.851 74.7297L344.785 63.2915C334.173 64.4427 324.567 79.9669 323.911 90.8003C323.545 96.8419 324.856 103.118 322.749 108.829C321.402 112.48 318.76 115.567 317.067 119.086C314.317 124.803 314.217 131.415 315.543 137.573C316.87 143.731 319.537 149.544 322.187 155.304C323.195 157.494 324.308 159.807 326.412 161.119C328.066 162.15 330.107 162.413 332.075 162.606C349.957 164.361 368.227 162.455 385.281 157.054C392.007 154.923 399.236 151.595 401.602 145.246C397.423 141.501 394.082 136.917 391.864 131.883C394.91 132.941 397.437 134.986 400.1 136.745C402.762 138.504 405.82 140.053 409.058 139.877C412.296 139.701 415.564 137.17 415.325 134.098C410.461 132.993 405.518 131.86 401.19 129.48Z" fill="#263238"/>
<path d="M349.989 51.599C348.438 50.3011 346.427 49.6559 344.419 49.4111C342.057 49.1229 339.579 49.3701 337.468 50.4688C335.358 51.5675 333.666 53.5923 333.305 55.9442C332.919 58.454 334.123 61.0797 336.128 62.6369C338.134 64.1942 340.836 64.7239 343.341 64.3049L346.503 63.3721C347.831 62.6563 349.148 61.8845 350.232 60.8359C351.317 59.7876 352.16 58.4276 352.334 56.9296C352.568 54.9201 351.541 52.8969 349.989 51.599Z" fill="#263238"/>
<path d="M339.893 100.554L354.156 114.949L358.158 117.351C357.262 119.474 356.496 121.659 356.168 123.776C355.543 127.51 356.889 128.805 360.239 131.702C361.663 132.932 359.07 167.629 358.083 171.431L334.493 131.773C342.006 126.555 341.524 109.38 339.893 100.554Z" fill="#EEC1BB"/>
<path opacity="0.2" d="M356.053 124.595C352.13 122.267 347.826 118.228 348.342 113.613C348.572 111.67 348.991 109.829 349.456 108.648L357.424 119.197C356.77 120.898 356.531 122.022 356.053 124.595Z" fill="black"/>
<path d="M337.13 84.3254C338.472 98.9803 338.731 105.195 346.294 112.879C357.669 124.438 375.169 120.549 378.182 106.024C380.893 92.9493 378.242 71.1805 363.856 65.0217C349.681 58.954 335.788 69.6706 337.13 84.3254Z" fill="#EEC1BB"/>
<path d="M356.111 89.0965C356.183 90.6472 357.023 91.92 357.987 91.9399C358.95 91.9599 359.673 90.7192 359.601 89.169C359.529 87.6183 358.689 86.345 357.726 86.3254C356.762 86.3053 356.04 87.5457 356.111 89.0965Z" fill="#263238"/>
<path d="M370.564 89.0525C370.637 90.555 371.475 91.7894 372.435 91.8093C373.396 91.8293 374.116 90.6277 374.043 89.1249C373.97 87.6226 373.132 86.3882 372.171 86.3684C371.211 86.3479 370.491 87.5501 370.564 89.0525Z" fill="#263238"/>
<path d="M353.054 83.6954C353.241 83.7163 353.43 83.6621 353.575 83.5285C355.833 81.4379 358.375 82.1719 358.404 82.1806C358.781 82.2903 359.162 82.0771 359.248 81.6927C359.334 81.3088 359.094 80.9053 358.713 80.7898C358.58 80.7506 355.39 79.8258 352.588 82.4212C352.309 82.6799 352.303 83.1379 352.575 83.4439C352.707 83.5906 352.879 83.6761 353.054 83.6954Z" fill="#263238"/>
<path d="M375.424 81.6986C375.572 81.6489 375.695 81.539 375.76 81.3786C375.893 81.0462 375.73 80.6251 375.396 80.4374C372.047 78.5542 369.564 79.9858 369.459 80.0489C369.164 80.2243 369.093 80.6403 369.301 80.979C369.507 81.3171 369.913 81.4492 370.208 81.276C370.304 81.2183 372.248 80.1408 374.912 81.6386C375.084 81.7353 375.268 81.7512 375.424 81.6986Z" fill="#263238"/>
<path d="M366.633 88.3384C366.633 88.3384 368.925 93.8239 371.512 97.2434C371.964 97.8411 371.684 98.7133 370.981 98.9722C369.171 99.6382 367.053 99.0354 367.053 99.0354L366.633 88.3384Z" fill="#F4897D"/>
<path d="M357.174 86.3894L360.537 85.5947C360.537 85.5947 358.698 88.1028 357.174 86.3894Z" fill="#263238"/>
<path d="M371.825 86.4031L375.189 85.6084C375.189 85.6084 373.35 88.1165 371.825 86.4031Z" fill="#263238"/>
<path d="M342.217 89.3879C342.217 89.3879 354.505 87.9897 349.387 68.7941C349.387 68.7941 363.856 65.0218 375.396 80.4373C377.234 82.8923 378.331 86.9881 379.976 90.5198C379.976 90.5198 382.739 62.6363 357.996 60.3506C333.292 58.068 328.437 92.7987 340.489 104.486C340.489 104.486 337.536 96.5081 342.217 89.3879Z" fill="#263238"/>
<path d="M366.632 102.798C365.515 104.637 364.138 108.18 364.138 108.18C363.829 108.118 363.52 108.056 363.215 107.976C359.048 107.014 357.477 105.039 356.999 103.142C356.742 102.103 356.823 101.077 356.986 100.262C357.165 99.3188 357.487 98.6797 357.487 98.6797C359.349 100.655 363.155 101.884 365.217 102.445C366.078 102.69 366.632 102.798 366.632 102.798Z" fill="#263238"/>
<path d="M365.73 102.454L364.913 104.113C360.762 103.143 357.988 101.842 357.019 100.144C357.208 99.1451 357.549 98.4688 357.549 98.4688C359.52 100.559 363.547 101.859 365.73 102.454Z" fill="white"/>
<path d="M363.61 108.306C359.2 107.289 357.538 105.199 357.032 103.191C358.52 103.602 360.263 104.282 361.673 105.399C362.756 106.247 363.312 107.301 363.61 108.306Z" fill="#DC5753"/>
<path d="M332.697 96.2695C334.427 99.2749 337.24 101.162 339.819 101.809C343.698 102.782 345.701 96.5452 344.377 92.6588C343.185 89.1605 339.374 86.8446 335.599 87.6075C331.879 88.3588 330.717 92.8331 332.697 96.2695Z" fill="#EEC1BB"/>
<path opacity="0.2" d="M340.894 95.4888C340.802 94.1006 340.14 92.7594 339.094 91.8418C338.048 90.9243 336.632 90.4419 335.244 90.5304" stroke="black" stroke-width="0.75" stroke-linecap="round" stroke-linejoin="round"/>
<path d="M377.708 133.075C377.708 133.075 386.943 132.062 394.794 142.418C402.646 152.774 416.649 170.351 416.649 170.351L435.654 142.418L462.327 139.599C462.327 139.599 463.327 142.891 457.992 145.165C452.658 147.44 442.655 150.046 442.655 150.046C442.655 150.046 429.795 189.783 420.055 193.117C410.314 196.451 388.113 172.154 388.113 172.154L377.708 133.075Z" fill="#EEC1BB"/>
<path d="M407.268 304.222C407.268 304.222 428.114 381.653 423.389 406.596C418.663 431.539 327.276 523.853 327.276 523.853L315.227 516.48C315.227 516.48 343.331 460.66 359.157 441.668C374.983 422.677 381.889 417.863 385.4 403.303C388.91 388.743 366.875 320.697 366.875 320.697L407.268 304.222Z" fill="#EEC1BB"/>
<path d="M310.063 323.485C310.063 323.485 321.082 401.749 323.552 415.713C326.022 429.678 327.599 448.524 331.053 486.183C334.508 523.841 343.601 548.239 343.601 548.239L357.419 548.7L360.658 312.156L310.063 323.485Z" fill="#EEC1BB"/>
<path d="M330.839 522.584L327.81 517.763C327.125 516.672 325.939 516.009 324.654 515.918C319.11 515.523 319.233 512.532 320.903 507.265C319.919 505.202 317.388 506.07 316.696 506.286L301.321 510.918C300.03 511.293 299.287 512.643 299.662 513.935C299.728 514.165 299.828 514.383 299.959 514.584C303.637 520.439 305.377 523.209 309.955 530.496L323.955 552.782C327.772 558.857 334.686 556.27 333.68 553.412C329.097 540.596 327.403 530.547 328.491 525.013C328.659 524.008 329.504 524.401 330.839 522.584Z" fill="#FF9705"/>
<path opacity="0.2" d="M330.839 522.584L327.81 517.763C327.125 516.672 325.939 516.009 324.654 515.918C319.11 515.523 319.233 512.532 320.903 507.265C319.919 505.202 317.388 506.07 316.696 506.286L301.321 510.918C300.03 511.293 299.287 512.643 299.662 513.935C299.728 514.165 299.828 514.383 299.959 514.584C303.637 520.439 305.377 523.209 309.955 530.496L323.955 552.782C327.772 558.857 334.686 556.27 333.68 553.412C329.097 540.596 327.403 530.547 328.491 525.013C328.659 524.008 329.504 524.401 330.839 522.584Z" fill="black"/>
<path d="M336.917 531.378C337.627 531.179 338.201 530.654 338.463 529.964C338.646 529.61 338.611 529.182 338.371 528.862C337.13 527.062 329.301 527.741 328.416 527.833C328.322 527.833 328.232 527.874 328.172 527.947C328.06 528.081 328.078 528.28 328.212 528.392C329.713 529.382 331.313 530.212 332.986 530.87C334.208 531.454 335.586 531.632 336.917 531.378ZM337.767 529.215C337.873 529.349 337.884 529.535 337.795 529.681C337.584 530.17 337.173 530.546 336.665 530.712C334.732 531.291 331.245 529.461 329.407 528.373C332.629 528.167 337.078 528.231 337.767 529.215Z" fill="#263238"/>
<path d="M328.414 528.544C330.728 528.441 336.141 526.681 336.553 524.852C336.652 524.473 336.55 523.941 335.687 523.486C332.175 521.727 328.196 527.733 328.094 528.012C328.016 528.111 328.006 528.247 328.066 528.358C328.127 528.403 328.2 528.43 328.276 528.435L328.414 528.544ZM335.367 523.983C336.022 524.302 335.933 524.546 335.901 524.633C335.703 525.768 331.646 527.391 329.043 527.745C330.058 526.375 332.807 523.027 335.129 523.876L335.367 523.983Z" fill="#263238"/>
<path d="M329.221 528.269C327.951 526.75 325.991 525.833 324.012 525.831" stroke="black" stroke-width="0.5" stroke-linecap="round" stroke-linejoin="round"/>
<path d="M328.848 532.682C327.578 531.163 325.618 530.246 323.639 530.244" stroke="black" stroke-width="0.5" stroke-linecap="round" stroke-linejoin="round"/>
<path d="M329.293 537.601C328.024 536.083 326.063 535.166 324.084 535.164" stroke="black" stroke-width="0.5" stroke-linecap="round" stroke-linejoin="round"/>
<path opacity="0.2" d="M311.697 335.037L360.372 333.033L360.416 329.802L310.825 328.88C310.825 328.88 311.533 333.88 311.697 335.037Z" fill="black"/>
<path opacity="0.2" d="M370.455 332.188L411.046 319.143L410.318 316.167L369.521 329.129L370.455 332.188Z" fill="black"/>
<path d="M359.471 539.738H354.084C352.865 539.738 351.737 540.354 351.017 541.338C347.91 545.581 345.575 543.977 342.196 539.988C340.047 539.738 339.469 542.203 339.294 542.866L335.266 557.516C334.916 558.74 335.624 560.015 336.848 560.365C337.066 560.427 337.291 560.457 337.517 560.453H380.202C386.991 560.453 388.398 553.612 385.601 552.979C373.026 550.2 364.122 546.499 360.235 542.841C359.514 542.201 360.255 541.721 359.471 539.738Z" fill="#FF9705"/>
<path d="M369.577 539.294C369.775 538.625 369.643 537.901 369.222 537.344C369.031 537.018 368.67 536.831 368.293 536.862C366.226 536.951 362.83 543.565 362.458 544.321C362.41 544.396 362.398 544.489 362.426 544.574C362.477 544.731 362.646 544.816 362.803 544.765C364.351 544.061 365.822 543.197 367.191 542.188C368.274 541.502 369.11 540.488 369.577 539.294ZM368.272 537.524C368.432 537.507 368.586 537.592 368.659 537.736C368.945 538.152 369.039 538.67 368.917 539.16C368.407 541.001 365.186 542.874 363.389 543.799C364.846 541.113 367.137 537.581 368.272 537.524Z" fill="#263238"/>
<path d="M363.027 544.681C364.108 542.775 365.423 537.551 364.165 536.301C363.911 536.031 363.433 535.845 362.635 536.308C359.457 538.236 362.266 544.447 362.439 544.669C362.479 544.781 362.583 544.859 362.702 544.866C362.769 544.84 362.827 544.795 362.869 544.736L363.027 544.681ZM362.871 536.814C363.456 536.449 363.607 536.644 363.661 536.714C364.471 537.443 363.73 541.511 362.703 543.775C362.116 542.271 360.817 538.383 362.666 536.951L362.871 536.814Z" fill="#263238"/>
<path d="M363.211 543.896C361.355 544.149 359.634 545.257 358.636 546.842" stroke="#263238" stroke-width="0.5" stroke-linecap="round" stroke-linejoin="round"/>
<path d="M366.559 546.416C364.704 546.669 362.982 547.778 361.984 549.363" stroke="#263238" stroke-width="0.5" stroke-linecap="round" stroke-linejoin="round"/>
<path d="M370.726 548.535C368.87 548.788 367.148 549.897 366.15 551.482" stroke="#263238" stroke-width="0.5" stroke-linecap="round" stroke-linejoin="round"/>
<path d="M412.292 302.103L394.491 257.082L382.63 231.167L382.868 219.52L322.571 218.914C322.08 220.065 321.589 221.217 321.117 222.387C319.44 226.55 320.337 226.862 319.011 231.117C319.011 231.117 313.9 245.52 311.189 266.058C307.912 290.894 306.375 315.222 306.922 324.283C307.092 327.19 307.262 328.814 307.262 328.814L363.724 329.864L364.175 323.019L364.968 315.468L366.398 320.878L368.228 329.54L417.003 314.044L412.292 302.103Z" fill="#FF9705"/>
<path opacity="0.5" d="M412.292 302.103L394.491 257.082L382.63 231.167L382.868 219.52L322.571 218.914C322.08 220.065 321.589 221.217 321.117 222.387C319.44 226.55 320.337 226.862 319.011 231.117C319.011 231.117 313.9 245.52 311.189 266.058C307.912 290.894 306.375 315.222 306.922 324.283C307.092 327.19 307.262 328.814 307.262 328.814L363.724 329.864L364.175 323.019L364.968 315.468L366.398 320.878L368.228 329.54L417.003 314.044L412.292 302.103Z" fill="white"/>
<path opacity="0.2" d="M364.97 315.476V285.804L372.557 260.273L367.056 285.804L364.97 315.476Z" fill="black"/>
<path d="M366.681 229.718C368.583 229.718 370.125 228.176 370.125 226.275C370.125 224.373 368.583 222.832 366.681 222.832C364.78 222.832 363.238 224.373 363.238 226.275C363.238 228.176 364.78 229.718 366.681 229.718Z" fill="#FF9705"/>
<path opacity="0.2" d="M321.273 243.68C321.273 243.68 332.376 243.469 339.379 232.285C333.344 237.871 327.309 241.669 321.273 243.68Z" fill="black"/>
<path d="M382.868 219.52L322.571 218.912C322.571 218.912 323.411 199.459 317.507 169.839C316.467 164.636 315.226 159.092 313.725 153.288C312.404 148.224 314.026 141.589 312.306 136.145C312.306 136.145 312.354 135.64 318.699 133.899C318.739 133.879 318.759 133.879 318.799 133.859C325.183 132.098 334.699 130.452 347.788 129.972C361.497 129.472 369.2 133.205 375.981 132.587L382.204 133.377C382.204 133.377 388.972 151.042 388.34 169.942C387.845 184.758 383.437 194.505 382.868 219.52Z" fill="#FF9705"/>
<path d="M375.981 132.587C375.721 135.849 374.767 146.763 353.212 146.603C326.894 146.403 323.552 132.732 323.552 132.732C323.512 132.752 328.516 131.349 323.552 132.732C329.936 130.971 334.411 129.442 347.5 128.962C361.209 128.461 365.027 130.957 375.981 132.587Z" fill="#EEC1BB"/>
<path d="M314.638 135.089C314.638 135.089 310.614 135.69 304.155 143.676C298.366 150.831 272.202 180.405 273.104 190.374C273.909 199.284 310.063 227.911 310.063 227.911L316.792 219.636L294.178 190.568L316.405 163.239L314.638 135.089Z" fill="#EEC1BB"/>
<path d="M315.158 220.817C315.158 220.817 320.554 213.224 322.852 212.724C325.15 212.224 335.641 213.523 335.841 215.022C336.041 216.521 334.442 216.716 334.442 216.716L337.04 219.718C337.04 219.718 337.04 220.617 335.841 220.817C335.841 220.817 335.741 223.015 334.542 223.115C333.343 223.215 328.647 221.616 328.647 221.616L332.544 224.314C332.544 224.314 333.143 225.313 330.146 225.014C327.148 224.714 326.099 223.215 326.099 223.215C326.099 223.215 318.776 229.718 315.379 229.718C311.982 229.718 310.062 227.911 310.062 227.911L315.158 220.817Z" fill="#EEC1BB"/>
<path opacity="0.3" d="M294.177 190.568C294.177 190.568 291.143 188.272 286.699 188.856C286.699 188.856 290.758 185.664 295.661 188.941L294.177 190.568Z" fill="black"/>
<path opacity="0.3" d="M316.405 219.139L313.024 223.788L314.564 216.771L316.405 219.139Z" fill="black"/>
<path d="M438.292 117.996C436.301 117.996 434.563 117.323 433.077 115.978C431.592 114.633 430.85 112.753 430.85 110.335C430.85 108.19 431.568 106.385 433.004 104.921C434.44 103.457 436.203 102.725 438.292 102.725C440.348 102.725 442.078 103.457 443.482 104.921C444.885 106.385 445.587 108.19 445.587 110.335C445.587 112.718 444.853 114.591 443.384 115.953C441.915 117.314 440.218 117.996 438.292 117.996Z" fill="#FF9705"/>
<path d="M415.36 63.9925C415.36 60.8424 416.33 57.6506 418.269 54.4176C420.208 51.1845 423.037 48.5068 426.757 46.3845C430.476 44.263 434.815 43.2012 439.775 43.2012C444.384 43.2012 448.453 44.0888 451.982 45.8622C455.51 47.6364 458.236 50.0487 460.159 53.0995C462.083 56.1508 463.044 59.4663 463.044 63.0475C463.044 65.8661 462.496 68.3372 461.399 70.4588C460.302 72.581 458.999 74.4131 457.489 75.9551C455.979 77.4971 453.269 80.0918 449.359 83.7394C448.278 84.7673 447.412 85.6716 446.76 86.4503C446.109 87.2296 445.624 87.9425 445.306 88.5891C444.988 89.2357 444.742 89.8824 444.567 90.529C444.392 91.1756 444.13 92.312 443.78 93.9362C443.176 97.3855 441.285 99.1092 438.106 99.1092C436.453 99.1092 435.062 98.5454 433.933 97.418C432.805 96.2912 432.241 94.6159 432.241 92.3942C432.241 89.6088 432.654 87.1963 433.48 85.1571C434.307 83.1177 435.403 81.3271 436.77 79.7851C438.137 78.2431 439.981 76.411 442.302 74.2888C444.336 72.4318 445.807 71.0308 446.713 70.0857C447.619 69.1407 448.381 68.0886 449.001 66.9272C449.621 65.7666 449.931 64.5072 449.931 63.147C449.931 60.4942 448.985 58.2558 447.094 56.432C445.203 54.6089 442.763 53.6964 439.775 53.6964C436.278 53.6964 433.703 54.6165 432.05 56.4569C430.397 58.2973 428.998 61.0082 427.854 64.5894C426.773 68.3372 424.722 70.2101 421.702 70.2101C419.922 70.2101 418.42 69.5558 417.196 68.2454C415.972 66.9356 415.36 65.5179 415.36 63.9925Z" fill="#FF9705"/>
</svg>
