<svg width="26" height="25" viewBox="0 0 26 25" fill="none" xmlns="http://www.w3.org/2000/svg">
<g clip-path="url(#clip0_216_8389)">
<rect x="0.326172" width="25" height="25" rx="12.5" fill="#FF9705"/>
<path d="M25.3262 12.5C25.3262 5.59644 19.7297 0 12.8262 0C5.92261 0 0.326172 5.59644 0.326172 12.5C0.326172 18.739 4.89722 23.9104 10.873 24.8481V16.1133H7.69922V12.5H10.873V9.74609C10.873 6.61328 12.7393 4.88281 15.5945 4.88281C16.9617 4.88281 18.3926 5.12695 18.3926 5.12695V8.20312H16.8164C15.2637 8.20312 14.7793 9.16675 14.7793 10.1562V12.5H18.2461L17.6919 16.1133H14.7793V24.8481C20.7551 23.9104 25.3262 18.739 25.3262 12.5Z" fill="white"/>
</g>
<defs>
<clipPath id="clip0_216_8389">
<rect x="0.326172" width="25" height="25" rx="12.5" fill="white"/>
</clipPath>
</defs>
</svg>
