<svg width="26" height="27" viewBox="0 0 26 27" fill="none" xmlns="http://www.w3.org/2000/svg">
<rect x="0.326172" y="1" width="25" height="25" rx="12.5" fill="#FF9705"/>
<path d="M13 0.418945C20.1797 0.418945 26 6.23924 26 13.4189C26 20.5986 20.1797 26.4189 13 26.4189C5.8203 26.4189 0 20.5986 0 13.4189C0 6.23924 5.8203 0.418945 13 0.418945ZM6.7998 6.42871C6.48387 6.39232 6.16451 6.45532 5.88184 6.60938C5.59919 6.76346 5.36504 7.00225 5.20898 7.2959C5.05297 7.58955 4.98184 7.92545 5.00391 8.26172V18.2471C5.00391 18.5578 5.12 18.8564 5.32715 19.0762C5.53427 19.2958 5.81552 19.4189 6.1084 19.4189H8.69922V12.7676L13.126 16.291L17.5527 12.7676V19.4189H20.1436C20.4364 19.4189 20.7177 19.2958 20.9248 19.0762C21.132 18.8564 21.248 18.5578 21.248 18.2471V8.26172C21.2633 7.92845 21.1869 7.59771 21.0283 7.30957C20.8696 7.02131 20.6348 6.78736 20.3535 6.6377C20.0723 6.48818 19.756 6.42841 19.4434 6.46582C19.1307 6.50326 18.8346 6.63627 18.5918 6.84863L17.5527 7.70996L13.126 11.1992L8.69922 7.67578L7.66016 6.81445C7.41524 6.59953 7.1158 6.46515 6.7998 6.42871Z" fill="white"/>
</svg>
