<svg width="26" height="25" viewBox="0 0 26 25" fill="none" xmlns="http://www.w3.org/2000/svg">
<rect x="0.326172" width="25" height="25" rx="12.5" fill="#FF9705"/>
<path d="M12.8262 0.5C6.19867 0.5 0.826172 5.8725 0.826172 12.5C0.826172 19.1275 6.19867 24.5 12.8262 24.5C19.4537 24.5 24.8262 19.1275 24.8262 12.5C24.8262 5.8725 19.4537 0.5 12.8262 0.5ZM9.88867 17.4738H7.45867V9.65375H9.88867V17.4738ZM8.65867 8.69375C7.89117 8.69375 7.39492 8.15 7.39492 7.4775C7.39492 6.79125 7.90617 6.26375 8.68992 6.26375C9.47367 6.26375 9.95367 6.79125 9.96867 7.4775C9.96867 8.15 9.47367 8.69375 8.65867 8.69375ZM18.7637 17.4738H16.3337V13.14C16.3337 12.1313 15.9812 11.4462 15.1024 11.4462C14.4312 11.4462 14.0324 11.91 13.8562 12.3563C13.7912 12.515 13.7749 12.74 13.7749 12.9638V17.4725H11.3437V12.1475C11.3437 11.1713 11.3124 10.355 11.2799 9.6525H13.3912L13.5024 10.7388H13.5512C13.8712 10.2288 14.6549 9.47625 15.9662 9.47625C17.5649 9.47625 18.7637 10.5475 18.7637 12.85V17.4738Z" fill="white"/>
</svg>
