<svg width="19" height="26" viewBox="0 0 19 26" fill="none" xmlns="http://www.w3.org/2000/svg">
<path d="M9.32617 12.375C8.49737 12.375 7.70251 12.0458 7.11646 11.4597C6.53041 10.8737 6.20117 10.0788 6.20117 9.25C6.20117 8.4212 6.53041 7.62634 7.11646 7.04029C7.70251 6.45424 8.49737 6.125 9.32617 6.125C10.155 6.125 10.9498 6.45424 11.5359 7.04029C12.1219 7.62634 12.4512 8.4212 12.4512 9.25C12.4512 9.66038 12.3703 10.0667 12.2133 10.4459C12.0562 10.825 11.8261 11.1695 11.5359 11.4597C11.2457 11.7499 10.9012 11.9801 10.5221 12.1371C10.1429 12.2942 9.73655 12.375 9.32617 12.375ZM9.32617 0.5C7.00553 0.5 4.77993 1.42187 3.13899 3.06282C1.49804 4.70376 0.576172 6.92936 0.576172 9.25C0.576172 15.8125 9.32617 25.5 9.32617 25.5C9.32617 25.5 18.0762 15.8125 18.0762 9.25C18.0762 6.92936 17.1543 4.70376 15.5134 3.06282C13.8724 1.42187 11.6468 0.5 9.32617 0.5Z" fill="#FF9705"/>
</svg>
