<svg width="150" height="61" viewBox="0 0 150 61" fill="none" xmlns="http://www.w3.org/2000/svg">
<path fill-rule="evenodd" clip-rule="evenodd" d="M2.9126 35.7144V2.9126H25.913C37.1519 5.1342 40.027 17.8107 31.2712 25.3904L37.6747 32.0552C40.1577 34.4075 39.6349 37.0212 37.4133 39.5042C35.1702 41.765 32.9896 44.0135 30.9418 46.125C24.1928 53.0845 18.8874 58.5551 17.5492 58.0614H2.9126V38.7202L17.1571 24.2142C18.9868 22.2539 20.0323 21.7312 25.913 21.8617C31.5326 19.3789 33.4928 12.0606 25.913 8.53195H8.27073V30.4869L2.9126 35.7144ZM17.0264 52.4419H8.27073L8.53195 40.6804L21.7312 27.7427L25.6516 28.0039L33.2313 35.453L17.0264 52.4419Z" fill="url(#paint0_linear_313_5218)"/>
<path d="M44.8115 34.7804V15.5835H52.4977C53.9102 15.5835 55.088 15.7928 56.0317 16.2115C56.9752 16.6302 57.6844 17.2113 58.1593 17.9549C58.6343 18.6924 58.8718 19.5423 58.8718 20.5046C58.8718 21.2544 58.7218 21.9137 58.4218 22.4824C58.1218 23.0447 57.7095 23.5071 57.1845 23.8695C56.6659 24.2258 56.0723 24.4788 55.4036 24.6288V24.8163C56.1347 24.8476 56.819 25.0539 57.4563 25.4351C58.1 25.8163 58.6219 26.3505 59.0218 27.0379C59.4218 27.7189 59.6217 28.5314 59.6217 29.4749C59.6217 30.4936 59.3686 31.4027 58.8624 32.2026C58.3625 32.9962 57.622 33.6243 56.641 34.0867C55.6598 34.549 54.4507 34.7804 53.0135 34.7804H44.8115ZM48.8703 31.4622H52.1792C53.3102 31.4622 54.135 31.2465 54.6538 30.8154C55.1724 30.378 55.4317 29.7967 55.4317 29.0719C55.4317 28.5407 55.3037 28.0721 55.0474 27.666C54.7913 27.2597 54.4257 26.9411 53.9508 26.7097C53.482 26.4785 52.9228 26.3629 52.2729 26.3629H48.8703V31.4622ZM48.8703 23.6165H51.8792C52.4353 23.6165 52.929 23.5197 53.3603 23.326C53.7977 23.1259 54.1414 22.8448 54.3913 22.4824C54.6474 22.12 54.7756 21.6856 54.7756 21.1794C54.7756 20.4858 54.5288 19.9266 54.0351 19.5015C53.5478 19.0766 52.854 18.8642 51.9542 18.8642H48.8703V23.6165ZM66.2932 35.0522C65.3746 35.0522 64.556 34.8927 63.8373 34.5741C63.1188 34.2492 62.5501 33.7712 62.1314 33.14C61.7189 32.5025 61.5127 31.709 61.5127 30.7592C61.5127 29.9593 61.6596 29.2876 61.9534 28.7438C62.247 28.2002 62.647 27.7628 63.153 27.4315C63.6593 27.1004 64.2342 26.8504 64.8778 26.6817C65.5277 26.5129 66.2089 26.3942 66.9212 26.3254C67.7586 26.238 68.4334 26.1567 68.9459 26.0817C69.4583 26.0005 69.8302 25.8818 70.0614 25.7256C70.2926 25.5694 70.4082 25.338 70.4082 25.0319V24.9756C70.4082 24.382 70.2207 23.9227 69.8457 23.5978C69.4771 23.2728 68.9521 23.1104 68.2711 23.1104C67.5524 23.1104 66.9806 23.2697 66.5557 23.5885C66.1308 23.9008 65.8496 24.2946 65.7121 24.7695L62.0189 24.4695C62.2064 23.5947 62.5751 22.8385 63.125 22.2012C63.6749 21.5575 64.3842 21.0638 65.2528 20.7201C66.1275 20.3702 67.1399 20.1953 68.2898 20.1953C69.0897 20.1953 69.8552 20.289 70.5862 20.4765C71.3237 20.6638 71.9766 20.9546 72.5453 21.3481C73.1202 21.7419 73.5733 22.2479 73.9044 22.8667C74.2357 23.4791 74.4012 24.2132 74.4012 25.0694V34.7804H70.6144V32.7838H70.5019C70.2707 33.2336 69.9613 33.6305 69.5739 33.9742C69.1865 34.3117 68.7209 34.5772 68.1773 34.7709C67.6336 34.9584 67.0055 35.0522 66.2932 35.0522ZM67.4368 32.2963C68.0242 32.2963 68.5428 32.1807 68.9928 31.9495C69.4427 31.7121 69.7958 31.3934 70.0519 30.9934C70.3082 30.5935 70.4362 30.1404 70.4362 29.6343V28.1065C70.3113 28.1877 70.1395 28.2627 69.9207 28.3313C69.7082 28.3939 69.4678 28.4533 69.1989 28.5095C68.9302 28.5594 68.6615 28.6064 68.3928 28.6501C68.1241 28.6876 67.8804 28.722 67.6618 28.7533C67.193 28.8219 66.7838 28.9313 66.4337 29.0813C66.0839 29.2313 65.8121 29.4343 65.6184 29.6906C65.4247 29.9405 65.3277 30.2529 65.3277 30.6279C65.3277 31.1715 65.5246 31.5871 65.9182 31.8745C66.3181 32.1558 66.8244 32.2963 67.4368 32.2963ZM89.4784 24.4883L85.8229 24.7133C85.7602 24.4007 85.6259 24.1197 85.4197 23.8695C85.2136 23.6134 84.9416 23.4103 84.6043 23.2604C84.273 23.1041 83.8763 23.026 83.4138 23.026C82.7952 23.026 82.2733 23.1572 81.8484 23.4197C81.4235 23.6759 81.2111 24.0195 81.2111 24.4508C81.2111 24.7945 81.3485 25.085 81.6234 25.3226C81.8985 25.56 82.3703 25.7506 83.039 25.8944L85.6447 26.4192C87.0445 26.7066 88.088 27.169 88.7754 27.8065C89.4627 28.4438 89.8064 29.2812 89.8064 30.3186C89.8064 31.2621 89.5285 32.09 88.9723 32.8025C88.4224 33.5149 87.6662 34.071 86.7039 34.4709C85.7479 34.8647 84.6449 35.0615 83.395 35.0615C81.4891 35.0615 79.9707 34.6646 78.8395 33.8711C77.7147 33.0712 77.0555 31.9839 76.8618 30.6092L80.7893 30.4029C80.908 30.984 81.1954 31.4278 81.6516 31.734C82.1078 32.034 82.692 32.1838 83.4045 32.1838C84.1042 32.1838 84.6667 32.0495 85.0916 31.7808C85.5229 31.5059 85.7415 31.1527 85.7479 30.7217C85.7415 30.3592 85.5884 30.0623 85.2886 29.8311C84.9886 29.5938 84.5262 29.4124 83.9013 29.2876L81.4079 28.7906C80.0018 28.5095 78.9551 28.022 78.2677 27.3285C77.5867 26.6347 77.2461 25.7506 77.2461 24.6758C77.2461 23.7509 77.4961 22.9541 77.9959 22.2854C78.5022 21.6168 79.2114 21.1013 80.1238 20.7388C81.0423 20.3764 82.1171 20.1953 83.3482 20.1953C85.1666 20.1953 86.5976 20.5796 87.6413 21.3481C88.6911 22.1169 89.3035 23.1634 89.4784 24.4883ZM96.4265 35.0522C95.5079 35.0522 94.6893 34.8927 93.9708 34.5741C93.2521 34.2492 92.6834 33.7712 92.2647 33.14C91.8522 32.5025 91.6461 31.709 91.6461 30.7592C91.6461 29.9593 91.7928 29.2876 92.0866 28.7438C92.3803 28.2002 92.7802 27.7628 93.2865 27.4315C93.7925 27.1004 94.3674 26.8504 95.0111 26.6817C95.661 26.5129 96.3422 26.3942 97.0545 26.3254C97.8919 26.238 98.5669 26.1567 99.0791 26.0817C99.5916 26.0005 99.9635 25.8818 100.195 25.7256C100.426 25.5694 100.541 25.338 100.541 25.0319V24.9756C100.541 24.382 100.354 23.9227 99.9791 23.5978C99.6103 23.2728 99.0855 23.1104 98.4043 23.1104C97.6856 23.1104 97.1138 23.2697 96.689 23.5885C96.2641 23.9008 95.9828 24.2946 95.8454 24.7695L92.1522 24.4695C92.3397 23.5947 92.7083 22.8385 93.2583 22.2012C93.8082 21.5575 94.5174 21.0638 95.3861 20.7201C96.261 20.3702 97.2733 20.1953 98.4231 20.1953C99.2229 20.1953 99.9884 20.289 100.719 20.4765C101.457 20.6638 102.11 20.9546 102.679 21.3481C103.253 21.7419 103.707 22.2479 104.038 22.8667C104.369 23.4791 104.534 24.2132 104.534 25.0694V34.7804H100.748V32.7838H100.635C100.404 33.2336 100.095 33.6305 99.7072 33.9742C99.3198 34.3117 98.8543 34.5772 98.3106 34.7709C97.767 34.9584 97.139 35.0522 96.4265 35.0522ZM97.57 32.2963C98.1575 32.2963 98.6761 32.1807 99.1261 31.9495C99.5759 31.7121 99.9291 31.3934 100.185 30.9934C100.442 30.5935 100.57 30.1404 100.57 29.6343V28.1065C100.445 28.1877 100.273 28.2627 100.054 28.3313C99.8415 28.3939 99.601 28.4533 99.3323 28.5095C99.0637 28.5594 98.7948 28.6064 98.5261 28.6501C98.2574 28.6876 98.0138 28.722 97.795 28.7533C97.3263 28.8219 96.9171 28.9313 96.5672 29.0813C96.2171 29.2313 95.9453 29.4343 95.7516 29.6906C95.5579 29.9405 95.4611 30.2529 95.4611 30.6279C95.4611 31.1715 95.6579 31.5871 96.0516 31.8745C96.4516 32.1558 96.9576 32.2963 97.57 32.2963ZM115.291 20.3828V23.3822H106.62V20.3828H115.291ZM108.588 16.9333H112.582V30.3561C112.582 30.7248 112.638 31.0122 112.75 31.2185C112.863 31.4183 113.019 31.559 113.219 31.6402C113.425 31.7214 113.663 31.762 113.931 31.762C114.119 31.762 114.306 31.7464 114.494 31.7152C114.681 31.6777 114.825 31.6495 114.925 31.6308L115.553 34.6022C115.353 34.6646 115.072 34.7365 114.709 34.8179C114.347 34.9053 113.906 34.9584 113.388 34.9772C112.425 35.0147 111.582 34.8865 110.857 34.5929C110.138 34.2991 109.579 33.8429 109.179 33.2243C108.779 32.6058 108.582 31.8246 108.588 30.881V16.9333ZM121.997 35.0522C121.079 35.0522 120.26 34.8927 119.541 34.5741C118.823 34.2492 118.254 33.7712 117.835 33.14C117.423 32.5025 117.217 31.709 117.217 30.7592C117.217 29.9593 117.364 29.2876 117.657 28.7438C117.951 28.2002 118.351 27.7628 118.857 27.4315C119.363 27.1004 119.938 26.8504 120.582 26.6817C121.232 26.5129 121.913 26.3942 122.625 26.3254C123.463 26.238 124.138 26.1567 124.65 26.0817C125.162 26.0005 125.534 25.8818 125.765 25.7256C125.997 25.5694 126.112 25.338 126.112 25.0319V24.9756C126.112 24.382 125.925 23.9227 125.55 23.5978C125.181 23.2728 124.656 23.1104 123.975 23.1104C123.256 23.1104 122.685 23.2697 122.26 23.5885C121.835 23.9008 121.554 24.2946 121.416 24.7695L117.723 24.4695C117.911 23.5947 118.279 22.8385 118.829 22.2012C119.379 21.5575 120.088 21.0638 120.957 20.7201C121.832 20.3702 122.844 20.1953 123.994 20.1953C124.794 20.1953 125.559 20.289 126.29 20.4765C127.028 20.6638 127.681 20.9546 128.249 21.3481C128.824 21.7419 129.277 22.2479 129.608 22.8667C129.94 23.4791 130.105 24.2132 130.105 25.0694V34.7804H126.319V32.7838H126.206C125.975 33.2336 125.665 33.6305 125.278 33.9742C124.891 34.3117 124.425 34.5772 123.881 34.7709C123.338 34.9584 122.71 35.0522 121.997 35.0522ZM123.141 32.2963C123.728 32.2963 124.247 32.1807 124.697 31.9495C125.147 31.7121 125.5 31.3934 125.756 30.9934C126.012 30.5935 126.14 30.1404 126.14 29.6343V28.1065C126.015 28.1877 125.844 28.2627 125.625 28.3313C125.412 28.3939 125.172 28.4533 124.903 28.5095C124.634 28.5594 124.366 28.6064 124.097 28.6501C123.828 28.6876 123.584 28.722 123.366 28.7533C122.897 28.8219 122.488 28.9313 122.138 29.0813C121.788 29.2313 121.516 29.4343 121.322 29.6906C121.129 29.9405 121.032 30.2529 121.032 30.6279C121.032 31.1715 121.229 31.5871 121.622 31.8745C122.022 32.1558 122.528 32.2963 123.141 32.2963ZM137.309 35.0522C136.39 35.0522 135.572 34.8927 134.853 34.5741C134.134 34.2492 133.566 33.7712 133.147 33.14C132.735 32.5025 132.528 31.709 132.528 30.7592C132.528 29.9593 132.675 29.2876 132.969 28.7438C133.263 28.2002 133.663 27.7628 134.169 27.4315C134.675 27.1004 135.25 26.8504 135.893 26.6817C136.543 26.5129 137.224 26.3942 137.937 26.3254C138.774 26.238 139.449 26.1567 139.961 26.0817C140.474 26.0005 140.846 25.8818 141.077 25.7256C141.308 25.5694 141.424 25.338 141.424 25.0319V24.9756C141.424 24.382 141.236 23.9227 140.861 23.5978C140.493 23.2728 139.968 23.1104 139.287 23.1104C138.568 23.1104 137.996 23.2697 137.571 23.5885C137.146 23.9008 136.865 24.2946 136.728 24.7695L133.034 24.4695C133.222 23.5947 133.591 22.8385 134.141 22.2012C134.69 21.5575 135.4 21.0638 136.268 20.7201C137.143 20.3702 138.156 20.1953 139.305 20.1953C140.105 20.1953 140.871 20.289 141.602 20.4765C142.339 20.6638 142.992 20.9546 143.561 21.3481C144.136 21.7419 144.589 22.2479 144.92 22.8667C145.251 23.4791 145.417 24.2132 145.417 25.0694V34.7804H141.63V32.7838H141.517C141.286 33.2336 140.977 33.6305 140.589 33.9742C140.202 34.3117 139.737 34.5772 139.193 34.7709C138.649 34.9584 138.021 35.0522 137.309 35.0522ZM138.452 32.2963C139.04 32.2963 139.558 32.1807 140.008 31.9495C140.458 31.7121 140.811 31.3934 141.067 30.9934C141.324 30.5935 141.452 30.1404 141.452 29.6343V28.1065C141.327 28.1877 141.155 28.2627 140.936 28.3313C140.724 28.3939 140.483 28.4533 140.215 28.5095C139.946 28.5594 139.677 28.6064 139.408 28.6501C139.14 28.6876 138.896 28.722 138.677 28.7533C138.209 28.8219 137.799 28.9313 137.449 29.0813C137.099 29.2313 136.828 29.4343 136.634 29.6906C136.44 29.9405 136.343 30.2529 136.343 30.6279C136.343 31.1715 136.54 31.5871 136.934 31.8745C137.334 32.1558 137.84 32.2963 138.452 32.2963Z" fill="#FEFDFB"/>
<path d="M47.047 45.315C47.016 45.0396 46.888 44.8262 46.663 44.6749C46.438 44.5217 46.155 44.4452 45.8137 44.4452C45.5692 44.4452 45.3578 44.484 45.1794 44.5615C45.001 44.6371 44.8623 44.7418 44.7635 44.8757C44.6664 45.0075 44.618 45.1579 44.618 45.3265C44.618 45.4681 44.651 45.5902 44.7169 45.6931C44.7848 45.7959 44.8731 45.8822 44.9816 45.952C45.0922 46.0199 45.2106 46.077 45.3365 46.1236C45.4625 46.1682 45.5837 46.205 45.7002 46.2341L46.282 46.3854C46.4721 46.432 46.6669 46.495 46.8667 46.5745C47.0664 46.6541 47.2516 46.7587 47.4223 46.8887C47.5929 47.0187 47.7307 47.1796 47.8354 47.3717C47.942 47.5635 47.9954 47.7935 47.9954 48.0611C47.9954 48.3984 47.908 48.698 47.7336 48.96C47.5609 49.2217 47.3098 49.4282 46.9802 49.5794C46.6523 49.7307 46.2558 49.8064 45.7903 49.8064C45.3444 49.8064 44.9584 49.7356 44.6326 49.594C44.3067 49.4526 44.0517 49.2518 43.8675 48.9918C43.6833 48.7301 43.5815 48.4199 43.562 48.0611H44.4638C44.4813 48.2762 44.551 48.4557 44.6734 48.5992C44.7973 48.7408 44.9555 48.8464 45.1474 48.9163C45.3414 48.9842 45.5537 49.018 45.7845 49.018C46.0387 49.018 46.2646 48.9783 46.4623 48.8988C46.6621 48.8174 46.8192 48.7049 46.9336 48.5613C47.0481 48.4158 47.1052 48.2462 47.1052 48.0523C47.1052 47.8757 47.0548 47.7314 46.9539 47.6189C46.8551 47.5064 46.7202 47.4134 46.5496 47.3396C46.3809 47.2659 46.1899 47.2009 45.9766 47.1447L45.2724 46.9526C44.7955 46.8228 44.4172 46.6317 44.138 46.3796C43.8607 46.1274 43.722 45.7939 43.722 45.3789C43.722 45.0356 43.815 44.7361 44.0013 44.48C44.1875 44.224 44.4396 44.0253 44.7576 43.8836C45.0757 43.7402 45.4345 43.6685 45.834 43.6685C46.2374 43.6685 46.5931 43.7393 46.9015 43.8807C47.2119 44.0223 47.4562 44.2173 47.6346 44.4654C47.813 44.7117 47.9062 44.995 47.9138 45.315H47.047ZM54.7771 46.7287C54.7771 47.3648 54.6607 47.9116 54.4279 48.3694C54.1953 48.8251 53.8763 49.1762 53.4709 49.4223C53.0675 49.6668 52.609 49.789 52.0949 49.789C51.5792 49.789 51.1184 49.6668 50.7132 49.4223C50.3098 49.1762 49.9918 48.8242 49.759 48.3665C49.5263 47.9089 49.41 47.3629 49.41 46.7287C49.41 46.0927 49.5263 45.5467 49.759 45.0909C49.9918 44.6333 50.3098 44.2823 50.7132 44.0378C51.1184 43.7915 51.5792 43.6685 52.0949 43.6685C52.609 43.6685 53.0675 43.7915 53.4709 44.0378C53.8763 44.2823 54.1953 44.6333 54.4279 45.0909C54.6607 45.5467 54.7771 46.0927 54.7771 46.7287ZM53.8869 46.7287C53.8869 46.2439 53.8084 45.8356 53.6513 45.504C53.4962 45.1705 53.2829 44.9183 53.0113 44.7476C52.7417 44.575 52.4362 44.4887 52.0949 44.4887C51.7518 44.4887 51.4454 44.575 51.1758 44.7476C50.9062 44.9183 50.6928 45.1705 50.5357 45.504C50.3806 45.8356 50.3031 46.2439 50.3031 46.7287C50.3031 47.2135 50.3806 47.6227 50.5357 47.9564C50.6928 48.2879 50.9062 48.54 51.1758 48.7126C51.4454 48.8833 51.7518 48.9687 52.0949 48.9687C52.4362 48.9687 52.7417 48.8833 53.0113 48.7126C53.2829 48.54 53.4962 48.2879 53.6513 47.9564C53.8084 47.6227 53.8869 47.2135 53.8869 46.7287ZM56.4302 49.7076V43.7498H60.1246V44.5237H57.3291V46.339H59.8599V47.1097H57.3291V49.7076H56.4302ZM61.4688 44.5237V43.7498H66.0795V44.5237H64.2207V49.7076H63.3247V44.5237H61.4688ZM68.7973 49.7076L67.145 43.7498H68.0905L69.2512 48.3636H69.3065L70.5136 43.7498H71.4504L72.6576 48.3665H72.7128L73.8707 43.7498H74.819L73.1637 49.7076H72.2592L71.0053 45.2451H70.9587L69.705 49.7076H68.7973ZM76.1623 49.7076H75.2082L77.3521 43.7498H78.3906L80.5346 49.7076H79.5804L77.8962 44.8321H77.8496L76.1623 49.7076ZM76.3223 47.3744H79.4175V48.1308H76.3223V47.3744ZM81.9274 49.7076V43.7498H84.0509C84.5126 43.7498 84.8956 43.8294 85.1999 43.9885C85.5065 44.1474 85.7353 44.3675 85.8866 44.6487C86.0379 44.928 86.1134 45.2509 86.1134 45.6176C86.1134 45.982 86.0368 46.3029 85.8837 46.5804C85.7324 46.8558 85.5036 47.07 85.197 47.2233C84.8927 47.3764 84.5096 47.4531 84.048 47.4531H82.4393V46.6792H83.9666C84.2575 46.6792 84.494 46.6375 84.6764 46.5541C84.8606 46.4708 84.9953 46.3495 85.0807 46.1906C85.1661 46.0315 85.2087 45.8406 85.2087 45.6176C85.2087 45.3926 85.1652 45.1976 85.0778 45.0328C84.9924 44.8679 84.8577 44.7418 84.6735 44.6546C84.4913 44.5654 84.2517 44.5208 83.955 44.5208H82.8263V49.7076H81.9274ZM84.8684 47.0196L86.3404 49.7076H85.3164L83.8734 47.0196H84.8684ZM87.7397 49.7076V43.7498H91.4748V44.5237H88.6385V46.339H91.2799V47.1097H88.6385V48.9338H91.5098V49.7076H87.7397ZM99.1578 45.315C99.1266 45.0396 98.9987 44.8262 98.7737 44.6749C98.5488 44.5217 98.2656 44.4452 97.9243 44.4452C97.68 44.4452 97.4686 44.484 97.2902 44.5615C97.1118 44.6371 96.9731 44.7418 96.8741 44.8757C96.7772 45.0075 96.7286 45.1579 96.7286 45.3265C96.7286 45.4681 96.7618 45.5902 96.8277 45.6931C96.8956 45.7959 96.9837 45.8822 97.0924 45.952C97.2029 46.0199 97.3212 46.077 97.4473 46.1236C97.5733 46.1682 97.6945 46.205 97.8109 46.2341L98.3927 46.3854C98.5827 46.432 98.7777 46.495 98.9774 46.5745C99.1771 46.6541 99.3624 46.7587 99.5329 46.8887C99.7037 47.0187 99.8413 47.1796 99.946 47.3717C100.053 47.5635 100.106 47.7935 100.106 48.0611C100.106 48.3984 100.019 48.698 99.8442 48.96C99.6717 49.2217 99.4204 49.4282 99.0908 49.5794C98.7631 49.7307 98.3664 49.8064 97.901 49.8064C97.455 49.8064 97.069 49.7356 96.7432 49.594C96.4175 49.4526 96.1625 49.2518 95.9783 48.9918C95.7941 48.7301 95.6921 48.4199 95.6728 48.0611H96.5746C96.5919 48.2762 96.6618 48.4557 96.784 48.5992C96.9081 48.7408 97.0661 48.8464 97.2582 48.9163C97.4521 48.9842 97.6645 49.018 97.8951 49.018C98.1493 49.018 98.3752 48.9783 98.5731 48.8988C98.7728 48.8174 98.9298 48.7049 99.0444 48.5613C99.1587 48.4158 99.2158 48.2462 99.2158 48.0523C99.2158 47.8757 99.1654 47.7314 99.0646 47.6189C98.9657 47.5064 98.831 47.4134 98.6603 47.3396C98.4915 47.2659 98.3005 47.2009 98.0872 47.1447L97.3832 46.9526C96.9061 46.8228 96.528 46.6317 96.2488 46.3796C95.9714 46.1274 95.8328 45.7939 95.8328 45.3789C95.8328 45.0356 95.9258 44.7361 96.1121 44.48C96.2981 44.224 96.5502 44.0253 96.8683 43.8836C97.1865 43.7402 97.5453 43.6685 97.9447 43.6685C98.3481 43.6685 98.7039 43.7393 99.0123 43.8807C99.3225 44.0223 99.567 44.2173 99.7454 44.4654C99.9238 44.7117 100.017 44.995 100.025 45.315H99.1578ZM106.888 46.7287C106.888 47.3648 106.771 47.9116 106.539 48.3694C106.306 48.8251 105.987 49.1762 105.582 49.4223C105.178 49.6668 104.72 49.789 104.206 49.789C103.69 49.789 103.229 49.6668 102.824 49.4223C102.421 49.1762 102.102 48.8242 101.87 48.3665C101.637 47.9089 101.521 47.3629 101.521 46.7287C101.521 46.0927 101.637 45.5467 101.87 45.0909C102.102 44.6333 102.421 44.2823 102.824 44.0378C103.229 43.7915 103.69 43.6685 104.206 43.6685C104.72 43.6685 105.178 43.7915 105.582 44.0378C105.987 44.2823 106.306 44.6333 106.539 45.0909C106.771 45.5467 106.888 46.0927 106.888 46.7287ZM105.998 46.7287C105.998 46.2439 105.919 45.8356 105.762 45.504C105.607 45.1705 105.394 44.9183 105.122 44.7476C104.852 44.575 104.547 44.4887 104.206 44.4887C103.862 44.4887 103.556 44.575 103.286 44.7476C103.017 44.9183 102.804 45.1705 102.647 45.504C102.491 45.8356 102.414 46.2439 102.414 46.7287C102.414 47.2135 102.491 47.6227 102.647 47.9564C102.804 48.2879 103.017 48.54 103.286 48.7126C103.556 48.8833 103.862 48.9687 104.206 48.9687C104.547 48.9687 104.852 48.8833 105.122 48.7126C105.394 48.54 105.607 48.2879 105.762 47.9564C105.919 47.6227 105.998 47.2135 105.998 46.7287ZM108.541 49.7076V43.7498H109.44V48.9338H112.139V49.7076H108.541ZM117.528 43.7498H118.43V47.6682C118.43 48.0853 118.332 48.4546 118.136 48.7767C117.941 49.0967 117.665 49.3488 117.31 49.533C116.955 49.7152 116.539 49.8064 116.062 49.8064C115.587 49.8064 115.172 49.7152 114.817 49.533C114.462 49.3488 114.187 49.0967 113.991 48.7767C113.795 48.4546 113.697 48.0853 113.697 47.6682V43.7498H114.596V47.5956C114.596 47.8652 114.655 48.1047 114.774 48.3141C114.894 48.5236 115.064 48.6884 115.283 48.8087C115.502 48.927 115.762 48.986 116.062 48.986C116.365 48.986 116.626 48.927 116.845 48.8087C117.066 48.6884 117.235 48.5236 117.351 48.3141C117.469 48.1047 117.528 47.8652 117.528 47.5956V43.7498ZM119.976 44.5237V43.7498H124.587V44.5237H122.728V49.7076H121.832V44.5237H119.976ZM127.037 43.7498V49.7076H126.138V43.7498H127.037ZM134.053 46.7287C134.053 47.3648 133.937 47.9116 133.704 48.3694C133.472 48.8251 133.153 49.1762 132.747 49.4223C132.344 49.6668 131.885 49.789 131.371 49.789C130.855 49.789 130.395 49.6668 129.989 49.4223C129.586 49.1762 129.268 48.8242 129.035 48.3665C128.803 47.9089 128.686 47.3629 128.686 46.7287C128.686 46.0927 128.803 45.5467 129.035 45.0909C129.268 44.6333 129.586 44.2823 129.989 44.0378C130.395 43.7915 130.855 43.6685 131.371 43.6685C131.885 43.6685 132.344 43.7915 132.747 44.0378C133.153 44.2823 133.472 44.6333 133.704 45.0909C133.937 45.5467 134.053 46.0927 134.053 46.7287ZM133.163 46.7287C133.163 46.2439 133.085 45.8356 132.928 45.504C132.773 45.1705 132.559 44.9183 132.288 44.7476C132.018 44.575 131.712 44.4887 131.371 44.4887C131.028 44.4887 130.722 44.575 130.452 44.7476C130.182 44.9183 129.969 45.1705 129.812 45.504C129.657 45.8356 129.579 46.2439 129.579 46.7287C129.579 47.2135 129.657 47.6227 129.812 47.9564C129.969 48.2879 130.182 48.54 130.452 48.7126C130.722 48.8833 131.028 48.9687 131.371 48.9687C131.712 48.9687 132.018 48.8833 132.288 48.7126C132.559 48.54 132.773 48.2879 132.928 47.9564C133.085 47.6227 133.163 47.2135 133.163 46.7287ZM140.515 43.7498V49.7076H139.689L136.661 45.3381H136.605V49.7076H135.706V43.7498H136.539L139.57 48.125H139.625V43.7498H140.515ZM145.608 45.315C145.577 45.0396 145.449 44.8262 145.224 44.6749C144.999 44.5217 144.716 44.4452 144.375 44.4452C144.13 44.4452 143.919 44.484 143.741 44.5615C143.562 44.6371 143.423 44.7418 143.325 44.8757C143.228 45.0075 143.179 45.1579 143.179 45.3265C143.179 45.4681 143.212 45.5902 143.278 45.6931C143.346 45.7959 143.434 45.8822 143.543 45.952C143.653 46.0199 143.772 46.077 143.898 46.1236C144.024 46.1682 144.145 46.205 144.261 46.2341L144.843 46.3854C145.033 46.432 145.228 46.495 145.428 46.5745C145.628 46.6541 145.813 46.7587 145.983 46.8887C146.154 47.0187 146.292 47.1796 146.396 47.3717C146.503 47.5635 146.556 47.7935 146.556 48.0611C146.556 48.3984 146.469 48.698 146.295 48.96C146.122 49.2217 145.871 49.4282 145.541 49.5794C145.213 49.7307 144.817 49.8064 144.351 49.8064C143.905 49.8064 143.52 49.7356 143.194 49.594C142.868 49.4526 142.613 49.2518 142.429 48.9918C142.244 48.7301 142.143 48.4199 142.123 48.0611H143.025C143.042 48.2762 143.112 48.4557 143.234 48.5992C143.358 48.7408 143.517 48.8464 143.709 48.9163C143.903 48.9842 144.115 49.018 144.346 49.018C144.6 49.018 144.826 48.9783 145.023 48.8988C145.223 48.8174 145.38 48.7049 145.495 48.5613C145.609 48.4158 145.666 48.2462 145.666 48.0523C145.666 47.8757 145.616 47.7314 145.515 47.6189C145.416 47.5064 145.281 47.4134 145.111 47.3396C144.942 47.2659 144.751 47.2009 144.538 47.1447L143.834 46.9526C143.357 46.8228 142.978 46.6317 142.699 46.3796C142.422 46.1274 142.283 45.7939 142.283 45.3789C142.283 45.0356 142.376 44.7361 142.562 44.48C142.749 44.224 143.001 44.0253 143.319 43.8836C143.637 43.7402 143.996 43.6685 144.395 43.6685C144.799 43.6685 145.154 43.7393 145.463 43.8807C145.773 44.0223 146.017 44.2173 146.196 44.4654C146.374 44.7117 146.467 44.995 146.475 45.315H145.608Z" fill="#FEFDFB"/>
<defs>
<linearGradient id="paint0_linear_313_5218" x1="21.1165" y1="2.9126" x2="21.1165" y2="58.0924" gradientUnits="userSpaceOnUse">
<stop stop-color="#FF9705"/>
<stop offset="1" stop-color="#0048FF"/>
</linearGradient>
</defs>
</svg>
