<svg width="23" height="24" viewBox="0 0 23 24" fill="none" xmlns="http://www.w3.org/2000/svg">
<path d="M4.60117 10.4875C6.40117 14.025 9.30117 16.9125 12.8387 18.725L15.5887 15.975C15.9262 15.6375 16.4262 15.525 16.8637 15.675C18.2637 16.1375 19.7762 16.3875 21.3262 16.3875C22.0137 16.3875 22.5762 16.95 22.5762 17.6375V22C22.5762 22.6875 22.0137 23.25 21.3262 23.25C9.58867 23.25 0.0761719 13.7375 0.0761719 2C0.0761719 1.3125 0.638672 0.75 1.32617 0.75H5.70117C6.38867 0.75 6.95117 1.3125 6.95117 2C6.95117 3.5625 7.20117 5.0625 7.66367 6.4625C7.80117 6.9 7.70117 7.3875 7.35117 7.7375L4.60117 10.4875Z" fill="#FF9705"/>
</svg>
