<svg width="26" height="25" viewBox="0 0 26 25" fill="none" xmlns="http://www.w3.org/2000/svg">
<rect x="0.326172" width="25" height="25" rx="12.5" fill="#FF9705"/>
<path d="M12.8262 0C19.7369 0 25.3262 5.58929 25.3262 12.5C25.3262 19.4107 19.7369 25 12.8262 25C5.91546 25 0.326172 19.4107 0.326172 12.5C0.326172 5.58929 5.91546 0 12.8262 0ZM10.5405 19.0893C16.0762 19.0893 19.1119 14.5 19.1119 10.5179V10.125C19.7012 9.69643 20.219 9.16071 20.6119 8.55357C20.0762 8.78571 19.4869 8.94643 18.8797 9.03571C19.5047 8.66071 19.9869 8.07143 20.2012 7.375C19.6119 7.71429 18.969 7.96429 18.2905 8.10714C17.7369 7.51786 16.9512 7.16071 16.094 7.16071C14.4333 7.16071 13.0762 8.51786 13.0762 10.1786C13.0762 10.4107 13.094 10.6429 13.1655 10.8571C10.6655 10.7321 8.43331 9.53571 6.95117 7.71429C6.70117 8.16071 6.54046 8.67857 6.54046 9.23214C6.54046 10.2679 7.07617 11.1964 7.87974 11.7321C7.37974 11.7321 6.91546 11.5893 6.5226 11.3571V11.3929C6.5226 12.8571 7.55831 14.0714 8.93332 14.3571C8.68332 14.4286 8.41546 14.4643 8.1476 14.4643C7.95117 14.4643 7.7726 14.4464 7.57617 14.4107C7.95117 15.6071 9.07617 16.4821 10.3797 16.5C9.34403 17.3036 8.04046 17.7857 6.62974 17.7857C6.37974 17.7857 6.1476 17.7857 5.91546 17.75C7.23689 18.6071 8.82617 19.1071 10.5226 19.1071" fill="white"/>
</svg>
