<svg width="775" height="863" viewBox="0 0 775 863" fill="none" xmlns="http://www.w3.org/2000/svg">
<circle cx="470" cy="294" r="292.5" stroke="#0048FF" stroke-width="3" stroke-dasharray="10 10"/>
<path d="M387.5 862.293C601.51 862.293 775 762.13 775 638.574C775 515.018 601.51 414.855 387.5 414.855C173.49 414.855 0 515.018 0 638.574C0 762.13 173.49 862.293 387.5 862.293Z" fill="#F5F5F5"/>
<path d="M453.826 761.582C493.176 761.582 525.076 743.165 525.076 720.447C525.076 697.729 493.176 679.312 453.826 679.312C414.476 679.312 382.576 697.729 382.576 720.447C382.576 743.165 414.476 761.582 453.826 761.582Z" fill="#E0E0E0"/>
<path d="M639.181 737.218C678.532 737.218 710.431 718.802 710.431 696.083C710.431 673.365 678.532 654.949 639.181 654.949C599.831 654.949 567.932 673.365 567.932 696.083C567.932 718.802 599.831 737.218 639.181 737.218Z" fill="#E0E0E0"/>
<path d="M249.461 823.258C288.811 823.258 320.71 804.842 320.71 782.123C320.71 759.405 288.811 740.989 249.461 740.989C210.111 740.989 178.211 759.405 178.211 782.123C178.211 804.842 210.111 823.258 249.461 823.258Z" fill="#E0E0E0"/>
<path d="M132.686 646.856C132.686 646.856 130.826 603.362 112.592 579.153C94.3576 554.944 72.0081 551.466 60.9367 558.284C52.8441 563.243 53.9288 577.982 67.9274 587.556C81.9259 597.129 108.907 621.665 113.126 637.661L132.686 646.856Z" fill="#3C6F26"/>
<path d="M120.633 640.52C120.338 640.497 120.063 640.361 119.867 640.139C119.67 639.917 119.569 639.627 119.583 639.331C121.46 599.867 86.8679 575.262 77.4495 570.837C77.1792 570.709 76.9699 570.481 76.8667 570.201C76.7636 569.92 76.775 569.611 76.8985 569.339C77.0291 569.067 77.2607 568.857 77.5439 568.755C77.827 568.652 78.1392 568.663 78.4137 568.788C88.0732 573.368 123.767 598.73 121.839 639.383C121.821 639.682 121.686 639.961 121.464 640.161C121.241 640.361 120.949 640.465 120.65 640.451L120.633 640.52Z" fill="white"/>
<path d="M124.076 633.116C121.59 633.082 119.2 632.153 117.344 630.499C115.226 628.174 115.398 624.61 114.417 621.614C112.816 616.69 107.96 613.349 102.898 612.299C97.765 611.498 92.5183 611.851 87.539 613.332C77.3801 615.829 67.6173 609.578 57.4412 610.319C53.7695 610.437 50.1988 611.55 47.1102 613.539C45.5868 614.546 44.3388 615.918 43.4789 617.529C42.6191 619.141 42.1746 620.941 42.1858 622.768C42.5348 625.791 44.0404 628.561 46.387 630.499C48.7401 632.431 51.3328 634.052 54.1009 635.32L63.0372 639.883C64.5821 640.569 66.0065 641.499 67.2557 642.638C68.4364 643.903 69.3268 645.41 69.8651 647.055C70.4034 648.699 70.5764 650.441 70.3723 652.159C69.6835 655.603 66.9286 658.22 66.0504 661.595C64.9657 666.02 67.669 670.755 71.5603 673.149C75.6022 675.337 80.216 676.238 84.7841 675.731C89.3469 675.473 93.8582 674.561 98.421 674.474C101.508 674.254 104.593 674.929 107.306 676.42C110.369 678.638 112.576 681.842 113.556 685.494C114.147 687.837 115.088 690.077 116.345 692.141C117.896 694.101 119.984 695.567 122.355 696.359C126.939 698.047 131.975 698.047 136.56 696.359C140.331 694.913 142.173 690.66 143.585 686.975C144.996 683.117 145.667 679.028 145.565 674.922C145.348 664.367 142.963 653.97 138.557 644.377C136.439 639.969 133.392 635.561 128.708 634.046C127.191 633.613 125.643 633.302 124.076 633.116Z" fill="#1F820E"/>
<path d="M133.857 680.432C133.649 680.433 133.445 680.368 133.276 680.248C133.106 680.128 132.978 679.957 132.91 679.76C122.286 649.301 72.0255 622.802 53.7051 619.754C53.5751 619.733 53.4506 619.686 53.3387 619.616C53.2268 619.547 53.1297 619.456 53.053 619.349C52.9762 619.242 52.9213 619.12 52.8914 618.992C52.8615 618.864 52.8572 618.731 52.8787 618.601C52.9001 618.471 52.947 618.346 53.0166 618.234C53.0862 618.122 53.1772 618.025 53.2843 617.949C53.3914 617.872 53.5126 617.817 53.641 617.787C53.7693 617.757 53.9023 617.753 54.0323 617.774C72.7659 620.873 124.025 647.958 134.959 679.089C135.005 679.214 135.025 679.348 135.019 679.481C135.013 679.614 134.98 679.745 134.922 679.866C134.864 679.986 134.783 680.094 134.682 680.182C134.582 680.27 134.466 680.338 134.339 680.38C134.184 680.434 134.019 680.451 133.857 680.432Z" fill="white"/>
<path d="M88.675 663.73C88.4826 663.714 88.2991 663.642 88.1464 663.524C87.9938 663.406 87.8786 663.247 87.8149 663.064C87.7511 662.882 87.7415 662.686 87.7872 662.498C87.8329 662.311 87.9319 662.14 88.0723 662.008C96.2905 656.323 106.009 653.201 116.001 653.037C116.245 653.069 116.47 653.189 116.632 653.374C116.795 653.56 116.884 653.798 116.884 654.044C116.884 654.291 116.795 654.529 116.632 654.714C116.47 654.9 116.245 655.02 116.001 655.052C106.443 655.283 97.1572 658.273 89.2604 663.661C89.0761 663.74 88.8727 663.764 88.675 663.73Z" fill="white"/>
<path d="M134.407 703.987C133.324 703.25 132.43 702.27 131.796 701.125C131.162 699.979 130.806 698.7 130.757 697.392V338.578C130.832 337.229 131.223 335.917 131.899 334.747C132.575 333.578 133.517 332.584 134.648 331.845L556.774 88.1191C557.896 87.4132 559.189 87.0267 560.514 87.0013C561.84 86.976 563.147 87.3127 564.295 87.9753C565.442 88.6378 566.388 89.601 567.029 90.7612C567.67 91.9213 567.982 93.2343 567.932 94.5588V453.39C567.857 454.739 567.466 456.051 566.79 457.221C566.114 458.39 565.172 459.384 564.041 460.123L141.914 703.849C140.761 704.456 139.481 704.785 138.177 704.809C136.873 704.833 135.582 704.551 134.407 703.987Z" fill="#232323"/>
<path d="M141.174 704.176H141.019C140.901 704.247 140.774 704.299 140.64 704.331H140.347C140.175 704.391 139.996 704.432 139.814 704.452C139.698 704.498 139.576 704.527 139.452 704.538L138.867 704.624C137.33 704.832 135.767 704.561 134.39 703.849C133.309 703.117 132.416 702.139 131.785 700.996C131.153 699.853 130.801 698.577 130.757 697.272V384.568L138.057 388.787V701.593C138.057 703.315 138.936 704.383 140.21 704.383C140.381 704.409 140.555 704.409 140.726 704.383C140.885 704.337 141.036 704.268 141.174 704.176Z" fill="#FF9705"/>
<path opacity="0.81" d="M141.174 704.176H141.019C140.901 704.247 140.774 704.299 140.64 704.331H140.347C140.175 704.391 139.996 704.432 139.814 704.452C139.698 704.498 139.576 704.527 139.452 704.538L138.867 704.624C137.33 704.832 135.767 704.561 134.39 703.849C133.309 703.117 132.416 702.139 131.785 700.996C131.153 699.853 130.801 698.577 130.757 697.272V384.568L138.057 388.787V701.593C138.057 703.315 138.936 704.383 140.21 704.383C140.381 704.409 140.555 704.409 140.726 704.383C140.885 704.337 141.036 704.268 141.174 704.176Z" fill="#E0E0E0"/>
<path d="M138.041 388.787L130.74 384.568V454.045L138.041 458.298V388.787Z" fill="#FF9705"/>
<path opacity="0.15" d="M138.041 388.787L130.74 384.568V454.045L138.041 458.298V388.787Z" fill="black"/>
<path d="M139.16 338.957C138.471 340.116 138.086 341.431 138.04 342.779V388.787L130.74 384.568V338.578C130.731 338.423 130.731 338.268 130.74 338.113C130.773 337.789 130.825 337.467 130.895 337.149C131.109 336.307 131.434 335.496 131.859 334.738L139.16 338.957Z" fill="#263238"/>
<path d="M567.932 94.5759V115.341L258.5 293.982C256.365 295.222 254.626 294.206 254.626 291.744V283.875C254.626 281.413 252.904 280.431 250.734 281.637L156.498 336.064C155.367 336.802 154.425 337.796 153.749 338.966C153.073 340.135 152.682 341.447 152.607 342.796V350.648C152.534 351.995 152.145 353.306 151.472 354.476C150.799 355.645 149.861 356.64 148.733 357.38L138.04 363.613V342.951C138.113 341.604 138.502 340.293 139.175 339.123C139.848 337.954 140.786 336.959 141.914 336.219L564.058 92.3375C566.193 91.0978 567.932 92.0964 567.932 94.5759Z" fill="#525252"/>
<path d="M567.949 453.407C567.871 454.753 567.479 456.062 566.803 457.228C566.127 458.395 565.187 459.386 564.058 460.122L141.914 703.849C139.779 705.071 138.04 704.073 138.04 701.593V363.613L148.733 357.449C150.868 356.209 154.346 337.373 156.498 336.133L249.15 282.635C251.303 281.396 256.365 295.308 258.5 294.068L567.932 115.341V453.407H567.949Z" fill="#FF9705"/>
<path opacity="0.9" d="M567.949 453.407C567.871 454.753 567.479 456.062 566.803 457.228C566.127 458.395 565.187 459.386 564.058 460.122L141.914 703.849C139.779 705.071 138.04 704.073 138.04 701.593V363.613L148.733 357.449C150.868 356.209 154.346 337.373 156.498 336.133L249.15 282.635C251.303 281.396 256.365 295.308 258.5 294.068L567.932 115.341V453.407H567.949Z" fill="white"/>
<g opacity="0.4">
<path d="M566.21 118.32V453.407C566.126 454.441 565.81 455.442 565.286 456.337C564.761 457.231 564.041 457.995 563.179 458.573L141.053 702.351C140.793 702.527 140.489 702.628 140.175 702.644C139.779 702.644 139.762 701.783 139.762 701.593V364.526L149.594 358.844C151.109 357.966 152.073 354.953 154.243 347.204C155.03 343.866 156.114 340.605 157.48 337.459L249.374 284.409C250.474 285.908 251.464 287.485 252.336 289.127C254.832 293.5 256.21 295.773 258.207 295.773C258.61 295.772 259.006 295.671 259.361 295.48L566.21 118.32ZM567.932 115.341L258.5 293.982C258.404 294.006 258.303 294.006 258.207 293.982C256.038 293.982 251.63 282.394 249.443 282.394C249.347 282.369 249.246 282.369 249.15 282.394L156.498 336.064C154.346 337.304 150.868 356.141 148.733 357.38L138.04 363.613V701.593C138.04 703.315 138.918 704.365 140.175 704.365C140.783 704.34 141.375 704.163 141.897 703.849L564.058 460.122C565.187 459.386 566.127 458.395 566.803 457.228C567.479 456.062 567.871 454.753 567.949 453.407V115.341H567.932Z" fill="#FF9705"/>
</g>
<path d="M138.04 388.787V458.297L567.932 210.128V140.601L138.04 388.787Z" fill="#FF9705"/>
<path d="M567.932 115.341V140.601L138.04 388.787V363.613L146.012 358.999C148.147 357.759 148.87 355.865 149.886 352.266L152.607 342.865C153.451 339.594 154.329 337.373 156.498 336.133L249.15 282.635C251.303 281.396 252.99 281.258 254.626 283.961L257.949 289.988C259.154 292.105 259.774 293.345 261.909 292.105L567.932 115.341Z" fill="#F0F0F0"/>
<path d="M549.715 107.593C552.418 106.043 554.605 107.3 554.605 110.417C554.513 112.114 554.022 113.765 553.172 115.237C552.323 116.709 551.138 117.96 549.715 118.888C547.029 120.438 544.842 119.181 544.842 116.064C544.935 114.369 545.424 112.72 546.27 111.249C547.116 109.777 548.296 108.525 549.715 107.593Z" fill="#FF9705"/>
<path d="M532.153 117.735C534.839 116.185 537.025 117.442 537.025 120.559C536.933 122.254 536.443 123.903 535.597 125.374C534.751 126.846 533.571 128.098 532.153 129.03C529.449 130.58 527.263 129.323 527.263 126.206C527.355 124.509 527.845 122.858 528.695 121.386C529.545 119.914 530.729 118.663 532.153 117.735Z" fill="#FF9705"/>
<path d="M514.537 127.877C517.224 126.327 519.427 127.584 519.427 130.7C519.331 132.396 518.839 134.046 517.99 135.518C517.141 136.989 515.958 138.24 514.537 139.172C511.834 140.739 509.647 139.465 509.647 136.348C509.739 134.651 510.23 133 511.08 131.528C511.929 130.056 513.114 128.805 514.537 127.877Z" fill="#FF9705"/>
<path opacity="0.5" d="M155.845 365.335L149.749 368.779L152.074 364.32C152.166 364.15 152.214 363.961 152.214 363.769C152.214 363.576 152.166 363.387 152.074 363.218C151.902 363.011 151.592 363.218 151.385 363.545L148.079 369.916C148.072 369.996 148.072 370.076 148.079 370.157C148.072 370.265 148.072 370.375 148.079 370.484C148.069 370.581 148.069 370.679 148.079 370.776C148.071 370.822 148.071 370.869 148.079 370.914L151.385 373.463C151.434 373.493 151.491 373.509 151.549 373.509C151.607 373.509 151.663 373.493 151.712 373.463C151.87 373.333 151.994 373.168 152.074 372.98C152.246 372.567 152.229 372.102 152.074 371.947L149.749 370.225L155.845 366.782C156.004 366.658 156.133 366.498 156.219 366.316C156.306 366.134 156.349 365.933 156.344 365.731C156.344 365.335 156.12 365.198 155.845 365.335Z" fill="#232323"/>
<path opacity="0.5" d="M160.941 362.408L167.036 358.965L164.712 357.243C164.505 357.088 164.488 356.623 164.712 356.21C164.936 355.796 165.194 355.573 165.401 355.728L168.706 358.276C168.75 358.307 168.785 358.349 168.81 358.396C168.828 358.487 168.828 358.581 168.81 358.672C168.828 358.78 168.828 358.891 168.81 358.999C168.81 358.999 168.81 358.999 168.81 359.085C168.783 359.168 168.748 359.249 168.706 359.326L165.401 365.628C165.329 365.782 165.216 365.914 165.073 366.007C165.025 366.054 164.96 366.081 164.893 366.081C164.825 366.081 164.76 366.054 164.712 366.007C164.615 365.839 164.564 365.649 164.564 365.456C164.564 365.263 164.615 365.072 164.712 364.905L167.036 360.428L160.941 363.958C160.665 364.113 160.459 363.958 160.459 363.476C160.448 363.272 160.486 363.069 160.57 362.883C160.654 362.698 160.781 362.535 160.941 362.408Z" fill="#232323"/>
<path opacity="0.5" d="M180.897 344.845C180.897 344.484 180.536 344.536 180.381 344.932L179.537 346.981C178.108 346.826 176.386 348.203 175.215 350.682C173.717 353.868 173.717 357.57 175.215 359.102C175.583 359.446 176.059 359.652 176.562 359.683C177.065 359.714 177.562 359.57 177.97 359.274C179.188 358.458 180.139 357.303 180.708 355.951C180.803 355.79 180.854 355.605 180.854 355.418C180.854 355.23 180.803 355.045 180.708 354.884C180.501 354.694 180.191 354.884 180.002 355.28C178.883 357.656 177.04 358.723 175.921 357.639C174.802 356.554 174.785 353.73 175.921 351.337C176.713 349.615 177.867 348.634 178.883 348.582L178.246 350.114C178.091 350.51 178.246 350.889 178.487 350.717L180.983 349.098C181.079 349.012 181.153 348.905 181.201 348.786C181.249 348.667 181.269 348.538 181.259 348.41L180.897 344.845Z" fill="#232323"/>
<path opacity="0.5" d="M246.482 294.086L248.703 289.368C248.833 289.146 248.902 288.893 248.902 288.636C248.902 288.379 248.833 288.126 248.703 287.904C248.444 287.663 248.014 287.904 247.756 288.455L245.535 293.156L243.296 291.021C243.038 290.763 242.607 291.021 242.349 291.572C242.219 291.794 242.15 292.046 242.15 292.304C242.15 292.561 242.219 292.813 242.349 293.035L244.57 295.17L242.349 299.906C242.219 300.127 242.15 300.38 242.15 300.637C242.15 300.895 242.219 301.147 242.349 301.369C242.417 301.425 242.502 301.456 242.59 301.456C242.678 301.456 242.763 301.425 242.831 301.369C243.045 301.236 243.208 301.037 243.296 300.801L245.535 296.083L247.756 298.235C247.821 298.29 247.903 298.32 247.988 298.32C248.073 298.32 248.156 298.29 248.221 298.235C248.435 298.099 248.603 297.901 248.703 297.667C248.833 297.445 248.902 297.193 248.902 296.935C248.902 296.678 248.833 296.426 248.703 296.204L246.482 294.086Z" fill="#232323"/>
<path d="M189.041 350.631V342.779C189.121 341.432 189.516 340.122 190.195 338.956C190.874 337.789 191.817 336.799 192.95 336.064L542.225 134.609C544.377 133.369 546.116 134.368 546.116 136.847V144.596C546.041 145.944 545.65 147.257 544.974 148.426C544.298 149.596 543.356 150.59 542.225 151.328L192.95 352.887C190.78 354.126 189.041 353.11 189.041 350.631Z" fill="white"/>
<path d="M536.905 151.827C536.814 151.845 536.72 151.845 536.63 151.827C536.447 151.736 536.301 151.586 536.213 151.402C536.126 151.218 536.103 151.01 536.147 150.811L536.526 147.557L534.942 146.421C534.829 146.338 534.739 146.229 534.679 146.102C534.619 145.976 534.591 145.837 534.598 145.697C534.599 145.46 534.652 145.227 534.753 145.012C534.854 144.798 535.001 144.609 535.183 144.458L537.456 142.736C537.532 142.667 537.586 142.577 537.611 142.478L538.627 139.137C538.685 138.894 538.811 138.672 538.991 138.498C539.171 138.324 539.397 138.205 539.643 138.156C539.796 138.151 539.948 138.19 540.079 138.27C540.211 138.349 540.316 138.465 540.383 138.603L541.296 140.566L543.362 139.774C543.507 139.712 543.668 139.697 543.823 139.731C543.977 139.765 544.117 139.846 544.223 139.964C544.358 140.171 544.431 140.413 544.431 140.661C544.431 140.909 544.358 141.151 544.223 141.358L542.501 144.458C542.483 144.549 542.483 144.642 542.501 144.733L542.897 147.54C542.921 147.769 542.893 148.001 542.815 148.219C542.738 148.436 542.613 148.634 542.449 148.797C542.358 148.906 542.241 148.991 542.109 149.045C541.977 149.099 541.834 149.12 541.692 149.107L539.643 148.848L537.663 151.5C537.567 151.605 537.45 151.689 537.319 151.745C537.189 151.802 537.047 151.83 536.905 151.827ZM535.596 145.508L537.181 146.644C537.314 146.756 537.414 146.901 537.472 147.064C537.529 147.228 537.542 147.404 537.508 147.574L537.318 150.26L539.04 148.091C539.138 147.951 539.27 147.838 539.424 147.763C539.577 147.688 539.747 147.652 539.918 147.66L541.967 147.919C541.967 147.919 542.053 147.643 541.967 147.505L541.571 144.699C541.544 144.388 541.61 144.076 541.761 143.803L543.482 140.704L541.588 141.427C541.498 141.467 541.401 141.488 541.302 141.489C541.204 141.491 541.106 141.472 541.014 141.436C540.923 141.399 540.84 141.344 540.77 141.274C540.7 141.205 540.645 141.122 540.607 141.031L539.763 139.309L538.747 142.65C538.663 142.957 538.482 143.229 538.231 143.425L535.958 145.146C535.797 145.219 535.669 145.347 535.596 145.508Z" fill="#E0E0E0"/>
<g opacity="0.5">
<path d="M550.662 133.541C550.364 133.544 550.074 133.448 549.836 133.268C549.599 133.087 549.428 132.833 549.351 132.545C549.274 132.257 549.295 131.951 549.411 131.677C549.527 131.402 549.731 131.173 549.991 131.027L560.907 124.725C561.06 124.636 561.229 124.578 561.404 124.554C561.579 124.529 561.757 124.54 561.928 124.585C562.099 124.63 562.26 124.708 562.401 124.815C562.542 124.921 562.66 125.055 562.75 125.208C562.839 125.36 562.897 125.529 562.922 125.704C562.946 125.879 562.935 126.057 562.89 126.229C562.845 126.4 562.767 126.56 562.661 126.701C562.554 126.842 562.42 126.961 562.268 127.05L551.334 133.369C551.129 133.484 550.897 133.544 550.662 133.541Z" fill="#232323"/>
<path d="M550.663 139.861C550.426 139.86 550.194 139.798 549.988 139.68C549.783 139.563 549.612 139.393 549.492 139.189C549.403 139.036 549.345 138.866 549.322 138.69C549.299 138.514 549.311 138.335 549.357 138.164C549.404 137.992 549.484 137.832 549.592 137.692C549.701 137.552 549.837 137.434 549.991 137.347L560.908 131.028C561.215 130.886 561.564 130.865 561.887 130.967C562.209 131.069 562.482 131.288 562.652 131.58C562.822 131.873 562.877 132.218 562.806 132.549C562.735 132.88 562.543 133.172 562.268 133.369L551.334 139.671C551.131 139.792 550.899 139.857 550.663 139.861Z" fill="#232323"/>
<path d="M550.663 146.162C550.426 146.162 550.193 146.1 549.988 145.982C549.783 145.864 549.612 145.695 549.492 145.491C549.403 145.339 549.346 145.17 549.323 144.996C549.3 144.821 549.312 144.643 549.358 144.473C549.405 144.304 549.485 144.145 549.593 144.006C549.702 143.867 549.837 143.751 549.991 143.666L560.908 137.346C561.06 137.257 561.229 137.199 561.404 137.175C561.579 137.151 561.758 137.161 561.929 137.206C562.1 137.251 562.26 137.329 562.401 137.436C562.542 137.542 562.661 137.676 562.75 137.829C562.839 137.981 562.898 138.15 562.922 138.325C562.946 138.5 562.935 138.679 562.89 138.85C562.846 139.021 562.768 139.181 562.661 139.322C562.554 139.463 562.42 139.582 562.268 139.671L551.334 145.99C551.129 146.105 550.898 146.165 550.663 146.162Z" fill="#232323"/>
</g>
<path d="M138.041 363.527V388.787L130.74 384.568V359.326L138.041 363.527Z" fill="#E0E0E0"/>
<path d="M432.647 247.859C432.55 247.915 432.459 247.926 432.374 247.892C432.301 247.85 432.265 247.766 432.265 247.639C432.265 247.583 432.277 247.513 432.301 247.428L436.687 231.266C436.724 231.104 436.79 230.945 436.888 230.79C436.997 230.614 437.142 230.473 437.324 230.366L439.308 229.206C439.49 229.1 439.63 229.075 439.727 229.13C439.824 229.172 439.897 229.249 439.945 229.361L444.332 240.395C444.344 240.458 444.35 240.518 444.35 240.574C444.35 240.701 444.313 240.827 444.241 240.954C444.168 241.081 444.083 241.173 443.986 241.23L442.402 242.155C442.232 242.255 442.105 242.287 442.02 242.252C441.947 242.196 441.899 242.133 441.874 242.063L441.019 239.991L435.613 243.152L434.758 246.224C434.734 246.322 434.679 246.445 434.594 246.594C434.521 246.72 434.4 246.834 434.23 246.933L432.647 247.859ZM436.25 240.355L440.382 237.939L438.307 232.638L436.25 240.355ZM451.072 237.298C450.368 237.709 449.78 237.912 449.307 237.908C448.846 237.896 448.464 237.762 448.16 237.503V238.283C448.16 238.424 448.118 238.568 448.033 238.716C447.96 238.857 447.857 238.967 447.723 239.045L446.286 239.885C446.164 239.956 446.061 239.967 445.976 239.918C445.891 239.87 445.849 239.775 445.849 239.635V225.678C445.849 225.537 445.891 225.393 445.976 225.245C446.061 225.097 446.164 224.987 446.286 224.917L447.833 224.012C447.966 223.934 448.069 223.923 448.142 223.979C448.227 224.028 448.269 224.122 448.269 224.263V228.943C448.573 228.358 448.949 227.808 449.398 227.292C449.859 226.756 450.417 226.296 451.072 225.913C451.715 225.537 452.273 225.337 452.747 225.314C453.22 225.29 453.614 225.418 453.93 225.697C454.257 225.955 454.506 226.337 454.676 226.842C454.846 227.347 454.937 227.948 454.949 228.643C454.961 228.889 454.967 229.117 454.967 229.328C454.967 229.525 454.961 229.753 454.949 230.014C454.925 230.759 454.828 231.49 454.658 232.208C454.488 232.911 454.245 233.58 453.93 234.215C453.614 234.849 453.22 235.431 452.747 235.96C452.273 236.476 451.715 236.922 451.072 237.298ZM450.399 235.435C450.921 235.13 451.327 234.766 451.618 234.343C451.909 233.906 452.116 233.441 452.237 232.948C452.371 232.449 452.449 231.939 452.474 231.418C452.498 230.983 452.498 230.561 452.474 230.153C452.449 229.662 452.371 229.244 452.237 228.9C452.116 228.55 451.909 228.333 451.618 228.25C451.327 228.153 450.921 228.257 450.399 228.563C449.913 228.846 449.519 229.203 449.216 229.634C448.912 230.064 448.682 230.522 448.524 231.008C448.366 231.479 448.281 231.93 448.269 232.358C448.257 232.618 448.251 232.896 448.251 233.191C448.251 233.472 448.257 233.736 448.269 233.982C448.294 234.403 448.373 234.786 448.506 235.129C448.652 235.452 448.876 235.658 449.179 235.748C449.495 235.83 449.901 235.726 450.399 235.435ZM461.179 231.389C460.208 231.957 459.389 232.239 458.722 232.235C458.066 232.225 457.563 231.964 457.211 231.453C456.871 230.935 456.677 230.212 456.629 229.285C456.616 229.039 456.61 228.733 456.61 228.368C456.61 228.002 456.616 227.689 456.629 227.429C456.677 226.431 456.877 225.478 457.229 224.569C457.593 223.64 458.103 222.787 458.758 222.01C459.425 221.226 460.232 220.558 461.179 220.005C462.125 219.451 462.926 219.18 463.581 219.19C464.248 219.194 464.758 219.451 465.11 219.962C465.474 220.452 465.68 221.168 465.729 222.109C465.741 222.355 465.747 222.661 465.747 223.026C465.747 223.392 465.741 223.704 465.729 223.964C465.68 224.949 465.48 225.902 465.128 226.824C464.788 227.74 464.285 228.589 463.618 229.373C462.962 230.15 462.149 230.822 461.179 231.389ZM461.179 229.302C461.822 228.926 462.319 228.403 462.671 227.734C463.023 227.05 463.217 226.241 463.254 225.306C463.266 225.088 463.272 224.811 463.272 224.473C463.272 224.136 463.266 223.865 463.254 223.662C463.217 222.783 463.023 222.208 462.671 221.936C462.319 221.664 461.822 221.716 461.179 222.092C460.536 222.468 460.038 222.998 459.686 223.681C459.334 224.365 459.14 225.167 459.104 226.088C459.092 226.306 459.086 226.583 459.086 226.921C459.086 227.258 459.092 227.528 459.104 227.732C459.14 228.624 459.334 229.207 459.686 229.479C460.038 229.737 460.536 229.678 461.179 229.302ZM471.276 225.486C470.536 225.919 469.893 226.105 469.347 226.045C468.813 225.963 468.401 225.656 468.109 225.124C467.818 224.577 467.673 223.819 467.673 222.849V216.925C467.673 216.784 467.715 216.64 467.8 216.492C467.885 216.344 467.988 216.235 468.109 216.164L469.711 215.227C469.844 215.149 469.948 215.138 470.02 215.194C470.105 215.243 470.148 215.337 470.148 215.478V221.276C470.148 223.018 470.809 223.503 472.132 222.73C472.763 222.361 473.26 221.838 473.624 221.162C474 220.478 474.188 219.729 474.188 218.913V213.116C474.188 212.975 474.231 212.831 474.316 212.683C474.401 212.535 474.504 212.425 474.625 212.354L476.227 211.418C476.348 211.347 476.451 211.336 476.536 211.385C476.621 211.433 476.664 211.528 476.664 211.669V221.62C476.664 221.76 476.621 221.905 476.536 222.053C476.451 222.201 476.348 222.31 476.227 222.381L474.753 223.243C474.619 223.321 474.51 223.336 474.425 223.287C474.352 223.231 474.316 223.133 474.316 222.992V222.128C473.988 222.811 473.582 223.435 473.096 224C472.611 224.565 472.004 225.06 471.276 225.486ZM483.345 218.22C482.617 218.645 482.004 218.856 481.507 218.852C481.009 218.847 480.639 218.628 480.396 218.194C480.154 217.745 480.032 217.085 480.032 216.214V211.428L478.595 212.269C478.473 212.34 478.37 212.351 478.285 212.302C478.2 212.253 478.158 212.159 478.158 212.018V210.795C478.158 210.655 478.2 210.51 478.285 210.362C478.37 210.214 478.473 210.105 478.595 210.034L480.032 209.193V205.694C480.032 205.553 480.069 205.412 480.142 205.271C480.227 205.123 480.336 205.01 480.469 204.932L481.943 204.07C482.065 203.999 482.168 203.988 482.253 204.037C482.338 204.086 482.38 204.18 482.38 204.321V207.821L484.655 206.491C484.777 206.42 484.88 206.409 484.965 206.457C485.05 206.506 485.092 206.601 485.092 206.741V207.964C485.092 208.105 485.05 208.249 484.965 208.397C484.88 208.545 484.777 208.654 484.655 208.725L482.38 210.055V214.63C482.38 215.207 482.465 215.607 482.635 215.831C482.817 216.048 483.126 216.028 483.563 215.773L484.819 215.039C484.94 214.968 485.044 214.957 485.129 215.005C485.213 215.054 485.256 215.149 485.256 215.289V216.596C485.256 216.737 485.213 216.881 485.129 217.029C485.044 217.177 484.94 217.287 484.819 217.358L483.345 218.22ZM494.542 211.884C493.802 212.317 493.159 212.503 492.613 212.443C492.079 212.362 491.667 212.055 491.375 211.522C491.084 210.975 490.939 210.217 490.939 209.247V203.323C490.939 203.183 490.981 203.038 491.066 202.89C491.151 202.742 491.254 202.633 491.375 202.562L492.977 201.626C493.111 201.548 493.214 201.536 493.286 201.592C493.371 201.641 493.414 201.736 493.414 201.876V207.674C493.414 209.417 494.075 209.902 495.398 209.128C496.029 208.759 496.526 208.237 496.89 207.56C497.266 206.876 497.454 206.127 497.454 205.312V199.514C497.454 199.374 497.497 199.229 497.582 199.081C497.667 198.933 497.77 198.824 497.891 198.753L499.493 197.816C499.614 197.745 499.717 197.734 499.802 197.783C499.887 197.832 499.93 197.926 499.93 198.067V208.018C499.93 208.159 499.887 208.303 499.802 208.451C499.717 208.599 499.614 208.708 499.493 208.779L498.019 209.641C497.885 209.719 497.776 209.734 497.691 209.685C497.618 209.629 497.582 209.531 497.582 209.391V208.526C497.254 209.21 496.848 209.834 496.362 210.399C495.877 210.963 495.27 211.459 494.542 211.884ZM505.919 205.233C505.191 205.659 504.566 205.926 504.045 206.034C503.535 206.135 503.116 206.134 502.789 206.03C502.461 205.927 502.219 205.773 502.061 205.57C501.903 205.367 501.818 205.171 501.806 204.981C501.794 204.834 501.83 204.693 501.915 204.559C502.012 204.404 502.115 204.295 502.225 204.231L503.662 203.39C503.711 203.362 503.753 203.344 503.79 203.337C503.826 203.329 503.875 203.343 503.935 203.378C504.093 203.44 504.257 203.506 504.427 203.576C504.609 203.638 504.821 203.661 505.064 203.646C505.307 203.617 505.61 203.495 505.974 203.283C506.447 203.006 506.842 202.67 507.157 202.275C507.485 201.858 507.648 201.446 507.648 201.039C507.648 200.744 507.576 200.547 507.43 200.45C507.297 200.345 507.042 200.332 506.666 200.412C506.289 200.477 505.756 200.627 505.064 200.863C504.384 201.078 503.82 201.176 503.371 201.157C502.922 201.138 502.589 200.982 502.37 200.688C502.152 200.394 502.043 199.966 502.043 199.404C502.043 198.856 502.182 198.254 502.461 197.599C502.752 196.923 503.177 196.26 503.735 195.61C504.306 194.954 505.009 194.381 505.847 193.891C506.502 193.508 507.072 193.273 507.557 193.186C508.043 193.085 508.443 193.083 508.759 193.18C509.086 193.269 509.335 193.412 509.505 193.608C509.675 193.789 509.766 193.982 509.778 194.186C509.79 194.333 509.754 194.481 509.669 194.629C509.584 194.763 509.487 194.862 509.377 194.926L508.031 195.713C507.97 195.749 507.915 195.767 507.867 195.767C507.818 195.767 507.77 195.76 507.721 195.747C507.588 195.684 507.442 195.622 507.284 195.559C507.127 195.497 506.933 195.477 506.702 195.499C506.484 195.5 506.192 195.607 505.828 195.82C505.367 196.09 505.015 196.415 504.773 196.796C504.53 197.163 504.409 197.522 504.409 197.873C504.409 198.112 504.463 198.291 504.573 198.41C504.694 198.507 504.93 198.531 505.282 198.48C505.634 198.428 506.168 198.278 506.884 198.028C507.697 197.722 508.34 197.599 508.813 197.659C509.299 197.699 509.638 197.88 509.832 198.202C510.039 198.503 510.142 198.913 510.142 199.434C510.142 200.066 509.978 200.731 509.65 201.428C509.335 202.119 508.862 202.796 508.231 203.46C507.612 204.103 506.842 204.694 505.919 205.233Z" fill="#232323"/>
<path opacity="0.1" d="M156.688 474.689L275.581 406.04V599.867L156.344 668.327L156.688 474.689Z" fill="#FF9705"/>
<path opacity="0.15" d="M301.787 394.486L445.216 311.683C448.109 309.961 450.382 311.269 450.382 314.489C450.274 316.27 449.751 318.002 448.854 319.545C447.957 321.087 446.711 322.399 445.216 323.374L301.77 407.107C298.895 408.829 296.604 407.451 296.604 404.128V403.525C296.701 401.718 297.221 399.959 298.121 398.389C299.021 396.819 300.277 395.482 301.787 394.486Z" fill="#FF9705"/>
<path opacity="0.1" d="M300.289 419.573L537.628 282.549C539.694 281.361 541.364 282.205 541.364 284.426C541.273 285.681 540.888 286.896 540.238 287.973C539.589 289.05 538.695 289.959 537.628 290.625L300.289 427.649C298.241 428.837 296.57 427.993 296.57 425.772C296.661 424.52 297.044 423.306 297.691 422.229C298.337 421.152 299.227 420.243 300.289 419.573Z" fill="#FF9705"/>
<path opacity="0.1" d="M300.289 435.793L537.628 298.769C539.694 297.581 541.364 298.425 541.364 300.646C541.273 301.9 540.888 303.116 540.238 304.193C539.589 305.27 538.695 306.178 537.628 306.845L300.289 443.869C298.241 445.057 296.57 444.213 296.57 441.975C296.663 440.725 297.048 439.515 297.694 438.441C298.34 437.368 299.229 436.461 300.289 435.793Z" fill="#FF9705"/>
<path opacity="0.1" d="M300.289 451.995L537.628 314.971C539.694 313.783 541.364 314.627 541.364 316.865C541.271 318.117 540.884 319.328 540.234 320.402C539.585 321.476 538.692 322.382 537.628 323.047L300.289 460.036C298.241 461.224 296.57 460.381 296.57 458.142C296.671 456.899 297.06 455.697 297.705 454.63C298.351 453.563 299.235 452.661 300.289 451.995Z" fill="#FF9705"/>
<path opacity="0.1" d="M300.289 468.215L537.628 331.191C539.694 330.003 541.364 330.847 541.364 333.068C541.273 334.322 540.888 335.537 540.238 336.615C539.589 337.692 538.695 338.6 537.628 339.266L300.289 476.29C298.241 477.479 296.57 476.635 296.57 474.414C296.661 473.161 297.044 471.947 297.691 470.871C298.337 469.794 299.227 468.884 300.289 468.215Z" fill="#FF9705"/>
<path opacity="0.1" d="M300.289 484.435L465.896 388.012C467.945 386.824 469.615 387.667 469.615 389.906C469.522 391.155 469.137 392.366 468.491 393.439C467.845 394.513 466.956 395.42 465.896 396.087L300.289 492.51C298.241 493.698 296.57 492.855 296.57 490.616C296.663 489.367 297.048 488.157 297.694 487.083C298.34 486.009 299.229 485.102 300.289 484.435Z" fill="#FF9705"/>
<path opacity="0.1" d="M300.289 516.857L537.628 379.833C539.694 378.645 541.364 379.489 541.364 381.71C541.273 382.964 540.888 384.179 540.238 385.257C539.589 386.334 538.695 387.242 537.628 387.909L300.289 524.933C298.241 526.121 296.57 525.277 296.57 523.056C296.661 521.803 297.044 520.59 297.691 519.513C298.337 518.436 299.227 517.526 300.289 516.857Z" fill="#FF9705"/>
<path opacity="0.1" d="M300.289 533.077L537.628 396.053C539.694 394.865 541.364 395.708 541.364 397.93C541.273 399.184 540.888 400.399 540.238 401.476C539.589 402.553 538.695 403.462 537.628 404.128L300.289 541.152C298.241 542.34 296.57 541.497 296.57 539.258C296.663 538.009 297.048 536.799 297.694 535.725C298.34 534.651 299.229 533.744 300.289 533.077Z" fill="#FF9705"/>
<path opacity="0.1" d="M300.289 549.279L537.628 412.255C539.694 411.067 541.364 411.911 541.364 414.149C541.271 415.401 540.884 416.613 540.234 417.687C539.585 418.76 538.692 419.666 537.628 420.331L300.289 557.372C298.241 558.56 296.57 557.716 296.57 555.478C296.663 554.226 297.048 553.014 297.694 551.937C298.34 550.861 299.229 549.951 300.289 549.279Z" fill="#FF9705"/>
<path opacity="0.1" d="M300.29 565.499L387.518 514.602C389.567 513.414 391.237 514.257 391.237 516.496C391.144 517.745 390.759 518.955 390.113 520.029C389.467 521.103 388.579 522.01 387.518 522.677L300.307 573.575C298.258 574.763 296.588 573.919 296.588 571.698C296.676 570.447 297.057 569.234 297.701 568.158C298.344 567.081 299.23 566.17 300.29 565.499Z" fill="#FF9705"/>
<path d="M617.452 472.434C630.073 431.488 642.35 404.507 629.832 396.156C618.192 398.326 612.975 404.094 610.496 419.453C607.896 435.552 602.489 458.005 599.338 470.953C596.614 481.774 592.717 492.264 587.716 502.239C586.962 503.62 585.741 504.688 584.272 505.252C580.381 506.784 578.521 508.696 575.353 511.037C572.856 512.759 571.031 513 571.151 513.741C571.356 514.572 571.878 515.289 572.605 515.74C573.333 516.191 574.208 516.338 575.043 516.151C576.914 515.798 578.735 515.22 580.467 514.429C578.977 518.202 576.659 521.592 573.683 524.347C567.57 529.513 568.517 534.558 578.314 535.143C581.758 535.35 589.971 532.147 597.53 519.285C600.086 514.491 602.335 509.539 604.262 504.46C609.531 491.271 614.921 480.699 617.452 472.434Z" fill="#FFA8A7"/>
<path d="M632.018 395.674C632.018 395.674 622.307 395.175 616.418 401.666C610.53 408.157 603.677 446.933 603.677 446.933C603.677 446.933 610.116 455.783 627.094 452.099L632.018 395.674Z" fill="#FF9705"/>
<path opacity="0.3" d="M632.018 395.674C632.018 395.674 622.307 395.175 616.418 401.666C610.53 408.157 603.677 446.933 603.677 446.933C603.677 446.933 610.116 455.783 627.094 452.099L632.018 395.674Z" fill="black"/>
<path d="M677.492 670.755H664.458V694H677.492V670.755Z" fill="#FFA8A7"/>
<path d="M632.294 669.516L619.26 669.998L618.605 645.393L632.294 644.928V669.516Z" fill="#FFA8A7"/>
<path d="M679.334 469.507C679.334 482.472 677.423 586.815 677.423 586.815C677.716 590.552 681.073 597.439 680.35 611.765C679.369 631.222 678.043 682.36 678.043 682.36C675.806 683.512 673.336 684.139 670.821 684.192C668.306 684.246 665.811 683.725 663.528 682.67C663.528 682.67 651.199 611.817 648.875 592.515C646.826 575.692 643.365 519.009 643.365 519.009L636.305 584.904C637.81 591.996 638.354 599.259 637.924 606.496C637.304 615.415 633.12 661.888 633.12 661.888C630.867 663.216 628.34 664.013 625.733 664.219C623.125 664.425 620.505 664.034 618.071 663.076C618.071 663.076 610.65 593.1 610.495 584.904C610.323 575.572 614.834 469.352 614.834 469.352L679.334 469.507Z" fill="#525252"/>
<path d="M664.458 687.319V685.374C663.201 685.942 660.309 697.427 655.143 702.386C651.028 706.277 645.415 710.788 643.986 715.144C642.557 719.501 651.803 722.187 655.642 721.481C660.102 720.654 667.85 717.383 669.779 714.335C671.707 711.287 672.637 706.828 674.221 704.607C675.805 702.386 679.387 699.906 680.282 697.323C680.764 695.911 680.282 692.812 679.542 690.195C678.801 687.578 678.285 685.15 677.493 685.374V686.855C675.665 688.37 673.358 689.188 670.984 689.162C669.073 689.213 664.441 688.817 664.458 687.319Z" fill="#263238"/>
<path d="M619.122 665.796C618.451 665.796 617.9 666.812 616.402 668.5C614.189 670.833 611.598 672.778 608.739 674.251C603.849 676.799 594.362 680.707 590.057 682.722C587.389 683.979 587.509 687.354 590.281 689.282C593.053 691.211 599.751 692.588 607.792 690.711C612.166 689.695 617.882 685.546 621.481 685.701C625.08 685.856 631.812 685.89 634.515 683.979C637.219 682.068 636.117 677.987 635.359 674.474C634.533 670.652 633.517 664.677 632.294 664.935V666.261C630.727 668.723 622.635 669.705 619.191 667.983L619.122 665.796Z" fill="#263238"/>
<path d="M643.365 519.027C636.581 516.812 630.38 513.105 625.217 508.179C625.217 508.179 628.661 515.067 639.129 521.368L636.908 580.221L643.365 519.027Z" fill="#263238"/>
<path d="M672.551 398.773C672.551 398.773 682.744 399.72 682.021 419.143L679.765 450.136V496.625C670.174 507.49 627.679 506.681 613.13 495.747C613.13 495.747 614.766 440.769 615.747 419.607C616.453 404.576 619.914 397 634.687 395.347L652.853 396.139L672.551 398.773Z" fill="#FF9705"/>
<path opacity="0.3" d="M643.572 408.967L641.23 425.29L635.789 425.187L641.936 426.168L643.572 408.967Z" fill="black"/>
<path d="M657.174 355.004C657.281 360.259 655.297 365.342 651.658 369.135C648.02 372.928 643.024 375.123 637.769 375.236C627.042 375.236 618.829 366.161 618.347 355.021C617.503 335.272 627.042 334.79 637.769 334.79C643.021 334.903 648.014 337.094 651.652 340.884C655.29 344.674 657.276 349.752 657.174 355.004Z" fill="#263238"/>
<path d="M668.178 365.008C668.178 365.008 665.199 379.575 664.011 381.968C663.242 383.429 661.931 384.529 660.36 385.033L660.567 374.788L668.178 365.008Z" fill="#263238"/>
<path d="M664.492 344.139C664.492 344.139 666.628 343.606 668.9 347.153C670.846 350.183 671.294 357.002 668.229 365.008L662.633 365.68L664.492 344.139Z" fill="#263238"/>
<path d="M660.945 365.679C662.065 366.385 663.666 364.13 665.061 362.615C666.455 361.099 670.967 359.05 673.239 363.992C675.512 368.934 671.242 375.718 667.678 376.889C661.531 378.903 660.618 374.788 660.618 374.788L660.136 397.861C651.992 410.482 633.517 410.017 640.163 397.258V390.233C637.427 390.688 634.65 390.838 631.881 390.681C627.37 389.94 624.529 386.238 623.151 381.142C620.947 372.963 620.121 366.368 621.98 350.269C624.047 332.62 643.744 332.465 654.403 339.508C665.061 346.55 660.945 365.679 660.945 365.679Z" fill="#FFA8A7"/>
<path d="M660.239 392.695C658.345 396.572 655.623 399.987 652.267 402.699C649.415 404.806 646.105 406.211 642.607 406.797C645.493 408.752 647.857 411.382 649.495 414.459C651.544 418.936 665.887 406.59 665.749 397.826C665.749 397.826 663.511 389.028 660.411 388.477L660.239 392.695Z" fill="#263238"/>
<path d="M642.608 406.797C642.608 406.797 638.183 404.61 640.163 397.258V390.233L638.217 390.491C635.95 392.701 634.34 395.496 633.568 398.567C633.121 400.581 632.019 410.774 633.964 412.789C635.91 414.804 638.631 407.348 642.608 406.797Z" fill="#263238"/>
<path d="M653.404 346.395C653.907 346.285 654.431 346.315 654.919 346.481C656.641 347.239 656.951 352.439 657.243 353.937C658.225 358.982 659.051 367.539 660.945 367.574C661.513 367.574 663.666 363.872 665.06 362.546C667.006 360.703 664.492 344.07 664.492 344.07C665.005 342.634 665.103 341.082 664.774 339.593C664.445 338.104 663.703 336.737 662.633 335.651C659.189 331.656 653.645 330.761 648.634 330.485C642.728 330.158 636.736 330.606 630.916 329.314C629.088 328.806 627.231 328.409 625.355 328.126C625.276 328.093 625.191 328.075 625.105 328.075C625.019 328.075 624.934 328.093 624.855 328.126C624.666 328.281 624.701 328.574 624.752 328.815C625.117 330.559 625.732 332.24 626.577 333.808C623.113 333.535 619.692 332.859 616.384 331.794C616.193 331.734 615.989 331.734 615.799 331.794C615.403 331.914 615.334 332.431 615.368 332.844C615.592 337.011 617.572 343.313 620.964 345.758C623.971 347.726 627.462 348.829 631.054 348.943C640.18 349.288 645.793 347.359 653.404 346.395Z" fill="#263238"/>
<path d="M664.492 345.018L671.293 341.213C671.085 340.744 670.782 340.324 670.403 339.98C670.024 339.635 669.577 339.374 669.09 339.212C668.604 339.05 668.09 338.991 667.58 339.039C667.07 339.087 666.575 339.241 666.128 339.491C665.223 340.049 664.556 340.922 664.254 341.942C663.952 342.961 664.037 344.057 664.492 345.018Z" fill="#263238"/>
<path d="M640.18 390.233C640.18 390.233 650.252 388.115 653.782 386.169C655.873 385.019 657.571 383.268 658.655 381.142C658.13 383.279 657.188 385.292 655.883 387.065C653.317 390.508 640.18 393.022 640.18 393.022V390.233Z" fill="#F28F8F"/>
<path d="M642.608 363.062C642.645 363.451 642.793 363.82 643.036 364.125C643.278 364.431 643.604 364.659 643.974 364.783C644.344 364.907 644.742 364.921 645.119 364.823C645.497 364.725 645.838 364.52 646.101 364.232C646.364 363.944 646.538 363.586 646.601 363.201C646.665 362.817 646.615 362.422 646.459 362.065C646.302 361.707 646.046 361.403 645.72 361.189C645.394 360.975 645.013 360.86 644.623 360.858C644.344 360.867 644.071 360.932 643.818 361.048C643.565 361.164 643.338 361.33 643.15 361.535C642.962 361.741 642.818 361.982 642.725 362.244C642.631 362.506 642.592 362.784 642.608 363.062Z" fill="#263238"/>
<path d="M645.793 354.35L650.115 356.83C650.427 356.233 650.51 355.543 650.348 354.889C650.187 354.236 649.791 353.664 649.237 353.283C648.947 353.098 648.621 352.978 648.281 352.932C647.941 352.886 647.595 352.915 647.267 353.016C646.939 353.118 646.637 353.29 646.383 353.52C646.128 353.751 645.927 354.034 645.793 354.35Z" fill="#263238"/>
<path d="M641.092 377.595L636.478 379.317C636.569 379.634 636.724 379.929 636.934 380.183C637.144 380.438 637.403 380.647 637.697 380.797C637.991 380.947 638.312 381.035 638.642 381.056C638.971 381.077 639.301 381.03 639.611 380.918C640.225 380.644 640.716 380.154 640.989 379.54C641.262 378.927 641.299 378.234 641.092 377.595Z" fill="#F28F8F"/>
<path d="M624.064 356.192L628.007 353.024C627.829 352.747 627.594 352.51 627.318 352.33C627.042 352.15 626.731 352.031 626.405 351.981C626.08 351.93 625.747 351.949 625.429 352.037C625.112 352.125 624.816 352.28 624.563 352.49C624.037 352.936 623.694 353.562 623.602 354.245C623.51 354.929 623.674 355.623 624.064 356.192Z" fill="#263238"/>
<path d="M625.803 362.46C625.791 362.735 625.834 363.009 625.929 363.268C626.025 363.526 626.17 363.763 626.357 363.965C626.545 364.166 626.77 364.329 627.021 364.443C627.271 364.557 627.542 364.62 627.817 364.629C628.397 364.629 628.953 364.399 629.363 363.989C629.774 363.579 630.004 363.023 630.004 362.443C630.004 361.863 629.774 361.306 629.363 360.896C628.953 360.486 628.397 360.256 627.817 360.256C627.26 360.287 626.737 360.535 626.36 360.947C625.984 361.359 625.784 361.902 625.803 362.46Z" fill="#263238"/>
<path d="M636.616 360.772L636.375 373.531L629.126 371.861L636.616 360.772Z" fill="#F28F8F"/>
<path d="M692.386 373.6C695.296 369.743 701.185 378.3 703.906 384.206C706.626 390.112 706.678 393.453 704.439 395.794C702.201 398.136 697.982 396.724 693.764 391.128C689.545 385.532 690.716 376.441 692.386 373.6Z" fill="#FF9705"/>
<path opacity="0.5" d="M692.386 373.6C695.296 369.743 701.185 378.3 703.906 384.206C706.626 390.112 706.678 393.453 704.439 395.794C702.201 398.136 697.982 396.724 693.764 391.128C689.545 385.532 690.716 376.441 692.386 373.6Z" fill="black"/>
<path d="M712.944 374.736C702.613 398.842 688.236 412.427 681.779 427.941C673.325 427.373 666.73 406.935 673.032 398.205C673.032 398.205 697.792 371.396 700.031 360.858C702.028 351.509 704.697 336.081 704.473 328.143C704.384 326.851 703.842 325.631 702.941 324.7C700.341 321.893 700.341 319.655 698.67 316.573C697.379 314.162 695.95 313.267 696.363 312.716C696.898 312.143 697.63 311.793 698.412 311.736C699.194 311.678 699.968 311.917 700.582 312.406C701.776 313.28 702.848 314.31 703.767 315.471C704.085 312.376 703.58 309.251 702.303 306.414C699.428 299.905 700.134 296.599 708.898 298.907C714.408 300.37 717.852 304.95 718.678 318.157C719.061 323.653 719.095 329.168 718.781 334.669C717.817 344.845 717.215 355.452 715.958 363.94C715.415 367.652 714.403 371.28 712.944 374.736Z" fill="#FFA8A7"/>
<path d="M670.449 398.498L692.282 373.531C692.282 373.531 689.682 379.609 695.364 388.477C701.047 397.344 704.421 395.795 704.421 395.795C704.421 395.795 691.525 414.614 688.081 420.916C684.637 427.218 681.039 432.539 681.039 432.539C680.658 433.274 680.066 433.878 679.338 434.274C678.611 434.67 677.782 434.839 676.958 434.76C673.755 434.76 665.267 420.537 670.449 398.498Z" fill="#FF9705"/>
<path opacity="0.3" d="M670.449 398.498L692.282 373.531C692.282 373.531 689.682 379.609 695.364 388.477C701.047 397.344 704.421 395.795 704.421 395.795C704.421 395.795 691.525 414.614 688.081 420.916C684.637 427.218 681.039 432.539 681.039 432.539C680.658 433.274 680.066 433.878 679.338 434.274C678.611 434.67 677.782 434.839 676.958 434.76C673.755 434.76 665.267 420.537 670.449 398.498Z" fill="black"/>
<path d="M493.273 454.612L503.553 468.301L492.498 480.956L478.259 464.306L493.273 454.612Z" fill="#F28F8F"/>
<path d="M459.611 423.481C468.582 423.895 472.852 425.203 477.553 430.816C482.254 436.43 505.739 470.367 505.739 470.367C505.739 470.367 501.59 482.007 492.498 481.008L475.986 463.979L459.611 423.481Z" fill="#232323"/>
<path d="M415.602 707.792C414.963 711.362 414.618 714.979 414.568 718.605C414.448 725.148 413.243 727.49 413.088 732.862C412.898 739.009 413.966 741.316 416.531 744.76C419.097 748.204 425.571 751.354 428.343 745.517C431.115 739.68 430.754 735.858 429.858 729.814C428.963 723.771 428.825 720.138 428.309 715.385C427.827 711.184 427.276 707.999 427.276 707.999L415.602 707.792Z" fill="#263238"/>
<path d="M434.215 656.326L412.605 655.93C412.933 670.359 415.223 694.361 415.601 707.878C415.601 710.426 415.601 727.662 416.497 732.913C417.943 740.782 427.276 739.714 427.775 735.014C428.274 730.313 427.172 710.168 427.207 708.084C427.121 699.475 431.184 676.781 433.319 661.199C433.423 660.355 434.111 656.98 434.215 656.326Z" fill="#FFBDA7"/>
<path d="M465.948 696.583C465.948 696.583 464.846 696.583 464.656 697.547C464.467 698.511 464.398 700.336 463.95 702.127C463.216 704.934 462.96 707.844 463.193 710.736C463.554 712.751 468.152 715.747 471.303 716.28C474.453 716.814 478.879 719.913 481.341 722.238C485.295 725.502 490.186 727.42 495.305 727.713C500.47 727.713 504.207 725.992 505.929 723.168C507.651 720.344 504.362 720.017 498.37 716.125L493.704 713.095C484.216 706.896 480.738 703.573 478.052 697.375L465.948 696.583Z" fill="#263238"/>
<path d="M478.121 693.208C477.966 688.731 480.239 655.844 480.239 655.844L461.66 657.944C466.068 684.151 466.412 693.087 465.913 696.91C465.82 697.263 465.779 697.629 465.793 697.994C465.793 703.16 471.561 705.846 476.124 709.238C477.845 710.581 482.443 714.713 487.78 716.521C491.224 717.709 497.612 718.243 498.421 716.056C492.98 711.89 485.542 706.449 481.203 701.679C479.068 699.372 478.276 697.65 478.121 693.208Z" fill="#FFBDA7"/>
<path d="M417.615 507.146C407.491 529.289 417.994 607.253 417.994 607.253C417.684 610.852 413.569 617.912 412.054 633.735C410.246 652.4 415.377 702.42 415.377 702.42C417.187 703.517 419.253 704.119 421.369 704.164C423.485 704.209 425.575 703.697 427.43 702.678C427.43 702.678 440.499 629.19 442.926 610.628C444.975 594.409 448.901 558.766 448.901 558.766L460.059 610.525C458.423 615.752 457.236 621.109 456.512 626.538C455.461 637.455 466.102 692.295 466.102 692.295C468.02 693.087 470.08 693.474 472.154 693.433C474.228 693.391 476.271 692.922 478.155 692.054C478.155 692.054 482.856 621.218 483.855 608.063C485.576 585.954 479.636 516.995 475.59 503.909L417.615 507.146Z" fill="#FF9705"/>
<path opacity="0.5" d="M417.615 507.146C407.491 529.289 417.994 607.253 417.994 607.253C417.684 610.852 413.569 617.912 412.054 633.735C410.246 652.4 415.377 702.42 415.377 702.42C417.187 703.517 419.253 704.119 421.369 704.164C423.485 704.209 425.575 703.697 427.43 702.678C427.43 702.678 440.499 629.19 442.926 610.628C444.975 594.409 448.901 558.766 448.901 558.766L460.059 610.525C458.423 615.752 457.236 621.109 456.512 626.538C455.461 637.455 466.102 692.295 466.102 692.295C468.02 693.087 470.08 693.474 472.154 693.433C474.228 693.391 476.271 692.922 478.155 692.054C478.155 692.054 482.856 621.218 483.855 608.063C485.576 585.954 479.636 516.995 475.59 503.909L417.615 507.146Z" fill="black"/>
<path opacity="0.2" d="M448.867 558.767L452.156 538.208C452.156 538.208 466.068 535.332 472.388 529.392C468.03 534.503 462.327 538.29 455.927 540.326L452.225 556.167L458.699 604.086L448.867 558.767Z" fill="black"/>
<path d="M422.815 438.392L436.59 441.974V412.823C428.98 410.843 422.815 415.234 422.815 422.638V438.392Z" fill="#FF9705"/>
<path opacity="0.6" d="M422.815 438.392L436.59 441.974V412.823C428.98 410.843 422.815 415.234 422.815 422.638V438.392Z" fill="black"/>
<path d="M450.09 416.99L445.148 416.887C430.065 416.525 418.115 403.525 418.442 387.822C418.442 370.707 431.7 356.829 448.127 356.674C464.553 356.588 477.949 370.449 478.035 387.495V389.217C477.622 404.937 465.138 417.317 450.09 416.99Z" fill="#FF9705"/>
<path opacity="0.6" d="M450.09 416.99L445.148 416.887C430.065 416.525 418.115 403.525 418.442 387.822C418.442 370.707 431.7 356.829 448.127 356.674C464.553 356.588 477.949 370.449 478.035 387.495V389.217C477.622 404.937 465.138 417.317 450.09 416.99Z" fill="black"/>
<path d="M426.999 363.82C426.879 363.32 426.658 362.851 426.348 362.441C426.038 362.031 425.648 361.689 425.2 361.437C424.752 361.185 424.258 361.028 423.747 360.976C423.236 360.924 422.719 360.977 422.23 361.134L423.556 366.299C423.281 365.95 422.942 365.658 422.557 365.438C422.11 365.186 421.616 365.029 421.105 364.98C420.594 364.931 420.079 364.989 419.592 365.151C419.105 365.313 418.657 365.576 418.278 365.922C417.9 366.268 417.597 366.69 417.392 367.16L424.107 371.103C424.456 370.43 424.611 369.673 424.554 368.916C425.516 368.514 426.296 367.772 426.746 366.833C427.197 365.893 427.287 364.821 426.999 363.82Z" fill="#FF9705"/>
<path opacity="0.6" d="M426.999 363.82C426.879 363.32 426.658 362.851 426.348 362.441C426.038 362.031 425.648 361.689 425.2 361.437C424.752 361.185 424.258 361.028 423.747 360.976C423.236 360.924 422.719 360.977 422.23 361.134L423.556 366.299C423.281 365.95 422.942 365.658 422.557 365.438C422.11 365.186 421.616 365.029 421.105 364.98C420.594 364.931 420.079 364.989 419.592 365.151C419.105 365.313 418.657 365.576 418.278 365.922C417.9 366.268 417.597 366.69 417.392 367.16L424.107 371.103C424.456 370.43 424.611 369.673 424.554 368.916C425.516 368.514 426.296 367.772 426.746 366.833C427.197 365.893 427.287 364.821 426.999 363.82Z" fill="black"/>
<path d="M435.144 424.67C430.507 425.298 425.909 426.184 421.37 427.321C426.707 440.407 418.339 460.622 418.339 460.622L426.242 484.951C420.784 496.126 416.29 501.67 414.431 510.779C419.458 520.593 454.946 529.96 478.053 512.07C478.053 512.07 477.312 487.224 474.368 472.743C481.927 457.987 480.704 453.648 479.155 448.5C475.556 436.533 468.29 431.936 459.629 423.499L454.463 422.948L435.144 424.67Z" fill="#525252"/>
<path d="M427.12 494.697C431.408 490.306 440.499 489.049 440.499 489.049L432.148 484.297L422.816 461.758C426.732 454.086 428.667 445.557 428.446 436.946L423.074 435.655C423.728 447.587 418.322 460.639 418.322 460.639L426.225 484.968C420.767 496.143 416.273 501.687 414.413 510.796C417.857 517.511 435.575 524.02 453.826 521.712C429.376 520.059 423.005 498.95 427.12 494.697Z" fill="#263238"/>
<path d="M451.828 521.902L452.827 521.799C452.492 521.805 452.158 521.84 451.828 521.902Z" fill="#E6E6E6"/>
<path d="M466.946 371.93C469.908 374.65 473.61 380.539 473.317 397.757C473.059 412.393 468.53 416.026 466.24 417.076C463.95 418.127 459.56 417.524 455.272 416.801V422.862C455.272 422.862 460.92 429.129 460.576 433.193C460.231 437.256 452.517 438.892 446.956 434.915C443.038 431.947 439.559 428.44 436.625 424.497V406.091C436.625 406.091 434.111 408.657 429.737 404.8C426.294 401.597 424.985 396.19 427.723 393.263C428.426 392.57 429.288 392.06 430.234 391.779C431.18 391.497 432.181 391.452 433.148 391.647C434.116 391.843 435.02 392.273 435.783 392.9C436.545 393.527 437.142 394.332 437.52 395.243C444.082 394.557 450.471 392.715 456.392 389.802C459.721 388.201 462.501 385.648 464.38 382.467C466.258 379.286 467.152 375.619 466.946 371.93Z" fill="#FFBDA7"/>
<path d="M455.255 394.468C455.254 394.803 455.156 395.13 454.972 395.409C454.788 395.688 454.527 395.908 454.22 396.042C453.914 396.175 453.575 396.216 453.245 396.16C452.915 396.104 452.609 395.953 452.364 395.726C452.118 395.499 451.944 395.205 451.863 394.881C451.782 394.556 451.797 394.215 451.906 393.899C452.016 393.583 452.215 393.306 452.479 393.101C452.744 392.897 453.062 392.773 453.396 392.746C453.868 392.737 454.326 392.911 454.673 393.232C455.02 393.553 455.229 393.996 455.255 394.468Z" fill="#263238"/>
<path d="M455.927 406.659L460.524 408.157C460.45 408.471 460.314 408.767 460.122 409.026C459.929 409.285 459.686 409.502 459.407 409.663C459.128 409.824 458.819 409.927 458.499 409.964C458.178 410.001 457.854 409.972 457.545 409.879C456.919 409.645 456.405 409.183 456.105 408.586C455.805 407.989 455.741 407.301 455.927 406.659Z" fill="#F79776"/>
<path d="M471.888 387.874L467.704 386.445C467.77 386.165 467.894 385.903 468.068 385.675C468.242 385.446 468.461 385.257 468.713 385.119C468.965 384.981 469.242 384.898 469.528 384.874C469.814 384.85 470.102 384.887 470.373 384.981C470.938 385.192 471.405 385.603 471.684 386.137C471.964 386.671 472.037 387.29 471.888 387.874Z" fill="#263238"/>
<path d="M437.537 393.607V399.789C437.934 399.805 438.329 399.741 438.7 399.598C439.071 399.456 439.408 399.24 439.692 398.963C439.976 398.685 440.2 398.353 440.35 397.985C440.501 397.618 440.575 397.224 440.568 396.827C440.573 396.004 440.261 395.21 439.697 394.61C439.133 394.011 438.359 393.652 437.537 393.607Z" fill="#FF9705"/>
<path opacity="0.6" d="M437.537 393.607V399.789C437.934 399.805 438.329 399.741 438.7 399.598C439.071 399.456 439.408 399.24 439.692 398.963C439.976 398.685 440.2 398.353 440.35 397.985C440.501 397.618 440.575 397.224 440.568 396.827C440.573 396.004 440.261 395.21 439.697 394.61C439.133 394.011 438.359 393.652 437.537 393.607Z" fill="black"/>
<path d="M470.373 393.866C470.411 394.361 470.251 394.851 469.928 395.229C469.606 395.606 469.146 395.841 468.651 395.88C468.272 395.917 467.89 395.84 467.555 395.659C467.22 395.477 466.946 395.2 466.77 394.862C466.594 394.524 466.523 394.141 466.566 393.762C466.609 393.383 466.764 393.026 467.012 392.736C467.26 392.447 467.588 392.238 467.956 392.136C468.323 392.034 468.712 392.045 469.074 392.166C469.435 392.288 469.752 392.515 469.983 392.817C470.215 393.12 470.35 393.485 470.373 393.866Z" fill="#263238"/>
<path d="M460.558 391.369L460.523 403.353L466.102 401.511L460.558 391.369Z" fill="#F79776"/>
<path d="M455.272 416.87C450.744 416.284 441.497 413.547 439.965 409.724C440.547 411.642 441.693 413.339 443.254 414.597C446.043 417.059 455.306 419.762 455.306 419.762L455.272 416.87Z" fill="#F79776"/>
<path d="M400.174 485.864C400.174 485.864 411.228 501.567 413.122 503.616C415.016 505.665 416.325 504.976 418.374 504.064C420.872 503.054 423.438 502.22 426.053 501.567C429.497 500.723 430.151 503.84 426.811 506.061C424.4 507.679 421.645 508.368 422.782 509.694C425.138 511.827 427.87 513.503 430.84 514.636C439.001 517.856 438.364 519.474 436.866 522.108C435.558 524.416 431.701 529.375 417.168 523.52C411.142 521.093 402.67 514.222 398.676 509.746C392.908 503.358 383.902 491.907 383.902 491.907L400.174 485.864Z" fill="#FFBDA7"/>
<path d="M423.487 426.753C419.492 427.011 411.968 427.975 402.532 443.644C394.25 457.419 381.423 476.032 379.046 482.696C378.082 485.399 381.836 490.995 386.674 496.728C393.269 496.436 399.278 491.873 402.395 488.223C401.577 486.281 400.561 484.429 399.364 482.696L418.718 460.622C418.718 460.622 426.07 453.889 427.602 445.125C429.255 435.62 428.739 428.148 423.487 426.753Z" fill="#232323"/>
<path d="M531.842 456.472L484.13 469.042L470.992 523.021L516.363 509.849L531.842 456.472Z" fill="#FF9705"/>
<path opacity="0.25" d="M531.842 456.472L484.13 469.042L470.992 523.021L516.363 509.849L531.842 456.472Z" fill="black"/>
<g opacity="0.1">
<path d="M510.285 494.697C511.084 496.363 512.356 497.758 513.942 498.707C515.528 499.657 517.358 500.118 519.204 500.034L519.549 498.846L510.285 494.697Z" fill="black"/>
</g>
<g opacity="0.1">
<path d="M517.465 465.047L517.861 463.222C518.085 462.223 515.278 462.171 511.611 463.222L504.569 464.943C500.901 465.908 497.681 467.492 497.526 468.49L497.147 470.316L517.465 465.047Z" fill="black"/>
</g>
<path d="M521.132 458.211C521.27 457.574 520.134 457.402 518.601 457.832L515.812 458.607C515.812 458.607 516.638 454.664 510.474 456.042C508.819 456.285 507.255 456.952 505.934 457.978C504.613 459.004 503.579 460.353 502.932 461.896L499.971 462.74C498.249 463.204 496.837 464.083 496.648 464.702L496.286 465.839L520.874 459.365L521.132 458.211Z" fill="#525252"/>
<path d="M517.741 460.139C515.502 460.69 514.555 460.983 514.297 462.533C514.039 464.082 513.746 465.598 513.746 465.598L502.881 468.473C502.881 468.473 503.415 466.235 503.587 465.374C503.76 464.513 503.381 463.962 501.642 464.427L501.504 463.738L518.55 459.382L517.741 460.139Z" fill="#525252"/>
<path d="M518.119 465.202L518.515 463.376C518.739 462.378 515.933 462.326 512.265 463.376L505.223 465.098C501.555 466.062 498.336 467.647 498.181 468.645L497.802 470.47L518.119 465.202Z" fill="#525252"/>
<path d="M526.814 473.811C526.814 473.811 525.093 479.924 524.628 481.37C524.163 482.816 518.859 485.451 515.364 486.415C511.869 487.379 508.012 488.516 509.682 493.423C511.197 497.951 516.983 498.984 519.91 498.847C522.837 498.709 526.883 495.92 528.519 491.391C530.534 485.606 529.449 479.442 530.241 476.067C531.033 472.692 528.571 471.797 526.814 473.811Z" fill="#FFBDA7"/>
<path d="M346.073 475.24C339.53 468.646 337.189 471.211 336.362 478.443C336.056 481.476 335.32 484.45 334.175 487.276C333.972 485.774 333.56 484.308 332.953 482.92C332.665 482.169 332.104 481.554 331.382 481.2C330.661 480.845 329.832 480.777 329.061 481.009C328.424 481.267 329.216 482.73 329.061 485.606C328.941 489.187 327.77 491.167 328.614 494.973C328.908 496.404 328.682 497.894 327.977 499.174C324.533 505.717 313.186 517.804 305.231 526.517L275.013 499.226C264.682 489.928 261.342 485.744 251.372 486.415C254.491 487.598 257.364 489.35 259.844 491.581C264.475 495.489 263.373 517.856 263.373 517.856C263.373 517.856 297.672 542.444 301.254 544.785C301.77 545.13 302.304 545.44 302.821 545.732C304.514 546.615 306.456 546.9 308.331 546.54C310.206 546.181 311.905 545.198 313.152 543.752C320.47 535.384 331.145 518.906 337.257 510.349C340.052 506.206 342.544 501.868 344.713 497.366C350.843 485.193 350.171 479.373 346.073 475.24Z" fill="#914F4E"/>
<path d="M252.439 485.864C254.848 485.426 257.323 485.506 259.698 486.1C262.074 486.694 264.295 487.787 266.214 489.308C272.103 493.785 297.207 516.857 297.207 516.857C297.207 516.857 297.896 529.065 285.154 536.331L254.385 514.636L252.439 485.864Z" fill="#FF9705"/>
<path opacity="0.3" d="M252.439 485.864C254.848 485.426 257.323 485.506 259.698 486.1C262.074 486.694 264.295 487.787 266.214 489.308C272.103 493.785 297.207 516.857 297.207 516.857C297.207 516.857 297.896 529.065 285.154 536.331L254.385 514.636L252.439 485.864Z" fill="black"/>
<path d="M222.737 761.29H209.703V784.534H222.737V761.29Z" fill="#914F4E"/>
<path d="M254.901 760.05L267.936 760.515L268.59 735.91L254.901 735.445V760.05Z" fill="#914F4E"/>
<path d="M207.861 560.024C207.861 572.989 209.772 677.35 209.772 677.35C209.479 681.069 206.122 687.956 206.845 702.282C207.826 721.756 209.152 772.878 209.152 772.878C211.391 774.024 213.861 774.646 216.376 774.697C218.891 774.748 221.384 774.226 223.667 773.17C223.667 773.17 235.996 702.317 238.337 683.032C240.369 666.192 243.83 609.509 243.83 609.509L250.89 675.421C249.385 682.508 248.841 689.764 249.271 696.996C249.891 705.915 254.075 752.388 254.075 752.388C256.329 753.721 258.858 754.523 261.469 754.732C264.079 754.941 266.704 754.551 269.141 753.593C269.141 753.593 276.545 683.6 276.7 675.421C276.872 666.089 272.361 559.852 272.361 559.852L207.861 560.024Z" fill="#525252"/>
<path d="M222.738 777.819V775.891C223.995 776.459 226.888 787.944 232.053 792.885C236.168 796.794 241.782 801.305 243.211 805.661C244.64 810.018 235.394 812.686 231.554 811.981C227.094 811.154 219.346 807.883 217.418 804.852C215.489 801.822 214.559 797.328 212.975 795.107C211.391 792.885 207.81 790.406 206.914 787.823C206.658 785.421 206.911 782.993 207.655 780.695C208.257 778.301 208.912 775.667 209.704 775.891V777.372C211.543 778.877 213.853 779.688 216.229 779.662C218.123 779.73 222.755 779.334 222.738 777.819Z" fill="#263238"/>
<path d="M268.074 756.331C268.745 756.331 269.296 757.346 270.794 759.034C273.008 761.362 275.598 763.301 278.457 764.768C283.347 767.316 292.834 771.242 297.138 773.256C299.825 774.513 299.687 777.888 296.915 779.799C294.143 781.71 287.445 783.105 279.404 781.246C275.03 780.212 269.314 776.08 265.629 776.235C261.944 776.39 255.298 776.407 252.595 774.513C249.891 772.619 250.993 768.504 251.751 765.009C252.577 761.169 253.61 755.194 254.816 755.452V756.778C256.383 759.258 264.475 760.222 267.919 758.5L268.074 756.331Z" fill="#263238"/>
<path d="M243.83 609.544C250.614 607.329 256.815 603.622 261.978 598.696C261.978 598.696 258.535 605.584 248.066 611.886L250.287 670.755L243.83 609.544Z" fill="#263238"/>
<path d="M214.646 489.308C214.646 489.308 204.452 490.238 205.175 509.677L207.431 540.67L207.224 587.16C216.798 598.025 259.31 597.233 273.86 586.282C273.86 586.282 272.362 531.303 271.38 510.142C270.674 495.11 267.213 487.534 252.44 485.881L234.257 486.673L214.646 489.308Z" fill="#FF9705"/>
<path opacity="0.3" d="M243.624 499.501L245.966 515.824L251.424 515.721L245.26 516.685L243.624 499.501Z" fill="black"/>
<path d="M182.292 556.046C187.578 513.517 199.751 492.338 214.576 489.893L213.526 517.098C207.353 531.607 202.624 546.689 199.407 562.124C197.461 572.593 195.206 590.793 195.791 599.729C195.908 601.304 196.579 602.786 197.685 603.913C200.612 606.892 201.49 609.475 203.453 612.832C205.003 615.467 206.587 616.397 206.174 617.034C205.641 617.704 204.868 618.139 204.02 618.249C203.171 618.358 202.313 618.132 201.628 617.619C200.074 616.518 198.653 615.241 197.392 613.814C197.204 617.867 197.934 621.911 199.527 625.643C202.971 632.806 202.42 636.577 192.812 634.459C186.786 633.15 182.481 626.797 180.759 611.971C180.306 606.439 180.209 600.883 180.467 595.339C181.121 581.168 181.241 564.552 182.292 556.046Z" fill="#914F4E"/>
<path d="M215.42 489.187C207.723 489.187 200.698 490.513 195.102 501.24C189.747 511.571 185.632 533.421 183.549 540.567C183.549 540.567 194.792 547.213 205.141 547.041L212.424 521.764C212.424 521.764 217.349 509.97 215.42 489.187Z" fill="#FF9705"/>
<path opacity="0.3" d="M215.42 489.187C207.723 489.187 200.698 490.513 195.102 501.24C189.747 511.571 185.632 533.421 183.549 540.567C183.549 540.567 194.792 547.213 205.141 547.041L212.424 521.764C212.424 521.764 217.349 509.97 215.42 489.187Z" fill="black"/>
<path d="M231.312 445.418C231.468 449.223 232.738 452.898 234.965 455.986C237.192 459.074 240.278 461.44 243.838 462.789C247.399 464.138 251.278 464.41 254.992 463.572C258.707 462.734 262.093 460.823 264.73 458.076C267.367 455.329 269.138 451.868 269.824 448.123C270.509 444.377 270.078 440.513 268.585 437.01C267.092 433.507 264.603 430.521 261.426 428.422C258.249 426.322 254.525 425.203 250.717 425.204C245.465 425.317 240.473 427.508 236.835 431.298C233.197 435.088 231.211 440.166 231.312 445.418Z" fill="#263238"/>
<path d="M218.967 455.525C218.967 455.525 221.946 470.092 223.134 472.485C223.909 473.951 225.224 475.057 226.801 475.568L226.577 465.237L218.967 455.525Z" fill="#263238"/>
<path d="M222.704 434.657C222.704 434.657 220.5 434.209 218.296 437.653C216.35 440.683 215.92 447.502 218.967 455.508L224.563 456.18L222.704 434.657Z" fill="#263238"/>
<path d="M226.251 456.197C225.131 456.903 223.53 454.647 222.135 453.149C220.741 451.651 216.23 449.568 213.974 454.527C211.718 459.486 215.954 466.252 219.518 467.406C225.665 469.421 226.578 465.305 226.578 465.305L227.06 488.395C235.204 500.999 253.68 500.552 247.033 487.775V480.699C249.769 481.154 252.547 481.304 255.315 481.146C259.827 480.423 262.668 476.704 264.045 471.607C266.249 463.429 267.075 456.834 265.216 440.752C263.167 423.12 243.486 422.931 232.845 429.904C222.204 436.878 226.251 456.197 226.251 456.197Z" fill="#914F4E"/>
<path d="M226.956 483.213C228.851 487.09 231.572 490.504 234.928 493.216C237.784 495.322 241.091 496.731 244.588 497.332C241.706 499.284 239.342 501.907 237.7 504.977C235.669 509.471 221.309 497.125 221.446 488.361C221.446 488.361 223.702 479.562 226.784 478.994L226.956 483.213Z" fill="#263238"/>
<path d="M244.605 497.332C244.605 497.332 249.031 495.128 247.05 487.775V480.699L248.996 480.957C251.264 483.166 252.873 485.962 253.645 489.032C254.093 491.047 255.195 501.24 253.249 503.255C251.303 505.269 248.566 497.917 244.605 497.332Z" fill="#263238"/>
<path d="M226.25 458.177C225.682 458.177 223.53 454.475 222.135 453.149C220.189 451.307 222.703 434.656 222.703 434.656C222.196 433.219 222.102 431.669 222.43 430.181C222.759 428.693 223.498 427.327 224.563 426.237C227.232 423.189 231.674 422.793 239.25 421.622C242.275 421.25 245.276 420.704 248.238 419.986C251.366 418.816 254.375 417.352 257.226 415.613C258.123 415.032 259.197 414.788 260.257 414.924C260.746 415.089 261.183 415.379 261.524 415.766C261.866 416.153 262.1 416.623 262.202 417.128C262.375 418.137 262.375 419.167 262.202 420.176C263.16 419.285 264.432 418.81 265.739 418.855C267.046 418.901 268.282 419.462 269.176 420.417C270.021 421.424 270.572 422.646 270.766 423.946C270.961 425.247 270.792 426.576 270.278 427.786C269.177 430.195 267.378 432.217 265.112 433.589C255.59 440.029 244.347 438.238 233.671 437.033C233.167 436.92 232.641 436.955 232.156 437.136C230.434 437.894 230.124 443.076 229.832 444.574C228.971 449.568 228.144 458.142 226.25 458.177Z" fill="#263238"/>
<path d="M222.703 435.535L215.919 431.729C216.125 431.259 216.427 430.837 216.806 430.491C217.185 430.145 217.632 429.883 218.119 429.72C218.606 429.558 219.121 429.5 219.632 429.549C220.143 429.599 220.638 429.755 221.084 430.008C221.986 430.569 222.65 431.443 222.949 432.462C223.247 433.482 223.16 434.575 222.703 435.535Z" fill="#263238"/>
<path d="M247.015 480.699C247.015 480.699 236.943 478.581 233.413 476.635C231.318 475.49 229.619 473.737 228.54 471.607C229.065 473.745 230.007 475.758 231.312 477.531C233.878 480.974 247.015 483.505 247.015 483.505V480.699Z" fill="#783736"/>
<path d="M243.365 452.977C243.377 453.253 243.334 453.528 243.239 453.788C243.144 454.047 242.999 454.285 242.811 454.488C242.624 454.691 242.399 454.856 242.148 454.971C241.898 455.087 241.627 455.153 241.351 455.164C240.794 455.133 240.271 454.885 239.894 454.473C239.518 454.061 239.317 453.518 239.336 452.96C239.336 452.426 239.548 451.913 239.926 451.535C240.304 451.158 240.816 450.945 241.351 450.945C241.885 450.945 242.397 451.158 242.775 451.535C243.153 451.913 243.365 452.426 243.365 452.96V452.977Z" fill="#263238"/>
<path d="M239.904 444.23L235.582 446.71C235.271 446.096 235.202 445.388 235.386 444.725C235.571 444.062 235.997 443.493 236.581 443.128C236.869 442.968 237.186 442.869 237.514 442.839C237.842 442.808 238.172 442.845 238.485 442.949C238.797 443.052 239.085 443.22 239.329 443.44C239.573 443.661 239.769 443.93 239.904 444.23Z" fill="#263238"/>
<path d="M246.103 468.112L250.717 469.92C250.626 470.237 250.471 470.531 250.261 470.785C250.051 471.039 249.791 471.247 249.496 471.396C249.202 471.545 248.88 471.631 248.551 471.65C248.222 471.668 247.893 471.619 247.584 471.504C246.954 471.23 246.452 470.728 246.177 470.098C245.903 469.469 245.876 468.76 246.103 468.112Z" fill="#783736"/>
<path d="M263.546 446.64L259 444.436C259.111 444.128 259.287 443.847 259.514 443.612C259.742 443.376 260.017 443.191 260.321 443.069C260.625 442.947 260.951 442.891 261.278 442.904C261.606 442.917 261.926 442.999 262.22 443.145C262.834 443.46 263.31 443.992 263.555 444.638C263.8 445.283 263.797 445.997 263.546 446.64Z" fill="#263238"/>
<path d="M260.567 452.977C260.593 453.258 260.56 453.542 260.47 453.81C260.38 454.078 260.235 454.324 260.045 454.533C259.854 454.742 259.623 454.909 259.364 455.023C259.106 455.137 258.826 455.196 258.543 455.196C258.261 455.196 257.981 455.137 257.723 455.023C257.464 454.909 257.233 454.742 257.042 454.533C256.852 454.324 256.707 454.078 256.617 453.81C256.527 453.542 256.494 453.258 256.52 452.977C256.509 452.702 256.552 452.427 256.647 452.169C256.742 451.911 256.888 451.674 257.075 451.472C257.263 451.271 257.488 451.108 257.739 450.994C257.989 450.88 258.26 450.816 258.535 450.808C259.091 450.83 259.615 451.07 259.995 451.476C260.375 451.882 260.581 452.421 260.567 452.977Z" fill="#263238"/>
<path d="M249.116 451.41L249.34 464.169L256.589 462.516L249.116 451.41Z" fill="#783736"/>
<path d="M240.248 447.708C238.91 447.708 237.627 448.239 236.681 449.186C235.735 450.132 235.203 451.415 235.203 452.753C235.203 454.091 235.735 455.374 236.681 456.32C237.627 457.266 238.91 457.798 240.248 457.798H241.161C242.499 457.798 243.782 457.266 244.728 456.32C245.674 455.374 246.206 454.091 246.206 452.753C246.206 451.415 245.674 450.132 244.728 449.186C243.782 448.239 242.499 447.708 241.161 447.708H240.248ZM234.274 452.753C234.26 451.158 234.879 449.622 235.996 448.482C237.113 447.343 238.636 446.693 240.231 446.675H241.161C242.624 446.867 243.966 447.584 244.939 448.693C245.912 449.801 246.448 451.226 246.448 452.701C246.448 454.176 245.912 455.601 244.939 456.71C243.966 457.819 242.624 458.536 241.161 458.728H240.248C238.667 458.719 237.152 458.086 236.034 456.968C234.915 455.849 234.283 454.335 234.274 452.753Z" fill="#263238"/>
<path d="M258.38 447.708C257.042 447.708 255.758 448.239 254.812 449.186C253.866 450.132 253.335 451.415 253.335 452.753C253.335 454.091 253.866 455.374 254.812 456.32C255.758 457.266 257.042 457.798 258.38 457.798H259.292C260.63 457.798 261.913 457.266 262.86 456.32C263.806 455.374 264.337 454.091 264.337 452.753C264.337 451.415 263.806 450.132 262.86 449.186C261.913 448.239 260.63 447.708 259.292 447.708H258.38ZM252.422 452.753C252.408 451.158 253.028 449.622 254.145 448.482C255.261 447.343 256.784 446.693 258.38 446.675H259.292C260.755 446.867 262.098 447.584 263.07 448.693C264.043 449.801 264.58 451.226 264.58 452.701C264.58 454.176 264.043 455.601 263.07 456.71C262.098 457.819 260.755 458.536 259.292 458.728H258.38C256.807 458.705 255.306 458.067 254.198 456.95C253.091 455.833 252.465 454.326 252.457 452.753H252.422Z" fill="#263238"/>
<path d="M247.05 451.548C247.411 451.048 247.884 450.639 248.431 450.355C248.979 450.071 249.585 449.919 250.201 449.912C250.71 449.857 251.224 449.925 251.701 450.111C252.177 450.297 252.602 450.595 252.939 450.98L253.748 450.36C253.318 449.835 252.764 449.426 252.135 449.17C251.507 448.914 250.824 448.82 250.15 448.896C249.368 448.904 248.599 449.101 247.91 449.47C247.221 449.838 246.63 450.368 246.189 451.014L247.05 451.548Z" fill="#263238"/>
<path d="M234.825 451.496H224.562V452.512H234.825V451.496Z" fill="#263238"/>
</svg>
