<svg width="1908" height="1009" viewBox="0 0 1908 1009" fill="none" xmlns="http://www.w3.org/2000/svg">
<path d="M1876.58 743.198L1838.7 744.006L1819.47 744.324C1813.03 744.468 1806.56 744.324 1800.13 744.497H1798.85V743.198L1798.68 710.803V709.359H1800.13L1838.35 709.533C1851.11 709.533 1863.85 709.85 1876.58 709.995H1877.39V710.803C1877.39 716.289 1877.16 721.746 1877.01 727.145L1876.58 743.198ZM1876.58 743.198L1876.17 726.885C1876.03 721.515 1875.86 716.202 1875.8 710.89L1876.58 711.698C1863.85 711.842 1851.11 712.16 1838.35 712.16L1800.13 712.333L1801.57 710.89V743.198L1800.27 741.927C1806.56 741.927 1812.86 741.927 1819.18 742.072L1837.98 742.562L1876.58 743.198Z" fill="#EBEBEB"/>
<path d="M1833.93 783.939L1796.05 784.747L1776.8 785.065C1770.39 785.065 1763.92 785.065 1757.48 785.238H1756.21V783.939V751.631V750.188H1757.65L1795.88 750.39C1808.61 750.39 1821.38 750.707 1834.11 750.852H1834.92V751.631C1834.92 757.117 1834.69 762.574 1834.54 767.973L1833.93 783.939ZM1833.93 783.939L1833.53 767.626C1833.39 762.256 1833.21 756.944 1833.16 751.631L1833.93 752.44C1821.2 752.584 1808.44 752.901 1795.71 752.901L1757.48 753.075L1758.92 751.631V783.939L1757.63 782.669C1763.92 782.669 1770.21 782.669 1776.54 782.813L1795.51 783.16L1833.93 783.939Z" fill="#EBEBEB"/>
<path d="M1919.22 783.939L1881.34 784.747L1862.11 785.065C1855.67 785.065 1849.21 785.065 1842.77 785.238H1841.5V783.939L1841.33 751.631V750.188H1842.77L1881 750.39C1893.76 750.39 1906.49 750.707 1919.22 750.852H1920.03V751.631C1920.03 757.117 1919.77 762.574 1919.66 767.973L1919.22 783.939ZM1919.22 783.939L1918.82 767.626C1918.82 762.256 1918.5 756.944 1918.44 751.631L1919.22 752.44C1906.49 752.584 1893.76 752.901 1881 752.901L1842.77 753.075L1844.21 751.631V783.939L1842.91 782.669C1849.24 782.669 1855.5 782.669 1861.82 782.813L1880.82 783.16L1919.22 783.939Z" fill="#EBEBEB"/>
<path d="M786.422 358.765L748.541 359.573L729.312 359.891C722.874 359.891 716.407 359.891 709.968 359.891H708.698V358.591L708.524 326.283V324.84H709.968L748.195 325.013C760.956 325.013 773.689 325.331 786.422 325.475H787.23V326.255C787.23 331.74 786.97 337.168 786.826 342.567L786.422 358.765ZM786.422 358.765L786.017 342.423C786.017 337.053 785.7 331.74 785.642 326.457L786.422 327.236C773.689 327.236 760.956 327.698 748.195 327.698L709.968 327.9L711.412 326.457L711.267 358.765L709.968 357.465C716.262 357.465 722.556 357.465 728.879 357.639L747.877 357.956L786.422 358.765Z" fill="#EBEBEB"/>
<path d="M743.72 399.505L705.84 400.313L686.582 400.631C680.172 400.631 673.705 400.631 667.266 400.775H665.996V399.476L665.765 367.226V365.782H667.209L705.436 365.955C718.168 365.955 730.93 366.273 743.662 366.417H744.471V367.226C744.471 372.712 744.24 378.14 744.096 383.539L743.72 399.505ZM743.72 399.505L743.316 383.163C743.172 377.793 742.998 372.481 742.941 367.197L743.72 367.977C730.988 368.121 718.226 368.438 705.493 368.438L667.266 368.641L668.71 367.197L668.652 399.505L667.353 398.206C673.647 398.206 679.941 398.206 686.264 398.379L705.234 398.697L743.72 399.505Z" fill="#EBEBEB"/>
<path d="M829.066 399.505L791.185 400.313L771.956 400.631C765.518 400.631 759.079 400.631 752.612 400.775H751.342V399.476L751.168 367.226V365.782H752.612L790.839 365.955C803.6 365.955 816.333 366.273 829.066 366.417H829.874V367.226C829.874 372.712 829.614 378.14 829.499 383.539L829.066 399.505ZM829.066 399.505L828.662 383.163C828.662 377.793 828.344 372.481 828.286 367.197L829.066 367.977C816.333 368.121 803.6 368.438 790.839 368.438L752.612 368.641L754.056 367.197L753.911 399.505L752.612 398.206C758.935 398.206 765.2 398.206 771.523 398.379L790.521 398.697L829.066 399.505Z" fill="#EBEBEB"/>
<path d="M163.042 572.536L125.162 573.345L105.904 573.662C99.4944 573.662 93.027 573.662 86.5885 573.807H85.4336V572.508V540.199V538.756H86.8772L125.104 538.929C137.837 538.929 150.598 539.247 163.331 539.391H164.139V540.171C164.139 545.656 163.908 551.084 163.764 556.483L163.042 572.536ZM163.042 572.536L162.638 556.195C162.638 550.824 162.32 545.512 162.263 540.228L163.042 541.008C150.309 541.152 137.548 541.47 124.815 541.47L86.5885 541.672L88.0321 540.228L87.8877 572.536L86.5885 571.237C92.8826 571.237 99.1768 571.237 105.5 571.41L124.469 571.728L163.042 572.536Z" fill="#EBEBEB"/>
<path d="M1430.47 358.736L1392.59 359.544L1373.36 359.862C1366.93 360.006 1360.46 359.862 1354.02 360.006H1352.75V358.707L1352.58 326.399V324.955H1354.02L1392.25 325.128C1405.01 325.128 1417.74 325.475 1430.47 325.619H1431.28V326.399C1431.28 331.884 1431.05 337.341 1430.91 342.711L1430.47 358.736ZM1430.47 358.736L1430.07 342.423C1429.92 337.024 1429.75 331.711 1429.69 326.428L1430.47 327.207C1417.74 327.351 1405.01 327.669 1392.25 327.698L1354.02 327.871L1355.46 326.428L1355.32 358.736L1354.02 357.436C1360.31 357.436 1366.61 357.436 1372.93 357.61L1391.93 357.927L1430.47 358.736Z" fill="#EBEBEB"/>
<path d="M1872.16 44.9548L1834.28 45.7632L1815.02 46.0808C1808.61 46.0808 1802.15 46.0808 1795.71 46.254H1794.44V44.9548V12.6467V11.2031H1795.88L1834.11 11.3764C1846.84 11.3764 1859.6 11.7228 1872.33 11.8672H1873.14V12.6467C1873.14 18.1325 1872.91 23.5893 1872.77 28.9596L1872.16 44.9548ZM1872.16 44.9548L1871.76 28.642C1871.61 23.2429 1871.44 17.9304 1871.38 12.6467L1872.16 13.4263C1859.43 13.4263 1846.67 13.8883 1833.93 13.9171L1795.71 14.0903L1797.15 12.6467L1797.01 44.9548L1795.71 43.6555C1802 43.6555 1808.3 43.6555 1814.62 43.8288L1833.59 44.1464L1872.16 44.9548Z" fill="#EBEBEB"/>
<path d="M1914.81 85.6907L1876.93 86.4991L1857.7 86.8167C1851.26 86.961 1844.79 86.8167 1838.35 86.9611H1837.08V85.6618L1836.91 53.3538V51.9102H1838.35L1876.58 52.0834C1889.34 52.0834 1902.07 52.4298 1914.81 52.5742H1915.62V53.3538C1915.62 58.8395 1915.36 64.2964 1915.21 69.6666L1914.81 85.6907ZM1914.81 85.6907L1914.4 69.3778C1914.4 63.9787 1914.09 58.6663 1914.03 53.3826L1914.81 54.1622C1902.07 54.3065 1889.34 54.6241 1876.58 54.653L1838.35 54.8263L1839.8 53.3826V85.6907L1838.5 84.3914C1844.79 84.3914 1851.09 84.3914 1857.41 84.5647L1876.41 84.8822L1914.81 85.6907Z" fill="#EBEBEB"/>
<path d="M77.7529 44.9841L39.8437 45.7925L20.6148 46.1101C14.2051 46.1101 7.73776 46.1101 1.29925 46.2833H0V44.9841V12.676V11.2324H1.47248L39.6993 11.4345C52.432 11.4345 65.1646 11.7521 77.9261 11.8965H78.7057V12.676C78.7057 18.1618 78.4458 23.6186 78.3304 29.0177L77.7529 44.9841ZM77.7529 44.9841L77.3198 28.6713C77.3198 23.2721 77.0022 17.9597 76.9445 12.676L77.7529 13.4556C64.9914 13.6288 52.2587 13.9175 39.5261 13.9464L1.29925 14.1196L2.74286 12.676L2.56963 44.9841L1.29925 43.858C7.5934 43.858 13.8587 43.858 20.1817 43.858L39.1796 44.1756L77.7529 44.9841Z" fill="#EBEBEB"/>
<path d="M1014.19 445.727C1010.65 449.074 1006.26 451.381 1001.49 452.397C998.603 453.147 995.398 453.58 992.337 454.129H981.886C977.584 453.465 973.224 452.945 969.038 452.108C953.392 448.75 938.572 442.311 925.441 433.168C890.859 410.307 861.723 380.126 840.094 344.761C832.843 333.091 827.848 320.163 825.369 306.65C824.734 303.098 824.243 299.518 823.695 295.938V285.486C824.561 281.473 825.254 277.402 826.322 273.446C827.375 269.734 829.363 266.354 832.097 263.63C832.616 264.092 833.078 264.467 833.54 264.929C850.171 281.54 866.811 298.151 883.46 314.763C883.999 315.211 884.384 315.817 884.56 316.496C884.736 317.174 884.695 317.891 884.442 318.545C883.177 322.661 883.007 327.037 883.948 331.239C884.89 335.442 886.911 339.326 889.812 342.509C904.014 358.64 919.221 373.857 935.344 388.069C938.557 390.988 942.478 393.016 946.717 393.952C950.955 394.889 955.365 394.703 959.51 393.411C960.722 393.093 961.589 392.891 962.628 393.93C979.624 411.023 996.659 428.077 1013.73 445.092C1013.82 445.179 1013.93 445.438 1014.19 445.727Z" fill="#EBEBEB"/>
<path d="M1046.88 408.397V411.862C1045.37 414.032 1043.74 416.114 1042 418.098C1036.86 423.44 1031.55 428.608 1026.32 433.834L1024.7 435.364L973.368 384.058C980.095 377.417 986.794 370.632 993.723 364.021C994.474 363.323 995.357 362.784 996.321 362.435C997.284 362.086 998.308 361.933 999.331 361.987C1000.35 362.041 1001.36 362.3 1002.28 362.748C1003.2 363.197 1004.02 363.826 1004.69 364.598C1008.56 368.351 1012.32 372.191 1016.24 375.974C1025.16 384.924 1034.14 393.817 1042.98 402.825C1044.42 404.577 1045.73 406.44 1046.88 408.397Z" fill="#EBEBEB"/>
<path d="M912.303 285.749C905.952 291.898 899.455 297.904 893.161 303.851L842.23 252.95C843.356 251.939 844.656 250.871 845.839 249.716C850.517 245.068 855.108 240.304 859.871 235.742C861.806 234.044 863.841 232.463 865.963 231.007H869.457C871.404 232.203 873.257 233.544 875 235.02C887.473 247.377 899.898 259.792 912.274 272.265C916.952 276.943 916.952 281.158 912.303 285.749Z" fill="#EBEBEB"/>
<path d="M58.7544 314.071H392.893V102.091H58.7544V314.071Z" fill="#EBEBEB"/>
<path d="M455.402 314.072H392.894V248.965L455.402 314.072Z" fill="#EBEBEB"/>
<path d="M354.204 138.73H97.4146V142.773H354.204V138.73Z" fill="white"/>
<path d="M230.14 160.498H97.4146V164.54H230.14V160.498Z" fill="white"/>
<path d="M305.064 204.011H97.4146V208.053H305.064V204.011Z" fill="white"/>
<path d="M354.204 225.752H97.4146V229.794H354.204V225.752Z" fill="white"/>
<path d="M354.204 247.493H97.4146V251.535H354.204V247.493Z" fill="white"/>
<path d="M188.651 269.262H97.4146V273.304H188.651V269.262Z" fill="white"/>
<path d="M1861.77 398.724H1527.63V585.671H1861.77V398.724Z" fill="#DBDBDB"/>
<path d="M1465.12 585.701H1527.63V520.594L1465.12 585.701Z" fill="#DBDBDB"/>
<path d="M1790.63 496.34H1567.07V500.382H1790.63V496.34Z" fill="white"/>
<path d="M1744.66 518.109H1567.07V522.152H1744.66V518.109Z" fill="white"/>
<path d="M1758.06 452.832H1567.07V456.874H1758.06V452.832Z" fill="white"/>
<path d="M1816.44 431.091H1567.07V435.133H1816.44V431.091Z" fill="white"/>
<path d="M1763.08 539.852H1567.07V543.894H1763.08V539.852Z" fill="white"/>
<path d="M1692.95 200.024H1079.39V226.933H1692.95V200.024Z" fill="#EBEBEB"/>
<path d="M1140.68 226.965H1113.78V315.949H1140.68V226.965Z" fill="#EBEBEB"/>
<path d="M1140.68 226.965H1113.78V254.48H1140.68V226.965Z" fill="#DBDBDB"/>
<path d="M1658.57 226.965H1631.66V315.949H1658.57V226.965Z" fill="#EBEBEB"/>
<path d="M1658.57 226.965H1631.66V254.48H1658.57V226.965Z" fill="#DBDBDB"/>
<path d="M1237.12 200.025V28.5527L1193.92 28.5527V200.025H1237.12Z" fill="#C7C7C7"/>
<path d="M1237.12 38.2247V19.3711L1193.92 19.3711V38.2247H1237.12Z" fill="#DBDBDB"/>
<path d="M1237.09 69.3777V62.3906H1193.9V69.3777H1237.09Z" fill="#DBDBDB"/>
<path d="M1242.49 177.563V158.709H1193.93V177.563H1242.49Z" fill="#DBDBDB"/>
<path d="M1267.29 200.027V0L1237.12 0V200.027H1267.29Z" fill="#DBDBDB"/>
<path d="M1261.14 95.7385V18.7939H1243.04V95.7385H1261.14Z" fill="#EBEBEB"/>
<path d="M1481.89 178.656L1339.64 38.0322L1318.43 59.4892L1460.68 200.113L1481.89 178.656Z" fill="#C7C7C7"/>
<path d="M1444.36 149.903L1389.64 95.8096L1376.91 108.684L1431.63 162.778L1444.36 149.903Z" fill="#DBDBDB"/>
<path d="M1318.51 200.084V48.1299H1267.26V200.084H1318.51Z" fill="#A6A6A6"/>
<path d="M1318.51 183.942V169.795H1267.26V183.942H1318.51Z" fill="#C7C7C7"/>
<path d="M1318.51 160.527V155.041H1267.26V160.527H1318.51Z" fill="#C7C7C7"/>
<path d="M1193.93 200.083V57.2812H1158.53V200.083H1193.93Z" fill="#A6A6A6"/>
<path d="M1193.93 184.926V171.616H1158.53V184.926H1193.93Z" fill="#C7C7C7"/>
<path d="M1193.93 100.013V86.7031H1158.53V100.013H1193.93Z" fill="#C7C7C7"/>
<path d="M1193.93 114.306V109.138H1158.53V114.306H1193.93Z" fill="#C7C7C7"/>
<path d="M1628.45 133.502L1624.61 143.694L1622.25 149.902L1618.38 160.122L1603.31 200.053H1521.8L1506.67 160.122L1502.8 149.902L1500.46 143.694L1496.59 133.502L1526.68 89.6453L1511.09 60.7441H1614.05L1598.37 89.6453L1628.45 133.502Z" fill="#DBDBDB"/>
<path d="M1628.45 133.504L1624.61 143.696H1500.46L1496.59 133.504H1628.45Z" fill="#A6A6A6"/>
<path d="M1622.24 149.905L1618.37 160.126H1506.67L1502.8 149.905H1622.24Z" fill="#A6A6A6"/>
<path d="M38.7183 978.251L269.119 977.558L499.49 977.298L960.262 976.836L1421.03 977.298L1651.41 977.558L1881.81 978.251L1651.41 978.972L1421.03 979.232L960.262 979.694L499.49 979.232L269.119 978.972L38.7183 978.251Z" fill="#263238"/>
<path d="M935.258 978.189H1289.4L1218.81 567.424H953.967L935.258 978.189Z" fill="#DBDBDB"/>
<path d="M935.258 978.189H966.324L983.734 567.424H953.967L935.258 978.189Z" fill="#A6A6A6"/>
<path d="M1242.98 647.947C1283.05 737.451 1379.89 885.999 1423.23 849.187C1488.05 794.156 1531.93 672.431 1549.25 623.204C1558.98 595.631 1418.52 549.493 1409.92 574.525C1397.68 610.096 1378.48 684.442 1367.36 694.98C1361.59 700.495 1315.56 635.908 1280.74 605.274C1230.48 561.129 1230.19 619.364 1242.98 647.947Z" fill="#AD6359"/>
<path d="M1584.34 581.774C1571.83 609.895 1523.7 657.448 1507.71 664.464C1491.71 671.48 1407.23 595.171 1408.99 577.212C1410.76 559.254 1461.17 465.188 1489.09 450.752C1517 436.316 1597.3 552.613 1584.34 581.774Z" fill="#AD6359"/>
<path d="M1415.61 557.464C1415.61 557.464 1417.63 517.447 1407.52 483.609C1399.03 455.17 1383.24 413.911 1398.34 408.772C1429.41 398.234 1468.79 501.163 1468.79 501.163C1468.79 501.163 1478.89 549.38 1449.07 562.545C1430.36 570.803 1415.61 557.464 1415.61 557.464Z" fill="#AD6359"/>
<path d="M1450.63 481.559C1452.65 497.756 1470.58 486.092 1470.58 486.092C1470.58 486.092 1448.84 509.19 1457.38 524.983C1465.7 540.256 1486.83 525.387 1488.36 524.348C1487.21 525.589 1467.81 547.243 1478.06 562.315C1488.71 577.964 1507.36 559.427 1508.57 558.215C1507.85 559.687 1498.79 579.638 1509.18 589.339C1527.02 605.941 1551.62 555.587 1570.56 549.957C1570.56 549.957 1583.79 580.937 1584.33 581.717C1584.33 581.717 1608.73 534.251 1599.72 509.132C1598.46 505.462 1595.98 502.333 1592.7 500.26C1589.42 498.186 1585.53 497.293 1581.68 497.728C1581.68 497.728 1591.23 483.291 1583.55 471.165C1579.57 464.958 1566.23 465.766 1566.23 465.766C1566.23 465.766 1573.39 453.899 1565.88 443.563C1559.91 435.277 1547.35 437.385 1547.35 437.385C1547.35 437.385 1548.94 422.775 1540.1 416.308C1522.14 403.258 1446.27 446.884 1450.63 481.559Z" fill="#AD6359"/>
<path d="M1545.18 437.471C1545.44 437.327 1545.18 436.952 1545.04 437.038C1516.57 445.296 1487.84 463.023 1469.54 486.612C1468.93 487.391 1469.91 488.691 1470.75 487.969C1494.4 467.325 1516.77 450.955 1545.18 437.471Z" fill="#263238"/>
<path d="M1566.41 465.39C1566.72 465.245 1566.41 464.726 1566.15 464.812C1536.84 473.474 1505.05 494.435 1487.12 524.029C1486.52 525.04 1486.98 526.57 1487.79 525.473C1501.18 506.764 1540.77 477.43 1566.41 465.39Z" fill="#263238"/>
<path d="M1508.03 560.67C1526.3 532.952 1551.62 513.868 1580.47 498.017C1580.81 497.815 1580.47 497.324 1580.15 497.411C1563.92 501.308 1546.6 513.319 1533.95 523.829C1521.99 533.336 1512.73 545.822 1507.1 560.034C1506.84 560.67 1507.65 561.305 1508.03 560.67Z" fill="#263238"/>
<path d="M1470 486.063C1469.28 486.987 1471.45 487.016 1470.75 487.969C1467.87 491.953 1452.42 517.505 1459.49 525.503C1465.27 531.884 1477.65 528.65 1481.98 525.503L1492.81 517.679L1485.36 528.91C1482.01 533.831 1479.47 539.262 1477.86 544.992C1476.96 547.601 1476.63 550.371 1476.88 553.119C1477.13 555.866 1477.97 558.528 1479.33 560.929C1480.6 563.154 1482.6 564.871 1485 565.792C1487.39 566.712 1490.03 566.779 1492.46 565.982C1497.9 564.113 1502.76 560.882 1506.58 556.598L1517.55 545.049L1510.97 559.486C1509.13 563.48 1507.8 567.69 1507.02 572.016C1506.13 576.083 1506.47 580.32 1507.97 584.2C1508.71 585.909 1509.92 587.377 1511.45 588.442C1512.98 589.508 1514.77 590.128 1516.63 590.234C1520.85 589.807 1524.85 588.184 1528.18 585.557C1535.47 579.987 1542.31 573.857 1548.65 567.223C1551.97 563.99 1555.29 560.727 1558.78 557.609C1562.07 554.326 1566 551.768 1570.33 550.102C1566.21 552.188 1562.55 555.063 1559.53 558.562C1556.33 561.882 1553.27 565.347 1550.21 568.84C1544.19 576.052 1537.53 582.693 1530.29 588.675C1526.41 591.969 1521.65 594.065 1516.6 594.71C1513.82 594.736 1511.09 593.957 1508.73 592.466C1506.38 590.976 1504.51 588.837 1503.35 586.308C1501.33 581.545 1500.78 576.287 1501.76 571.208C1502.54 566.377 1503.94 561.669 1505.95 557.205L1510.34 560.092C1505.89 565.226 1500.18 569.108 1493.76 571.352C1490.17 572.501 1486.29 572.358 1482.79 570.948C1479.41 569.466 1476.55 567.002 1474.59 563.874C1472.87 560.827 1471.82 557.451 1471.5 553.967C1471.18 550.483 1471.61 546.972 1472.74 543.664C1474.59 537.388 1477.47 531.465 1481.26 526.138L1484.64 529.43C1478.87 533.183 1465.47 538.322 1455.39 529.574C1444.25 516.033 1465.76 490.452 1470 486.063Z" fill="#263238"/>
<path d="M1470.58 486.092C1467.46 487.337 1464.17 488.106 1460.82 488.373C1459.47 488.511 1458.12 488.287 1456.89 487.724C1455.66 487.16 1454.6 486.278 1453.83 485.168C1452.47 482.496 1451.92 479.486 1452.24 476.506C1452.42 473.215 1452.76 469.779 1453.28 466.228C1451.08 469.129 1449.53 472.466 1448.72 476.015C1448.17 477.931 1447.99 479.937 1448.22 481.919C1448.44 483.901 1449.05 485.82 1450.02 487.564C1451.28 489.376 1453.07 490.765 1455.13 491.549C1457.12 492.198 1459.25 492.278 1461.28 491.779C1464.9 490.911 1468.16 488.92 1470.58 486.092Z" fill="#263238"/>
<path d="M1401.37 577.21L1547.58 679.042C1547.58 679.042 1460.24 859.985 1406.28 859.494C1352.32 859.003 1274.36 723.477 1247.48 664.895C1220.6 606.313 1236.63 556.682 1291.02 610.038C1345.42 663.394 1364.91 685.394 1366.67 684.672C1369.96 683.344 1401.37 577.21 1401.37 577.21Z" fill="#FF9705"/>
<path d="M1547.58 679.045C1547.58 679.045 1486.95 804.523 1435.59 846.215C1425.28 854.588 1415.38 859.583 1406.28 859.467C1352.32 859.005 1274.36 723.45 1247.34 664.897C1230.62 628.634 1230.48 595.806 1245.67 588.732C1255.05 584.373 1270.21 589.743 1290.91 610.127C1345.77 663.858 1364.76 685.454 1366.55 684.733C1369.96 683.347 1401.4 577.241 1401.4 577.241L1547.58 679.045Z" fill="#FF9705"/>
<path d="M1457.09 824.848C1455.3 826.927 1453.49 828.948 1451.67 830.911C1435.21 841.271 1416.75 848.031 1397.5 850.747C1392.19 851.333 1386.85 851.546 1381.51 851.382L1378.19 849.303C1384.56 849.688 1390.95 849.524 1397.3 848.812C1404.9 847.982 1412.37 846.257 1419.56 843.673L1425.02 841.883L1430.3 839.66C1432.06 838.909 1433.88 838.274 1435.58 837.408L1440.7 834.809C1446.38 831.863 1451.86 828.535 1457.09 824.848ZM1346.17 665.445C1329.48 673.033 1314.27 683.5 1301.21 696.367C1292.75 704.708 1284.92 713.674 1277.8 723.189C1278.14 723.824 1278.52 724.488 1278.92 725.123C1286.13 715.449 1294.07 706.346 1302.69 697.897C1313.62 687.15 1326.09 678.074 1339.67 670.959L1344.78 668.361C1345.72 667.885 1346.68 667.461 1347.67 667.09L1346.17 665.445ZM1472.45 674.655C1458.59 667.868 1444.08 662.481 1429.15 658.573C1427.59 658.198 1426.03 657.822 1424.44 657.505C1423.43 657.274 1422.39 657.043 1421.38 656.869C1408.76 654.225 1395.8 653.563 1382.98 654.906C1381.1 655.166 1379.25 655.455 1377.38 655.801C1377.18 656.465 1376.95 657.158 1376.74 657.793C1378.88 657.418 1381.05 657.1 1383.21 656.841C1395.11 655.583 1407.14 656.079 1418.9 658.313L1422.04 658.891C1424.27 659.352 1426.49 659.843 1428.71 660.392C1443.52 664.208 1457.91 669.489 1471.68 676.156C1492.29 686.269 1512.29 697.597 1531.56 710.081C1531.84 709.59 1532.1 709.099 1532.34 708.637C1513.07 696.129 1493.07 684.781 1472.45 674.655ZM1487.61 637.294C1464.2 638.261 1441.4 644.984 1421.21 656.869L1418.72 658.313C1413.62 661.368 1408.7 664.703 1403.97 668.303C1379.23 687.128 1359.48 711.322 1340.68 735.662C1331.27 747.875 1322.03 760.174 1312.27 772.07C1311.58 772.936 1310.86 773.773 1310.13 774.639L1311.23 776.227C1312.07 775.246 1312.91 774.264 1313.72 773.34C1323.53 761.416 1332.8 749.116 1342.24 736.932C1361.04 712.679 1380.76 688.658 1405.24 670.093C1410.55 666.045 1416.1 662.333 1421.87 658.977C1422.65 658.486 1423.46 658.024 1424.27 657.591C1430.99 653.817 1438 650.574 1445.23 647.89L1450.63 645.927C1452.42 645.292 1454.29 644.859 1456.14 644.31L1461.66 642.78L1467.43 641.654C1474.89 639.973 1482.51 639.178 1490.15 639.286H1490.5L1487.61 637.294ZM1308.17 627.218C1298.09 631.701 1287.54 635.079 1276.73 637.294L1271.1 638.391C1269.22 638.738 1267.32 638.853 1265.33 639.113L1259.55 639.777L1253.78 640.008C1248.5 640.374 1243.21 640.278 1237.95 639.719L1238.47 641.625C1262.88 643.406 1287.34 638.997 1309.59 628.806C1309.27 628.257 1308.72 627.737 1308.17 627.218ZM1266.54 591.358C1256.31 598.304 1245.71 604.675 1234.78 610.443C1234.78 611.222 1234.78 612.002 1234.78 612.81C1246.44 606.71 1257.72 599.902 1268.56 592.427C1267.87 592.051 1267.2 591.676 1266.54 591.358Z" fill="white"/>
<path d="M1513.02 696.022C1509.15 692.817 1505.25 689.699 1501.33 686.581C1493.36 680.287 1485.39 674.021 1477.42 667.785C1461.54 655.399 1445.32 643.446 1428.97 631.695C1419.71 624.996 1410.58 617.952 1401.02 611.686C1400.98 611.652 1400.93 611.627 1400.87 611.613C1400.82 611.599 1400.76 611.596 1400.7 611.604C1400.65 611.612 1400.59 611.631 1400.54 611.66C1400.5 611.689 1400.45 611.727 1400.42 611.773C1400.38 611.818 1400.36 611.87 1400.35 611.925C1400.33 611.98 1400.33 612.038 1400.34 612.094C1400.34 612.15 1400.36 612.204 1400.39 612.253C1400.42 612.302 1400.46 612.345 1400.51 612.379C1408.1 619.078 1416.24 625.198 1424.12 631.579C1432 637.96 1439.83 644.37 1447.83 650.606C1463.73 662.963 1479.82 675.08 1496.1 686.956C1500.63 690.305 1505.11 693.828 1509.82 696.975C1512.21 698.592 1514.49 700.382 1516.92 701.941C1519.34 703.5 1521.94 704.828 1524.31 706.589C1524.36 706.62 1524.43 706.631 1524.49 706.619C1524.55 706.607 1524.6 706.573 1524.64 706.524C1524.68 706.475 1524.7 706.414 1524.7 706.352C1524.69 706.29 1524.67 706.23 1524.63 706.185C1520.67 702.865 1516.98 699.256 1513.02 696.022Z" fill="#263238"/>
<path d="M1367.79 681.44C1362.21 696.524 1357.62 711.955 1354.05 727.636C1352.14 735.374 1350.64 743.198 1349.17 750.994C1347.61 758.74 1346.57 766.582 1346.05 774.467C1346.05 774.755 1346.48 774.755 1346.54 774.467C1348.97 766.931 1350.76 759.078 1352.49 751.369C1354.22 743.66 1356.19 735.893 1357.92 728.271C1361.41 712.738 1365.51 697.349 1368.54 681.729C1368.56 681.68 1368.57 681.627 1368.57 681.574C1368.57 681.522 1368.56 681.47 1368.54 681.421C1368.51 681.373 1368.48 681.33 1368.44 681.293C1368.41 681.257 1368.36 681.228 1368.31 681.209C1368.26 681.19 1368.21 681.181 1368.16 681.183C1368.1 681.184 1368.05 681.196 1368 681.217C1367.96 681.239 1367.91 681.269 1367.88 681.308C1367.84 681.346 1367.81 681.391 1367.79 681.44Z" fill="#263238"/>
<path opacity="0.1" d="M1435.59 846.215C1425.28 854.588 1415.38 859.583 1406.28 859.467C1352.32 859.005 1274.36 723.45 1247.34 664.897C1230.62 628.634 1230.48 595.806 1245.67 588.732L1435.59 846.215Z" fill="black"/>
<path d="M1351.89 978.19H1000.89C997.017 971.087 1054.53 663.656 1172.91 577.068C1199.18 557.868 1245.78 570.225 1258.71 588.905C1323.85 682.769 1351.89 978.19 1351.89 978.19Z" fill="#FF9705"/>
<path d="M1333.64 841.711C1324.88 838.608 1316.29 835.032 1307.91 830.999C1296.16 825.369 1284.81 819.132 1273.53 812.55L1271.88 811.568C1260.33 804.725 1248.78 797.478 1237.46 790.174L1235.85 789.134L1228.17 784.168C1202.18 767.509 1176.6 750.359 1148.86 737.02C1135.14 730.162 1120.58 725.152 1105.55 722.122C1098 720.777 1090.33 720.35 1082.68 720.851C1080.77 720.851 1078.9 721.256 1076.91 721.515C1075.61 721.775 1074.31 721.949 1072.98 722.208C1073.18 721.746 1073.35 721.313 1073.59 720.851C1074.62 720.649 1075.69 720.476 1076.73 720.245C1078.64 720.014 1080.57 719.725 1082.51 719.581C1090.23 719.062 1097.98 719.479 1105.6 720.823C1120.79 723.827 1135.51 728.847 1149.38 735.75C1177.27 749.089 1203.02 766.239 1228.95 782.84L1236.57 787.72L1238.21 788.759C1249.76 796.179 1261.31 803.541 1273.29 810.5L1274.94 811.481C1285.91 817.862 1297.09 823.925 1308.58 829.382C1316.6 833.222 1324.82 836.643 1333.2 839.632L1333.64 841.711ZM1302.4 695.126L1301.21 696.252C1278.95 717.935 1262.32 744.382 1246.65 770.829C1243.33 776.469 1240.01 782.099 1236.66 787.72C1236.4 788.21 1236.14 788.672 1235.85 789.134C1231.6 796.295 1227.33 803.426 1222.88 810.442C1218.99 816.621 1214.92 822.713 1210.58 828.603C1210.18 829.151 1209.8 829.7 1209.4 830.219C1205.02 836.139 1200.29 841.798 1195.25 847.167C1190 852.742 1184.19 857.772 1177.93 862.181L1175.59 863.827C1174.81 864.375 1173.95 864.808 1173.14 865.299L1168.2 868.186C1164.8 869.903 1161.29 871.398 1157.69 872.662C1143.13 877.498 1127.88 879.965 1112.53 879.966C1097.24 879.905 1082 878.172 1067.09 874.798C1052.65 871.738 1038.65 867.638 1024.53 863.538C1024.53 864 1024.3 864.462 1024.16 864.895C1038.25 869.024 1052.39 873.181 1066.77 876.271C1081.86 879.713 1097.29 881.495 1112.77 881.583C1128.28 881.591 1143.7 879.115 1158.44 874.25C1162.12 872.985 1165.71 871.47 1169.18 869.717L1174.23 866.829C1175.09 866.374 1175.92 865.873 1176.72 865.328L1179.11 863.654C1185.47 859.2 1191.37 854.112 1196.7 848.467C1202.07 842.713 1207.1 836.65 1211.77 830.306C1212.2 829.758 1212.58 829.238 1212.95 828.689C1217.05 823.088 1220.92 817.342 1224.5 811.51C1228.98 804.494 1233.16 797.363 1237.49 790.231L1238.33 788.817L1248.35 771.898C1264.06 745.479 1280.69 719.263 1302.72 697.84L1303.09 697.494C1302.83 696.657 1302.6 695.877 1302.4 695.126ZM1319.06 763.698C1316.83 766.585 1314.58 769.299 1312.3 772.071C1302.74 784.088 1292.06 795.167 1280.4 805.158C1278.09 806.977 1275.78 808.796 1273.38 810.5L1271.88 811.568C1268.54 813.926 1265.04 816.049 1261.4 817.92L1258.89 819.277C1258.05 819.739 1257.13 820.056 1256.26 820.461L1251.01 822.713C1247.42 824.006 1243.76 825.058 1240.03 825.86C1231.09 827.776 1221.96 828.744 1212.81 828.747H1210.58C1205.16 828.747 1199.73 828.314 1194.33 827.736C1179.09 825.818 1164.11 822.226 1149.66 817.025C1135.23 812.03 1120.99 805.88 1106.85 799.702C1092.77 793.331 1078.3 787.845 1063.54 783.273C1059.18 782.032 1054.88 780.935 1050.26 780.126L1049.82 781.368C1054.33 782.205 1058.8 783.273 1063.16 784.544C1077.84 789.129 1092.22 794.626 1106.21 801.001C1120.36 807.093 1134.51 813.271 1149.09 818.324C1163.66 823.568 1178.76 827.208 1194.13 829.18C1199.21 829.757 1204.29 830.133 1209.37 830.219C1210.12 830.219 1210.84 830.219 1211.59 830.219C1221.29 830.376 1230.97 829.466 1240.47 827.505C1244.26 826.667 1248 825.596 1251.67 824.301L1257.04 821.991C1257.93 821.587 1258.83 821.269 1259.7 820.807L1262.27 819.421C1266.21 817.412 1269.99 815.105 1273.58 812.521L1275.08 811.452C1277.28 809.864 1279.44 808.19 1281.58 806.486C1293.36 796.455 1304.15 785.317 1313.8 773.226C1315.73 770.858 1317.65 768.462 1319.58 766.036C1319.4 765.286 1319.23 764.477 1319.06 763.698ZM1282.79 635.938C1280.77 636.429 1278.75 636.891 1276.73 637.295L1271.1 638.392C1269.22 638.739 1267.32 638.854 1265.33 639.114L1259.55 639.778L1253.78 640.009C1246.15 640.503 1238.5 640.096 1230.97 638.797C1219.16 636.755 1207.71 632.97 1197.01 627.565L1194.13 626.15C1192.11 625.111 1190.11 624.014 1188.15 622.888C1174.93 615.128 1162.53 606.055 1151.14 595.806L1149.87 597.076C1161.37 607.434 1173.88 616.622 1187.2 624.505C1188.58 625.313 1190.08 626.093 1191.41 626.843L1194.3 628.287C1205.72 634.277 1217.99 638.474 1230.68 640.731C1248.27 643.201 1266.18 642.22 1283.4 637.844C1283.28 637.209 1283.02 636.573 1282.79 635.938ZM1262.24 594.218C1246.9 604.503 1230.54 613.163 1213.41 620.058C1207.2 622.478 1200.85 624.513 1194.39 626.15L1191.67 626.843C1184.17 628.588 1176.54 629.775 1168.86 630.395L1163.09 630.77C1161.18 630.914 1159.28 630.77 1157.31 630.77H1151.54L1145.77 630.308C1138.81 629.906 1131.92 628.754 1125.21 626.872C1124.8 627.421 1124.4 627.969 1124.03 628.547C1147.08 634.338 1171.23 634.248 1194.24 628.287L1197.13 627.565C1202.89 626.04 1208.56 624.189 1214.11 622.022C1231.32 615.08 1247.77 606.372 1263.19 596.037L1262.24 594.218ZM1348.59 947.989C1345.71 947.989 1342.59 948.249 1339.59 948.336H1339.35L1337.59 948.48C1322.8 950.029 1308.42 954.307 1295.18 961.097C1285.71 966.044 1276.66 971.76 1268.13 978.19H1269.95C1278.09 972.16 1286.7 966.792 1295.7 962.137C1309.05 955.32 1323.57 951.079 1338.49 949.635H1339.56H1340.25C1343.14 949.635 1345.85 949.317 1348.62 949.346C1348.68 948.827 1348.65 948.422 1348.59 947.989ZM1350.09 961.271C1346.96 957.286 1343.71 953.369 1340.36 949.52C1340.05 949.115 1339.7 948.74 1339.35 948.365L1338.17 946.979C1328.08 935.221 1316.48 924.852 1303.67 916.143C1297.17 911.901 1290.16 908.477 1282.82 905.951C1281 905.345 1279.1 904.825 1277.25 904.306C1275.4 903.786 1273.47 903.382 1271.48 903.122C1267.66 902.4 1263.77 902.342 1259.93 901.967C1244.4 901.4 1228.92 903.861 1214.34 909.214C1199.89 914.707 1186.09 921.775 1173.19 930.291C1150.1 945.16 1129.05 962.656 1106.56 978.19H1107.51C1129.89 962.916 1150.82 945.737 1173.69 931.186C1186.54 922.73 1200.29 915.729 1214.68 910.311C1229.12 905.026 1244.45 902.604 1259.81 903.18C1263.59 903.584 1267.46 903.642 1271.22 904.363C1273.12 904.623 1274.94 905.172 1276.82 905.547C1278.69 905.922 1280.51 906.558 1282.3 907.164C1289.54 909.669 1296.43 913.063 1302.83 917.269C1315.53 925.921 1327.02 936.233 1336.99 947.932C1337.16 948.134 1337.33 948.307 1337.48 948.509L1338.49 949.635C1342.53 954.341 1346.49 959.134 1350.3 964.071C1350.33 963.147 1350.21 962.252 1350.04 961.271H1350.09Z" fill="white"/>
<path d="M1126.31 614.746C1054.85 697.407 958.528 843.414 997.881 875.693C1062.58 928.761 1251.55 959.423 1294.92 964.562C1313.63 966.814 1351.1 844.511 1338.6 828.689C1326.1 812.867 1126.31 801.694 1124.95 789.423C1124.17 782.465 1154.51 721.949 1174.03 647.718C1196.46 562.141 1146.43 591.446 1126.31 614.746Z" fill="#AD6359"/>
<path d="M1305.86 818.614C1305.86 818.614 1363.2 818.181 1400.71 819.654C1421.64 820.462 1457.38 825.082 1472.48 832.733C1495.06 844.137 1582.2 906.357 1567.59 927.809C1554.34 947.211 1486.25 884.27 1486.25 884.27C1486.25 884.27 1560.57 941.725 1540.33 962.225C1520.09 982.724 1452.62 901.362 1452.62 901.362C1452.62 901.362 1527.69 961.994 1503.46 979.894C1485.16 993.32 1419.91 923.103 1419.91 923.103C1419.91 923.103 1484.03 975.737 1465.81 990.375C1445.6 1006.54 1381.36 945.508 1381.36 945.508C1328.81 974.9 1291.86 967.393 1265.87 958.933C1259.78 956.768 1305.86 818.614 1305.86 818.614Z" fill="#AD6359"/>
<path d="M1461.83 862.762C1470.81 869.2 1479.93 875.639 1488.3 882.972C1496.68 890.306 1504.79 897.668 1512.47 905.637C1531.27 925.155 1539.99 940.284 1539.32 939.417C1524.19 918.658 1494.63 892.413 1486.25 885.195C1477.88 877.977 1469.88 870.384 1461.54 863.195C1461.34 862.877 1461.63 862.617 1461.83 862.762Z" fill="#263238"/>
<path d="M1435.27 892.528C1446.36 901.189 1457.7 909.447 1468.41 918.657C1479.13 927.867 1493.62 941.149 1503.64 951.023C1504.39 951.774 1503.64 953.217 1502.83 952.495C1492.44 943.025 1476.99 930.09 1466.48 920.736C1455.97 911.381 1445.84 901.651 1435.04 892.73C1434.86 892.701 1435.1 892.383 1435.27 892.528Z" fill="#263238"/>
<path d="M1407.78 913.948C1425.42 926.392 1440.75 942.069 1455.42 957.805C1456.17 958.584 1455.42 958.7 1454.5 957.949C1438.93 943.08 1426.81 931.3 1407.35 914.641C1407.12 914.294 1407.49 913.688 1407.78 913.948Z" fill="#263238"/>
<path d="M1297.81 816.796C1323.97 816.623 1400.8 816.421 1426.9 818.442C1449.99 820.203 1469.02 825.169 1488.39 837.989C1529.97 865.475 1556.76 897.754 1563.46 907.282C1567.5 913.056 1573.37 922.382 1568.02 928.85C1561.47 936.703 1537.36 929.023 1511.93 906.012C1511 905.174 1511.58 904.655 1512.53 905.434C1548.25 934.306 1562.45 931.015 1566.18 926.078C1568.6 922.873 1566.18 917.416 1564.1 913.085C1560.62 906.957 1556.37 901.299 1551.45 896.253C1535.05 878.703 1516.9 862.867 1497.29 848.989C1476.28 833.306 1451.25 823.905 1425.11 821.878C1398.37 819.684 1324.4 820.377 1297.69 817.807C1297.14 817.634 1297.23 816.825 1297.81 816.796Z" fill="#263238"/>
<path d="M1544.58 950.677C1543.11 943.546 1537.97 937.021 1533.9 931.131C1528.95 923.719 1523.27 916.822 1516.95 910.545C1516.69 910.285 1516.2 910.545 1516.46 910.949C1521.84 917.246 1526.85 923.859 1531.44 930.755C1533.88 934.548 1536.1 938.482 1538.08 942.535C1539.96 946.433 1542.18 950.937 1541.2 955.383C1539.35 963.872 1528.55 963.67 1522.17 961.389C1518.04 959.833 1514.06 957.9 1510.28 955.614C1505.13 952.334 1500.24 948.656 1495.67 944.614C1495.29 944.268 1494.25 944.412 1494.66 944.787C1504.19 953.853 1522.23 972.707 1536.96 965.806C1539.78 964.557 1542.09 962.366 1543.48 959.607C1544.87 956.848 1545.26 953.691 1544.58 950.677Z" fill="#263238"/>
<path d="M1306.73 811.195L1238.04 967.105C1238.04 967.105 997.998 912.911 984.081 867.351C970.165 821.791 1045.38 699.892 1113.26 623.785C1180.01 549.006 1189.88 599.734 1173.28 657.565C1156.68 715.396 1129.45 782.062 1132.48 787.057C1135.52 792.052 1306.73 811.195 1306.73 811.195Z" fill="#FF9705"/>
<path d="M1147.93 735.058C1147.76 735.491 1147.61 735.953 1147.44 736.386C1134.11 729.827 1119.98 725.033 1105.4 722.123C1097.86 720.778 1090.18 720.351 1082.54 720.853C1080.63 720.853 1078.75 721.257 1076.76 721.517C1074.77 721.776 1073.01 722.094 1071.16 722.614C1067.41 723.422 1063.86 724.866 1060.19 725.992C1046.04 731.375 1033.06 739.433 1021.96 749.725L1023.78 746.578C1034.37 737.229 1046.56 729.864 1059.76 724.837C1063.45 723.682 1067.06 722.21 1070.87 721.401C1072.75 720.881 1074.68 720.65 1076.65 720.246C1078.61 719.842 1080.49 719.727 1082.42 719.582C1090.14 719.064 1097.9 719.48 1105.52 720.824C1120.21 723.704 1134.47 728.489 1147.93 735.058ZM1274.97 811.482L1273.32 810.501L1266.74 806.603L1262.76 806.141C1265.64 807.96 1268.79 809.808 1271.82 811.569L1273.47 812.551C1282.13 817.603 1290.79 822.454 1299.68 826.987L1300.38 825.399C1291.83 820.981 1283.37 816.333 1274.97 811.482ZM1228.11 801.926C1226.38 804.813 1224.62 807.7 1222.83 810.443C1218.93 816.622 1214.86 822.714 1210.53 828.604C1210.12 829.152 1209.75 829.701 1209.34 830.22C1204.96 836.14 1200.24 841.799 1195.2 847.169C1189.94 852.743 1184.14 857.773 1177.87 862.182L1175.53 863.828C1174.75 864.376 1173.89 864.81 1173.08 865.3L1168.14 868.188C1164.74 869.904 1161.23 871.399 1157.63 872.663C1143.07 877.499 1127.82 879.966 1112.48 879.967C1097.2 879.902 1081.99 878.169 1067.09 874.799C1052.05 871.594 1037.29 867.235 1022.48 862.933C1009.35 859.122 996.122 855.282 982.609 852.77C982.609 853.232 982.609 853.694 982.609 854.127C995.977 856.639 1009.06 860.508 1022.14 864.29C1036.92 868.621 1051.73 872.951 1066.83 876.272C1081.92 879.714 1097.34 881.496 1112.82 881.584C1128.34 881.592 1143.76 879.117 1158.5 874.251C1162.18 872.986 1165.77 871.471 1169.24 869.718L1174.29 866.831C1175.15 866.375 1175.97 865.874 1176.78 865.329L1179.17 863.655C1185.53 859.202 1191.42 854.113 1196.75 848.468C1202.13 842.715 1207.16 836.651 1211.83 830.307C1212.26 829.759 1212.63 829.239 1213.01 828.69C1217.11 823.089 1220.98 817.344 1224.56 811.511C1226.52 808.451 1228.43 805.333 1230.33 802.243L1228.11 801.926ZM1276.96 807.7C1275.78 808.624 1274.57 809.548 1273.32 810.414L1271.82 811.482C1268.48 813.841 1264.98 815.963 1261.34 817.834L1258.83 819.191C1257.99 819.653 1257.07 819.971 1256.2 820.375L1250.95 822.627C1247.37 823.921 1243.7 824.972 1239.98 825.774C1231.03 827.691 1221.9 828.658 1212.75 828.661H1210.53C1205.1 828.661 1199.67 828.228 1194.27 827.651C1179.03 825.733 1164.06 822.14 1149.61 816.939C1135.17 811.944 1120.94 805.795 1106.79 799.616C1092.71 793.246 1078.24 787.759 1063.48 783.188C1048.67 778.943 1032.88 776.634 1017.54 779.636C1012.67 780.617 1007.95 782.259 1003.51 784.516C1003.22 785.093 1002.94 785.7 1002.68 786.277C1007.42 783.747 1012.51 781.919 1017.78 780.849C1032.85 777.962 1048.44 780.214 1063.11 784.458C1077.78 789.044 1092.16 794.54 1106.15 800.915C1120.3 807.007 1134.45 813.186 1149.03 818.239C1163.62 823.516 1178.74 827.185 1194.13 829.181C1199.21 829.759 1204.29 830.134 1209.37 830.22C1210.12 830.22 1210.84 830.22 1211.6 830.22C1221.29 830.378 1230.97 829.467 1240.47 827.507C1244.26 826.668 1248 825.598 1251.67 824.302L1257.04 821.992C1257.93 821.588 1258.83 821.27 1259.7 820.808L1262.27 819.422C1266.21 817.413 1269.99 815.106 1273.58 812.522L1275.09 811.454C1276.59 810.356 1277.97 809.202 1279.59 808.047L1276.96 807.7ZM1151.25 595.662C1150.01 594.565 1148.8 593.497 1147.59 592.371L1146.03 593.382L1150.07 596.991C1159.47 605.408 1169.51 613.082 1180.1 619.944C1180.1 619.222 1180.1 618.5 1180.1 617.808C1169.96 611.186 1160.34 603.813 1151.31 595.749L1151.25 595.662ZM1168.81 630.309L1163.03 630.685C1161.13 630.829 1159.22 630.685 1157.26 630.685H1151.48L1145.71 630.223C1138.07 629.766 1130.52 628.429 1123.19 626.238C1119.98 625.285 1116.81 624.188 1113.69 622.918L1113 623.697L1112.33 624.448C1115.7 625.859 1119.14 627.083 1122.64 628.115C1140.93 632.997 1160.02 634.059 1178.74 631.233C1178.74 630.511 1178.94 629.818 1179.06 629.097C1175.85 629.732 1172.36 630.136 1168.86 630.396L1168.81 630.309ZM1259.93 901.881C1244.4 901.342 1228.91 903.833 1214.34 909.215C1199.89 914.708 1186.09 921.776 1173.19 930.292C1165.98 934.969 1158.93 939.877 1151.97 944.93L1153.1 945.248C1159.86 940.368 1166.7 935.662 1173.71 931.187C1186.57 922.731 1200.32 915.73 1214.71 910.312C1229.15 905.027 1244.48 902.605 1259.84 903.181C1261.83 903.383 1263.82 903.498 1265.82 903.671L1266.37 902.459C1264.32 902.286 1262.12 902.17 1259.98 901.968L1259.93 901.881Z" fill="white"/>
<path d="M1210.5 941.32C1212.84 936.874 1215.09 932.428 1217.34 927.952C1221.86 918.887 1226.37 909.801 1230.85 900.697C1239.75 882.623 1248.18 864.318 1256.29 845.84C1260.94 835.388 1265.99 825.052 1270.18 814.398C1270.23 814.291 1270.23 814.168 1270.19 814.057C1270.15 813.946 1270.07 813.856 1269.96 813.806C1269.85 813.756 1269.73 813.751 1269.62 813.792C1269.51 813.832 1269.42 813.915 1269.37 814.023C1264.37 822.829 1260.04 832.039 1255.42 841.076C1250.8 850.113 1246.1 859.063 1241.65 868.187C1232.8 886.261 1224.21 904.479 1215.9 922.842C1213.56 927.981 1211.02 933.063 1208.91 938.318C1207.81 941.003 1206.54 943.601 1205.47 946.315C1204.41 949.029 1203.6 951.801 1202.59 954.486C1202.57 954.514 1202.57 954.545 1202.56 954.577C1202.56 954.608 1202.57 954.639 1202.58 954.669C1202.59 954.698 1202.61 954.725 1202.63 954.749C1202.65 954.772 1202.67 954.79 1202.7 954.804C1202.73 954.817 1202.76 954.824 1202.79 954.826C1202.82 954.827 1202.86 954.822 1202.89 954.812C1202.91 954.801 1202.94 954.785 1202.96 954.763C1202.99 954.742 1203.01 954.717 1203.02 954.688C1205.36 950.213 1208.1 945.882 1210.5 941.32Z" fill="#263238"/>
<path d="M1243.21 956.392L1238.39 967.306L1238.24 967.653H1237.78C1215.06 963.437 1192.48 958.385 1170.05 952.755C1147.61 947.124 1125.35 940.744 1103.32 933.641C1081.22 926.654 1059.53 918.382 1038.39 908.869C1027.78 904.096 1017.53 898.557 1007.73 892.296C1002.84 889.106 998.211 885.524 993.898 881.584C989.452 877.772 986.045 872.895 983.995 867.408C986.549 872.561 990.277 877.041 994.88 880.487C999.437 883.988 1004.27 887.108 1009.34 889.813C1019.37 895.388 1029.73 900.353 1040.35 904.682C1061.57 913.488 1083.37 920.995 1105.29 928.04C1127.2 935.085 1149.32 941.639 1171.49 947.933C1193.67 954.227 1215.93 960.463 1238.22 966.44L1237.64 966.729L1243.21 956.392Z" fill="#263238"/>
<path d="M1303.99 817.254L1306.38 811.047L1306.64 811.48C1282.56 809.892 1258.51 807.958 1234.46 805.446C1210.41 802.934 1186.5 800.191 1162.6 796.611C1156.62 795.687 1150.64 794.705 1144.67 793.55C1141.78 792.944 1138.69 792.367 1135.6 791.5C1134.82 791.269 1134.07 791.038 1133.23 790.721C1132.75 790.564 1132.29 790.361 1131.85 790.114C1131.51 789.934 1131.19 789.721 1130.9 789.479C1130.58 789.219 1130.32 788.906 1130.12 788.555C1130 788.33 1129.89 788.099 1129.8 787.862C1129.78 787.748 1129.78 787.631 1129.8 787.516C1129.68 786.417 1129.74 785.306 1129.97 784.225C1130.12 783.445 1130.26 782.608 1130.46 781.886C1133.52 769.904 1137.39 758.586 1141.32 747.239C1149.17 724.401 1157.72 701.852 1166.73 679.447C1159.77 702.545 1152.64 725.643 1145.53 748.741C1142.13 760.29 1138.37 771.838 1135.75 783.387C1135.57 784.109 1135.49 784.773 1135.34 785.466C1135.2 786.159 1135.34 786.967 1135.2 786.679C1135.17 786.525 1135.11 786.379 1135.02 786.246C1135.02 785.957 1134.51 785.668 1134.62 785.726C1134.48 785.726 1134.74 785.784 1134.62 785.726L1135.34 786.015L1137.25 786.621C1140.14 787.372 1143.02 787.92 1145.91 788.498C1151.68 789.566 1157.72 790.49 1163.64 791.385C1175.53 793.175 1187.45 794.859 1199.38 796.438L1235.21 801.259C1259.09 804.435 1282.97 807.842 1306.84 811.336H1307.28L1307.1 811.711L1303.99 817.254Z" fill="#263238"/>
<path d="M1169.3 694.232C1167.6 698.306 1165.46 702.179 1162.91 705.781C1160.52 709.467 1157.6 712.784 1154.25 715.627C1156.45 711.787 1158.79 708.149 1161.27 704.54C1163.68 700.905 1166.36 697.46 1169.3 694.232Z" fill="#263238"/>
<path d="M1239.25 640.904C1218.87 646.678 1182.15 616.853 1167.07 591.994C1166.03 590.291 1170.13 520.073 1169.5 506.07C1169.5 503.183 1258.25 523.394 1258.25 523.394C1258.25 523.394 1250.95 553.132 1252.22 577.529C1252.3 579.608 1258.92 635.303 1239.25 640.904Z" fill="#AD6359"/>
<path d="M1168.14 550.045C1209.69 579.379 1250.17 568.119 1251.87 567.599C1252.55 552.716 1254.61 537.929 1258.02 523.425C1258.02 523.425 1169.09 503.214 1169.24 506.102C1169.76 512.656 1169.04 531.596 1168.14 550.045Z" fill="#263238"/>
<path d="M1257.82 465.564C1260.1 486.294 1276.7 501.481 1294.86 499.46C1313.02 497.439 1325.93 479.047 1323.73 458.346C1321.54 437.644 1304.88 422.429 1286.69 424.45C1268.5 426.471 1255.54 444.862 1257.82 465.564Z" fill="#455A64"/>
<path d="M1247.31 468.047C1249.85 491.145 1268.3 507.978 1288.51 505.754C1308.72 503.531 1323.16 483.061 1320.53 459.992C1317.9 436.923 1299.57 420.062 1279.33 422.285C1259.09 424.508 1244.77 445.007 1247.31 468.047Z" fill="#C7C7C7"/>
<path d="M1157.2 400.573C1147.5 431.697 1163.41 521.836 1185.44 542.047C1217.4 571.352 1270 574.442 1294.95 535.984C1319.14 498.681 1296.33 381.604 1271.68 363.212C1235.39 336.072 1171.52 354.637 1157.2 400.573Z" fill="#AD6359"/>
<path d="M1232.09 457.16C1232.09 456.958 1231.69 457.536 1231.75 457.795C1233.07 463.801 1233.62 470.932 1228.54 473.993C1228.37 473.993 1228.54 474.397 1228.54 474.31C1235.15 472.087 1234.35 462.646 1232.09 457.16Z" fill="#263238"/>
<path d="M1225.48 451.88C1215.61 453.006 1218.58 472.697 1227.73 471.658C1236.89 470.618 1233.77 450.956 1225.48 451.88Z" fill="#263238"/>
<path d="M1267.14 452.427C1267.14 452.196 1267.66 452.658 1267.69 452.918C1268.41 459.039 1270.29 465.91 1276.09 467.123C1276.27 467.123 1276.32 467.469 1276.09 467.469C1269.19 467.527 1266.85 458.346 1267.14 452.427Z" fill="#263238"/>
<path d="M1271.62 445.18C1281.32 442.957 1285.05 462.503 1276.07 464.582C1267.09 466.661 1263.42 447.114 1271.62 445.18Z" fill="#263238"/>
<path d="M1216.36 444.052C1218.83 442.91 1221.24 441.628 1223.58 440.212C1226.3 439.216 1228.63 437.349 1230.19 434.9C1230.52 434.033 1230.57 433.079 1230.31 432.186C1230.04 431.293 1229.49 430.511 1228.74 429.963C1227.1 429.101 1225.26 428.695 1223.4 428.786C1221.55 428.877 1219.76 429.463 1218.2 430.483C1214.72 432.051 1211.96 434.862 1210.44 438.365C1210.13 439.182 1210.08 440.07 1210.27 440.92C1210.47 441.77 1210.9 442.545 1211.53 443.149C1212.16 443.753 1212.95 444.161 1213.81 444.321C1214.67 444.482 1215.55 444.388 1216.36 444.052Z" fill="#263238"/>
<path d="M1277.86 434.179C1275.13 434.044 1272.41 433.765 1269.72 433.342C1266.82 433.451 1263.96 432.598 1261.6 430.916C1260.95 430.242 1260.55 429.371 1260.45 428.441C1260.35 427.51 1260.56 426.573 1261.05 425.777C1262.26 424.366 1263.82 423.299 1265.58 422.685C1267.33 422.072 1269.22 421.933 1271.04 422.284C1274.85 422.442 1278.47 424.017 1281.18 426.701C1281.76 427.343 1282.14 428.141 1282.28 428.996C1282.41 429.851 1282.3 430.728 1281.95 431.52C1281.6 432.312 1281.02 432.984 1280.3 433.456C1279.57 433.928 1278.72 434.179 1277.86 434.179Z" fill="#263238"/>
<path d="M1235.44 514.299C1237.12 515.512 1238.88 517.187 1241.22 517.187C1243.48 516.805 1245.63 515.949 1247.54 514.675C1247.57 514.633 1247.62 514.606 1247.68 514.6C1247.73 514.595 1247.79 514.611 1247.83 514.646C1247.87 514.68 1247.9 514.73 1247.9 514.784C1247.91 514.838 1247.89 514.892 1247.86 514.935C1247.17 516.271 1246.13 517.394 1244.86 518.183C1243.58 518.972 1242.11 519.396 1240.61 519.41C1239.32 519.279 1238.1 518.767 1237.1 517.939C1236.1 517.111 1235.38 516.005 1235.01 514.761C1234.75 514.473 1235.18 514.126 1235.44 514.299Z" fill="#263238"/>
<path d="M1239.08 495.101C1240.99 497.275 1243.34 499.032 1245.96 500.259C1248.58 501.486 1251.43 502.158 1254.33 502.232C1256.86 502.332 1259.4 502.069 1261.86 501.452C1262.34 501.366 1262.8 501.23 1263.25 501.048C1263.69 500.936 1264.12 500.801 1264.55 500.644C1264.86 500.537 1265.14 500.33 1265.32 500.054C1265.51 499.777 1265.6 499.447 1265.59 499.114C1265.57 498.906 1265.52 498.701 1265.44 498.508V497.988C1264.84 493.282 1263.31 486.208 1263.31 486.208C1265.15 486.814 1274.51 489.413 1273.99 486.987C1269.72 466.777 1264.95 444.488 1256.43 425.403C1256.38 425.277 1256.28 425.176 1256.15 425.119C1256.02 425.061 1255.88 425.051 1255.75 425.089C1255.62 425.128 1255.5 425.213 1255.43 425.328C1255.35 425.444 1255.32 425.583 1255.34 425.721C1258.69 445.209 1265.44 463.976 1269.14 483.465C1265.81 482.489 1262.36 481.993 1258.89 481.993C1258.25 482.281 1262.09 495.591 1262.18 497.728C1262.2 497.804 1262.2 497.883 1262.18 497.959C1254.44 500.153 1248.15 498.681 1239.69 494.552C1239.05 494.263 1238.65 494.667 1239.08 495.101Z" fill="#263238"/>
<path d="M1258.71 499.489C1256.66 503.225 1253.68 506.368 1250.05 508.612C1248.03 509.765 1245.7 510.268 1243.38 510.056C1238.33 509.507 1237.61 505.061 1237.84 501.105C1238.03 499.002 1238.47 496.929 1239.14 494.927C1245.01 498.492 1251.87 500.09 1258.71 499.489Z" fill="#263238"/>
<path d="M1250.03 508.699C1248 509.851 1245.68 510.355 1243.36 510.143C1238.3 509.594 1237.58 505.148 1237.81 501.192C1243.21 500.846 1248.81 503.617 1250.03 508.699Z" fill="#FF99BA"/>
<path opacity="0.2" d="M1171.98 432.592C1168.43 441.542 1161.12 462.561 1156.97 464.034C1153.01 434.815 1152.87 408.311 1160.11 392.027C1163.11 385.301 1167.32 379.184 1172.53 373.981C1173.14 381.806 1175.76 423.237 1171.98 432.592Z" fill="#263238"/>
<path d="M1250.08 390.814C1247.61 395.098 1244.08 398.676 1239.83 401.204C1235.57 403.732 1230.74 405.125 1225.8 405.25C1220.76 405.381 1215.78 404.225 1211.32 401.891C1206.86 399.557 1203.07 396.121 1200.3 391.911C1200.29 391.884 1200.27 391.861 1200.24 391.842C1200.22 391.824 1200.19 391.81 1200.16 391.802C1200.13 391.794 1200.1 391.792 1200.07 391.795C1200.04 391.799 1200.01 391.809 1199.99 391.824C1199.96 391.839 1199.94 391.86 1199.92 391.884C1199.9 391.908 1199.89 391.936 1199.88 391.965C1199.87 391.995 1199.87 392.025 1199.87 392.056C1199.87 392.086 1199.88 392.115 1199.9 392.142C1202.41 396.841 1206.16 400.764 1210.74 403.487C1215.32 406.209 1220.56 407.628 1225.88 407.588C1231.1 407.294 1236.15 405.632 1240.53 402.768C1244.9 399.905 1248.44 395.942 1250.8 391.276C1250.86 391.18 1250.88 391.064 1250.86 390.953C1250.83 390.842 1250.77 390.745 1250.67 390.684C1250.58 390.623 1250.46 390.602 1250.35 390.626C1250.24 390.651 1250.14 390.718 1250.08 390.814Z" fill="#263238"/>
<path d="M1310.31 344.357C1306.15 336.685 1299.41 330.732 1291.28 327.553C1280.02 323.107 1268.73 326.081 1257.56 329.286C1257.5 329.286 1257.44 329.31 1257.39 329.353C1257.35 329.397 1257.33 329.456 1257.33 329.517C1257.33 329.578 1257.35 329.637 1257.39 329.68C1257.44 329.723 1257.5 329.748 1257.56 329.748C1267.06 327.063 1276.87 324.897 1286.57 327.842C1294.6 330.244 1301.56 335.343 1306.27 342.278C1310.86 349.46 1312.71 358.053 1311.48 366.488C1310.26 374.923 1306.04 382.635 1299.6 388.214C1295.8 391.33 1291.4 393.637 1286.68 394.992C1281.96 396.348 1277.01 396.723 1272.14 396.096C1271.76 396.096 1271.59 396.616 1271.99 396.674C1278.63 397.799 1285.44 397.052 1291.67 394.518C1297.9 391.984 1303.31 387.763 1307.27 382.329C1311.24 376.894 1313.61 370.462 1314.12 363.754C1314.63 357.047 1313.26 350.329 1310.16 344.357H1310.31Z" fill="#263238"/>
<path d="M1154.57 418.56C1154.57 418.56 1133.7 391.737 1143.8 372.364C1149.58 361.364 1174.43 358.332 1174.43 358.332C1174.43 358.332 1180.21 345.599 1199.87 337.342C1219.53 329.085 1246.07 333.935 1246.07 333.935C1246.07 333.935 1263.71 319.268 1283.92 326.544C1312.1 336.707 1315.68 376.291 1292.12 393.325C1275.55 405.307 1248.17 393.585 1248.17 393.585C1245.86 394.307 1224.21 413.132 1202.15 394.74C1202.15 394.74 1189.59 410.562 1174.61 403.633C1173.19 407.868 1170.51 411.568 1166.93 414.237C1163.35 416.905 1159.03 418.414 1154.57 418.56Z" fill="#263238"/>
<path d="M1176 474.05C1176 474.05 1155.24 445.178 1142.13 452.656C1129.02 460.134 1145.02 502.085 1160.49 507.513C1162.43 508.368 1164.53 508.822 1166.65 508.847C1168.78 508.872 1170.88 508.467 1172.84 507.659C1174.81 506.85 1176.59 505.653 1178.08 504.139C1179.56 502.626 1180.73 500.827 1181.51 498.851L1176 474.05Z" fill="#AD6359"/>
<path d="M1146.98 464.612C1146.72 464.612 1146.69 464.93 1146.98 465.017C1157.92 469.29 1163.78 479.279 1167.94 489.673C1164.65 485.689 1160.23 483.552 1154.89 487.479C1154.6 487.681 1154.89 488.114 1155.18 488.057C1157.08 487.45 1159.12 487.444 1161.03 488.038C1162.93 488.632 1164.61 489.797 1165.83 491.377C1167.89 494.064 1169.64 496.969 1171.06 500.039C1171.58 500.991 1173.31 500.443 1172.93 499.346V499.086C1172.93 485.054 1161.88 465.796 1146.98 464.612Z" fill="#263238"/>
<path d="M1158.7 453.84C1158.7 453.84 1147.47 409.088 1156.22 381.66C1165.95 351.171 1202.65 321.317 1246.01 333.992C1246.01 333.992 1197.88 340.199 1174.5 380.418C1163.75 398.896 1174.06 452.252 1174.06 452.252L1158.7 453.84Z" fill="#C7C7C7"/>
<path d="M1205.3 468.913C1209.69 492.011 1196.9 513.781 1176.69 517.65C1156.48 521.518 1136.5 506.101 1132.08 483.003C1127.66 459.905 1140.48 438.135 1160.69 434.267C1180.9 430.398 1200.88 445.873 1205.3 468.913Z" fill="#C7C7C7"/>
<path d="M1194.39 469.663C1198.34 490.364 1186.82 510.084 1168.66 513.462C1150.5 516.84 1132.54 502.924 1128.59 482.251C1124.63 461.579 1136.12 441.83 1154.28 438.452C1172.44 435.074 1190.4 448.933 1194.39 469.663Z" fill="#455A64"/>
<path d="M48.7656 978.189H402.912L332.291 567.424H67.4748L48.7656 978.189Z" fill="#DBDBDB"/>
<path d="M48.7656 978.189H79.8033L97.2421 567.424H67.4748L48.7656 978.189Z" fill="#A6A6A6"/>
<path d="M258.667 388.272C225.782 420.984 216.34 474.889 216.34 474.889C216.34 474.889 184.812 529.14 193.618 558.618C195.947 566.977 200.269 574.645 206.213 580.966C212.157 587.287 219.546 592.072 227.745 594.911L224.627 578.627C224.627 578.627 235.194 599.559 270.505 607.99C305.815 616.421 352.531 605.565 376.841 593.265C391.25 586.052 403.544 575.229 412.527 561.852L403.432 585.527C403.432 585.527 437.704 584.315 458.059 547.849C478.414 511.383 419.947 458.98 414.981 447.691C410.015 436.402 403.721 354.145 317.191 368.321C317.307 368.119 281.418 365.752 258.667 388.272Z" fill="#263238"/>
<path d="M215.358 592.571C206.35 585.844 197.457 578.135 192.491 568.607C187.076 558.731 185.153 547.317 187.034 536.212C189.43 522.902 196.446 511.151 203.26 499.689C210.074 488.227 218.274 476.591 225.116 464.552C225.492 463.887 224.481 463.339 224.019 463.859C216.331 472.888 209.159 482.344 202.538 492.182C195.765 501.178 190.067 510.936 185.562 521.257C181.35 530.76 179.967 541.275 181.577 551.544C183.28 559.89 186.986 567.698 192.375 574.295C198.756 582.235 206.811 587.316 214.896 593.293C215.358 593.668 215.848 592.946 215.358 592.571Z" fill="#263238"/>
<path d="M465.478 510.144C455.084 479.857 427.944 460.628 411.285 434.21C402.335 419.918 395.377 404.096 383.712 391.681C383.395 391.334 382.817 391.883 383.106 392.229C392.691 403.403 398.235 416.857 405.164 429.763C412.547 442.464 421.174 454.398 430.918 465.392C448.068 485.949 468.596 510.288 464.67 539.074C462.851 552.355 454.998 567.08 441.37 571.208C440.85 571.382 441.168 572.248 441.688 572.017C447.062 569.859 451.941 566.629 456.026 562.524C460.111 558.419 463.318 553.524 465.449 548.139C470.042 535.892 470.052 522.398 465.478 510.144Z" fill="#263238"/>
<path d="M466.72 518.285C467.658 506.814 465.015 495.334 459.156 485.428C453.179 475.669 443.795 468.624 434.412 462.33C423.585 455.141 412.18 448.298 405.309 436.894C405.02 436.403 404.327 436.894 404.587 437.385C415.501 456.209 436.346 464.986 450.292 480.837C466.316 498.94 466.345 525.3 455.316 546.002C448.306 558.621 438.413 569.404 426.443 577.473C426.241 577.473 426.443 577.906 426.674 577.761C447.087 564.365 465.074 543.75 466.72 518.285Z" fill="#263238"/>
<path d="M335.87 656.263C423.497 704.364 528.39 764.736 592.66 750.531C621.157 744.237 749.118 576.489 754.546 557.087C759.195 540.428 643.331 473.358 630.396 486.495C608.568 508.524 549.554 632.559 540.892 634.638C532.23 636.717 458.664 621.79 382.095 607.96C308.413 594.737 275.036 622.887 335.87 656.263Z" fill="#EB9481"/>
<path d="M742.103 577.992C752.092 565.404 792.86 503.675 800.338 483.955C807.816 464.236 825.312 406 810.818 398.667C796.325 391.333 789.915 407.935 789.915 407.935C789.915 407.935 793.409 382.152 778.135 376.175C762.862 370.199 753.623 396.386 753.623 396.386C753.623 396.386 755.268 369.65 739.591 364.626C723.913 359.603 719.063 387.724 719.063 387.724C719.063 387.724 721.719 363.356 707.11 364.626C689.555 366.33 689.786 411.833 679.854 432.967C677.602 437.76 627.278 527.033 627.278 527.033L742.103 577.992Z" fill="#EB9481"/>
<path d="M719.41 385.444C719.41 418.907 713.635 433.574 696.312 461.465C695.965 461.984 696.687 462.62 697.12 462.1C716.753 436.346 726.628 419.022 721.142 385.357C720.767 383.712 719.41 383.856 719.41 385.444Z" fill="#263238"/>
<path d="M753.45 393.758C750.563 428.405 744.384 444.458 728.187 475.033C727.956 475.466 728.677 475.9 728.937 475.466C747.329 446.825 756.799 429.271 755.182 394.191C755.269 392.603 753.594 392.17 753.45 393.758Z" fill="#263238"/>
<path d="M788.933 409.464C783.649 442.898 777.702 460.684 758.184 488.343C758.133 488.406 758.095 488.478 758.071 488.555C758.048 488.633 758.04 488.714 758.048 488.794C758.056 488.875 758.08 488.953 758.118 489.024C758.156 489.095 758.208 489.158 758.271 489.209C758.333 489.261 758.405 489.299 758.483 489.322C758.56 489.346 758.641 489.354 758.722 489.345C758.802 489.337 758.88 489.314 758.951 489.275C759.023 489.237 759.086 489.185 759.137 489.123C781.802 462.849 789.395 440.733 789.944 409.724C789.915 407.645 789.279 407.357 788.933 409.464Z" fill="#263238"/>
<path d="M602.477 537.139C602.477 537.139 600.023 495.304 603.026 476.681C606.028 458.058 642.667 392.749 657.103 399.852C675.899 409.062 662.156 450.927 652.743 470.56C652.743 470.56 696.225 491.752 692.876 523.945C689.527 556.137 602.477 537.139 602.477 537.139Z" fill="#EB9481"/>
<path d="M661.551 404.066C672.637 424.825 658.663 449.799 650.926 469.519C650.799 469.804 650.744 470.115 650.764 470.426C650.784 470.737 650.879 471.039 651.04 471.306C651.202 471.572 651.425 471.796 651.692 471.957C651.959 472.119 652.26 472.213 652.571 472.233C670.212 482.338 692.155 501.741 694.032 523.106C694.032 523.236 694.083 523.361 694.176 523.453C694.268 523.545 694.392 523.597 694.523 523.597C694.653 523.597 694.778 523.545 694.87 523.453C694.962 523.361 695.013 523.236 695.013 523.106C696.111 500.008 676.102 479.105 656.094 469.259C664.293 449.049 677.257 423.497 661.868 403.95C661.666 403.864 661.493 403.95 661.551 404.066Z" fill="#263238"/>
<path d="M520.046 627.797L414.576 716.204C414.576 716.204 350.191 682.712 302.638 644.226C255.086 605.739 307.749 587.03 389.399 600.744C471.05 614.458 520.046 627.797 520.046 627.797Z" fill="#FF9705"/>
<path d="M395.116 645.551C392.127 641.472 388.668 637.761 384.808 634.493C389.079 643.672 395.25 651.84 402.911 658.457C400.842 653.857 398.224 649.524 395.116 645.551ZM302.725 644.281L303.995 645.263C304.832 644.368 305.67 643.415 306.449 642.375C305.121 642.982 303.88 643.617 302.667 644.397L302.725 644.281ZM479.278 644.859C474.289 644.126 469.232 643.971 464.207 644.397C468.92 646.175 473.822 647.405 478.816 648.063C483.803 648.82 488.862 648.985 493.888 648.554C489.158 646.759 484.236 645.519 479.221 644.859H479.278ZM443.968 610.674C443.902 612.601 443.97 614.53 444.17 616.448C444.874 614.716 445.472 612.941 445.96 611.136L443.968 610.674Z" fill="white"/>
<path d="M390.959 697.322C412.411 676.707 435.336 657.565 458.578 638.914C465.161 633.659 471.859 628.52 478.789 623.583C478.991 623.438 479.251 623.583 479.049 623.842C468.135 633.919 456.788 643.533 445.499 653.205C434.21 662.878 422.777 672.55 411.199 681.933C404.645 687.246 398.12 692.558 391.479 697.726C391.075 697.929 390.7 697.582 390.959 697.322Z" fill="#263238"/>
<path d="M459.385 678.642L414.547 716.176C414.547 716.176 350.162 682.714 302.609 644.227C285.719 630.57 281.475 619.426 286.643 611.312L459.385 678.642Z" fill="#263238"/>
<path d="M437.676 977.844H101.574C101.574 977.844 174.592 695.849 242.182 616.45C243.683 614.631 245.242 612.899 246.802 611.282C247.119 610.907 247.408 610.647 247.725 610.329C252.958 604.74 259.05 600.022 265.771 596.355C266.954 595.72 268.138 595.114 269.38 594.594C295.365 582.612 322.909 592.544 342.744 609.521C349.038 614.891 420.295 707.686 426.473 742.939C431.93 774.15 410.854 807.671 410.854 807.671L437.676 977.844Z" fill="#FF9705"/>
<path d="M360.499 795.602C346.188 796.998 332.001 799.459 318.057 802.965C311.127 804.812 304.371 806.949 297.586 809.23C294.208 810.385 290.83 811.424 287.423 812.435C283.876 813.589 280.201 814.306 276.481 814.571C276.412 814.571 276.346 814.599 276.297 814.647C276.248 814.696 276.221 814.762 276.221 814.831C276.221 814.9 276.248 814.966 276.297 815.015C276.346 815.063 276.412 815.091 276.481 815.091C280.005 815.24 283.536 815.143 287.048 814.802C290.429 814.379 293.776 813.723 297.066 812.839C304.111 811.02 311.041 808.912 318.057 807.064C332.204 803.311 346.322 799.558 360.701 796.815C360.862 796.788 361.005 796.698 361.1 796.566C361.195 796.433 361.233 796.268 361.206 796.107C361.179 795.947 361.09 795.803 360.957 795.708C360.824 795.614 360.66 795.575 360.499 795.602Z" fill="#263238"/>
<path d="M396.012 807.989C384.2 806.854 372.334 806.381 360.47 806.574C354.696 806.718 348.661 807.18 342.742 807.787C339.855 808.104 336.968 808.451 334.312 808.826C331.655 809.201 328.191 810.068 325.101 810.443C324.784 810.443 324.784 810.992 325.101 810.963C327.989 810.703 331.02 810.963 333.965 810.818L342.829 810.501C348.603 810.327 354.638 810.183 360.557 809.923C372.394 809.432 384.203 809.057 396.041 808.942C396.676 808.97 396.618 808.047 396.012 807.989Z" fill="#263238"/>
<path d="M210.248 682.742C208.66 680.721 207.043 678.729 205.282 676.968L204.04 679.566C205.195 681.356 206.436 683.118 207.707 684.821C210.698 688.872 214.158 692.555 218.014 695.793C215.907 691.173 213.302 686.798 210.248 682.742ZM249.254 608.772C248.666 613.281 248.569 617.84 248.965 622.37C250.759 617.636 251.971 612.701 252.574 607.674C252.574 606.924 252.776 606.144 252.863 605.394C251.65 606.462 250.438 607.588 249.254 608.772ZM351.26 702.722C349.461 707.451 348.221 712.373 347.564 717.389C346.836 722.388 346.672 727.453 347.073 732.489C348.886 727.769 350.108 722.842 350.711 717.822C351.503 712.829 351.688 707.759 351.26 702.722ZM287.019 865.33C285.24 870.041 284.019 874.944 283.381 879.94C282.649 884.939 282.494 890.005 282.919 895.04C286.351 885.533 287.747 875.411 287.019 865.33ZM177.824 742.566C176.061 747.311 174.841 752.241 174.186 757.262C173.451 762.251 173.296 767.308 173.724 772.333C175.491 767.6 176.702 762.678 177.333 757.666C178.09 752.669 178.255 747.601 177.824 742.566ZM268.194 721.951C263.205 721.218 258.148 721.063 253.123 721.489C257.836 723.267 262.738 724.498 267.732 725.156C272.719 725.912 277.778 726.077 282.803 725.646C278.106 723.818 273.214 722.539 268.223 721.835L268.194 721.951ZM389.111 860.538C384.112 859.805 379.045 859.65 374.011 860.076C383.518 863.507 393.639 864.904 403.72 864.175C399.017 862.392 394.125 861.152 389.14 860.48L389.111 860.538ZM163.388 847.227C158.484 846.517 153.518 846.342 148.576 846.708H148.288H148.548C153.212 848.428 158.054 849.619 162.984 850.259C167.973 850.992 173.03 851.147 178.055 850.721C173.317 848.993 168.396 847.821 163.388 847.227ZM290.195 966.441C285.205 965.709 280.148 965.554 275.123 965.979C284.639 969.417 294.773 970.804 304.862 970.05C300.088 968.288 295.128 967.077 290.079 966.441H290.195ZM153.802 951.832C148.803 951.099 143.737 950.944 138.702 951.37C143.418 953.126 148.32 954.337 153.312 954.979C158.307 955.754 163.378 955.91 168.412 955.441C163.659 953.675 158.718 952.464 153.687 951.832H153.802ZM293.486 650.174C289.419 653.199 285.709 656.676 282.428 660.54C287.035 658.443 291.393 655.838 295.421 652.773C299.48 649.759 303.163 646.27 306.392 642.379C301.816 644.495 297.488 647.109 293.486 650.174ZM329.461 804.728C325.403 807.711 321.72 811.171 318.49 815.035C323.083 812.952 327.414 810.335 331.395 807.239C335.46 804.265 339.144 800.803 342.367 796.932C337.777 799.044 333.446 801.679 329.461 804.785V804.728ZM203.318 899.197C199.237 902.174 195.542 905.646 192.318 909.534C196.894 907.418 201.222 904.804 205.224 901.738C209.283 898.725 212.992 895.268 216.282 891.431C211.647 893.479 207.291 896.109 203.318 899.255V899.197ZM412.815 763.296C409.827 759.217 406.367 755.505 402.508 752.238C406.779 761.417 412.949 769.585 420.611 776.202C418.537 771.622 415.919 767.308 412.815 763.354V763.296ZM369.824 938.175C366.812 934.116 363.355 930.407 359.517 927.117C361.541 931.752 364.151 936.109 367.284 940.081C370.266 944.147 373.727 947.84 377.591 951.081C375.485 946.506 372.881 942.178 369.824 938.175ZM243.248 800.628C240.252 796.555 236.793 792.845 232.941 789.57C234.988 794.199 237.607 798.554 240.737 802.533C243.711 806.607 247.172 810.301 251.044 813.534C248.941 808.951 246.326 804.621 243.248 800.628Z" fill="white"/>
<path d="M235.308 618.642C170.663 670.756 5.10959 877.279 42.4414 925.005C79.7732 972.731 327.901 950.99 399.937 928.412C421.36 921.714 362.923 785.755 339.768 779.489C320.481 774.263 213.538 805.878 211.459 799.7C209.121 792.713 237.877 754.053 274.43 670.294C316.583 573.688 263.862 595.631 235.308 618.642Z" fill="#EB9481"/>
<path d="M456.556 768.144C505.957 773.919 517.765 782.898 562.026 765.575C591.072 754.228 610.792 767.885 589.542 792.397C554.895 832.501 489.528 838.593 466.286 834.089L456.556 768.144Z" fill="#EB9481"/>
<path d="M318 781.223C318 781.223 379.295 765.372 432.536 766.238C469.377 766.845 549.353 777.094 603.632 872.69C616.509 895.355 618.79 936.816 584.288 907.337C559.804 886.462 550.594 865.819 534.137 856.262C534.137 856.262 530.759 909.3 507.546 921.34C487.243 931.838 466.219 940.878 444.633 948.393C442.346 944.759 440.302 940.978 438.512 937.075C438.512 937.075 415.761 946.257 380.768 933.524L318 781.223Z" fill="#EB9481"/>
<path d="M467.615 772.447C482.051 785.382 511.847 813.273 528.246 844.628C546.609 879.448 572.594 951.455 546.753 964.765C527.813 974.524 515.456 947.875 515.456 947.875C515.456 947.875 519.931 979.923 501.02 984.976C483.696 989.595 475.352 968.403 475.352 968.403C475.352 968.403 474.717 988.296 457.163 989.538C436.028 990.981 440.821 949.116 418.128 932.053C413.017 928.213 467.615 772.447 467.615 772.447Z" fill="#EB9481"/>
<path d="M488.343 858.053C499.892 872.489 517.533 911.755 516.032 947.355C516.032 948.163 515.368 948.567 515.252 947.817C509.837 916.989 500.694 886.934 488.026 858.313C487.991 858.27 487.975 858.216 487.981 858.162C487.986 858.108 488.013 858.058 488.055 858.024C488.097 857.989 488.151 857.973 488.205 857.979C488.259 857.984 488.309 858.011 488.343 858.053Z" fill="#263238"/>
<path d="M453.727 877.454C462.389 890.88 478.817 932.312 476.045 968.257C476.045 969.066 475.323 969.412 475.237 968.662C471.421 937.578 464.088 907.028 453.38 877.599C453.38 877.558 453.391 877.519 453.413 877.485C453.436 877.451 453.467 877.425 453.505 877.409C453.542 877.394 453.583 877.39 453.623 877.398C453.662 877.406 453.699 877.425 453.727 877.454Z" fill="#263238"/>
<path d="M534.223 856.032C548.659 864.694 556.714 874.886 567.455 887.388C572.704 893.648 578.295 899.614 584.201 905.259C589.629 910.312 597.626 917.905 605.768 914.296C610.301 912.275 611.543 906.847 611.918 902.343C612.274 897.279 611.535 892.198 609.753 887.445C609.753 887.214 610.099 887.041 610.186 887.301C611.958 891.493 613.124 895.917 613.65 900.438C614.336 904.687 613.722 909.045 611.889 912.939C607.385 920.908 596.991 919.407 590.466 915.22C586.606 912.547 583.018 909.501 579.754 906.126C576.549 902.978 573.489 899.687 570.515 896.338C564.423 889.409 558.735 882.162 552.73 875.203C546.845 868.567 540.537 862.318 533.847 856.494C533.588 856.263 533.934 855.859 534.223 856.032Z" fill="#263238"/>
<path d="M552.586 919.144C550.882 909.241 538.641 866.683 533.79 856.318C533.759 856.264 533.751 856.201 533.768 856.141C533.784 856.082 533.823 856.031 533.877 856C533.93 855.97 533.994 855.962 534.053 855.978C534.113 855.994 534.164 856.033 534.194 856.087C543.347 870.725 554.896 906.267 556.917 917.209C558.938 928.152 560.872 941.693 558.072 952.463C553.856 968.689 542.307 968.977 538.121 968.746C533.175 968.385 528.501 966.348 524.869 962.972C520.732 958.657 517.51 953.55 515.398 947.958C515.398 947.699 515.658 947.468 515.803 947.727C519.787 955.581 527.496 964.329 536.62 965.455C538.64 965.768 540.702 965.674 542.686 965.178C544.669 964.682 546.533 963.795 548.168 962.568C551.595 959.287 553.718 954.877 554.145 950.153C555.404 939.803 554.877 929.315 552.586 919.144Z" fill="#263238"/>
<path d="M476.045 968.26C477.807 970.772 480.723 978.711 487.739 982.061C490.178 983.451 492.92 984.227 495.726 984.323C498.533 984.419 501.321 983.83 503.849 982.609C508.672 979.615 512.141 974.863 513.522 969.357C514.688 962.312 515.316 955.189 515.398 948.049C515.398 947.703 515.831 947.674 515.86 948.049C516.759 955.793 516.487 963.628 515.052 971.291C514.373 974.293 513.102 977.13 511.312 979.634C509.522 982.138 507.25 984.258 504.629 985.872C501.853 987.388 498.711 988.107 495.552 987.949C492.393 987.791 489.339 986.762 486.728 984.977C484.101 983.158 476.478 974.929 475.179 968.462C475.208 968.26 475.959 968.144 476.045 968.26Z" fill="#263238"/>
<path d="M420.351 929.512C422.439 931.826 424.251 934.374 425.751 937.106C427.454 939.993 429.071 942.736 430.601 945.623C433.642 951.458 436.071 957.593 437.848 963.928C439.696 970.28 441.139 977.209 445.499 982.435C447.54 985.019 450.342 986.894 453.508 987.796C456.675 988.698 460.045 988.58 463.14 987.459C466.417 986.157 469.141 983.759 470.849 980.674C472.828 977.347 474.151 973.672 474.747 969.847C474.734 969.812 474.729 969.774 474.734 969.737C474.739 969.7 474.752 969.665 474.774 969.635C474.795 969.604 474.823 969.579 474.856 969.562C474.889 969.544 474.926 969.535 474.963 969.535C475 969.535 475.037 969.544 475.07 969.562C475.103 969.579 475.132 969.604 475.153 969.635C475.174 969.665 475.188 969.7 475.192 969.737C475.197 969.774 475.193 969.812 475.18 969.847C474.933 973.315 474.333 976.75 473.39 980.096C472.298 983.104 470.437 985.772 467.991 987.834C465.427 989.793 462.372 991.007 459.164 991.343C455.955 991.679 452.715 991.124 449.801 989.74C443.334 986.853 439.696 980.327 437.444 973.86C434.932 966.671 433.257 959.251 430.399 952.148C428.926 948.395 427.512 944.641 425.722 941.032C423.932 937.423 421.449 933.67 419.947 929.801C419.774 929.57 420.12 929.252 420.351 929.512Z" fill="#263238"/>
<path d="M397.802 938.464C406.93 939.783 416.162 940.237 425.375 939.821C425.664 939.821 425.837 940.658 425.548 940.716C420.981 941.572 416.334 941.93 411.69 941.784C406.981 941.586 402.328 940.681 397.889 939.099C397.513 938.897 397.513 938.406 397.802 938.464Z" fill="#263238"/>
<path d="M114.305 830.624C129.739 823.175 145.689 816.846 162.031 811.684C178.202 806.628 194.723 802.768 211.46 800.135C221.017 798.547 230.602 797.421 240.332 796.237C240.621 796.237 240.679 796.641 240.332 796.67C223.515 799.393 206.867 803.075 190.47 807.7C174.147 812.146 157.921 816.891 141.791 821.934C132.668 824.821 123.66 828.055 114.623 831.202C114.305 831.433 114.016 830.826 114.305 830.624Z" fill="#263238"/>
<path d="M100.245 744.037L237.07 758.906C237.07 758.906 271.977 695.387 290.137 636.863C308.298 578.339 256.732 589.715 196.476 646.449C136.219 703.183 100.245 744.037 100.245 744.037Z" fill="#FF9705"/>
<path d="M100.245 744.037L237.07 758.906C237.07 758.906 271.977 695.387 290.137 636.863C308.298 578.339 256.732 589.715 196.476 646.449C136.219 703.183 100.245 744.037 100.245 744.037Z" fill="#FF9705"/>
<path d="M249.486 606.864C249.5 607.008 249.5 607.153 249.486 607.297C248.753 612.296 248.598 617.363 249.024 622.397C250.817 617.663 252.029 612.728 252.633 607.702C252.633 606.835 252.864 605.998 252.95 605.132L249.486 606.864ZM177.825 742.564C176.572 745.714 175.605 748.97 174.938 752.294L177.825 752.582C178.142 749.25 178.142 745.896 177.825 742.564ZM130.359 711.757L129.031 713.143C130.532 713.143 131.918 713.143 133.564 712.883C132.467 712.45 131.427 712.075 130.359 711.757ZM253.152 721.371C253.961 721.689 254.798 722.007 255.635 722.267C255.785 721.89 255.959 721.524 256.155 721.169C255.174 721.198 254.163 721.256 253.152 721.371ZM210.248 682.74C207.236 678.681 203.779 674.972 199.941 671.682C201.971 676.324 204.581 680.689 207.708 684.675C210.699 688.726 214.158 692.409 218.015 695.646C215.898 691.077 213.294 686.75 210.248 682.74Z" fill="white"/>
<path d="M231.526 757.636C232.277 757.636 237.301 757.636 237.301 757.636C237.907 755.875 249.687 728.764 252.574 722.99C258.522 711.123 265.162 699.574 271.63 687.996C271.832 687.621 272.409 687.996 272.207 688.256C267.646 698.362 263.257 708.467 258.608 718.63C259.763 717.273 260.918 715.916 262.044 714.53C264.325 711.643 266.404 708.756 268.569 705.695C268.771 705.435 269.176 705.695 269.031 706.013C266.965 710.189 264.353 714.073 261.265 717.562C259.953 719.094 258.535 720.532 257.02 721.863C256.645 722.701 256.27 723.567 255.866 724.375C252.978 730.15 238.744 759.253 238.225 759.224L231.642 758.416C231.151 758.531 231.151 757.607 231.526 757.636Z" fill="#263238"/>
<path d="M126.028 720.793C155.709 722.785 185.303 726.856 214.723 731.476C223.077 732.804 231.373 734.315 239.611 736.009C239.842 736.009 239.842 736.413 239.611 736.384C224.829 735.085 210.075 733.179 195.321 731.36C180.568 729.541 165.698 727.578 150.945 725.239C142.629 723.969 134.285 722.699 125.999 721.284C125.653 721.313 125.653 720.764 126.028 720.793Z" fill="#263238"/>
<path d="M283.295 598.492C283.815 604.497 306.162 646.247 332.926 648.816C341.588 649.625 348.257 602.245 348.257 602.245L349.528 598.867L367.515 551.459L315.256 506.274L307.663 500.211C307.663 500.211 303.592 513.492 298.713 530.094C298.482 530.873 298.222 531.653 297.991 532.461C297.76 533.27 297.413 534.28 297.154 535.146C296.403 537.629 295.623 540.141 294.93 542.682C294.382 544.616 293.833 546.493 293.314 548.456C292.794 550.42 292.274 552.499 291.697 554.52C287.898 568.969 285.091 583.66 283.295 598.492Z" fill="#EB9481"/>
<path d="M298.711 530.094C301.687 544.556 307.773 558.199 316.548 570.074C325.322 581.95 336.575 591.775 349.526 598.867L367.513 551.459L315.255 506.274L307.661 500.211C307.661 500.211 303.59 513.492 298.711 530.094Z" fill="#263238"/>
<path d="M383.336 478.641C387.926 498.851 406.116 512.161 423.959 508.148C441.802 504.135 452.514 484.357 447.923 464.031C443.332 443.705 425.143 430.482 407.3 434.524C389.457 438.566 378.745 458.286 383.336 478.641Z" fill="#455A64"/>
<path d="M373.146 482.279C378.285 504.886 398.495 519.582 418.36 515.107C438.224 510.631 450.119 488.66 445.009 466.024C439.898 443.388 419.659 428.721 399.824 433.196C379.988 437.671 368.035 459.614 373.146 482.279Z" fill="#C7C7C7"/>
<path d="M431.523 453.351C455.775 538.957 407.241 563.066 388.763 568.378C371.988 573.113 314.301 587.087 281.329 504.426C248.357 421.765 280.492 383.423 318.257 370.574C356.022 357.726 407.27 367.716 431.523 453.351Z" fill="#EB9481"/>
<path d="M401.728 442.58C399.694 442.782 397.65 442.868 395.607 442.84C393.458 443.25 391.234 442.935 389.284 441.945C388.728 441.515 388.331 440.914 388.153 440.235C387.976 439.556 388.028 438.837 388.302 438.191C389.039 437.002 390.081 436.031 391.32 435.381C392.559 434.731 393.949 434.425 395.347 434.496C398.191 434.179 401.051 434.93 403.373 436.603C403.874 437.022 404.244 437.577 404.439 438.201C404.634 438.824 404.645 439.491 404.472 440.12C404.298 440.75 403.947 441.317 403.461 441.753C402.974 442.189 402.373 442.476 401.728 442.58Z" fill="#263238"/>
<path d="M345.282 462.502C347.244 461.895 349.172 461.181 351.057 460.366C353.194 459.894 355.12 458.738 356.542 457.074C356.88 456.459 357.006 455.751 356.902 455.057C356.797 454.363 356.468 453.723 355.965 453.234C354.82 452.428 353.481 451.942 352.085 451.825C350.69 451.709 349.288 451.966 348.025 452.57C345.287 453.394 342.951 455.205 341.471 457.652C341.167 458.229 341.037 458.882 341.096 459.532C341.155 460.181 341.401 460.8 341.804 461.313C342.207 461.826 342.75 462.211 343.367 462.422C343.984 462.633 344.65 462.661 345.282 462.502Z" fill="#263238"/>
<path d="M362.607 477.602C362.607 477.372 362.231 478.007 362.318 478.238C364.166 484.012 365.205 490.941 360.586 494.377C360.441 494.377 360.586 494.753 360.73 494.695C366.851 491.952 365.234 482.713 362.607 477.602Z" fill="#263238"/>
<path d="M355.619 472.984C346.033 474.947 350.653 493.945 359.546 492.126C368.438 490.307 363.645 471.338 355.619 472.984Z" fill="#263238"/>
<path d="M352.126 474.892C350.74 476.393 349.556 478.674 347.621 479.367C345.687 480.06 343.117 478.587 341.154 477.028C340.952 476.884 340.808 477.028 340.865 477.346C341.703 480.984 344.012 484.391 348.055 483.987C352.097 483.582 353.511 479.771 353.511 475.873C353.54 475.152 352.703 474.314 352.126 474.892Z" fill="#263238"/>
<path d="M396.356 467.181C396.356 466.95 396.905 467.355 396.934 467.585C398.147 473.533 400.514 480.145 406.317 480.838C406.491 480.838 406.548 481.155 406.317 481.184C399.619 481.791 396.559 472.985 396.356 467.181Z" fill="#263238"/>
<path d="M400.14 459.791C409.436 456.904 414.576 475.671 405.914 478.414C397.252 481.157 392.373 462.245 400.14 459.791Z" fill="#263238"/>
<path d="M404.472 459.932C406.233 460.51 408.196 461.925 410.015 461.549C411.834 461.174 413.076 458.662 413.855 456.323C413.855 456.092 414.144 456.323 414.202 456.323C415.299 459.904 415.154 463.975 411.863 465.62C408.572 467.266 405.713 464.667 403.865 461.318C403.519 460.856 403.75 459.615 404.472 459.932Z" fill="#263238"/>
<path d="M375.944 525.068C377.619 526.194 379.409 527.955 381.719 527.58C383.928 527.101 386.012 526.167 387.84 524.837C387.874 524.795 387.924 524.768 387.978 524.763C388.032 524.757 388.086 524.774 388.128 524.808C388.17 524.843 388.197 524.892 388.203 524.946C388.208 525.001 388.192 525.055 388.157 525.097C387.532 526.432 386.558 527.573 385.339 528.402C384.119 529.23 382.699 529.714 381.228 529.803C379.939 529.738 378.7 529.288 377.67 528.511C376.641 527.734 375.868 526.665 375.453 525.443C375.251 525.126 375.684 524.924 375.944 525.068Z" fill="#263238"/>
<path d="M395.319 495.736C395.319 495.736 398.754 504.196 399.823 508.325C399.823 508.729 385.618 515.658 376.436 507.17C376.34 507.105 376.274 507.004 376.253 506.89C376.231 506.777 376.256 506.659 376.321 506.563C376.386 506.468 376.486 506.402 376.6 506.38C376.714 506.358 376.831 506.383 376.927 506.448C383.119 508.703 389.874 508.896 396.185 506.996C396.185 505.784 389.775 492.705 390.41 492.56C393.693 492.021 397.034 491.923 400.342 492.272C393.644 474.457 384.174 457.856 377.793 439.984C377.737 439.852 377.732 439.703 377.779 439.567C377.826 439.432 377.922 439.318 378.049 439.25C378.175 439.181 378.322 439.162 378.462 439.196C378.602 439.231 378.724 439.316 378.804 439.435C389.977 456.152 398.119 476.507 405.482 494.726C406.463 496.949 397.253 496.025 395.319 495.736Z" fill="#263238"/>
<path d="M396.156 508.987C394.623 512.819 392.139 516.197 388.938 518.803C387.142 520.151 384.976 520.917 382.731 520.998C377.794 520.998 376.494 516.927 376.321 513.087C376.252 511.053 376.416 509.019 376.812 507.023C382.884 509.731 389.664 510.419 396.156 508.987Z" fill="#263238"/>
<path d="M388.937 518.805C387.141 520.154 384.975 520.919 382.73 521C377.793 521 376.494 516.929 376.32 513.089C381.373 512.194 387.147 514.157 388.937 518.805Z" fill="#FF99BA"/>
<path d="M285.46 501.566C302.032 502.634 303.938 464.725 303.938 464.725C303.938 464.725 373.231 448.585 375.714 391.187C375.714 391.187 389.948 426.815 427.684 441.021C427.684 441.021 421.419 378.657 371.124 369.533C371.124 369.533 308.24 350.881 276.625 401.812C245.01 452.743 274.344 500.844 285.46 501.566Z" fill="#263238"/>
<path d="M375.715 386.943C377.083 395.701 376.561 404.649 374.184 413.188C371.941 421.866 367.909 429.979 362.347 437.008C360.983 438.775 359.507 440.453 357.929 442.032L355.62 444.486C354.811 445.236 353.945 445.929 353.079 446.651C351.347 448.037 349.672 449.538 347.882 450.838C346.092 452.137 344.128 453.205 342.107 454.36C341.155 454.909 340.231 455.515 339.22 456.035L336.333 457.421L330.299 460.163C326.141 461.607 321.926 462.82 317.739 463.974C321.637 461.982 325.679 460.394 329.519 458.402L335.149 455.226L338.036 453.638C338.931 453.061 339.769 452.397 340.635 451.762C342.367 450.491 344.1 449.25 345.861 448.037C347.622 446.824 349.037 445.15 350.625 443.851L353.021 441.743L355.158 439.375C356.626 437.86 358.005 436.26 359.286 434.583C364.533 427.888 368.605 420.351 371.326 412.293C372.719 408.248 373.781 404.096 374.502 399.878C375.27 395.608 375.676 391.281 375.715 386.943Z" fill="#263238"/>
<path d="M297.818 500.673C297.818 500.673 273.507 477.027 262.449 486.237C251.391 495.447 273.305 532.231 288.867 534.829C290.839 535.303 292.887 535.374 294.887 535.036C296.887 534.699 298.798 533.96 300.505 532.865C302.212 531.77 303.68 530.341 304.821 528.664C305.962 526.987 306.752 525.097 307.143 523.107L297.818 500.673Z" fill="#EB9481"/>
<path d="M269.003 496.603C268.95 496.603 268.898 496.624 268.86 496.662C268.823 496.7 268.801 496.751 268.801 496.805C268.801 496.858 268.823 496.91 268.86 496.948C268.898 496.986 268.95 497.007 269.003 497.007C280.004 499.172 287.164 507.603 292.823 516.669C289.07 513.493 284.537 512.223 280.177 516.669C279.946 516.929 280.177 517.275 280.552 517.16C282.238 516.251 284.164 515.886 286.066 516.113C287.968 516.34 289.753 517.15 291.177 518.43C293.547 520.58 295.677 522.981 297.529 525.59C298.164 526.428 299.723 525.59 299.175 524.638L299.03 524.407C296.778 511.587 283.18 495.246 269.003 496.603Z" fill="#263238"/>
<path d="M281.187 488.633C281.187 488.633 265.422 446.624 270.879 419.196C276.942 388.649 314.794 353.8 358.073 366.85C358.073 366.85 306.594 374.559 288.405 415.933C280.032 434.989 295.854 485.428 295.854 485.428L281.187 488.633Z" fill="#C7C7C7"/>
<path d="M305.5 548.504C324.607 542.553 334.595 520.067 327.809 498.281C321.024 476.495 300.034 463.658 280.927 469.609C261.821 475.561 251.833 498.046 258.618 519.832C265.404 541.618 286.394 554.455 305.5 548.504Z" fill="#C7C7C7"/>
<path d="M317.393 500.037C323.485 519.612 314.506 539.822 297.183 545.164C279.859 550.505 261.15 538.985 255.029 519.41C248.908 499.834 257.917 479.624 275.24 474.254C292.563 468.883 311.301 480.577 317.393 500.037Z" fill="#455A64"/>
<path d="M349.324 599.156L333.445 639.231L283.496 588.849L269.493 605.133C269.493 605.133 318.575 685.34 318.749 681.702L335.09 647.055L358.997 670.932L356.831 610.82L349.324 599.156Z" fill="#EBEBEB"/>
<path d="M359.719 641.192C358.997 631.289 358.593 621.241 357.438 611.367C357.438 611.02 356.832 610.876 356.745 611.367C354.811 620.952 357.669 658.919 357.669 668.014C356.687 666.975 335.524 646.995 335.322 647.313C331.771 652.799 319.789 677.975 318.98 680.256C311.214 667.523 278.357 617.315 269.204 605.188C269.15 605.133 269.078 605.097 269.001 605.088C268.924 605.078 268.846 605.094 268.78 605.134C268.713 605.174 268.662 605.236 268.634 605.308C268.606 605.381 268.604 605.461 268.627 605.535C275.47 618.989 317.912 685.251 318.518 685.078C324.832 673.201 330.537 661.011 335.611 648.554C339.191 652.914 360.556 675.463 360.614 673.991C360.882 663.05 360.583 652.102 359.719 641.192Z" fill="#263238"/>
<path d="M638.278 332.145C636.545 348.753 630.231 364.554 620.041 377.782C609.851 391.011 596.185 401.148 580.569 407.063C564.953 412.977 548 414.435 531.603 411.275C515.206 408.115 500.01 400.461 487.71 389.168L442.611 395.779L465.189 356.802C460.079 344.123 457.921 330.449 458.877 316.813C459.833 303.177 463.878 289.937 470.707 278.096C477.537 266.255 486.97 256.123 498.294 248.466C509.618 240.81 522.535 235.83 536.068 233.904C549.601 231.978 563.395 233.156 576.406 237.349C589.416 241.541 601.302 248.639 611.164 258.105C621.026 267.57 628.605 279.155 633.327 291.983C638.05 304.81 639.792 318.544 638.423 332.145H638.278Z" fill="white"/>
<path d="M638.277 332.144C636.532 348.762 630.238 364.576 620.088 377.849C615.102 384.479 609.145 390.319 602.418 395.172C595.776 400.207 588.457 404.279 580.677 407.27C572.892 410.315 564.719 412.259 556.396 413.044C552.24 413.424 548.061 413.502 543.894 413.275C539.708 413.176 535.538 412.741 531.421 411.976C514.791 408.983 499.324 401.414 486.756 390.12L487.824 390.437L442.784 397.367L439.521 397.858L441.167 394.97L463.658 355.906V357.465C458.37 344.545 456.122 330.582 457.088 316.655C458.054 302.728 462.209 289.209 469.23 277.143C476.242 265.122 485.886 254.846 497.439 247.087C508.982 239.443 522.106 234.511 535.826 232.661C549.547 230.81 563.508 232.09 576.664 236.404C589.659 240.844 601.497 248.134 611.311 257.741C621.138 267.297 628.67 278.957 633.341 291.845C638.012 304.732 639.7 318.511 638.277 332.144ZM638.277 332.144C639.718 318.572 638.023 304.849 633.322 292.035C628.622 279.22 621.043 267.656 611.168 258.234C601.294 248.811 589.387 241.781 576.367 237.686C563.347 233.591 549.56 232.54 536.07 234.614C522.704 236.622 509.974 241.658 498.853 249.339C487.84 257.065 478.638 267.094 471.887 278.731C465.243 290.41 461.334 303.443 460.454 316.85C459.574 330.258 461.746 343.69 466.805 356.137L467.123 356.946L466.69 357.667L443.996 396.587L442.379 394.191L487.507 387.868H488.142L488.575 388.301C500.667 399.588 515.663 407.286 531.883 410.532C535.91 411.341 539.993 411.833 544.096 412.005C548.201 412.294 552.32 412.294 556.425 412.005C564.656 411.363 572.76 409.585 580.504 406.721C588.293 403.916 595.62 399.965 602.245 394.999C609.016 390.178 614.996 384.334 619.972 377.676C630.153 364.475 636.488 348.718 638.277 332.144Z" fill="#263238"/>
<path d="M587.983 336.418C594.01 336.418 598.896 331.532 598.896 325.505C598.896 319.477 594.01 314.591 587.983 314.591C581.955 314.591 577.069 319.477 577.069 325.505C577.069 331.532 581.955 336.418 587.983 336.418Z" fill="#263238"/>
<path d="M548.861 336.418C554.888 336.418 559.775 331.532 559.775 325.505C559.775 319.477 554.888 314.591 548.861 314.591C542.833 314.591 537.947 319.477 537.947 325.505C537.947 331.532 542.833 336.418 548.861 336.418Z" fill="#263238"/>
<path d="M509.768 336.418C515.795 336.418 520.681 331.532 520.681 325.505C520.681 319.477 515.795 314.591 509.768 314.591C503.74 314.591 498.854 319.477 498.854 325.505C498.854 331.532 503.74 336.418 509.768 336.418Z" fill="#263238"/>
<path d="M1534.82 332.146C1533.09 348.755 1526.77 364.555 1516.58 377.784C1506.39 391.013 1492.73 401.15 1477.11 407.064C1461.49 412.978 1444.54 414.437 1428.14 411.277C1411.75 408.117 1396.55 400.463 1384.25 389.169L1339.15 395.781L1361.7 356.803C1356.57 344.118 1354.39 330.432 1355.34 316.781C1356.28 303.13 1360.32 289.873 1367.15 278.015C1373.98 266.157 1383.42 256.009 1394.75 248.341C1406.08 240.673 1419.01 235.686 1432.56 233.758C1446.11 231.83 1459.91 233.011 1472.94 237.212C1485.96 241.414 1497.86 248.525 1507.72 258.007C1517.59 267.488 1525.16 279.092 1529.88 291.937C1534.59 304.783 1536.32 318.533 1534.93 332.146H1534.82Z" fill="white"/>
<path d="M1534.82 332.145C1533.06 348.759 1526.77 364.57 1516.63 377.85C1514.09 381.136 1511.37 384.269 1508.46 387.233C1505.45 390.112 1502.27 392.802 1498.93 395.289C1492.3 400.335 1484.98 404.408 1477.19 407.386C1469.41 410.433 1461.25 412.376 1452.94 413.16C1448.77 413.541 1444.58 413.618 1440.41 413.391C1436.22 413.291 1432.05 412.856 1427.93 412.092C1411.32 409.041 1395.88 401.423 1383.36 390.092L1384.42 390.409L1339.38 397.338L1336.12 397.829L1337.77 394.942L1360.2 355.878V357.437C1354.91 344.518 1352.66 330.557 1353.63 316.631C1354.59 302.705 1358.73 289.185 1365.74 277.114C1372.77 265.092 1382.42 254.816 1393.98 247.058C1405.52 239.414 1418.65 234.482 1432.37 232.632C1446.09 230.782 1460.05 232.062 1473.21 236.376C1486.2 240.812 1498.04 248.103 1507.85 257.712C1517.69 267.268 1525.23 278.933 1529.9 291.826C1534.57 304.72 1536.25 318.506 1534.82 332.145ZM1534.82 332.145C1536.26 318.572 1534.56 304.85 1529.86 292.035C1525.16 279.221 1517.58 267.657 1507.71 258.234C1497.84 248.811 1485.93 241.782 1472.91 237.687C1459.89 233.591 1446.1 232.54 1432.61 234.615C1419.25 236.622 1406.52 241.659 1395.39 249.339C1384.38 257.065 1375.18 267.094 1368.43 278.731C1361.74 290.405 1357.79 303.447 1356.88 316.872C1356.03 330.268 1358.19 343.685 1363.2 356.138L1363.55 356.946L1363.12 357.668L1340.42 396.588L1338.81 394.191L1383.93 387.868H1384.57L1385 388.301C1397.05 399.565 1412 407.261 1428.16 410.533C1432.19 411.341 1436.27 411.834 1440.38 412.006C1444.48 412.294 1448.6 412.294 1452.71 412.006C1460.94 411.363 1469.04 409.585 1476.79 406.722C1484.57 403.911 1491.9 399.96 1498.53 395C1505.28 390.169 1511.25 384.326 1516.23 377.676C1526.52 364.514 1532.96 348.751 1534.82 332.145Z" fill="#263238"/>
<path d="M1484.38 336.418C1490.41 336.418 1495.29 331.532 1495.29 325.505C1495.29 319.477 1490.41 314.591 1484.38 314.591C1478.35 314.591 1473.46 319.477 1473.46 325.505C1473.46 331.532 1478.35 336.418 1484.38 336.418Z" fill="#263238"/>
<path d="M1445.29 336.418C1451.31 336.418 1456.2 331.532 1456.2 325.505C1456.2 319.477 1451.31 314.591 1445.29 314.591C1439.26 314.591 1434.37 319.477 1434.37 325.505C1434.37 331.532 1439.26 336.418 1445.29 336.418Z" fill="#263238"/>
<path d="M1417.11 325.507C1417.11 327.667 1416.48 329.78 1415.28 331.578C1414.09 333.377 1412.38 334.78 1410.39 335.61C1408.4 336.441 1406.2 336.661 1404.08 336.243C1401.96 335.825 1400.02 334.788 1398.49 333.263C1396.96 331.738 1395.91 329.793 1395.49 327.676C1395.07 325.558 1395.28 323.362 1396.11 321.366C1396.93 319.37 1398.33 317.664 1400.13 316.463C1401.92 315.263 1404.03 314.622 1406.19 314.622C1409.08 314.622 1411.85 315.768 1413.9 317.808C1415.95 319.849 1417.1 322.617 1417.11 325.507Z" fill="#263238"/>
<path d="M489.067 971.147H469.751V983.765H489.067V971.147Z" fill="#455A64"/>
<path d="M514.129 970.307H494.813V982.924H514.129V970.307Z" fill="#455A64"/>
<path d="M539.189 969.474H519.874V982.091H539.189V969.474Z" fill="#455A64"/>
<path d="M564.222 968.637H544.906V981.254H564.222V968.637Z" fill="#455A64"/>
<path d="M589.282 967.798H569.967V980.415H589.282V967.798Z" fill="#455A64"/>
<path d="M614.345 966.987H595.03V979.604H614.345V966.987Z" fill="#455A64"/>
<path d="M639.375 966.15H620.06V978.768H639.375V966.15Z" fill="#455A64"/>
<path d="M664.437 965.313H645.122V977.931H664.437V965.313Z" fill="#455A64"/>
<path d="M689.469 964.474H670.154V977.091H689.469V964.474Z" fill="#455A64"/>
<path d="M694.205 991.01H465.018V975.65L694.205 969.27V991.01Z" fill="#37474F"/>
<path d="M917.906 930.495H539.564L599.734 648.817H978.076L917.906 930.495Z" fill="#455A64"/>
<path d="M931.909 930.495H553.539L613.708 648.817H992.079L931.909 930.495Z" fill="#37474F"/>
<path d="M805.507 773.341C804.347 779.753 801.023 785.573 796.089 789.83C791.154 794.086 784.909 796.521 778.396 796.728C775.457 796.819 772.536 796.243 769.851 795.043C767.167 793.843 764.789 792.051 762.897 789.8C761.005 787.549 759.647 784.899 758.926 782.048C758.205 779.198 758.14 776.221 758.734 773.341C759.882 766.926 763.198 761.099 768.128 756.837C773.058 752.575 779.303 750.135 785.816 749.926C788.761 749.829 791.689 750.402 794.379 751.601C797.07 752.801 799.453 754.596 801.349 756.85C803.246 759.105 804.605 761.761 805.325 764.617C806.045 767.474 806.108 770.457 805.507 773.341Z" fill="#263238"/>
<path d="M824.909 1004.06H638.828V989.596L824.909 983.591V1004.06Z" fill="#455A64"/>
<path d="M875.494 1004.03H775.567L715.397 846.188H815.324L875.494 1004.03Z" fill="#455A64"/>
<path d="M891.921 1004.03H792.023L731.854 846.188H831.751L891.921 1004.03Z" fill="#263238"/>
<path d="M457.885 1007.9H266.116C249.745 1007.9 273.421 961.271 333.186 943.399C392.952 925.527 476.797 990.403 457.885 1007.9Z" fill="#37474F"/>
<path d="M382.818 1007.9C382.947 1002.59 383.822 997.318 385.416 992.249C386.956 987.125 389.118 982.209 391.855 977.611C394.598 972.985 398.036 968.808 402.047 965.225C406.024 961.67 410.599 958.845 415.559 956.881C413.509 958.555 411.17 959.768 409.294 961.587L406.406 964.099L403.692 966.986C400.146 970.7 397.036 974.807 394.425 979.228C391.769 983.649 389.49 988.284 387.611 993.087C385.685 997.911 384.084 1002.86 382.818 1007.9Z" fill="#263238"/>
<path d="M405.395 963.523C416.807 967.135 427.603 972.46 437.414 979.317C442.38 982.748 446.874 986.815 450.782 991.414C454.882 995.989 457.376 1001.78 457.885 1007.9C456.295 1002.25 453.248 997.127 449.05 993.031C444.959 988.864 440.483 985.094 435.682 981.771C430.918 978.335 425.923 975.246 420.842 972.214C415.76 969.182 410.65 966.324 405.395 963.523Z" fill="#263238"/>
<path d="M1375.04 971.147H1355.73V983.765H1375.04V971.147Z" fill="#455A64"/>
<path d="M1400.1 970.307H1380.79V982.924H1400.1V970.307Z" fill="#455A64"/>
<path d="M1425.16 969.474H1405.85V982.091H1425.16V969.474Z" fill="#455A64"/>
<path d="M1450.19 968.637H1430.88V981.254H1450.19V968.637Z" fill="#455A64"/>
<path d="M1475.25 967.798H1455.94V980.415H1475.25V967.798Z" fill="#455A64"/>
<path d="M1500.32 966.987H1481V979.604H1500.32V966.987Z" fill="#455A64"/>
<path d="M1525.35 966.15H1506.04V978.768H1525.35V966.15Z" fill="#455A64"/>
<path d="M1550.41 965.313H1531.09V977.931H1550.41V965.313Z" fill="#455A64"/>
<path d="M1575.47 964.474H1556.16V977.091H1575.47V964.474Z" fill="#455A64"/>
<path d="M1580.21 991.01H1351.02V975.65L1580.21 969.27V991.01Z" fill="#37474F"/>
<path d="M1803.88 930.495H1425.54L1485.71 648.817H1864.05L1803.88 930.495Z" fill="#455A64"/>
<path d="M1817.88 930.495H1439.54L1499.71 648.817H1878.05L1817.88 930.495Z" fill="#37474F"/>
<path d="M1691.48 773.341C1690.32 779.749 1687 785.565 1682.07 789.821C1677.14 794.077 1670.91 796.514 1664.4 796.728C1661.46 796.823 1658.53 796.251 1655.84 795.053C1653.15 793.855 1650.77 792.063 1648.88 789.812C1646.98 787.56 1645.62 784.908 1644.9 782.056C1644.18 779.203 1644.11 776.223 1644.71 773.341C1645.86 766.928 1649.18 761.105 1654.11 756.843C1659.03 752.582 1665.28 750.14 1671.79 749.926C1674.73 749.829 1677.66 750.402 1680.35 751.601C1683.04 752.801 1685.43 754.596 1687.32 756.85C1689.22 759.105 1690.58 761.761 1691.3 764.617C1692.02 767.474 1692.08 770.457 1691.48 773.341Z" fill="#263238"/>
<path d="M1710.88 1004.06H1524.8V989.596L1710.88 983.591V1004.06Z" fill="#455A64"/>
<path d="M1761.47 1004.03H1661.54L1601.37 846.188H1701.3L1761.47 1004.03Z" fill="#455A64"/>
<path d="M1777.92 1004.03H1678L1617.83 846.188H1717.75L1777.92 1004.03Z" fill="#263238"/>
<path d="M1343.94 1007.9H1152.09C1135.72 1007.9 1159.39 961.271 1219.16 943.399C1278.92 925.527 1362.77 990.403 1343.94 1007.9Z" fill="#37474F"/>
<path d="M1268.64 1007.9C1268.79 1002.59 1269.66 997.321 1271.24 992.249C1272.8 987.13 1274.96 982.215 1277.68 977.611C1280.44 972.998 1283.88 968.823 1287.87 965.225C1291.85 961.67 1296.43 958.845 1301.39 956.881C1299.34 958.555 1297 959.768 1295.12 961.587L1292.23 964.099L1289.52 966.986C1285.95 970.691 1282.83 974.8 1280.22 979.228C1277.57 983.649 1275.29 988.284 1273.41 993.087C1271.49 997.912 1269.9 1002.86 1268.64 1007.9Z" fill="#263238"/>
<path d="M1291.37 963.523C1302.78 967.135 1313.58 972.46 1323.39 979.317C1328.36 982.755 1332.86 986.821 1336.78 991.414C1340.87 995.958 1343.38 1001.7 1343.94 1007.78C1342.34 1002.14 1339.29 997.009 1335.08 992.915C1330.99 988.749 1326.51 984.979 1321.71 981.655C1316.98 978.219 1311.95 975.13 1306.87 972.098C1301.79 969.067 1296.65 966.324 1291.37 963.523Z" fill="#263238"/>
<rect y="1" width="1920" height="1008" fill="url(#paint0_linear_120_1667)" fill-opacity="0.3"/>
<defs>
<linearGradient id="paint0_linear_120_1667" x1="960" y1="1" x2="960" y2="1009" gradientUnits="userSpaceOnUse">
<stop stop-color="#FF9705"/>
<stop offset="1" stop-color="#0048FF"/>
</linearGradient>
</defs>
</svg>
