<svg width="561" height="560" viewBox="0 0 561 560" fill="none" xmlns="http://www.w3.org/2000/svg">
<path d="M79.3075 444.182H32.9087V458.949H79.3075V444.182Z" fill="#EBEBEB"/>
<path d="M107.179 271.955H60.7798V286.722H107.179V271.955Z" fill="#EBEBEB"/>
<path d="M53.4292 477.622C45.696 477.754 26.2048 478.084 18.7356 478.163H7.03037H6.43652V477.622V462.855V462.195H7.09635L30.2958 462.288C36.0626 462.288 47.7151 462.459 53.4952 462.538H53.8119V462.855L53.4292 477.622ZM53.4292 477.622L53.1125 462.855L53.4292 463.172C47.6359 463.251 36.0098 463.37 30.2298 463.423L7.03037 463.515L7.69019 462.855V477.622L7.08315 477.015H18.5773C25.9277 477.107 45.8676 477.437 53.482 477.569L53.4292 477.622Z" fill="#EBEBEB"/>
<path d="M315.947 216.015C308.214 216.147 288.722 216.477 281.253 216.556H269.548H268.941V215.949V201.182V200.522H269.601L292.8 200.615C298.567 200.615 310.219 200.786 316 200.866H316.316V201.182L316.013 215.949L315.947 216.015ZM315.947 216.015L315.617 201.248L315.934 201.552C310.14 201.644 298.514 201.763 292.734 201.816L269.535 201.908L270.195 201.248L270.129 216.015L269.535 215.408H281.029C288.379 215.5 308.319 215.83 315.934 215.962L315.947 216.015Z" fill="#EBEBEB"/>
<path d="M290.055 234.636C282.335 234.768 262.844 235.098 255.362 235.177H243.67H243.036V234.583V219.816V219.156H243.709L266.895 219.249C272.675 219.249 284.328 219.42 290.095 219.499H290.425V219.816L290.108 234.583L290.055 234.636ZM290.055 234.636L289.752 219.869L290.055 220.172C284.275 220.265 272.649 220.384 266.856 220.436L243.67 220.529L244.329 219.869V234.636L243.736 234.029H255.23C262.58 234.121 282.52 234.451 290.121 234.583L290.055 234.636Z" fill="#EBEBEB"/>
<path d="M264.283 201.249H217.884V216.015H264.283V201.249Z" fill="#EBEBEB"/>
<path d="M552.942 462.802H506.543V477.569H552.942V462.802Z" fill="#EBEBEB"/>
<path d="M527.064 6.79834H480.665V21.5652H527.064V6.79834Z" fill="#EBEBEB"/>
<path d="M552.942 40.1855C545.209 40.3175 525.718 40.6474 518.249 40.7266H506.544H505.95V40.1327L505.884 25.3659V24.7061H506.544L529.743 24.7984C535.523 24.7984 547.162 24.97 552.942 25.0492H553.259V25.3659L552.942 40.1327V40.1855ZM552.942 40.1855L552.626 25.4187L552.942 25.7222C547.149 25.8146 535.536 25.9333 529.743 25.9861L506.544 26.0785L507.203 25.4187V40.1855L506.596 39.5785H518.091C525.454 39.6709 545.394 40.0008 552.995 40.1327L552.942 40.1855Z" fill="#EBEBEB"/>
<path d="M79.3076 21.5654C71.5745 21.6974 52.0833 22.0273 44.6141 22.1065H32.9088H32.3149V21.4994V6.73258V6.07275H32.9748L56.1742 6.16513C61.9542 6.16513 73.5935 6.33669 79.3736 6.41587H79.6903V6.73258L79.3736 21.4994L79.3076 21.5654ZM79.3076 21.5654L78.9909 6.79856L79.3076 7.10208C73.5143 7.19446 61.8882 7.31323 56.1082 7.36601L32.9088 7.45839L33.5686 6.79856V21.5654L32.9088 21.0244H44.4029C51.7534 21.1167 71.6932 21.4466 79.3076 21.5786V21.5654Z" fill="#EBEBEB"/>
<path d="M346.853 511.537C339.12 511.669 319.629 511.999 312.159 512.078H300.454H299.86V511.471V496.704V496.097H300.52L323.72 496.19C329.5 496.19 341.139 496.361 346.919 496.44H347.236V496.757L346.932 511.524L346.853 511.537ZM346.853 511.537L346.536 496.77L346.853 497.087C341.06 497.166 329.434 497.285 323.654 497.338L300.454 497.43L301.114 496.77V511.537L300.507 510.93H312.001C319.352 511.022 339.291 511.352 346.906 511.484L346.853 511.537Z" fill="#EBEBEB"/>
<path d="M94.2989 102.46C92.972 111.397 89.1064 119.766 83.1617 126.57C77.217 133.375 69.4432 138.329 60.7647 140.844C52.0862 143.359 42.8679 143.329 34.206 140.758C25.5441 138.186 17.8028 133.181 11.9026 126.338C6.00239 119.495 2.19145 111.101 0.922876 102.155C-0.3457 93.2089 0.98145 84.0866 4.74654 75.8728C8.51163 67.6591 14.5563 60.6993 22.1618 55.8209C29.7673 50.9426 38.6138 48.3509 47.6494 48.354V95.5314L94.2989 102.46Z" fill="#EBEBEB"/>
<path d="M104.473 85.9377C104.476 88.2523 104.304 90.5639 103.959 92.8526L57.3091 85.9377V38.7603C63.5053 38.7551 69.6418 39.9719 75.3672 42.3411C81.0927 44.7103 86.2947 48.1853 90.6755 52.5674C95.0563 56.9494 98.5299 62.1524 100.898 67.8785C103.265 73.6046 104.48 79.7414 104.473 85.9377Z" fill="#DBDBDB"/>
<path d="M102.916 112.291H52.7563V113.611H102.916V112.291Z" fill="#C7C7C7"/>
<path d="M106.44 117.121C105.611 117.124 104.801 116.88 104.111 116.421C103.421 115.963 102.882 115.31 102.564 114.545C102.246 113.78 102.162 112.937 102.323 112.125C102.484 111.312 102.883 110.565 103.468 109.98C104.054 109.394 104.801 108.995 105.614 108.834C106.426 108.673 107.268 108.757 108.033 109.075C108.798 109.394 109.452 109.932 109.91 110.622C110.369 111.312 110.612 112.122 110.61 112.951C110.606 114.056 110.166 115.114 109.384 115.896C108.603 116.677 107.545 117.117 106.44 117.121ZM106.44 110.087C105.873 110.085 105.318 110.25 104.845 110.563C104.372 110.876 104.003 111.323 103.785 111.846C103.566 112.369 103.507 112.945 103.616 113.501C103.725 114.058 103.997 114.569 104.397 114.971C104.797 115.373 105.307 115.647 105.863 115.758C106.419 115.87 106.995 115.814 107.519 115.598C108.043 115.381 108.491 115.014 108.807 114.543C109.122 114.072 109.29 113.518 109.29 112.951C109.29 112.194 108.99 111.467 108.456 110.931C107.922 110.394 107.197 110.091 106.44 110.087Z" fill="#C7C7C7"/>
<path d="M158.157 110.312H119.188V112.067H158.157V110.312Z" fill="#C7C7C7"/>
<path d="M141.239 113.822H119.188V115.577H141.239V113.822Z" fill="#C7C7C7"/>
<path d="M257.737 281.945H245.293V370.493H257.737V281.945Z" fill="#EBEBEB"/>
<path d="M279.129 303.376H266.685V370.493H279.129V303.376Z" fill="#EBEBEB"/>
<path d="M300.507 336.935H288.062V370.493H300.507V336.935Z" fill="#EBEBEB"/>
<path d="M321.898 317.76H309.454V370.48H321.898V317.76Z" fill="#EBEBEB"/>
<path d="M343.29 297.635H330.846V370.493H343.29V297.635Z" fill="#EBEBEB"/>
<path d="M364.668 285.798H352.224V370.493H364.668V285.798Z" fill="#EBEBEB"/>
<path d="M238.075 270.675L238.22 295.63L238.286 320.584L238.391 370.493L238.075 370.177C249.511 370.177 260.948 370.177 272.385 370.177L306.696 370.256L341.007 370.322L375.318 370.507L341.007 370.691L306.696 370.757L272.385 370.823C260.948 370.823 249.511 370.823 238.075 370.823H237.758V370.52L237.863 320.611V295.656L238.075 270.675Z" fill="#EBEBEB"/>
<path d="M235.33 275.716C237.129 275.241 239.02 275.241 240.819 275.716C239.018 276.174 237.131 276.174 235.33 275.716Z" fill="#EBEBEB"/>
<path d="M235.33 283.264C237.131 282.807 239.018 282.807 240.819 283.264C239.927 283.519 239.002 283.639 238.074 283.621C237.147 283.632 236.223 283.512 235.33 283.264Z" fill="#EBEBEB"/>
<path d="M235.33 290.852C237.131 290.395 239.018 290.395 240.819 290.852C239.02 291.327 237.129 291.327 235.33 290.852Z" fill="#EBEBEB"/>
<path d="M235.33 298.44C237.129 297.965 239.02 297.965 240.819 298.44C239.02 298.915 237.129 298.915 235.33 298.44Z" fill="#EBEBEB"/>
<path d="M235.33 306.068C237.129 305.593 239.02 305.593 240.819 306.068C239.02 306.543 237.129 306.543 235.33 306.068Z" fill="#EBEBEB"/>
<path d="M235.33 313.616C237.129 313.142 239.02 313.142 240.819 313.616C239.018 314.074 237.131 314.074 235.33 313.616Z" fill="#EBEBEB"/>
<path d="M235.33 321.191C237.131 320.734 239.018 320.734 240.819 321.191C239.02 321.666 237.129 321.666 235.33 321.191Z" fill="#EBEBEB"/>
<path d="M235.33 328.779C237.131 328.322 239.018 328.322 240.819 328.779C239.02 329.254 237.129 329.254 235.33 328.779Z" fill="#EBEBEB"/>
<path d="M235.33 336.42C237.129 335.945 239.02 335.945 240.819 336.42C239.02 336.895 237.129 336.895 235.33 336.42Z" fill="#EBEBEB"/>
<path d="M235.33 343.955C237.129 343.48 239.02 343.48 240.819 343.955C239.02 344.43 237.129 344.43 235.33 343.955Z" fill="#EBEBEB"/>
<path d="M235.33 351.543C237.129 351.068 239.02 351.068 240.819 351.543C239.018 352.001 237.131 352.001 235.33 351.543Z" fill="#EBEBEB"/>
<path d="M235.33 359.131C236.223 358.883 237.147 358.763 238.074 358.775C239.002 358.757 239.927 358.877 240.819 359.131C239.018 359.589 237.131 359.589 235.33 359.131Z" fill="#EBEBEB"/>
<path d="M4.82666 541.955C181.105 541.15 378.867 541.15 555.12 541.955C378.841 542.773 181.079 542.76 4.82666 541.955Z" fill="#263238"/>
<path d="M538.637 0.29248H322.334C319.433 0.318353 316.567 0.915504 313.897 2.04981C311.227 3.18412 308.808 4.83336 306.776 6.90327C304.744 8.97318 303.14 11.4232 302.055 14.1133C300.97 16.8034 300.426 19.6809 300.454 22.5813V467.738C300.405 473.594 302.681 479.229 306.783 483.408C310.886 487.587 316.478 489.968 322.334 490.027H538.637C544.496 489.971 550.094 487.593 554.201 483.414C558.308 479.235 560.589 473.597 560.543 467.738V22.5813C560.593 16.7212 558.313 11.0813 554.205 6.90167C550.097 2.72203 544.497 0.344755 538.637 0.29248ZM546.846 453.974C546.846 465.692 538.07 475.181 527.249 475.181H333.736C322.888 475.181 314.112 465.692 314.112 453.974V39.4992C314.112 15.6268 322.888 14.4259 333.736 14.4259H372.494C374.75 14.4259 376.585 16.986 376.585 20.1532V21.4728C376.585 28.9024 380.662 28.9288 385.651 28.9288H475.294C480.335 28.9288 484.373 28.9288 484.373 21.4728V20.1532C484.373 16.986 486.195 14.4259 488.478 14.4259H527.222C538.043 14.4259 546.819 17.6063 546.819 39.4992L546.846 453.974Z" fill="#263238"/>
<path d="M546.793 39.4991V453.974C546.793 465.692 538.017 475.181 527.196 475.181H333.735C322.888 475.181 314.112 465.692 314.112 453.974V39.4991C314.112 15.6267 322.888 14.4258 333.735 14.4258H372.494C374.75 14.4258 376.584 16.9859 376.584 20.1531V21.4727C376.584 28.9023 380.662 28.9287 385.65 28.9287H475.294C480.335 28.9287 484.373 28.9287 484.373 21.4727V20.1531C484.373 16.9859 486.194 14.4258 488.477 14.4258H527.222C538.017 14.4258 546.793 17.5929 546.793 39.4991Z" fill="white"/>
<path d="M365.764 23.7292C365.645 23.848 365.513 23.9667 365.394 24.0987L365.183 24.3098C364.225 23.3533 362.927 22.816 361.574 22.816C360.22 22.816 358.922 23.3533 357.964 24.3098L357.753 24.0987L357.384 23.7292L357.846 23.3201C358.585 22.7221 359.459 22.3143 360.393 22.1324C360.643 22.1324 360.881 22.0664 361.118 22.0269H361.805H362.306C362.757 22.0846 363.2 22.1954 363.626 22.3568C363.935 22.4686 364.236 22.6054 364.523 22.7659C364.825 22.9454 365.111 23.1483 365.381 23.3729L365.777 23.7292H365.764Z" fill="#C7C7C7"/>
<path d="M359.165 25.4842L358.571 24.9036C359.217 24.2462 360.061 23.8196 360.973 23.6895C361.63 23.5934 362.3 23.6518 362.93 23.8603C363.56 24.0688 364.132 24.4215 364.602 24.8904L364.008 25.4842C363.365 24.8436 362.494 24.4839 361.587 24.4839C360.679 24.4839 359.808 24.8436 359.165 25.4842Z" fill="#C7C7C7"/>
<path d="M363.441 26.078L362.847 26.6719C362.687 26.5058 362.494 26.3745 362.28 26.286C362.067 26.1974 361.838 26.1536 361.607 26.1572C361.376 26.1544 361.147 26.1986 360.934 26.2871C360.72 26.3755 360.527 26.5065 360.366 26.6719L359.786 26.078C360.277 25.6062 360.932 25.3428 361.613 25.3428C362.295 25.3428 362.95 25.6062 363.441 26.078Z" fill="#C7C7C7"/>
<path d="M362.148 27.1999C362.151 27.3074 362.121 27.4133 362.063 27.504C362.005 27.5947 361.922 27.6661 361.823 27.7091C361.725 27.7521 361.615 27.7647 361.51 27.7453C361.404 27.726 361.306 27.6755 361.229 27.6004C361.152 27.5253 361.099 27.4289 361.077 27.3236C361.055 27.2183 361.065 27.1088 361.106 27.0092C361.146 26.9096 361.216 26.8243 361.305 26.7642C361.394 26.7042 361.499 26.6721 361.607 26.672C361.677 26.6703 361.747 26.6826 361.813 26.7084C361.878 26.7341 361.938 26.7727 361.989 26.8219C362.039 26.8711 362.079 26.9299 362.106 26.9948C362.134 27.0597 362.148 27.1295 362.148 27.1999Z" fill="#C7C7C7"/>
<path d="M329.289 24.8511C329.289 24.5457 329.379 24.2472 329.549 23.9933C329.718 23.7394 329.96 23.5415 330.242 23.4247C330.524 23.3078 330.834 23.2772 331.134 23.3368C331.433 23.3964 331.708 23.5434 331.924 23.7594C332.14 23.9753 332.287 24.2504 332.347 24.5499C332.406 24.8494 332.376 25.1599 332.259 25.442C332.142 25.7241 331.944 25.9652 331.69 26.1349C331.436 26.3046 331.138 26.3951 330.833 26.3951C330.63 26.3951 330.429 26.3552 330.242 26.2776C330.054 26.2 329.884 26.0863 329.741 25.9429C329.597 25.7995 329.484 25.6293 329.406 25.442C329.329 25.2547 329.289 25.0539 329.289 24.8511Z" fill="#C7C7C7"/>
<path d="M334.092 24.8511C334.092 24.5457 334.182 24.2472 334.352 23.9933C334.522 23.7394 334.763 23.5415 335.045 23.4247C335.327 23.3078 335.637 23.2772 335.937 23.3368C336.237 23.3964 336.512 23.5434 336.728 23.7594C336.943 23.9753 337.091 24.2504 337.15 24.5499C337.21 24.8494 337.179 25.1599 337.062 25.442C336.945 25.7241 336.747 25.9652 336.494 26.1349C336.24 26.3046 335.941 26.3951 335.636 26.3951C335.433 26.3951 335.232 26.3552 335.045 26.2776C334.858 26.2 334.687 26.0863 334.544 25.9429C334.401 25.7995 334.287 25.6293 334.209 25.442C334.132 25.2547 334.092 25.0539 334.092 24.8511Z" fill="#C7C7C7"/>
<path d="M339.001 24.8511C339.001 24.5457 339.092 24.2472 339.261 23.9933C339.431 23.7394 339.672 23.5415 339.954 23.4247C340.236 23.3078 340.547 23.2772 340.846 23.3368C341.146 23.3964 341.421 23.5434 341.637 23.7594C341.853 23.9753 342 24.2504 342.059 24.5499C342.119 24.8494 342.088 25.1599 341.971 25.442C341.855 25.7241 341.657 25.9652 341.403 26.1349C341.149 26.3046 340.85 26.3951 340.545 26.3951C340.342 26.3951 340.141 26.3552 339.954 26.2776C339.767 26.2 339.597 26.0863 339.453 25.9429C339.31 25.7995 339.196 25.6293 339.118 25.442C339.041 25.2547 339.001 25.0539 339.001 24.8511Z" fill="#C7C7C7"/>
<path d="M343.871 24.8511C343.871 24.5451 343.962 24.2461 344.132 23.9919C344.302 23.7377 344.544 23.5398 344.827 23.4234C345.11 23.3069 345.421 23.2771 345.721 23.3378C346.021 23.3984 346.296 23.5468 346.511 23.764C346.726 23.9813 346.872 24.2576 346.931 24.558C346.989 24.8584 346.956 25.1692 346.837 25.4511C346.718 25.733 346.518 25.9732 346.263 26.1413C346.007 26.3093 345.707 26.3977 345.401 26.395C345.199 26.3951 344.999 26.355 344.813 26.2773C344.626 26.1995 344.457 26.0856 344.314 25.942C344.172 25.7985 344.06 25.6282 343.983 25.4409C343.907 25.2537 343.869 25.0532 343.871 24.8511Z" fill="#C7C7C7"/>
<path d="M348.727 24.8511C348.727 24.5451 348.818 24.2461 348.988 23.9919C349.158 23.7377 349.4 23.5398 349.683 23.4234C349.966 23.3069 350.277 23.2771 350.577 23.3378C350.877 23.3984 351.152 23.5468 351.367 23.764C351.582 23.9813 351.728 24.2576 351.787 24.558C351.845 24.8584 351.812 25.1692 351.693 25.4511C351.574 25.733 351.374 25.9732 351.119 26.1413C350.863 26.3093 350.563 26.3977 350.257 26.395C350.055 26.3951 349.855 26.355 349.669 26.2773C349.482 26.1995 349.313 26.0856 349.17 25.942C349.028 25.7985 348.915 25.6282 348.839 25.4409C348.763 25.2537 348.725 25.0532 348.727 24.8511Z" fill="#C7C7C7"/>
<path d="M529.4 28.2293H516.85V22.4097H529.4V28.2293ZM517.523 27.5827H528.806V23.0431H517.523V27.5827Z" fill="#C7C7C7"/>
<path d="M525.929 23.3994H517.84V27.2396H525.929V23.3994Z" fill="#C7C7C7"/>
<path d="M530.482 23.7559H529.36V26.8702H530.482V23.7559Z" fill="#C7C7C7"/>
<path d="M442.686 19.7046H418.246C417.844 19.7046 417.458 19.5447 417.173 19.2601C416.888 18.9755 416.729 18.5895 416.729 18.187C416.732 17.7868 416.893 17.4042 417.178 17.1224C417.462 16.8407 417.846 16.6826 418.246 16.6826H442.686C443.086 16.6826 443.47 16.8407 443.754 17.1224C444.039 17.4042 444.2 17.7868 444.204 18.187C444.204 18.5895 444.044 18.9755 443.759 19.2601C443.474 19.5447 443.088 19.7046 442.686 19.7046Z" fill="white"/>
<path d="M344.372 450.781H343.237V456.006H341.099V453.354H337.338V456.006H335.214V450.781H334.079L339.225 445.462L344.372 450.781Z" fill="#EBEBEB"/>
<path d="M528.687 445.462H516.282V447.231H528.687V445.462Z" fill="#EBEBEB"/>
<path d="M528.687 449.856H516.282V451.625H528.687V449.856Z" fill="#EBEBEB"/>
<path d="M528.687 454.238H516.282V456.006H528.687V454.238Z" fill="#EBEBEB"/>
<path d="M435.032 450.926L431.508 454.687L427.972 450.926L428.605 450.332L431.508 453.433L434.412 450.332L435.032 450.926Z" fill="#EBEBEB"/>
<path d="M431.508 458.579C430.239 458.582 428.998 458.208 427.942 457.505C426.885 456.802 426.061 455.801 425.574 454.629C425.086 453.458 424.957 452.168 425.203 450.923C425.449 449.678 426.059 448.534 426.955 447.636C427.852 446.737 428.995 446.125 430.239 445.877C431.483 445.628 432.774 445.754 433.946 446.239C435.119 446.724 436.121 447.546 436.827 448.601C437.532 449.656 437.909 450.897 437.909 452.166C437.905 453.864 437.23 455.491 436.031 456.692C434.832 457.894 433.206 458.572 431.508 458.579ZM431.508 446.61C430.406 446.608 429.327 446.932 428.409 447.543C427.492 448.154 426.776 449.024 426.353 450.042C425.929 451.06 425.818 452.181 426.033 453.262C426.247 454.344 426.778 455.337 427.557 456.117C428.337 456.897 429.33 457.427 430.412 457.642C431.493 457.856 432.614 457.745 433.632 457.322C434.65 456.898 435.52 456.183 436.131 455.265C436.742 454.347 437.067 453.268 437.064 452.166C437.06 450.694 436.474 449.282 435.433 448.241C434.392 447.2 432.981 446.614 431.508 446.61Z" fill="#EBEBEB"/>
<path d="M534.494 45.3057H326.438V106.036H534.494V45.3057Z" fill="#FF9705"/>
<path d="M338.275 64.8231L331.4 58.3701L338.275 51.9302L339.344 53.0651L333.683 58.3701L339.344 63.675L338.275 64.8231Z" fill="white"/>
<path d="M529.545 54.3587C529.545 54.6197 529.468 54.8748 529.323 55.0919C529.178 55.3089 528.972 55.478 528.73 55.5779C528.489 55.6778 528.224 55.7039 527.968 55.653C527.712 55.6021 527.477 55.4764 527.292 55.2918C527.108 55.1073 526.982 54.8721 526.931 54.6162C526.88 54.3602 526.906 54.0948 527.006 53.8537C527.106 53.6126 527.275 53.4065 527.492 53.2615C527.709 53.1165 527.964 53.0391 528.225 53.0391C528.575 53.0391 528.911 53.1781 529.159 53.4256C529.406 53.6731 529.545 54.0087 529.545 54.3587Z" fill="white"/>
<path d="M529.545 59.1751C529.545 59.4361 529.468 59.6913 529.323 59.9083C529.178 60.1253 528.972 60.2944 528.73 60.3943C528.489 60.4942 528.224 60.5203 527.968 60.4694C527.712 60.4185 527.477 60.2928 527.292 60.1082C527.108 59.9237 526.982 59.6885 526.931 59.4326C526.88 59.1766 526.906 58.9112 527.006 58.6701C527.106 58.429 527.275 58.2229 527.492 58.0779C527.709 57.9329 527.964 57.8555 528.225 57.8555C528.575 57.8555 528.911 57.9945 529.159 58.242C529.406 58.4895 529.545 58.8251 529.545 59.1751Z" fill="white"/>
<path d="M529.545 63.9788C529.545 64.2398 529.468 64.495 529.323 64.712C529.178 64.929 528.972 65.0981 528.73 65.198C528.489 65.2979 528.224 65.324 527.968 65.2731C527.712 65.2222 527.477 65.0965 527.292 64.912C527.108 64.7274 526.982 64.4923 526.931 64.2363C526.88 63.9803 526.906 63.715 527.006 63.4738C527.106 63.2327 527.275 63.0266 527.492 62.8816C527.709 62.7366 527.964 62.6592 528.225 62.6592C528.575 62.6592 528.911 62.7982 529.159 63.0457C529.406 63.2932 529.545 63.6288 529.545 63.9788Z" fill="white"/>
<path d="M348.727 58.3706C372.665 57.4865 396.775 57.4865 420.727 58.3706C396.775 59.2548 372.665 59.2548 348.727 58.3706Z" fill="white"/>
<path d="M348.727 64.8232C364.893 64.3877 382.682 64.3877 398.874 64.8232C382.708 65.2587 364.919 65.2455 348.727 64.8232Z" fill="white"/>
<path d="M372.533 87.0065C409.642 86.5974 451.277 86.5974 488.372 87.0065C451.277 87.4156 409.642 87.4156 372.533 87.0065Z" fill="white"/>
<path d="M335.913 155.932C368.746 155.694 401.592 155.747 434.425 155.655C467.258 155.562 500.104 155.655 532.95 155.932C500.104 156.156 467.271 156.103 434.425 156.196C401.579 156.288 368.746 156.156 335.913 155.932Z" fill="#455A64"/>
<path d="M335.913 178.062C368.746 177.838 401.592 177.891 434.425 177.799C467.258 177.706 500.104 177.799 532.95 178.062C500.104 178.3 467.271 178.247 434.425 178.34C401.579 178.432 368.746 178.353 335.913 178.062Z" fill="#455A64"/>
<path d="M335.913 200.311C368.746 200.087 401.592 200.14 434.425 200.048C467.258 199.955 500.104 200.048 532.95 200.311C500.104 200.549 467.271 200.496 434.425 200.589C401.579 200.681 368.746 200.496 335.913 200.311Z" fill="#455A64"/>
<path d="M335.913 222.508C368.746 222.284 401.592 222.337 434.425 222.244C467.258 222.152 500.104 222.244 532.95 222.508C500.104 222.746 467.271 222.68 434.425 222.785C401.592 222.68 368.746 222.746 335.913 222.508Z" fill="#455A64"/>
<path d="M335.913 244.704C368.746 244.467 401.592 244.532 434.425 244.44C467.258 244.348 500.104 244.44 532.95 244.704C500.104 244.942 467.271 244.876 434.425 244.981C401.592 244.876 368.746 244.942 335.913 244.704Z" fill="#455A64"/>
<path d="M375.582 141.495C375.872 162.239 375.793 182.971 375.925 203.716C375.806 224.448 375.925 245.193 375.582 265.924C375.292 245.193 375.371 224.448 375.252 203.716C375.371 182.971 375.292 162.226 375.582 141.495Z" fill="#455A64"/>
<path d="M409.655 141.495C409.945 162.239 409.866 182.971 409.998 203.716C409.866 224.448 409.998 245.193 409.655 265.924C409.365 245.193 409.444 224.448 409.325 203.716C409.444 182.971 409.312 162.226 409.655 141.495Z" fill="#455A64"/>
<path d="M443.728 141.495C444.019 162.239 443.939 182.971 444.058 203.716C443.939 224.448 444.058 245.193 443.728 265.924C443.438 245.193 443.517 224.448 443.385 203.716C443.517 182.971 443.438 162.226 443.728 141.495Z" fill="#455A64"/>
<path d="M477.802 141.495C478.092 162.239 478.013 182.971 478.131 203.716C478.013 224.448 478.131 245.193 477.802 265.924C477.511 245.193 477.577 224.448 477.458 203.716C477.59 182.971 477.511 162.226 477.802 141.495Z" fill="#455A64"/>
<path d="M511.875 141.495C512.165 162.239 512.086 182.971 512.205 203.716C512.086 224.448 512.205 245.193 511.875 265.924C511.585 245.193 511.651 224.448 511.532 203.716C511.651 182.971 511.585 162.226 511.875 141.495Z" fill="#455A64"/>
<path opacity="0.5" d="M340.875 228.605C346.893 228.605 350.482 206.065 358.994 206.065C367.505 206.065 368.416 222.508 375.582 222.508C382.747 222.508 382.536 193.621 392.17 193.621C401.803 193.621 399.573 205.339 409.655 205.339C419.737 205.339 415.91 178.062 426.467 178.062C437.024 178.062 432.749 215.566 443.728 215.566C450.683 215.566 453.362 203.69 461.662 203.69C467.152 203.69 470.385 209.641 477.564 209.641C484.743 209.641 486.313 186.732 495.287 186.732C504.261 186.732 505.277 200.285 511.875 200.285C518.473 200.285 520.835 178.088 532.989 178.088V265.898H340.875V228.605Z" fill="#FF9705"/>
<path opacity="0.3" d="M340.875 228.605C346.893 228.605 350.482 206.065 358.994 206.065C367.505 206.065 368.416 222.508 375.582 222.508C382.747 222.508 382.536 193.621 392.17 193.621C401.803 193.621 399.573 205.339 409.655 205.339C419.737 205.339 415.91 178.062 426.467 178.062C437.024 178.062 432.749 215.566 443.728 215.566C450.683 215.566 453.362 203.69 461.662 203.69C467.152 203.69 470.385 209.641 477.564 209.641C484.743 209.641 486.313 186.732 495.287 186.732C504.261 186.732 505.277 200.285 511.875 200.285C518.473 200.285 520.835 178.088 532.989 178.088V265.898H340.875V228.605Z" fill="#FF9705"/>
<path d="M340.875 229.687V227.522C342.696 227.522 345.203 222.244 347.038 218.417C350.178 211.819 353.438 204.983 358.994 204.983C364.272 204.983 366.978 209.984 369.313 214.392C371.148 217.849 373.035 221.426 375.582 221.426C377.825 221.426 379.765 214.484 381.19 209.417C383.513 201.116 385.915 192.539 392.17 192.539C397.752 192.539 399.942 195.904 401.869 198.873C403.796 201.842 405.366 204.257 409.655 204.257C413.535 204.257 415.052 197.896 416.517 191.747C418.246 184.515 420.027 177.033 426.467 177.033C432.907 177.033 434.491 186.455 436.22 196.432C437.618 204.495 439.347 214.537 443.728 214.537C446.368 214.537 448.479 212.056 450.749 209.443C453.494 206.25 456.621 202.621 461.662 202.621C464.684 202.621 467.046 204.099 469.329 205.537C471.612 206.976 474.199 208.585 477.564 208.585C480.058 208.585 482.328 203.135 484.162 198.754C486.802 192.327 489.612 185.676 495.3 185.676C500.988 185.676 503.719 190.005 506.174 193.819C507.969 196.603 509.658 199.229 511.888 199.229C513.788 199.229 515.926 195.019 517.827 191.311C521.06 184.951 525.085 177.046 532.963 177.046V179.223C526.892 179.223 523.409 186.085 520.321 192.129C517.681 197.316 515.596 201.367 511.888 201.367C508.18 201.367 505.963 198.16 503.785 194.769C501.608 191.377 499.299 187.814 495.3 187.814C491.552 187.814 488.992 193.977 486.722 199.414C484.189 205.471 482.011 210.71 477.577 210.71C473.143 210.71 470.319 208.849 467.693 207.213C465.595 205.893 463.734 204.758 461.675 204.758C458.046 204.758 455.473 207.741 452.966 210.644C450.458 213.547 447.766 216.662 443.728 216.662C437.011 216.662 435.322 206.962 433.541 196.695C432.221 188.883 430.505 179.171 426.467 179.171C422.429 179.171 420.608 186.046 419.17 192.116C417.415 199.454 415.765 206.382 409.655 206.382C403.545 206.382 401.473 202.911 399.481 199.783C397.686 197.012 396.115 194.61 392.17 194.61C388.224 194.61 385.717 203.03 383.816 209.813C381.678 217.454 379.976 223.497 375.582 223.497C371.187 223.497 369.115 219.446 366.832 215.144C364.721 211.185 362.544 207.055 358.994 207.055C355.444 207.055 352.118 213.732 349.558 219.09C346.761 225.055 344.557 229.687 340.875 229.687Z" fill="#FF9705"/>
<path opacity="0.5" d="M443.728 215.619V265.924H409.655V205.339C419.737 205.339 415.91 178.062 426.467 178.062C437.024 178.062 432.749 215.619 443.728 215.619Z" fill="#FF9705"/>
<path d="M426.454 182.813C429.435 182.813 431.851 180.396 431.851 177.415C431.851 174.435 429.435 172.018 426.454 172.018C423.473 172.018 421.057 174.435 421.057 177.415C421.057 180.396 423.473 182.813 426.454 182.813Z" fill="#263238"/>
<path d="M429.542 177.416C429.542 178.026 429.361 178.623 429.022 179.131C428.682 179.639 428.2 180.035 427.636 180.269C427.072 180.502 426.451 180.563 425.852 180.444C425.253 180.325 424.702 180.031 424.271 179.599C423.839 179.167 423.545 178.617 423.426 178.018C423.306 177.419 423.368 176.798 423.601 176.234C423.835 175.67 424.231 175.187 424.739 174.848C425.246 174.509 425.843 174.328 426.454 174.328C427.273 174.328 428.059 174.653 428.638 175.232C429.217 175.811 429.542 176.597 429.542 177.416Z" fill="#FF9705"/>
<path d="M436.18 155.417H416.596V166.344H436.18V155.417Z" fill="#FF9705"/>
<path d="M423.802 166.344H428.962L426.388 170.052L423.802 166.344Z" fill="#FF9705"/>
<path d="M420.252 159.455C424.384 159.231 428.525 159.231 432.657 159.455C428.524 159.667 424.384 159.667 420.252 159.455Z" fill="white"/>
<path d="M420.252 161.567C424.384 161.342 428.525 161.342 432.657 161.567C428.525 161.784 424.384 161.784 420.252 161.567Z" fill="white"/>
<path d="M340.875 142.841C341.099 163.361 341.284 183.869 341.297 204.389L341.509 265.924L340.875 265.423L436.906 265.542L484.928 265.647L532.95 265.924L484.928 266.201L436.906 266.307L340.875 266.439H340.242V265.924L340.453 204.389C340.466 183.869 340.69 163.361 340.875 142.841Z" fill="#455A64"/>
<path d="M351.155 275.135C355.691 274.449 360.304 274.449 364.84 275.135C360.303 275.808 355.692 275.808 351.155 275.135Z" fill="#DBDBDB"/>
<path d="M326.438 155.932C328.458 155.246 330.647 155.246 332.667 155.932C330.645 156.605 328.46 156.605 326.438 155.932Z" fill="#DBDBDB"/>
<path d="M326.438 178.062C328.46 177.389 330.645 177.389 332.667 178.062C330.647 178.748 328.458 178.748 326.438 178.062Z" fill="#DBDBDB"/>
<path d="M326.438 200.312C328.46 199.638 330.645 199.638 332.667 200.312C330.647 200.997 328.458 200.997 326.438 200.312Z" fill="#DBDBDB"/>
<path d="M326.438 222.508C328.46 221.835 330.645 221.835 332.667 222.508C330.647 223.194 328.458 223.194 326.438 222.508Z" fill="#DBDBDB"/>
<path d="M326.438 244.704C328.459 244.024 330.646 244.024 332.667 244.704C330.646 245.384 328.459 245.384 326.438 244.704Z" fill="#DBDBDB"/>
<path d="M384.727 275.135C389.258 274.449 393.867 274.449 398.399 275.135C393.866 275.808 389.259 275.808 384.727 275.135Z" fill="#DBDBDB"/>
<path d="M418.286 275.135C422.821 274.449 427.435 274.449 431.97 275.135C427.434 275.808 422.822 275.808 418.286 275.135Z" fill="#DBDBDB"/>
<path d="M451.844 275.135C456.38 274.449 460.993 274.449 465.529 275.135C460.992 275.808 456.381 275.808 451.844 275.135Z" fill="#DBDBDB"/>
<path d="M485.403 275.135C489.939 274.449 494.552 274.449 499.088 275.135C494.551 275.808 489.94 275.808 485.403 275.135Z" fill="#DBDBDB"/>
<path d="M518.975 275.135C523.51 274.449 528.124 274.449 532.659 275.135C528.123 275.808 523.511 275.808 518.975 275.135Z" fill="#DBDBDB"/>
<path d="M326.609 121.515C345.929 120.618 365.394 120.618 384.674 121.515C365.341 122.413 345.876 122.413 326.609 121.515Z" fill="#DBDBDB"/>
<path d="M326.609 127.625C339.019 126.715 351.479 126.715 363.889 127.625C351.479 128.523 339.02 128.523 326.609 127.625Z" fill="#DBDBDB"/>
<path d="M495.669 127.625C508.087 126.952 520.532 126.952 532.949 127.625C520.532 128.285 508.087 128.285 495.669 127.625Z" fill="#FF9705"/>
<path d="M327.903 295.511C347.434 294.614 367.136 294.614 386.68 295.511C367.123 296.408 347.434 296.408 327.903 295.511Z" fill="#263238"/>
<path d="M488.557 295.51C503.345 294.851 518.143 294.851 532.95 295.51C518.161 296.179 503.363 296.179 488.557 295.51Z" fill="#FF9705"/>
<path d="M367.915 313.986C383.297 313.083 398.72 313.083 414.102 313.986C398.719 314.882 383.297 314.882 367.915 313.986Z" fill="#263238"/>
<path d="M367.915 320.756C380.814 319.858 393.76 319.858 406.659 320.756C393.76 321.653 380.814 321.653 367.915 320.756Z" fill="#263238"/>
<path d="M532.949 342.517C532.488 342.068 326.979 343.836 327.454 342.517V306.464V305.962H327.955L430.426 306.068C464.645 306.147 498.863 306.068 533.095 306.279C533.095 306.398 532.897 342.332 532.949 342.477V342.517ZM532.949 342.517L532.804 306.464C499.562 307.071 464.328 306.583 430.426 306.807C430.888 306.451 325.54 307.77 328.391 306.464V342.517C325.593 341.289 533.622 342.899 533.002 342.517H532.949Z" fill="#DBDBDB"/>
<path d="M359.337 311.65H333.208V337.779H359.337V311.65Z" fill="#FF9705"/>
<path d="M526.945 324.714C526.946 327.886 525.793 330.949 523.701 333.333C521.609 335.717 518.722 337.259 515.577 337.67C512.432 338.082 509.245 337.336 506.61 335.571C503.975 333.806 502.072 331.143 501.256 328.078C500.44 325.013 500.767 321.756 502.175 318.915C503.584 316.073 505.978 313.841 508.911 312.634C511.844 311.428 515.116 311.329 518.116 312.357C521.116 313.385 523.64 315.47 525.217 318.222C526.349 320.198 526.945 322.436 526.945 324.714Z" fill="#455A64"/>
<path d="M525.217 318.222L513.881 324.714V311.65C516.181 311.651 518.441 312.26 520.431 313.414C522.421 314.568 524.072 316.226 525.217 318.222Z" fill="#FF9705"/>
<path d="M513.881 333.754C518.873 333.754 522.92 329.707 522.92 324.714C522.92 319.722 518.873 315.675 513.881 315.675C508.888 315.675 504.841 319.722 504.841 324.714C504.841 329.707 508.888 333.754 513.881 333.754Z" fill="white"/>
<path d="M367.915 360.318C383.297 359.423 398.719 359.423 414.102 360.318C398.719 361.214 383.297 361.214 367.915 360.318Z" fill="#263238"/>
<path d="M367.915 367.115C380.814 366.218 393.76 366.218 406.659 367.115C393.76 368.012 380.814 368.012 367.915 367.115Z" fill="#263238"/>
<path d="M532.949 388.876C532.488 388.427 326.979 390.195 327.454 388.876V352.823V352.321H327.955L430.479 352.466C464.697 352.546 498.916 352.466 533.147 352.678C533.147 352.796 532.949 388.73 533.002 388.876H532.949ZM532.949 388.876L532.804 352.823C499.562 353.43 464.328 352.942 430.426 353.166C430.888 352.81 325.54 354.129 328.391 352.823V388.876C325.593 387.648 533.622 389.258 533.002 388.876H532.949Z" fill="#DBDBDB"/>
<path d="M359.337 358.009H333.208V384.138H359.337V358.009Z" fill="#455A64"/>
<path d="M526.945 371.074C526.946 374.245 525.793 377.309 523.701 379.692C521.609 382.076 518.722 383.618 515.577 384.03C512.432 384.441 509.245 383.695 506.61 381.93C503.975 380.165 502.072 377.502 501.256 374.437C500.44 371.372 500.767 368.116 502.175 365.274C503.584 362.432 505.978 360.2 508.911 358.994C511.844 357.787 515.116 357.689 518.116 358.717C521.116 359.745 523.64 361.829 525.217 364.581C526.349 366.557 526.945 368.796 526.945 371.074Z" fill="#455A64"/>
<path d="M526.945 371.074C526.944 371.714 526.895 372.354 526.8 372.987L513.881 371.074V358.009C517.346 358.009 520.669 359.386 523.119 361.836C525.569 364.286 526.945 367.609 526.945 371.074Z" fill="#FF9705"/>
<path d="M522.907 371.074C522.91 372.863 522.382 374.612 521.389 376.101C520.397 377.589 518.985 378.75 517.333 379.436C515.681 380.122 513.862 380.302 512.107 379.953C510.353 379.605 508.741 378.744 507.476 377.479C506.211 376.214 505.35 374.602 505.001 372.847C504.653 371.092 504.833 369.274 505.519 367.622C506.205 365.969 507.365 364.558 508.854 363.565C510.342 362.573 512.092 362.045 513.881 362.047C516.274 362.051 518.568 363.003 520.26 364.695C521.952 366.387 522.904 368.681 522.907 371.074Z" fill="white"/>
<path d="M367.915 406.678C383.297 405.782 398.719 405.782 414.102 406.678C398.719 407.574 383.297 407.574 367.915 406.678Z" fill="#263238"/>
<path d="M367.915 413.474C380.814 412.576 393.76 412.576 406.659 413.474C393.76 414.371 380.814 414.371 367.915 413.474Z" fill="#263238"/>
<path d="M532.949 435.235C532.488 434.787 326.979 436.555 327.454 435.235V399.183V398.681H327.955L430.479 398.826C464.697 398.906 498.916 398.826 533.147 399.037C533.147 399.156 532.949 435.09 533.002 435.235H532.949ZM532.949 435.235L532.804 399.183C499.562 399.79 464.328 399.301 430.426 399.526C430.888 399.169 325.54 400.489 328.391 399.183V435.235C325.593 434.008 533.622 435.618 533.002 435.235H532.949Z" fill="#DBDBDB"/>
<path d="M359.337 404.369H333.208V430.498H359.337V404.369Z" fill="#FF9705"/>
<path d="M526.945 417.433C526.947 420.075 526.147 422.655 524.65 424.832C523.154 427.009 521.032 428.681 518.566 429.627C517.072 430.205 515.483 430.501 513.881 430.498C511.297 430.498 508.771 429.731 506.623 428.296C504.474 426.86 502.8 424.82 501.811 422.433C500.822 420.045 500.563 417.419 501.067 414.884C501.572 412.35 502.816 410.022 504.643 408.195C506.47 406.368 508.798 405.124 511.332 404.62C513.866 404.116 516.493 404.374 518.881 405.363C521.268 406.352 523.308 408.026 524.744 410.175C526.179 412.323 526.945 414.849 526.945 417.433Z" fill="#455A64"/>
<path d="M526.945 417.433C526.947 420.075 526.146 422.655 524.65 424.832C523.154 427.009 521.032 428.681 518.566 429.627L513.881 417.433V404.369C517.346 404.369 520.669 405.745 523.119 408.195C525.569 410.645 526.945 413.968 526.945 417.433Z" fill="#FF9705"/>
<path d="M522.907 417.433C522.91 419.222 522.382 420.971 521.389 422.46C520.397 423.948 518.985 425.109 517.333 425.795C515.681 426.481 513.862 426.661 512.107 426.312C510.353 425.964 508.741 425.103 507.476 423.838C506.211 422.573 505.35 420.961 505.001 419.206C504.653 417.451 504.833 415.633 505.519 413.98C506.205 412.328 507.365 410.916 508.854 409.924C510.342 408.932 512.092 408.404 513.881 408.406C516.274 408.41 518.568 409.362 520.26 411.054C521.952 412.746 522.904 415.04 522.907 417.433Z" fill="white"/>
<path d="M553.154 422.553C536.843 444.657 519.819 470.298 515.676 498.024C515.666 498.071 515.666 498.121 515.675 498.168C515.685 498.216 515.704 498.261 515.731 498.302C515.758 498.342 515.792 498.377 515.833 498.404C515.873 498.431 515.918 498.45 515.966 498.459C516.014 498.469 516.063 498.469 516.11 498.459C516.158 498.45 516.203 498.431 516.244 498.404C516.284 498.377 516.319 498.343 516.346 498.302C516.373 498.262 516.392 498.217 516.401 498.169C518.275 490.609 520.682 483.191 523.607 475.973C534.335 473.017 544.879 470.588 550.501 459.939C556.255 448.999 555.529 434.72 554.46 422.791C554.315 422.197 553.444 422.197 553.154 422.553Z" fill="#1F820E"/>
<path d="M523.739 475.761C531.063 459.305 540.485 442.77 552.441 429.257C552.52 429.165 552.652 429.257 552.573 429.389C544.734 439.022 538.783 449.527 532.976 460.203C538.387 454.713 544.299 449.804 549.419 443.984C549.525 443.866 549.683 443.984 549.591 444.143C544.497 450.239 538.954 456.877 532.33 461.39C530.548 464.663 528.767 467.989 526.946 471.235C527.394 470.984 527.856 470.76 528.265 470.536C528.344 470.536 528.424 470.615 528.344 470.654C527.83 470.918 527.328 471.182 526.814 471.407C525.956 472.964 525.098 474.521 524.174 476.065C524.122 476.408 523.581 476.105 523.739 475.761Z" fill="#263238"/>
<path d="M529.189 470.021C533.576 467.565 537.764 464.767 541.712 461.654C541.818 461.575 541.976 461.72 541.871 461.813C538.045 465.12 533.852 467.976 529.374 470.324C529.354 470.336 529.331 470.344 529.308 470.348C529.285 470.352 529.262 470.351 529.239 470.345C529.217 470.34 529.195 470.33 529.176 470.316C529.157 470.302 529.142 470.285 529.129 470.265C529.117 470.245 529.109 470.223 529.106 470.2C529.102 470.177 529.103 470.153 529.109 470.13C529.114 470.108 529.124 470.086 529.138 470.068C529.152 470.049 529.169 470.033 529.189 470.021Z" fill="#263238"/>
<path d="M513.749 493.907C513.749 494.236 514.356 494.236 514.343 493.907C514.435 484.775 514.343 475.603 514.488 466.431C516.824 461.72 521.852 459.107 525.336 455.32C527.848 452.561 530.032 449.518 531.841 446.254C536.055 438.465 538.628 429.896 539.403 421.075C540.366 411.31 536.658 379.097 532.541 380.166C530.403 380.734 523.501 396.701 521.667 401.98C518.697 410.704 516.524 419.679 515.174 428.795C511.836 450.226 512.113 472.343 513.749 493.907Z" fill="#1F820E"/>
<path d="M513.683 454.528C514.184 442.981 516.784 431.316 519.225 420.112C521.865 408.05 524.913 396.688 531.102 385.92C531.208 385.722 531.511 385.92 531.406 386.104C527.265 394.476 524.061 403.278 521.851 412.352C522.26 411.692 522.762 411.033 523.171 410.465C523.343 410.228 523.738 410.465 523.58 410.703C523.022 411.676 522.368 412.591 521.627 413.434C521.615 413.44 521.601 413.443 521.587 413.443C521.574 413.443 521.56 413.44 521.548 413.434C519.41 422.065 517.879 430.88 516.573 439.682C516.665 439.577 516.758 439.458 516.863 439.352C516.969 439.247 517.035 439.352 516.995 439.445C516.837 439.748 516.652 440.025 516.467 440.329C515.807 444.789 515.148 449.25 514.58 453.67C522.498 446.874 529.321 438.851 533.161 428.98C533.161 428.98 533.253 428.98 533.227 428.98C529.479 439.22 523.567 448.326 514.448 454.541C514.29 455.729 514.118 456.917 513.947 458.104C513.947 458.342 513.524 458.289 513.524 458.038C513.524 456.996 513.524 455.94 513.617 454.884C513.597 454.857 513.583 454.826 513.576 454.793C513.568 454.76 513.568 454.726 513.574 454.692C513.58 454.659 513.593 454.627 513.611 454.599C513.63 454.571 513.654 454.547 513.683 454.528Z" fill="#263238"/>
<path d="M517.431 437.795C523.514 428.716 529.189 419.914 533.636 409.885C533.647 409.859 533.667 409.838 533.693 409.826C533.719 409.815 533.748 409.815 533.775 409.825C533.801 409.836 533.822 409.856 533.833 409.882C533.844 409.908 533.845 409.938 533.834 409.964C530.086 419.927 524.834 430.023 517.734 438.033C517.7 438.061 517.656 438.076 517.612 438.076C517.567 438.077 517.524 438.062 517.489 438.034C517.453 438.007 517.429 437.968 517.418 437.925C517.408 437.882 517.412 437.836 517.431 437.795Z" fill="#263238"/>
<path d="M525.507 407.681C528.028 403.22 530.68 398.892 533.056 394.352C533.122 394.22 533.293 394.352 533.24 394.458C531.295 399.198 528.83 403.708 525.89 407.905C525.856 407.947 525.809 407.975 525.756 407.985C525.703 407.994 525.648 407.984 525.602 407.957C525.556 407.93 525.521 407.887 525.503 407.837C525.486 407.786 525.487 407.731 525.507 407.681Z" fill="#263238"/>
<path d="M524.517 409.581V409.66C524.517 409.66 524.478 409.581 524.517 409.581Z" fill="#263238"/>
<path d="M507.573 467.5C507.448 473.569 506.732 479.61 505.435 485.54C505.528 486.186 505.62 486.859 505.726 487.506C507.588 480.976 508.664 474.246 508.932 467.461C508.988 467.367 509.018 467.26 509.018 467.151C509.018 467.041 508.988 466.934 508.932 466.84C509.212 457.722 508.553 448.599 506.966 439.616C504.142 422.83 497.966 406.73 486.261 394.167C486.164 394.078 486.048 394.013 485.922 393.978C485.796 393.942 485.662 393.937 485.534 393.963C485.405 393.989 485.284 394.045 485.181 394.126C485.078 394.207 484.996 394.312 484.941 394.431C480.217 406.44 481.866 420.824 485.891 432.701C488.064 439.186 491.177 445.317 495.129 450.899C499.193 456.574 504.327 461.337 507.573 467.5Z" fill="#1F820E"/>
<path d="M487.633 399.763C498.718 417.763 506.438 439.101 507.428 460.361C507.428 460.73 506.807 460.836 506.755 460.44C506.491 458.54 506.2 456.64 505.897 454.752C501.305 450.358 496.593 445.726 493.307 440.236C493.307 440.131 493.4 440.025 493.466 440.104C497.262 444.778 501.329 449.224 505.646 453.42C504.854 448.722 503.909 444.094 502.809 439.537C502.505 439.207 502.215 438.851 501.925 438.508C501.634 438.164 502.057 437.953 502.255 438.178L502.519 438.481C500.961 432.233 499.027 426.086 496.725 420.072C493.901 416.707 490.747 413.791 488.689 409.739C488.689 409.647 488.768 409.568 488.834 409.647C490.483 411.969 492.093 414.305 493.967 416.456C494.706 417.314 495.538 418.119 496.303 418.95C493.731 412.425 490.679 406.1 487.171 400.027C487.039 399.763 487.461 399.512 487.633 399.763Z" fill="#263238"/>
<path d="M489.877 421.986C493.453 426.803 497.544 431.408 500.87 436.397C500.962 436.529 500.764 436.674 500.645 436.568C496.356 432.609 492.727 427.067 489.626 422.118C489.534 421.96 489.811 421.841 489.877 421.986Z" fill="#263238"/>
<path d="M501.371 437.505L501.529 437.663C501.635 437.769 501.463 437.927 501.358 437.821L501.213 437.676C501.107 437.571 501.265 437.399 501.371 437.505Z" fill="#263238"/>
<path d="M470.253 434.377C471.568 444.426 475.617 453.921 481.959 461.826C484.57 464.929 487.802 467.451 491.447 469.229C495.551 471.262 499.853 473.611 504.116 475.273C506.13 480.422 507.628 485.757 508.589 491.201C508.734 490.74 508.866 490.251 508.998 489.789C506.28 466.352 491.104 446.241 471.705 433.454C471.553 433.357 471.376 433.306 471.195 433.306C471.015 433.306 470.838 433.357 470.686 433.454C470.533 433.551 470.412 433.689 470.335 433.853C470.259 434.016 470.23 434.198 470.253 434.377Z" fill="#1F820E"/>
<path d="M476.957 441.305C476.825 441.173 476.957 440.936 477.155 441.041C487.819 448.969 496.322 459.446 501.886 471.512C502.018 471.829 501.582 472.119 501.397 471.789C500.5 470.219 499.576 468.675 498.639 467.17C494.218 466.339 490.022 463.212 486.762 460.256C486.67 460.176 486.762 460.044 486.894 460.124C488.585 461.675 490.465 463.005 492.49 464.082C494.298 464.993 496.237 465.574 498.125 466.3C496.475 463.66 494.773 461.206 492.991 458.778C488.189 456.94 483.687 454.396 479.636 451.229C479.504 451.137 479.636 450.939 479.755 451.018C483.764 453.431 487.895 455.633 492.133 457.616C489.425 454.051 486.508 450.649 483.397 447.429C481.893 446.637 480.362 445.845 478.91 444.987C478.896 444.981 478.882 444.972 478.871 444.961C478.86 444.95 478.851 444.936 478.845 444.922C478.839 444.907 478.835 444.891 478.835 444.875C478.835 444.859 478.838 444.844 478.845 444.829C478.851 444.814 478.859 444.801 478.871 444.789C478.882 444.778 478.895 444.769 478.91 444.763C478.925 444.757 478.94 444.754 478.956 444.754C478.972 444.754 478.988 444.757 479.003 444.763C480.213 445.189 481.369 445.756 482.447 446.452C480.692 444.75 478.897 443.008 476.957 441.305Z" fill="#263238"/>
<path d="M477.38 449.395C477.639 449.551 477.886 449.728 478.119 449.923C478.198 449.989 478.119 450.081 478.026 450.055C477.757 449.923 477.497 449.773 477.248 449.606C477.116 449.527 477.234 449.303 477.38 449.395Z" fill="#263238"/>
<path d="M539.284 541.955H486.116L490.405 493.537L491.355 482.861H534.045L534.995 493.537L539.284 541.955Z" fill="#455A64"/>
<path d="M534.995 493.537H490.404L491.354 482.861H534.045L534.995 493.537Z" fill="#263238"/>
<path d="M536.592 475.405H488.808V485.976H536.592V475.405Z" fill="#455A64"/>
<path d="M291.058 75.6839C291.066 84.1128 288.728 92.3777 284.307 99.5543C279.886 106.731 273.556 112.536 266.025 116.321C258.494 120.106 250.058 121.721 241.661 120.986C233.264 120.251 225.237 117.195 218.478 112.159L196.215 117.847L205.453 97.1149C202.19 91.0225 200.359 84.2662 200.101 77.3599C199.842 70.4536 201.161 63.5792 203.959 57.2596C206.757 50.94 210.959 45.3417 216.246 40.8905C221.533 36.4393 227.765 33.2525 234.469 31.5724C241.173 29.8923 248.171 29.7632 254.933 31.1949C261.694 32.6267 268.04 35.5815 273.487 39.8347C278.934 44.0879 283.34 49.5274 286.369 55.7395C289.398 61.9516 290.97 68.7727 290.966 75.6839H291.058Z" fill="white"/>
<path d="M291.058 75.6839C291.056 84.1371 288.711 92.4243 284.284 99.6254C279.856 106.827 273.52 112.66 265.978 116.478C258.437 120.296 249.984 121.949 241.56 121.255C233.135 120.56 225.068 117.544 218.253 112.542L218.649 112.621L196.413 118.401L195.252 118.704L195.74 117.609L204.978 96.851V97.4185C201.649 91.2543 199.797 84.4013 199.567 77.3994C198.617 56.1267 213.701 36.0549 234.472 31.2909C262.857 24.0329 291.309 46.4405 291.058 75.6839ZM291.058 75.6839C291.151 46.5329 262.871 24.4156 234.657 31.9904C214.532 36.8599 199.765 56.7206 200.808 77.3466C201.078 84.1497 202.883 90.8037 206.086 96.8114L206.231 97.0886L206.113 97.3789L196.849 118.084L196.189 117.279L218.478 111.71H218.689C225.386 116.782 233.365 119.886 241.73 120.671C250.094 121.457 258.512 119.894 266.036 116.158C273.561 112.421 279.894 106.66 284.324 99.5219C288.753 92.3835 291.104 84.151 291.111 75.7499L291.058 75.6839Z" fill="#263238"/>
<path d="M238.246 102.723L217.884 82.0971L224.72 75.3405L236.623 87.3889L261.34 48.6309L269.442 53.8039L238.246 102.723Z" fill="#FF9705"/>
<path d="M221.922 246.024C225.234 245.54 228.338 244.121 230.871 241.934C233.403 239.747 235.259 236.882 236.219 233.676C237.18 230.47 237.205 227.057 236.293 223.837C235.38 220.618 233.567 217.725 231.067 215.501C238.062 213.785 244 208.81 244.422 200.985C244.871 192.869 239.012 186.706 231.358 185.149C231.358 185.149 231.279 185.228 231.358 185.254C238.154 187.445 243.67 193.397 243.155 200.879C242.72 207.279 238.629 211.199 233.416 213.336C235.446 211.609 237.099 209.483 238.272 207.09C239.446 204.698 240.115 202.089 240.239 199.427C240.284 196.451 239.446 193.529 237.83 191.029C236.214 188.53 233.892 186.566 231.16 185.386C233.878 179.158 234.617 171.556 231.054 165.486C229.609 162.943 227.453 160.876 224.852 159.538C222.251 158.2 219.316 157.648 216.406 157.951C217.183 154.752 217.005 151.395 215.893 148.296C214.781 145.197 212.784 142.493 210.15 140.518C207.516 138.543 204.361 137.384 201.075 137.184C197.788 136.985 194.516 137.754 191.663 139.397C191.99 137.044 191.719 134.647 190.874 132.427C190.028 130.207 188.637 128.236 186.828 126.696C185.019 125.157 182.851 124.099 180.524 123.62C178.197 123.141 175.788 123.257 173.518 123.957C173.416 122.138 172.794 120.387 171.724 118.913C170.655 117.439 169.184 116.304 167.487 115.643C163.528 113.954 159.173 114.878 155.306 116.448C154.223 114.885 152.765 113.619 151.066 112.766C149.367 111.913 147.481 111.5 145.581 111.565C143.136 111.733 140.832 112.766 139.079 114.477C137.326 116.189 136.239 118.469 136.013 120.908C129.415 119.312 122.025 118.507 115.849 121.832C110.768 124.577 106.955 130.08 107.641 135.939C104.769 135.635 101.864 135.943 99.12 136.843C96.3756 137.743 93.8533 139.216 91.7196 141.162C89.5858 143.109 87.8892 145.486 86.7415 148.136C85.5938 150.787 85.0213 153.651 85.0616 156.539C82.5924 157.024 80.2942 158.151 78.3973 159.804C76.5004 161.458 75.0715 163.581 74.2537 165.961C72.9888 169.189 72.5357 172.678 72.9341 176.122C70.7527 176.715 68.8136 177.981 67.3923 179.738C65.9709 181.496 65.1395 183.657 65.0162 185.914C64.7391 190.427 66.9429 194.043 69.9781 197.012C70.2506 198.207 70.2506 199.447 69.9781 200.641C69.3284 203.664 69.4393 206.8 70.3007 209.769C71.1621 212.738 72.7471 215.446 74.9135 217.652C74.0486 219.244 73.5329 221.002 73.4009 222.809C73.2689 224.616 73.5236 226.43 74.1479 228.131C74.7723 229.831 75.752 231.38 77.0218 232.672C78.2916 233.964 79.8223 234.971 81.5118 235.625C80.7935 239.318 81.556 243.145 83.6349 246.281C85.7137 249.416 88.9421 251.609 92.6232 252.385C92.2664 255.358 92.5531 258.374 93.4639 261.227C94.3746 264.079 95.8881 266.703 97.9018 268.92C101.082 272.325 106.084 274.753 110.544 273.011C110.465 276.679 114.199 279.279 117.749 279.609C119.099 279.686 120.454 279.611 121.787 279.385C123.358 279.147 125.324 278.435 126.908 278.778C128.491 279.121 129.719 280.691 130.999 281.655C131.924 282.346 132.919 282.939 133.968 283.423C137.92 285.155 142.344 285.488 146.511 284.368C150.678 283.247 154.339 280.74 156.89 277.26C161.852 280.955 168.477 279.583 173.597 276.653C175.229 275.659 176.774 274.529 178.216 273.275C179.437 272.076 181 271.283 182.689 271.005C183.798 270.873 184.946 271.005 186.067 270.873C189.868 270.464 192.441 267.838 194.672 264.974C208.343 274.304 223.677 261.094 221.922 246.024ZM66.4942 188.065C66.2769 185.719 66.7954 183.363 67.9778 181.324C69.1602 179.286 70.9477 177.666 73.0924 176.69C73.0924 177.046 73.2244 177.27 73.2244 177.27C73.2244 177.27 72.0499 178.313 71.5352 178.88C70.6149 179.929 69.8545 181.107 69.2787 182.377C68.0476 185.034 67.6342 187.997 68.091 190.889C68.3233 192.164 68.7134 193.405 69.2523 194.584C69.2523 194.743 69.3578 194.888 69.4238 195.033C67.8204 193.027 66.8061 190.614 66.4942 188.065ZM147.771 114.719C145.536 114.56 143.306 115.091 141.383 116.24C139.459 117.39 137.935 119.102 137.016 121.146L136.66 121.053C137.887 116.54 140.249 112.753 145.66 112.515C147.33 112.46 148.986 112.843 150.461 113.628C151.936 114.414 153.179 115.572 154.066 116.989H154C152.178 115.663 150.019 114.876 147.771 114.719ZM195.12 264.367C195.154 264.325 195.185 264.281 195.213 264.235C200.055 265.921 205.364 265.655 210.013 263.491C214.662 261.328 218.285 257.439 220.114 252.649C216.815 263.523 207.67 271.005 195.12 264.367Z" fill="#263238"/>
<path d="M153.432 325.612C180.169 382.819 225.485 460.216 246.283 463.476C258.846 465.429 280.092 467.131 296.231 451.915C331.466 418.726 355.616 371.311 368.997 346.964C375.067 335.905 307.145 286.709 298.607 297.147C278.588 321.561 256.009 368.883 252.3 368.738C238.602 368.184 218.28 334.836 185.091 303.917C145.119 266.65 142.018 301.172 153.432 325.612Z" fill="#AD6359"/>
<path d="M359.31 362.444C376.096 344.536 398.134 317.853 398.187 306.623C398.187 294.851 396.775 253.414 393.331 243.9C389.887 234.385 371.451 209.84 362.979 206.606C356.209 203.967 352.593 212.386 360.458 227.589C369.261 244.586 366.568 251.448 366.978 256.898C367.4 262.546 357.938 286.564 350.007 288.57C345.322 289.771 335.61 289.718 333.406 281.272C331.202 272.826 333.406 265.199 330.146 250.471C327.586 239.017 318.019 231.904 314.073 233.91C310.127 235.916 313.4 242.765 310.8 259.92C309.177 270.623 307.593 278.303 294.832 293.941C283.668 307.625 282.956 326.576 282.956 326.576L359.31 362.444Z" fill="#AD6359"/>
<path d="M398.966 280.217C398.504 273.763 402.925 254.206 401.394 245.681C399.863 237.156 389.86 205.775 380.28 203.215C368.284 200.008 371.847 225.517 374.394 236.457C376.941 247.397 369.947 267.112 369.947 267.112L386.456 274.133L398.966 280.217Z" fill="#AD6359"/>
<path d="M367.585 271.612C370.541 261.688 374.183 251.606 374.355 241.181C373.84 233.712 372.349 226.361 371.993 218.839C371.887 214.379 371.61 209.509 373.866 205.471C374.25 204.808 374.78 204.241 375.416 203.814C376.052 203.386 376.776 203.109 377.535 203.003C376.815 203.171 376.141 203.494 375.56 203.95C374.978 204.406 374.504 204.984 374.17 205.643C372.283 209.707 372.732 214.392 373.009 218.773C373.51 224.712 374.487 230.65 375.252 236.602C376.796 248.703 371.887 260.54 367.585 271.612Z" fill="#263238"/>
<path d="M398.411 285.838C399.731 279.556 409.351 262.19 410.288 253.612C411.225 245.034 410.368 212.241 402.001 207.028C391.444 200.43 387.828 225.833 387.234 237.011C386.64 248.188 374.513 264.934 374.513 264.934L388.263 276.415L398.411 285.838Z" fill="#AD6359"/>
<path d="M370.963 268.524C376.532 259.92 382.84 251.369 385.809 241.445C387.392 234.2 388 226.783 389.768 219.525C390.903 215.25 391.972 210.525 395.244 207.319C395.793 206.791 396.456 206.398 397.181 206.169C397.907 205.94 398.676 205.882 399.428 205.999C398.694 205.942 397.957 206.052 397.272 206.319C396.587 206.586 395.97 207.005 395.469 207.543C392.552 210.895 391.681 215.461 390.731 219.71C389.57 225.517 388.87 231.402 387.947 237.301C386.099 249.244 378.129 259.194 370.963 268.498V268.524Z" fill="#263238"/>
<path d="M373.22 283.634C365.513 290.021 354.745 292.397 344.979 293.043C337.517 293.312 330.201 295.194 323.535 298.56C321.306 299.681 319.143 300.928 317.056 302.294C324.945 295.864 334.705 292.16 344.874 291.737C354.679 291.051 364.867 289.098 373.207 283.621L373.22 283.634Z" fill="#263238"/>
<path d="M397.594 210.024L362.676 304.616C362.174 305.906 361.245 306.984 360.044 307.671C358.843 308.358 357.443 308.612 356.078 308.391L308.636 298.942C308.025 298.832 307.448 298.585 306.946 298.22C306.444 297.855 306.031 297.382 305.737 296.835C305.444 296.288 305.279 295.682 305.253 295.062C305.227 294.442 305.341 293.824 305.588 293.254L340.506 198.675C340.999 197.379 341.926 196.293 343.128 195.603C344.331 194.913 345.736 194.66 347.104 194.888L394.545 204.336C395.156 204.446 395.734 204.693 396.236 205.058C396.738 205.423 397.151 205.897 397.444 206.443C397.737 206.99 397.903 207.597 397.929 208.217C397.955 208.837 397.84 209.455 397.594 210.024Z" fill="#37474F"/>
<path d="M391.629 203.756L344.122 194.32C342.755 194.091 341.352 194.342 340.149 195.03C338.947 195.718 338.019 196.801 337.523 198.094L302.605 292.673C302.359 293.243 302.244 293.861 302.27 294.481C302.296 295.101 302.462 295.707 302.755 296.254C303.048 296.801 303.461 297.275 303.963 297.64C304.465 298.004 305.043 298.251 305.654 298.361L353.161 307.81C354.527 308.036 355.93 307.784 357.132 307.096C358.334 306.409 359.262 305.328 359.759 304.036L394.677 209.457C394.926 208.886 395.043 208.267 395.018 207.645C394.993 207.024 394.828 206.416 394.535 205.867C394.242 205.319 393.828 204.843 393.324 204.478C392.821 204.112 392.241 203.865 391.629 203.756ZM357.846 300.512C357.421 301.709 356.599 302.724 355.515 303.387C354.432 304.05 353.153 304.321 351.894 304.154L309.441 295.709C308.88 295.587 308.354 295.34 307.901 294.987C307.449 294.633 307.082 294.182 306.828 293.667C306.575 293.152 306.44 292.586 306.436 292.012C306.431 291.438 306.556 290.87 306.802 290.351L339.371 202.278C341.245 197.197 343.33 197.342 345.639 197.817L354.138 199.506C354.639 199.599 354.837 200.232 354.586 200.905L354.481 201.196C353.9 202.766 354.784 202.951 355.88 203.175L375.542 207.134C376.651 207.345 377.535 207.517 378.182 205.946L378.287 205.656C378.538 204.97 379.132 204.508 379.607 204.613L388.105 206.303C390.481 206.778 392.157 207.833 390.441 212.479L357.846 300.512Z" fill="#263238"/>
<path d="M390.362 212.439L357.846 300.513C357.421 301.71 356.598 302.725 355.515 303.388C354.432 304.051 353.153 304.322 351.894 304.155L309.441 295.709C308.88 295.587 308.353 295.34 307.901 294.987C307.449 294.633 307.082 294.182 306.828 293.667C306.574 293.152 306.44 292.586 306.436 292.012C306.431 291.438 306.556 290.87 306.802 290.351L339.371 202.278C341.245 197.197 343.33 197.342 345.639 197.818L354.137 199.507C354.639 199.599 354.837 200.233 354.586 200.906L354.481 201.196C353.9 202.766 354.784 202.951 355.879 203.175L375.542 207.134C376.651 207.345 377.535 207.517 378.181 205.947L378.287 205.656C378.538 204.97 379.132 204.508 379.607 204.614L388.105 206.303C390.401 206.738 392.077 207.794 390.362 212.439Z" fill="white"/>
<path d="M351.894 201.196H351.775C351.708 201.07 351.612 200.962 351.495 200.879C351.378 200.797 351.244 200.742 351.102 200.721C350.79 200.67 350.469 200.726 350.192 200.879V200.787L350.324 200.708L350.627 200.615C350.746 200.602 350.865 200.602 350.984 200.615H351.287H351.393C351.486 200.641 351.575 200.681 351.657 200.734L351.828 200.866C351.879 200.917 351.924 200.975 351.96 201.037L352.026 201.13L351.894 201.196Z" fill="#C7C7C7"/>
<path d="M350.297 201.275L350.218 201.13C350.404 201.015 350.62 200.96 350.838 200.972C350.981 200.977 351.12 201.019 351.243 201.093C351.365 201.167 351.467 201.27 351.538 201.394L351.366 201.486C351.318 201.402 351.251 201.33 351.171 201.275C351.092 201.221 351 201.185 350.904 201.17C350.696 201.133 350.481 201.171 350.297 201.275Z" fill="#C7C7C7"/>
<path d="M351.247 201.592L351.076 201.685C351.051 201.645 351.018 201.61 350.98 201.583C350.941 201.556 350.897 201.536 350.851 201.526C350.749 201.488 350.637 201.488 350.535 201.526L350.456 201.381C350.52 201.339 350.593 201.312 350.67 201.3C350.746 201.288 350.824 201.292 350.898 201.312C350.973 201.332 351.042 201.367 351.102 201.415C351.162 201.463 351.212 201.524 351.247 201.592Z" fill="#C7C7C7"/>
<path d="M350.812 201.816C350.798 201.845 350.775 201.868 350.746 201.883C350.717 201.897 350.685 201.901 350.653 201.895C350.639 201.892 350.626 201.886 350.614 201.878C350.603 201.87 350.593 201.859 350.585 201.847C350.578 201.834 350.573 201.82 350.571 201.806C350.569 201.792 350.57 201.777 350.574 201.763C350.588 201.734 350.61 201.709 350.639 201.692C350.667 201.675 350.7 201.668 350.733 201.671C350.748 201.674 350.763 201.68 350.776 201.689C350.789 201.699 350.8 201.711 350.807 201.725C350.815 201.738 350.819 201.754 350.82 201.77C350.821 201.786 350.818 201.802 350.812 201.816Z" fill="#C7C7C7"/>
<path d="M343.792 199.836C343.829 199.748 343.894 199.673 343.978 199.626C344.061 199.578 344.158 199.559 344.254 199.572C344.296 199.581 344.335 199.599 344.37 199.624C344.404 199.65 344.432 199.683 344.453 199.721C344.473 199.758 344.484 199.8 344.487 199.843C344.489 199.886 344.481 199.929 344.465 199.968C344.432 200.06 344.367 200.137 344.283 200.186C344.198 200.234 344.099 200.251 344.003 200.232C343.961 200.224 343.921 200.206 343.887 200.181C343.852 200.155 343.824 200.122 343.804 200.084C343.784 200.046 343.772 200.005 343.77 199.962C343.768 199.919 343.775 199.876 343.792 199.836Z" fill="#C7C7C7"/>
<path d="M344.861 200.048C344.896 199.958 344.961 199.882 345.045 199.834C345.129 199.786 345.227 199.768 345.322 199.784C345.365 199.792 345.404 199.81 345.439 199.836C345.473 199.861 345.501 199.894 345.522 199.932C345.542 199.97 345.553 200.012 345.555 200.054C345.557 200.097 345.55 200.14 345.534 200.18C345.499 200.27 345.434 200.346 345.349 200.394C345.265 200.442 345.167 200.459 345.072 200.444C345.03 200.435 344.99 200.418 344.956 200.392C344.921 200.366 344.893 200.333 344.873 200.296C344.852 200.258 344.841 200.216 344.839 200.173C344.837 200.13 344.844 200.087 344.861 200.048Z" fill="#C7C7C7"/>
<path d="M345.969 200.259C346.005 200.172 346.069 200.1 346.149 200.052C346.23 200.005 346.324 199.985 346.418 199.995C346.461 200.002 346.502 200.018 346.538 200.043C346.574 200.068 346.604 200.1 346.625 200.138C346.647 200.177 346.66 200.219 346.663 200.263C346.665 200.306 346.658 200.35 346.642 200.391C346.607 200.481 346.542 200.556 346.458 200.605C346.374 200.653 346.276 200.67 346.18 200.655C346.137 200.649 346.095 200.632 346.059 200.607C346.024 200.582 345.994 200.549 345.974 200.51C345.953 200.472 345.942 200.429 345.941 200.385C345.94 200.341 345.95 200.298 345.969 200.259Z" fill="#C7C7C7"/>
<path d="M346.985 200.496C347.022 200.409 347.088 200.336 347.172 200.29C347.256 200.245 347.353 200.229 347.447 200.246C347.49 200.252 347.531 200.269 347.567 200.294C347.603 200.319 347.633 200.351 347.655 200.389C347.676 200.427 347.689 200.47 347.692 200.514C347.695 200.557 347.688 200.601 347.671 200.642C347.632 200.728 347.566 200.799 347.482 200.844C347.399 200.89 347.303 200.907 347.209 200.892C347.166 200.886 347.125 200.869 347.089 200.844C347.053 200.819 347.023 200.787 347.002 200.749C346.98 200.71 346.967 200.668 346.964 200.624C346.962 200.581 346.969 200.537 346.985 200.496Z" fill="#C7C7C7"/>
<path d="M348.054 200.681C348.091 200.593 348.157 200.521 348.241 200.475C348.325 200.429 348.422 200.414 348.516 200.43C348.559 200.436 348.6 200.452 348.636 200.477C348.672 200.503 348.702 200.536 348.722 200.574C348.743 200.613 348.754 200.656 348.755 200.7C348.756 200.743 348.746 200.787 348.727 200.826C348.69 200.914 348.624 200.987 348.54 201.032C348.456 201.078 348.359 201.093 348.265 201.077C348.223 201.068 348.183 201.051 348.149 201.025C348.114 201 348.086 200.967 348.066 200.929C348.046 200.891 348.034 200.849 348.032 200.806C348.03 200.763 348.037 200.721 348.054 200.681Z" fill="#C7C7C7"/>
<path d="M387.419 209.298L384.661 208.744L385.123 207.503L387.868 208.058L387.419 209.298ZM384.859 208.638L387.327 209.127L387.683 208.163L385.202 207.675L384.859 208.638Z" fill="#C7C7C7"/>
<path d="M387.049 208.124L385.268 207.768L384.964 208.586L386.746 208.929L387.049 208.124Z" fill="#C7C7C7"/>
<path d="M387.775 209.061L387.524 209.008L387.762 208.349L388.013 208.388L387.775 209.061Z" fill="#C7C7C7"/>
<path d="M369.076 203.69L363.705 202.621C363.664 202.614 363.624 202.598 363.589 202.574C363.555 202.55 363.526 202.518 363.506 202.481C363.486 202.444 363.474 202.403 363.472 202.361C363.47 202.319 363.477 202.277 363.494 202.238C363.531 202.153 363.595 202.082 363.676 202.037C363.757 201.991 363.851 201.974 363.943 201.987L369.314 203.056C369.355 203.063 369.395 203.079 369.429 203.103C369.464 203.127 369.492 203.159 369.513 203.196C369.533 203.233 369.545 203.274 369.547 203.316C369.549 203.358 369.541 203.4 369.525 203.439C369.49 203.526 369.426 203.598 369.345 203.644C369.263 203.689 369.168 203.705 369.076 203.69Z" fill="white"/>
<path d="M313.69 290.985L313.44 290.945L313.031 292.054L312.569 291.961L312.78 291.394L311.948 291.222L311.737 291.79L311.275 291.697L311.684 290.589L311.434 290.536L312.978 289.639L313.69 290.985Z" fill="#EBEBEB"/>
<path d="M354.402 298.295L351.683 297.741L351.828 297.372L354.547 297.913L354.402 298.295Z" fill="#EBEBEB"/>
<path d="M354.058 299.219L351.34 298.678L351.485 298.309L354.203 298.836L354.058 299.219Z" fill="#EBEBEB"/>
<path d="M353.715 300.156L350.997 299.615L351.142 299.232L353.86 299.773L353.715 300.156Z" fill="#EBEBEB"/>
<path d="M333.577 294.983L332.508 295.629L332.02 294.666L332.205 294.574L332.601 295.352L333.485 294.824L333.577 294.983Z" fill="#EBEBEB"/>
<path d="M332.192 296.448C332.015 296.419 331.846 296.349 331.7 296.245C331.553 296.141 331.432 296.005 331.346 295.848C331.26 295.69 331.21 295.515 331.201 295.336C331.192 295.156 331.224 294.977 331.294 294.812C331.44 294.439 331.71 294.128 332.059 293.931C332.407 293.734 332.813 293.663 333.208 293.73C333.385 293.759 333.553 293.829 333.7 293.933C333.846 294.037 333.967 294.173 334.054 294.33C334.14 294.488 334.19 294.663 334.199 294.842C334.208 295.022 334.176 295.201 334.105 295.366C333.959 295.739 333.689 296.05 333.341 296.247C332.992 296.444 332.587 296.515 332.192 296.448ZM333.129 293.914C332.788 293.855 332.437 293.916 332.136 294.087C331.835 294.258 331.603 294.528 331.479 294.851C331.42 294.995 331.393 295.151 331.401 295.306C331.41 295.462 331.453 295.614 331.527 295.75C331.602 295.887 331.706 296.005 331.833 296.096C331.959 296.187 332.104 296.249 332.258 296.277C332.602 296.333 332.955 296.27 333.258 296.097C333.561 295.924 333.795 295.652 333.921 295.326C333.98 295.182 334.007 295.027 333.998 294.871C333.988 294.715 333.944 294.564 333.868 294.428C333.792 294.292 333.685 294.175 333.557 294.086C333.429 293.997 333.283 293.938 333.129 293.914Z" fill="#EBEBEB"/>
<path d="M342.63 208.718L341.627 207.055L343.647 205.986L343.792 206.263L342.129 207.148L342.947 208.52L342.63 208.718Z" fill="#DBDBDB"/>
<path d="M385.413 214.854C385.381 214.933 385.323 214.998 385.249 215.039C385.174 215.08 385.088 215.094 385.004 215.078C384.966 215.074 384.93 215.06 384.898 215.039C384.867 215.018 384.84 214.989 384.822 214.955C384.804 214.921 384.794 214.884 384.794 214.846C384.793 214.807 384.802 214.769 384.819 214.735C384.849 214.658 384.905 214.593 384.977 214.552C385.049 214.511 385.134 214.496 385.215 214.511C385.253 214.516 385.289 214.53 385.321 214.551C385.353 214.573 385.379 214.601 385.398 214.634C385.417 214.667 385.429 214.704 385.431 214.742C385.434 214.78 385.428 214.819 385.413 214.854Z" fill="#DBDBDB"/>
<path d="M385.031 215.87C385.001 215.949 384.946 216.015 384.874 216.058C384.802 216.101 384.718 216.119 384.635 216.108C384.596 216.101 384.56 216.085 384.528 216.062C384.497 216.04 384.471 216.01 384.452 215.976C384.433 215.942 384.422 215.904 384.419 215.865C384.416 215.827 384.423 215.788 384.437 215.751C384.471 215.674 384.529 215.61 384.603 215.57C384.677 215.529 384.762 215.514 384.846 215.527C384.883 215.534 384.917 215.549 384.947 215.571C384.978 215.593 385.002 215.622 385.02 215.654C385.038 215.687 385.048 215.724 385.05 215.761C385.052 215.798 385.045 215.836 385.031 215.87Z" fill="#DBDBDB"/>
<path d="M384.648 216.899C384.618 216.977 384.562 217.042 384.49 217.083C384.418 217.124 384.334 217.138 384.252 217.124C384.214 217.119 384.178 217.105 384.146 217.083C384.114 217.062 384.088 217.034 384.069 217.001C384.05 216.968 384.038 216.931 384.036 216.892C384.033 216.854 384.039 216.816 384.054 216.781C384.086 216.702 384.144 216.637 384.218 216.596C384.293 216.555 384.379 216.541 384.463 216.556C384.501 216.561 384.537 216.574 384.569 216.596C384.601 216.617 384.627 216.646 384.645 216.68C384.663 216.713 384.673 216.751 384.673 216.789C384.674 216.828 384.665 216.865 384.648 216.899Z" fill="#DBDBDB"/>
<path d="M354.48 209.734C360.419 210.697 366.357 211.872 372.111 213.244C366.173 212.294 360.234 211.12 354.48 209.734Z" fill="#DBDBDB"/>
<path d="M337.866 214.181C342.156 214.807 346.411 215.653 350.614 216.715C346.324 216.089 342.069 215.243 337.866 214.181Z" fill="#DBDBDB"/>
<path d="M371.398 225.86C374.319 226.217 377.209 226.795 380.042 227.589C377.121 227.237 374.231 226.659 371.398 225.86Z" fill="#DBDBDB"/>
<path d="M371.042 226.797C373.964 227.149 376.853 227.727 379.686 228.526C376.765 228.17 373.875 227.592 371.042 226.797Z" fill="#DBDBDB"/>
<path d="M337.391 215.474C340.153 215.8 342.885 216.348 345.56 217.11C342.798 216.784 340.066 216.237 337.391 215.474Z" fill="#DBDBDB"/>
<path d="M355.312 222.93L347.289 234.345L342.643 246.922C341.002 246.646 339.443 246.003 338.086 245.039C336.728 244.076 335.607 242.817 334.805 241.358C334.004 239.899 333.544 238.277 333.459 236.615C333.374 234.952 333.668 233.292 334.316 231.759C335.663 228.326 338.148 225.46 341.354 223.639C344.561 221.818 348.296 221.153 351.934 221.756C353.111 221.982 354.248 222.378 355.312 222.93Z" fill="#FF9705"/>
<path d="M351.248 245.998C348.531 247.136 345.54 247.457 342.644 246.921L347.289 234.345L351.248 245.998Z" fill="#263238"/>
<path d="M360.261 236.918C359.463 238.972 358.249 240.838 356.696 242.401C355.142 243.963 353.283 245.188 351.234 245.998L347.275 234.345L360.3 228.446C361.344 231.176 361.33 234.198 360.261 236.918Z" fill="#37474F"/>
<path d="M362.055 227.813L347.104 234.583L356.341 221.505C358.934 222.862 360.96 225.098 362.055 227.813Z" fill="#C7C7C7"/>
<path d="M353.768 235.625C353.094 237.343 351.851 238.777 350.246 239.688C348.641 240.598 346.773 240.93 344.953 240.627C344.133 240.489 343.354 240.167 342.676 239.686C341.998 239.204 341.437 238.576 341.036 237.848C340.635 237.119 340.404 236.309 340.36 235.479C340.316 234.648 340.461 233.819 340.783 233.052C341.456 231.334 342.7 229.9 344.304 228.99C345.909 228.079 347.778 227.748 349.598 228.051C350.42 228.184 351.202 228.503 351.883 228.983C352.564 229.463 353.126 230.092 353.528 230.822C353.93 231.552 354.161 232.364 354.202 233.196C354.244 234.028 354.095 234.859 353.768 235.625Z" fill="white"/>
<path d="M369.657 226.744L368.271 226.467L368.759 225.121L370.158 225.398L369.657 226.744Z" fill="#FF9705"/>
<path d="M370.092 229.41C373.014 229.762 375.904 230.34 378.736 231.138C375.815 230.783 372.925 230.205 370.092 229.41Z" fill="#DBDBDB"/>
<path d="M369.723 230.347C372.643 230.701 375.532 231.274 378.366 232.062C375.446 231.711 372.556 231.137 369.723 230.347Z" fill="#DBDBDB"/>
<path d="M368.35 230.294L366.951 230.017L367.453 228.658L368.851 228.948L368.35 230.294Z" fill="#263238"/>
<path d="M368.772 232.96C371.699 233.311 374.593 233.889 377.429 234.689C374.504 234.332 371.61 233.754 368.772 232.96Z" fill="#DBDBDB"/>
<path d="M368.403 233.896C371.323 234.248 374.213 234.821 377.047 235.612C374.126 235.258 371.237 234.685 368.403 233.896Z" fill="#DBDBDB"/>
<path d="M367.044 233.844L365.645 233.567L366.146 232.208L367.545 232.485L367.044 233.844Z" fill="#37474F"/>
<path d="M367.466 236.509C370.386 236.861 373.276 237.434 376.109 238.225C373.189 237.871 370.3 237.297 367.466 236.509Z" fill="#DBDBDB"/>
<path d="M367.083 237.446C370.004 237.798 372.893 238.371 375.727 239.162C372.806 238.808 369.917 238.234 367.083 237.446Z" fill="#DBDBDB"/>
<path d="M365.737 237.394L364.338 237.117L364.84 235.757L366.239 236.034L365.737 237.394Z" fill="#C7C7C7"/>
<path d="M340.149 292.687L337.088 292.08L347.803 263.074L350.852 263.681L340.149 292.687Z" fill="#EBEBEB"/>
<path d="M325.515 248.439C333.749 249.851 342.353 251.567 350.443 253.401C342.208 251.976 333.591 250.274 325.515 248.439Z" fill="#263238"/>
<path d="M324.92 250.049C329.605 250.761 334.25 251.685 338.777 252.807C334.092 252.107 329.447 251.184 324.92 250.049Z" fill="#263238"/>
<path d="M360.762 255.459C364.039 255.941 367.29 256.588 370.501 257.399C367.225 256.916 363.974 256.268 360.762 255.459Z" fill="#FF9705"/>
<path d="M319.629 275.294L318.639 275.096L324.459 259.313L325.462 259.511L319.629 275.294Z" fill="#FF9705"/>
<path d="M315.379 286.814L314.376 286.603L318.124 276.455L319.127 276.666L315.379 286.814Z" fill="#455A64"/>
<path d="M326.847 269.738L325.857 269.527L329.275 260.276L330.278 260.474L326.847 269.738Z" fill="#FF9705"/>
<path d="M320.196 287.765L319.193 287.567L325.356 270.899L326.346 271.097L320.196 287.765Z" fill="#455A64"/>
<path d="M333.511 265.687L332.508 265.489L334.092 261.227L335.082 261.425L333.511 265.687Z" fill="#FF9705"/>
<path d="M325.013 288.728L324.01 288.53L332.007 266.848L333.01 267.059L325.013 288.728Z" fill="#455A64"/>
<path d="M335.57 274.12L334.567 273.922L338.895 262.19L339.898 262.388L335.57 274.12Z" fill="#FF9705"/>
<path d="M329.816 289.678L328.827 289.48L334.066 275.294L335.069 275.492L329.816 289.678Z" fill="#455A64"/>
<path d="M341.297 272.602L340.294 272.404L343.712 263.14L344.715 263.351L341.297 272.602Z" fill="#FF9705"/>
<path d="M334.633 290.641L333.63 290.444L339.793 273.776L340.783 273.974L334.633 290.641Z" fill="#455A64"/>
<path d="M342.063 284.505L341.073 284.307L348.529 264.104L349.519 264.301L342.063 284.505Z" fill="#FF9705"/>
<path d="M339.45 291.605L338.447 291.407L340.558 285.667L341.561 285.864L339.45 291.605Z" fill="#455A64"/>
<path d="M351.168 273.843L350.166 273.645L353.333 265.067L354.336 265.265L351.168 273.843Z" fill="#FF9705"/>
<path d="M344.253 292.555L343.264 292.357L349.664 275.004L350.667 275.202L344.253 292.555Z" fill="#455A64"/>
<path d="M350.205 290.43L349.202 290.232L358.149 266.017L359.152 266.228L350.205 290.43Z" fill="#FF9705"/>
<path d="M349.07 293.518L348.067 293.321L348.701 291.605L349.704 291.803L349.07 293.518Z" fill="#455A64"/>
<path d="M362.042 272.365L361.052 272.167L362.966 266.98L363.955 267.178L362.042 272.365Z" fill="#FF9705"/>
<path d="M353.887 294.481L352.884 294.27L360.538 273.525L361.541 273.737L353.887 294.481Z" fill="#455A64"/>
<path d="M329.024 254.813C331.95 255.17 334.843 255.748 337.681 256.542C334.755 256.191 331.861 255.613 329.024 254.813Z" fill="#DBDBDB"/>
<path d="M328.682 255.75C331.604 256.099 334.494 256.678 337.325 257.479C334.405 257.12 331.515 256.542 328.682 255.75Z" fill="#DBDBDB"/>
<path d="M327.296 255.697L325.897 255.42L326.398 254.074L327.797 254.351L327.296 255.697Z" fill="#FF9705"/>
<path d="M343.461 257.69C346.388 258.041 349.282 258.619 352.118 259.419C349.192 259.068 346.298 258.49 343.461 257.69Z" fill="#DBDBDB"/>
<path d="M343.119 258.627C346.039 258.978 348.929 259.552 351.762 260.342C348.842 259.988 345.953 259.415 343.119 258.627Z" fill="#DBDBDB"/>
<path d="M341.733 258.574L340.334 258.297L340.835 256.951L342.234 257.228L341.733 258.574Z" fill="#455A64"/>
<path d="M395.68 314.421C398.319 308.734 407.451 286.353 407.966 276.877C408.481 267.402 405.657 231.257 396.089 225.82C383.988 218.985 381.375 247.067 381.362 259.392C381.349 271.718 370.343 284.795 370.343 284.795L388 300.407L395.68 314.421Z" fill="#AD6359"/>
<path d="M382.919 240.086C383.069 244.186 383.007 248.291 382.734 252.385C382.753 256.28 382.48 260.17 381.916 264.024C381.063 267.759 379.596 271.327 377.575 274.581C376.611 276.204 375.569 277.762 374.46 279.292C373.352 280.823 371.887 282.539 370.726 284.228C370.607 284.399 370.303 284.228 370.422 284.043C372.429 280.857 374.223 277.542 375.793 274.119C377.49 270.606 378.744 266.896 379.528 263.074C381.058 255.473 380.926 247.608 382.391 239.993C382.418 239.69 382.919 239.782 382.919 240.086Z" fill="#263238"/>
<path d="M381.877 264.011C381.745 255.38 379.488 219.526 394.967 224.831C403.598 229.845 405.947 248.584 406.95 257.822C405.287 249.191 402.305 230.479 394.426 225.913C381.085 221.571 382.682 256.106 381.877 263.958V264.011Z" fill="#263238"/>
<path d="M282.283 316.625L358.822 379.731C358.822 379.731 318.085 441.952 290.465 459.517C277.427 467.791 250.981 467.831 242.166 464.531C233.931 461.47 187.717 415.361 153.142 332.356C126.34 267.798 169.136 283.634 185.17 300.354C202.457 318.367 248.065 364.568 250.572 363.816C253.079 363.064 282.283 316.625 282.283 316.625Z" fill="#FF9705"/>
<path d="M272.332 339.429C283.879 348.429 295.136 357.772 306.326 367.142C311.816 371.747 332.904 390.895 338.988 396.293C339.225 396.517 338.658 397.137 338.394 396.939C332.416 392.334 310.114 373.568 304.703 368.87C293.684 359.29 282.731 349.643 272.068 339.667C271.884 339.535 272.134 339.271 272.332 339.429Z" fill="#263238"/>
<path opacity="0.1" d="M282.626 463.106C268.809 467.712 249.489 467.263 242.218 464.531C233.984 461.457 187.77 415.348 153.182 332.369C138.454 297.015 144.67 285.785 155.953 285.653C172.25 308.298 240.041 403.036 282.626 463.106Z" fill="black"/>
<path d="M232.215 541.915H30.0322C39.9296 494.025 83.0557 321.534 118.224 296.026C139.853 280.322 168.371 291.209 173.28 297.913C193.22 325.441 226.422 497.866 232.215 541.915Z" fill="#EBEBEB"/>
<path d="M176.605 303.02C176.605 302.927 176.447 302.954 176.447 303.02C177.437 311.439 179.086 330.983 163.699 330.732C157.51 330.64 151.73 327.671 146.887 324.702C142.013 321.684 137.482 318.144 133.374 314.144C128.727 309.899 124.457 305.258 120.613 300.275C120.454 300.064 120.085 300.275 120.243 300.526C124.11 305.461 127.383 310.634 131.817 315.227C136.12 319.793 141.031 323.745 146.412 326.971C151.585 330.007 157.721 332.949 164.267 332.765C166.986 332.811 169.647 331.972 171.848 330.375C174.05 328.778 175.673 326.509 176.473 323.91C178.572 317.259 178.11 309.631 176.605 303.02Z" fill="#263238"/>
<path d="M124.677 289.295C124.677 289.295 138.085 360.847 140.619 387.411C143.152 413.976 135.089 541.915 135.089 541.915H26.6143C26.6143 541.915 59.4735 384.587 91.7125 323.646C109.752 289.639 124.677 289.295 124.677 289.295Z" fill="#FF9705"/>
<path d="M170.917 294.191C170.917 294.191 192.573 375.125 193.998 383.729C195.423 392.334 202.615 542.615 202.615 542.615L238.048 542.364C238.048 542.364 200.807 315.834 170.917 294.191Z" fill="#FF9705"/>
<path d="M90.7491 318.235C45.0893 379.704 -5.91506 502.695 9.80194 523.929C27.3269 547.682 90.8283 461.509 89.9177 457.141C89.2315 453.829 105.608 381.195 118.343 328.238C131.078 275.281 102.032 303.033 90.7491 318.235Z" fill="#AD6359"/>
<path d="M90.4324 457.155C91.6597 449.461 114.358 353.523 120.454 323.329C126.551 293.136 115.902 285.574 90.6172 315.992C65.3327 346.41 14.2228 443.311 6.3049 492.138C-1.33586 539.091 21.8239 535.832 49.4706 510.785C72.1025 490.238 90.4324 457.155 90.4324 457.155Z" fill="#FF9705"/>
<path d="M90.4326 457.155C97.0045 419.914 105.362 383.052 115.506 346.568C108.952 383.8 100.594 420.662 90.4326 457.155Z" fill="#263238"/>
<path d="M116.733 352.018C116.415 357.046 114.48 361.837 111.217 365.676C112.774 361.044 114.753 356.505 116.733 352.018Z" fill="#263238"/>
<path d="M9.80209 523.929C24.1994 539.395 57.3094 538.062 140.909 542.562C152.482 543.183 178.836 462.697 166.51 461.404C150.991 459.768 90.4062 456.785 86.0117 457.115C48.349 459.992 0.0366974 513.451 9.80209 523.929Z" fill="#AD6359"/>
<path d="M151.888 464.281C151.888 464.281 182.662 454.344 200.451 454.119C224.271 453.829 244.95 463.357 253.369 467.91C270.96 477.358 306.947 512.368 298.673 524.496C291.19 535.462 256.206 497.826 256.206 497.826C256.206 497.826 298.211 530.316 286.756 541.876C275.302 553.436 237.19 507.433 237.19 507.433C237.19 507.433 279.59 541.744 265.906 551.839C255.56 559.427 218.675 519.706 218.675 519.706C218.675 519.706 254.913 549.49 244.62 557.751C233.231 566.896 196.901 532.361 196.901 532.361C167.17 548.976 146.214 544.713 131.671 539.923C128.148 538.761 151.888 464.281 151.888 464.281Z" fill="#AD6359"/>
<path d="M242.403 485.659C247.471 489.301 252.63 492.944 257.368 497.021C262.105 501.099 266.685 505.348 271.013 509.848C281.636 520.88 286.558 529.445 286.202 528.957C277.638 517.212 260.931 502.353 256.193 498.275C251.456 494.197 246.956 489.908 242.245 485.831C242.126 485.725 242.284 485.54 242.403 485.659Z" fill="#263238"/>
<path d="M227.372 502.472C233.641 507.394 240.054 512.052 246.111 517.265C252.169 522.478 257.408 527.822 263.069 533.47C263.504 533.892 263.069 533.985 262.673 533.576C256.801 528.218 250.954 523.731 245.016 518.453C239.078 513.174 233.35 507.658 227.24 502.617C227.201 502.538 227.28 502.392 227.372 502.472Z" fill="#263238"/>
<path d="M211.88 514.573C221.856 521.606 230.513 530.474 238.8 539.382C239.223 539.817 238.721 539.883 238.273 539.461C229.484 531.042 222.635 524.378 211.629 514.916C211.457 514.784 211.668 514.441 211.88 514.573Z" fill="#263238"/>
<path d="M156.903 458.962L96.7798 548.395C96.7798 548.395 22.3517 541.995 9.12882 524.998C0.41915 513.807 47.7681 456.864 89.5481 456.851L156.903 458.962Z" fill="#FF9705"/>
<path d="M42.4499 476.646C48.3751 470.919 65.4118 457.141 89.5613 456.772C89.7724 456.772 89.8252 457.115 89.5613 457.141C71.6009 459.147 48.771 471.895 42.5951 476.936C42.5159 477.042 42.3311 476.791 42.4499 476.646Z" fill="#263238"/>
<path d="M75.4414 537.851C81.525 527.664 88.1496 517.806 94.8006 507.974C101.452 498.143 108.089 488.272 114.991 478.599C118.95 473.136 122.751 467.646 126.868 462.315C126.974 462.17 127.238 462.315 127.145 462.473C121.075 472.648 114.477 482.545 107.905 492.403C101.333 502.26 94.6159 512.105 87.8329 521.87C84.0059 527.373 80.0602 532.823 75.9561 538.155C75.7317 538.419 75.2303 538.142 75.4414 537.851Z" fill="#263238"/>
<path d="M156.89 457.92C152.325 457.223 147.717 456.835 143.1 456.759C138.481 456.548 133.862 456.416 129.243 456.323C120.006 456.152 100.594 454.726 83.9926 457.102C83.8078 457.102 84.8767 457.894 85.0615 457.854C92.9002 456.31 151.123 459.609 155.821 459.292C155.67 459.62 155.547 459.96 155.451 460.309C155.451 460.546 155.663 460.81 155.887 460.612C156.415 460.137 156.758 459.596 157.207 459.081C157.3 458.998 157.368 458.89 157.403 458.771C157.438 458.651 157.44 458.523 157.407 458.403C157.374 458.282 157.308 458.173 157.217 458.088C157.126 458.003 157.012 457.945 156.89 457.92Z" fill="#263238"/>
<path d="M27.9341 535.687C35.2977 537.217 45.6174 540.213 53.0074 542.14C44.318 541.585 35.8114 539.396 27.9341 535.687Z" fill="#263238"/>
<path d="M162.261 323.764C151.308 325.084 130.457 310.04 124.545 293.94C124.136 292.832 127.317 282.314 130.576 269.342C132.516 261.424 134.535 252.649 135.723 244.48C135.974 242.804 185.13 264.618 185.13 264.618C185.13 264.618 177.516 281.008 175.471 295.273C175.315 296.401 175.262 297.541 175.312 298.678C175.312 298.836 175.312 299.021 175.312 299.245C175.391 305.764 173.979 322.326 162.261 323.764Z" fill="#AD6359"/>
<path d="M175.325 298.678C175.325 298.836 175.325 299.048 175.325 299.246C173.556 299.205 171.791 299.033 170.047 298.731C139.972 293.531 137.676 254.575 137.57 244.771C146.491 247.41 185.17 264.565 185.17 264.565C185.17 264.565 177.556 280.968 175.497 295.234C175.34 296.375 175.282 297.527 175.325 298.678Z" fill="#263238"/>
<path d="M135.749 179.382C128.029 196.986 131.473 250.867 143.073 264.143C159.885 283.41 190.514 288.662 207.657 267.746C224.284 247.463 218.557 177.323 205.321 164.932C185.803 146.708 147.151 153.411 135.749 179.382Z" fill="#AD6359"/>
<path d="M183.151 219.578C183.151 219.446 182.874 219.763 182.887 219.921C183.124 223.55 182.794 227.747 179.548 229.067C179.443 229.067 179.469 229.291 179.548 229.264C183.573 228.565 183.969 222.93 183.151 219.578Z" fill="#263238"/>
<path d="M179.773 215.91C173.913 215.672 173.874 227.404 179.298 227.628C184.721 227.853 184.682 216.108 179.773 215.91Z" fill="#263238"/>
<path d="M204.199 220.291C204.199 220.146 204.476 220.463 204.476 220.608C204.344 224.237 204.806 228.433 208.092 229.647C208.198 229.647 208.184 229.872 208.092 229.845C204.054 229.238 203.447 223.683 204.199 220.291Z" fill="#263238"/>
<path d="M207.406 216.477C213.252 216.055 213.674 227.787 208.251 228.17C202.827 228.552 202.55 216.821 207.406 216.477Z" fill="#263238"/>
<path d="M175.167 210.512C176.704 210.073 178.215 209.549 179.693 208.942C181.422 208.309 182.874 207.992 184.022 206.435C184.297 205.961 184.409 205.409 184.34 204.865C184.271 204.321 184.025 203.816 183.639 203.426C181.884 201.869 179.561 202.106 177.437 202.766C175.25 203.353 173.365 204.744 172.158 206.659C171.897 207.114 171.777 207.637 171.814 208.16C171.851 208.683 172.044 209.184 172.367 209.597C172.69 210.011 173.128 210.319 173.627 210.482C174.126 210.645 174.662 210.655 175.167 210.512Z" fill="#263238"/>
<path d="M212.025 210.578C210.45 210.258 208.894 209.848 207.366 209.351C205.572 208.863 204.107 208.652 202.84 207.2C202.528 206.747 202.375 206.204 202.403 205.656C202.432 205.107 202.641 204.583 202.998 204.165C204.635 202.476 206.957 202.529 209.135 203.03C211.337 203.47 213.298 204.711 214.637 206.514C214.92 206.941 215.073 207.441 215.076 207.953C215.08 208.466 214.934 208.968 214.657 209.399C214.38 209.83 213.984 210.171 213.516 210.38C213.049 210.59 212.531 210.659 212.025 210.578Z" fill="#263238"/>
<path d="M179.693 253.282C180.564 254.14 181.435 255.315 182.755 255.42C184.124 255.413 185.475 255.107 186.714 254.523C186.833 254.523 186.951 254.602 186.872 254.708C186.351 255.421 185.646 255.98 184.833 256.326C184.02 256.672 183.129 256.792 182.254 256.674C181.517 256.468 180.856 256.053 180.35 255.479C179.844 254.905 179.515 254.197 179.403 253.441C179.258 253.282 179.535 253.19 179.693 253.282Z" fill="#263238"/>
<path d="M183.52 242.448C184.44 243.89 185.647 245.126 187.066 246.079C188.485 247.033 190.086 247.684 191.768 247.991C193.233 248.273 194.73 248.344 196.215 248.202C196.504 248.205 196.792 248.174 197.073 248.109C197.339 248.087 197.604 248.048 197.865 247.991C198.058 247.955 198.235 247.857 198.368 247.711C198.502 247.566 198.584 247.382 198.604 247.186C198.61 247.063 198.61 246.939 198.604 246.816V246.46C198.683 243.662 198.432 239.413 198.432 239.413C199.448 239.928 204.661 242.29 204.582 240.825C203.909 228.711 203.156 215.25 199.923 203.334C199.911 203.246 199.865 203.167 199.794 203.114C199.723 203.061 199.635 203.038 199.547 203.05C199.46 203.062 199.381 203.109 199.327 203.179C199.274 203.25 199.251 203.339 199.263 203.426C199.448 215.092 201.692 226.652 202.061 238.357C200.209 237.494 198.246 236.89 196.228 236.563C195.832 236.681 196.862 244.784 196.73 246.038C196.736 246.081 196.736 246.126 196.73 246.17C192.019 246.763 188.482 245.325 183.929 242.145C183.652 241.907 183.309 242.158 183.52 242.448Z" fill="#263238"/>
<path d="M194.579 246.776C193.034 248.77 191.003 250.333 188.68 251.316C187.396 251.813 185.989 251.896 184.655 251.553C181.752 250.775 181.699 248.109 182.24 245.839C182.542 244.63 182.985 243.461 183.56 242.355C186.668 244.967 190.529 246.516 194.579 246.776Z" fill="#263238"/>
<path d="M188.68 251.316C187.396 251.813 185.989 251.896 184.655 251.553C181.752 250.775 181.699 248.109 182.24 245.839C185.355 246.169 188.416 248.294 188.68 251.316Z" fill="#FF9BBC"/>
<path d="M216.38 185.255C214.796 180.702 212.685 179.778 212.685 179.778C212.685 179.778 212.685 174.434 207.908 167.585C202.867 160.419 197.35 159.482 197.35 159.482C197.35 159.482 192.785 154.309 182.333 152.343C179.931 151.894 172.66 151.775 170.456 152.686C167.817 153.728 165.177 152.356 162.419 152.303C159.91 152.256 157.42 152.737 155.109 153.715C153.152 154.527 151.342 155.655 149.751 157.054C148.814 157.912 147.933 158.829 147.111 159.799C145.898 161.175 144.274 162.123 142.48 162.504C140.4 163.15 138.482 164.229 136.851 165.672C135.22 167.114 133.913 168.886 133.018 170.871C131.868 173.355 131.247 176.051 131.197 178.788C131.065 182.206 127.488 183.803 126.142 186.706C125.123 189.016 124.808 191.574 125.235 194.062C125.662 196.55 126.813 198.857 128.544 200.695C124.084 203.888 122.421 211.027 124.809 216.662C126.657 221.017 130.524 222.957 134.43 224.026C135.15 224.222 135.888 224.341 136.633 224.382C144.631 225.702 152.469 216.913 149.632 207.412V207.332C154.019 205.962 157.858 203.236 160.598 199.546C163.633 195.588 164.623 190.309 164.663 185.03C174.705 191.365 188.628 185.123 190.409 172.23C193.273 175.371 201.481 180.675 205.268 179.488C206.905 191.074 214.506 195.324 216.512 195.324C216.776 195.403 218.175 190.454 216.38 185.255ZM144.631 221.017C146.953 218.602 148.708 215.184 149.54 207.939C150.056 210.36 149.868 212.879 148.998 215.196C148.128 217.514 146.612 219.534 144.631 221.017ZM176.302 185.677C179.374 184.718 182.169 183.032 184.45 180.762C186.732 178.492 188.432 175.706 189.406 172.639C187.611 180.53 182.491 184.661 176.342 185.677H176.302Z" fill="#263238"/>
<path d="M178.374 236.364C175.643 236.035 173.06 234.946 170.918 233.222C168.776 231.497 167.161 229.205 166.258 226.608C165.354 224.01 165.198 221.211 165.807 218.529C166.416 215.848 167.766 213.391 169.703 211.438C171.639 209.486 174.085 208.116 176.762 207.486C179.439 206.855 182.239 206.989 184.844 207.871C187.449 208.754 189.753 210.35 191.495 212.478C193.237 214.606 194.347 217.181 194.698 219.908C194.983 222.125 194.758 224.379 194.041 226.496C193.323 228.613 192.132 230.539 190.558 232.126C188.983 233.713 187.067 234.92 184.956 235.654C182.844 236.389 180.593 236.632 178.374 236.364ZM181.686 209.166C180.635 209.028 179.57 209.028 178.519 209.166C175.311 209.569 172.377 211.18 170.315 213.67C168.253 216.16 167.217 219.342 167.419 222.569C167.621 225.796 169.045 228.824 171.401 231.038C173.758 233.251 176.869 234.484 180.102 234.484C183.336 234.484 186.447 233.251 188.803 231.038C191.16 228.824 192.584 225.796 192.786 222.569C192.988 219.342 191.952 216.16 189.89 213.67C187.828 211.18 184.894 209.569 181.686 209.166Z" fill="#FF9705"/>
<path d="M212.025 236.338C206.443 235.652 202.088 229.331 202.114 221.664C202.067 218.002 203.165 214.417 205.255 211.41C206.071 210.063 207.221 208.95 208.593 208.177C209.965 207.404 211.513 206.999 213.087 206.999C214.662 206.999 216.21 207.404 217.582 208.177C218.954 208.95 220.103 210.063 220.919 211.41C222.989 214.432 224.055 218.028 223.968 221.69C223.968 229.779 219.006 236.351 212.988 236.325C212.685 236.391 212.342 236.364 212.025 236.338ZM213.846 209.035C213.595 209.021 213.344 209.021 213.094 209.035C211.841 209.086 210.619 209.438 209.53 210.06C208.442 210.682 207.518 211.557 206.839 212.611C204.992 215.284 204.027 218.468 204.081 221.716C204.081 228.724 208.039 234.451 212.988 234.464C217.937 234.477 221.975 228.803 222.015 221.796C222.109 218.551 221.186 215.358 219.375 212.664C218.761 211.703 217.951 210.884 216.998 210.258C216.046 209.633 214.971 209.216 213.846 209.035Z" fill="#FF9705"/>
<path d="M194.209 221.61L192.89 220.106C195.133 218.245 200.293 215.751 203.856 219.605L202.418 220.924C199.237 217.48 194.368 221.439 194.209 221.61Z" fill="#FF9705"/>
<path d="M128.729 225.108L127 224.197C127.422 223.392 131.262 216.28 135.644 215.567C139.748 214.934 165.996 217.507 167.17 217.612L166.972 219.566C159.437 218.827 139.128 217.005 135.96 217.507C133.057 217.956 129.758 223.155 128.729 225.108Z" fill="#FF9705"/>
<path d="M143.97 224.567C143.97 224.567 133.677 206.303 125.495 209.813C117.314 213.323 123.899 238.964 132.674 243.24C133.761 243.866 134.964 244.266 136.21 244.415C137.455 244.564 138.719 244.46 139.923 244.109C141.127 243.758 142.248 243.166 143.218 242.37C144.188 241.575 144.987 240.591 145.567 239.479L143.97 224.567Z" fill="#AD6359"/>
<path d="M127.581 217.124C127.553 217.124 127.526 217.133 127.504 217.149C127.481 217.165 127.464 217.188 127.456 217.214C127.447 217.241 127.446 217.269 127.455 217.295C127.463 217.322 127.479 217.345 127.502 217.362C133.638 220.568 136.422 226.81 138.177 233.197C136.515 230.65 134.047 229.093 130.669 231.046C130.484 231.152 130.669 231.429 130.801 231.403C131.963 231.161 133.172 231.285 134.261 231.758C135.35 232.23 136.266 233.028 136.884 234.042C137.913 235.736 138.753 237.537 139.392 239.413C139.629 240.007 140.711 239.809 140.54 239.123V238.977C141.424 230.848 136.238 218.787 127.581 217.124Z" fill="#263238"/>
</svg>
